<svg width="1200" height="747" viewBox="0 0 1200 747" fill="none" xmlns="http://www.w3.org/2000/svg">
<path d="M240 447.5C259.2 423.5 243.333 386.5 233 371C212 347.5 187 380 161.5 380.5C136 381 122 414 141 443.5C160 473 216 477.5 240 447.5Z" fill="#B5F0F2"/>
<path d="M788.5 279C780.9 293.8 763.333 302.833 755.5 305.5C726.5 318.5 712 270 700.5 258C689 246 708 217.5 748 214C788 210.5 798 260.5 788.5 279Z" fill="#B5F0F2"/>
<path d="M394 475.5C360 442 320.735 489.039 304.5 468.5C262.211 415 372.401 361.34 423.5 405.5C464 440.5 490.5 434 488 468.5C485.5 503 434.674 515.576 394 475.5Z" fill="#B5F0F2"/>
<path d="M983.5 247C976.7 220.6 969 177.167 961 167.5C905.5 105.5 899 208 874.5 204C823.551 195.681 806 266.5 858 275C905.044 282.69 904.5 286 944 297.5C983.5 309 992 280 983.5 247Z" fill="#B5F0F2"/>
<path d="M907.5 329C855.5 329 831.5 343.333 826 350.5C801.5 391 842.5 387.5 900 410.5C957.5 433.5 975.332 480.657 995.5 488.5C1031.5 502.5 1039 436 1021 404C1003 372 972.5 329 907.5 329Z" fill="#B5F0F2"/>
<path d="M202 255.5C168.8 371.1 58.5 387.5 0 379.5V0.500056H438.5C438.5 0.500056 453.1 5.34058e-05 405.5 52.0001C346 117 243.5 111 202 255.5Z" fill="#B5F0F2"/>
<path d="M405.5 648C320.3 658.8 300 708.667 302 747H943.5C936.833 731.167 928.7 708.5 873.5 626.5C804.5 524 672 535.5 607 581C542 626.5 512 634.5 405.5 648Z" fill="#B5F0F2"/>
<path d="M992 111C982.4 33.4001 847.833 14.8334 784 0.500056L1199.5 0.500004V324.5C1199.5 324.5 1206 335.3 1138 316.5C1053 293 1004 208 992 111Z" fill="#B5F0F2"/>
<path d="M266.5 637.5C235.7 638.7 216.333 622.667 210.5 614.5C182.5 591.5 190.5 509.5 227 496C263.5 482.5 275.5 522 318 522C357.5 522 372.5 581 339 595C305.5 609 305 636 266.5 637.5Z" fill="#B5F0F2"/>
</svg>
