<?xml version="1.0" encoding="UTF-8"?><svg id="Layer_1" xmlns="http://www.w3.org/2000/svg" xmlns:xlink="http://www.w3.org/1999/xlink" viewBox="0 0 1150 1100"><defs><style>.cls-1{fill:#fff9f4;}.cls-2{fill:#fbdd84;}.cls-3{fill:#fbf3ed;}.cls-4{fill:#6b615b;}.cls-5{fill:#cda8ac;}.cls-6{fill:#da9694;}.cls-7{fill:#a87575;}.cls-8{fill:gray;}.cls-9{fill:#3b3632;}.cls-10{fill:#fff;filter:url(#drop-shadow-2);}</style><filter id="drop-shadow-2" filterUnits="userSpaceOnUse"><feOffset dx="15" dy="15"/><feGaussianBlur result="blur" stdDeviation="15"/><feFlood flood-color="#000" flood-opacity=".5"/><feComposite in2="blur" operator="in"/><feComposite in="SourceGraphic"/></filter></defs><path class="cls-10" d="m548.84,929.72c-4.14,0-8.22-.15-12.14-.45-22.6-1.73-45.55-14.61-58.48-32.81-17.83-25.11-19.33-56.75-3.99-82.77-1.22.54-2.45,1.04-3.7,1.49-8.02,2.89-16.56,4.36-25.38,4.36-7.28,0-14.49-1.01-21.39-2.92-.14.11-.28.22-.42.33-.33.25-.66.5-.99.75.74,3.2,1.31,6.43,1.7,9.66,4,32.91-14.67,63.17-46.47,75.29-13.25,5.05-25.4,5.63-33.4,5.63-1.09,0-2.14-.01-3.15-.03-11.56,6.63-24.74,10.34-38.83,10.76-4.62.14-9.25.33-14.16.54-8.89.37-18.09.75-27.58.81h-.39c-21.1,0-41.05-10.45-54.73-28.67-14.14-18.84-19.01-42.41-13.01-63.04,1.98-6.8,3.56-13.55,4.74-20.11v-.02c-.28-3.47-.7-8.71-.25-14.93,1.22-17.02-.6-31.61-5.58-44.52-.72-.93-1.83-2.27-2.7-3.32-2.44-2.95-5.47-6.62-8.48-10.99-3.51-5.08-6.57-9.93-9.53-14.63-.37-.59-.75-1.18-1.12-1.78-5.88,8.04-12.26,14.13-17.34,18.31-8.51,7.01-25.25,20.78-49.3,24.83-2.28.79-4.87,1.52-7.79,2.07-2.94.56-7.51,1.22-12.58,1.22-19.63,0-36.73-9.98-45.77-26.7-8.65-16.03-8.95-35.97-.77-52.06,2.11-4.14,4.23-7.86,6.11-11.15,1.85-3.24,3.6-6.29,4.56-8.46.47-1.05.71-1.75.81-2.1,1.81-20.23,7.88-38.12,18.09-53.41.03-32.92,4.38-62.24,13.21-89.24,3.92-11.98,9.04-22.41,13.56-31.61,1.57-3.19,3.06-6.24,4.39-9.11.56-1.72,1.44-4.39,2.77-7.46.96-2.22,1.95-4.62,2.99-7.16,3.1-7.54,6.6-16.08,11.54-24.92,9.96-17.83,19.66-33.88,29.68-49.06,8.36-12.67,17.9-23.33,28.35-31.68,9.04-7.22,18.16-11.99,25.49-15.82,2.22-1.16,4.31-2.25,6.07-3.24,2.23-1.26,4.22-2.22,5.65-2.88,17.81-11.39,35.73-17.29,54.03-22.79,3.83-1.15,7.78-2.43,11.96-3.79,8.06-2.62,16.4-5.32,25.53-7.64,11.7-2.97,25.72-6.18,40.97-7.43,15.58-1.27,33.76-2.62,52.38-2.62,3.58,0,7.13.05,10.56.15,14.33.42,27.53,2.19,40.29,3.89,5.53.74,10.76,1.44,15.83,1.99,26.07,2.85,52.97,8.27,82.24,16.57.11.03.21.06.32.09.04-.56.1-1.13.16-1.7,2.34-21.68,16.24-35.3,21.48-40.43,1.07-1.05,2.14-2.11,3.21-3.17,4.99-4.95,10.64-10.55,17.35-16.04,8.27-6.76,16.66-10.66,22.2-13.24l.97-.45c20.24-9.46,42.25-14.05,67.3-14.05,3.98,0,8.12.12,12.3.35,7.8.44,15.46,1.47,22.95,3.08,11.08-11.57,22.69-21.7,35.06-30.62,4.26-3.07,7.74-5.64,10.89-8.18,16.56-13.38,36.44-20.85,59.06-22.19,2.88-.17,5.81-.26,8.69-.26,24.34,0,48.06,6.24,68.57,18.05,17.44,10.04,30.88,22.94,42.72,34.52,6.37-3.1,13.26-5.75,20.63-7.96,18.04-5.39,35.26-8.42,51.18-9,1.18-.04,2.37-.07,3.56-.07,13.86,0,28.11,2.81,44.83,8.83,12.54,4.52,22.84,10.5,31.94,15.78,1.41.82,2.82,1.64,4.23,2.44,16.95,9.68,27.5,28.72,27.54,49.67,0,5.98-.92,11.94-2.69,17.63,6.35,30.68-7.14,55.46-14.03,68.13-15.48,28.45-42.56,45.1-76.25,46.9-1.51.08-3.05.12-4.55.12-7.95,0-15.63-1.11-22.93-3.24-1.6,5.2-3.36,10.23-5.28,15.16-.34.87-1.03,3.45-1.54,5.34-1.56,5.8-3.7,13.75-7.77,22.2-7.42,15.38-15.4,30.82-23.8,46.01,2.07,8.68,3.83,17.91,4.57,27.7,1.71,22.51-3.63,55.35-38.79,83.92l-1.23,1c-7.04,5.75-17.68,14.44-32.38,19.41-6.38,2.16-13.17,3.25-20.2,3.25s-13.09-1.11-17.03-1.85c-.57-.11-1.14-.22-1.7-.31-1.14-.13-2.35-.3-3.61-.53-3.59,1.85-7.3,3.43-11.08,4.71-8.98,13.96-18.58,26.79-27.9,39.25-2.4,3.2-4.79,6.4-7.17,9.61-9.5,12.83-19.42,25.34-28.78,37.06-11.52,14.43-24.92,23.79-35.68,31.32l-1.24.87c-15.89,11.12-32.63,19.44-49.91,24.83-.18.87-.37,1.74-.56,2.62-.5,2.33-.47,5.03.08,8.16,14.16,19.5,14.83,39.89,15.19,51.1.03.95.06,1.91.1,2.86,1.04,23.45-11.35,44.61-32.33,55.22-7.38,3.73-18.76,8.93-32.38,11.04-5.88.91-11.43,1.38-16.6,1.7-8.07,5.65-18.62,10.27-32.36,12.27-13.59,1.97-26.97,3.74-41.41,3.74Z"/><path d="m701.07,354.93c-10.14.44-19.69.93-29.24,1.22-3.14.1-4.5,1.07-5.05,4.48-2.02,12.58-16.5,23.36-29.22,21.21-7.82-1.32-15.48-3.96-22.96-6.68-2.55-.93-4.7-3.65-6.46-5.98-6.4-8.47-9.06-17.9-7.35-28.63.37-2.34-1.1-5.3-2.44-7.55-6.23-10.45-6.03-13.4,2.46-21.72,5.63-5.52,11.13-11.24,17.22-16.21,3.7-3.03,8.31-5.05,12.7-7.11,17.66-8.25,36.43-10.16,55.62-9.08,11.02.62,21.7,2.98,31.89,7.31,1.02.43,2.03.98,2.9,1.66,5.37,4.23,5.86,3.88,10.35-1.84,13.04-16.64,27.73-31.63,44.94-44.04,4.42-3.19,8.82-6.41,13.05-9.83,8.96-7.23,19.1-10.5,30.62-11.18,17.67-1.05,34.67,2.77,49.35,11.21,13.32,7.66,24.7,19.12,35.85,30.01,9.26,9.04,16.96,19.68,25.3,29.65.7.84,1.04,1.99,1.76,3.41,1.46-1.78,2.06-2.26,2.34-2.89,7.33-16.25,21.51-24.32,37.35-29.05,12.52-3.74,25.71-6.47,38.7-6.94,9.82-.36,20.19,2.45,29.61,5.84,9.91,3.57,19.08,9.32,28.31,14.59,1.54.88,2.34,4.17,2.34,6.34,0,2.09-.96,4.66-2.39,6.2-5.09,5.47-2.89,10.67-.71,16.52,5.36,14.39-.89,26.82-7.55,39.06-7.55,13.88-19.96,20.06-34.99,20.86-12.53.67-22.41-5.28-28.89-15.91-2.27-3.72-3.83-3.7-7.53-2.34-8.75,3.21-17.79,5.65-27.76,8.73.23-.87-.03-.21-.11.48-2.21,18.05-5.71,35.76-12.38,52.81-3.06,7.83-4.16,16.51-7.78,24.02-8.47,17.57-17.56,34.88-27.18,51.85-3.69,6.51-4.18,12.22-2.33,19.2,2.45,9.23,4.73,18.69,5.45,28.17,1.33,17.48-7.43,30.73-20.46,41.32-5.61,4.56-11.46,9.61-18.08,11.85-5.07,1.71-11.52-.62-17.34-1.23-.46-.05-.82-.77-1.3-1.04-14.84-8.27-12.69-7.87-25.4,2.24-3.58,2.85-8.11,5.17-12.55,6.13-8.98,1.93-14.73,6.04-19.87,14.41-10.95,17.81-23.93,34.4-36.4,51.25-8.94,12.08-18.28,23.86-27.66,35.61-7.34,9.19-16.98,15.74-26.51,22.41-13.22,9.25-27.47,16.21-43.18,20.01-3.61.87-7.36,1.19-11.05,1.77-6.91,1.08-10.14,4.38-11.44,11.3-1.57,8.32-3.26,16.62-5.03,24.89-2.62,12.28-1.54,24.42,1.83,36.32,1.08,3.81,3.39,7.49,5.9,10.62,6.7,8.34,6.16,18.03,6.6,27.83.2,4.57-2.25,7.03-4.95,8.4-5.49,2.78-11.43,5.31-17.46,6.25-9.23,1.43-18.68,1.38-28.02,2.06-1.52.11-4.07.33-4.33,1.11-2.66,7.81-9.89,9.81-16.15,10.72-14.07,2.04-28.49,3.99-42.54,2.92-7.62-.58-17.16-5.75-21.53-11.9-5.58-7.86-7.55-18.73-1.53-28.69,3.98-6.59,7.17-13.71,11.64-19.93,4.36-6.05,2.05-12.26,1.57-18.2-.85-10.47-2.65-20.89-4.61-31.23-1.63-8.6-6.99-14.99-12.98-21.33-6.48-6.86-11.49-15.09-17.12-22.74-2.64-3.59-5.23-7.21-8.48-11.7-2.2,2.69-4.06,4.88-5.82,7.14-4.39,5.61-8.95,11.11-13,16.96-1.68,2.42-3.03,5.59-3.12,8.47-.24,7.49-6.65,19.96-11.95,21.87-9.62,3.47-22.46.21-28.75-6.89-1.13-1.27-3.76-2.11-5.46-1.81-4.79.86-9.57,2.12-14.12,3.83-1.99.75-3.88,2.73-5.02,4.63-7.45,12.39-12.11,14.22-26.22,11.03-6.75-1.53-7.48-7.72-9.65-12.12-2.46-4.99-6.26-3.12-9.49-3.75-.55-.11-2.37,3.64-2.77,5.76-2.39,12.72,2.24,24.27,7.16,35.43,2.23,5.06,7.53,8.71,10.21,13.66,2.54,4.7,4.3,10.16,4.94,15.46,1.26,10.32-4.59,18.71-14.65,22.54-10.18,3.88-20.84,1.65-31.28,2.25-.9.05-1.86-.98-2.96-1.6-6.36,8.24-14.68,12.16-24.83,12.47-13.52.41-27.03,1.24-40.54,1.32-12.32.08-22.88-17.18-19.81-27.75,2.76-9.51,5-19.22,6.58-28.99.86-5.32-.63-10.98-.23-16.43,1.71-23.76-.88-47.03-9.96-69-3.33-8.04-10.45-14.47-15.54-21.84-4.57-6.62-8.71-13.53-13.09-20.28-8.58-13.2-9.42-29.03-14.63-43.38-1.45-4-1.32-8.55-2.16-12.79-4.53-22.98-5.67-46.05.57-68.8,4.16-15.18,10-29.9,14.73-44.94,3.21-10.22,5.82-20.62,8.67-30.96.93-3.4,1.75-6.83,3.06-11.98-3.77,3.73-6.6,6.21-9.06,9.02-19.86,22.73-37.29,47.22-52.34,73.36-8.37,14.55-15.39,29.94-17.3,46.7-1.35,11.86-.18,24-.19,36.01,0,14.9.18,30-6.32,43.74-2.86,6.06-7.64,11.75-12.84,16.03-8.49,6.99-17.47,13.84-29.32,14.52-1.8.1-3.48,1.51-5.31,1.86-1.7.32-4.64.64-5.04-.12-.82-1.51-.97-4.11-.19-5.64,3.75-7.37,8.37-14.31,11.74-21.83,2.47-5.52,4.43-11.61,4.94-17.58,1.21-14.4,5.59-27.09,15.64-37.77,1.79-1.9,3.01-5.24,2.91-7.85-1.05-29.39,1.36-58.45,10.51-86.45,4.18-12.79,11.04-24.69,16.61-37.03.99-2.19,1.5-4.59,2.46-6.8,4.01-9.25,7.43-18.84,12.32-27.6,8.71-15.61,17.91-30.98,27.76-45.9,4.91-7.44,10.91-14.62,17.83-20.15,7.44-5.95,16.53-9.84,24.92-14.58,2.13-1.2,4.52-1.99,6.55-3.34,13.16-8.77,27.99-13.48,42.94-17.98,11.83-3.55,23.46-7.82,35.42-10.85,10.73-2.73,21.71-5.15,32.71-6.05,19.09-1.56,38.31-2.89,57.42-2.33,17.43.51,34.77,3.72,52.16,5.62,25.13,2.74,49.68,8.06,74.01,14.97,13.87,3.94,28.38,5.57,42.49,8.73,11.2,2.51,22.11,6.42,33.37,8.51,18.99,3.53,38.2,5.93,57.25,9.18,12.01,2.05,23.9,4.8,35.84,7.24.74.15,1.48.33,2.22.44,6.73,1.03,7.48.22,6.1-6.21-2.18-10.12-4.4-20.24-6.35-30.41-.51-2.67-.08-5.51-.08-8.24Zm89.08,245.3c-8.24-5.06-15.05-8.54-21.05-13.08-7.88-5.96-13.81-13.81-16.16-23.58-.82-3.39-2.02-3.74-4.9-3.53-3.7.27-8.18,1.34-11.04-.24-11.87-6.57-26.38-19.76-22.57-38.46,1.14-5.61,3.67-10.95,5.61-16.4,1.22-3.42,3.98-7,3.56-10.18-3.26-25.19-7.04-50.32-10.96-75.42-.32-2.06-2.6-5.02-4.44-5.44-8.57-1.93-17.26-3.83-26-4.42-20.55-1.38-40.91-3.37-60.87-8.85-17.41-4.78-35.07-8.67-52.5-13.39-14.32-3.88-28.45-8.47-42.7-12.61-29.78-8.66-60.62-11.62-91.04-16.83-1.14-.19-3.27,1.01-3.74,2.08-4.06,9.29-7.15,19.08-11.89,27.99-5.33,10.03-10,20.53-18.76,28.58-17.86,16.4-32.06,35.72-44.04,56.82-7.79,13.72-16.17,27.15-24.89,40.3-6.51,9.82-15.66,17.01-25.39,23.77-10.42,7.23-20.95,12.72-33.93,13.53-19.59,1.22-38.71,0-56.93-7.95-3.07-1.34-5.36-.94-6.27,2.27-3.38,11.89-10.17,22.86-10.12,35.67.03,9.6.07,19.23.85,28.79.69,8.48,2.4,16.88,3.71,25.61,5.56-5.57,9.59-11.22,15.03-14.64,6.54-4.11,14.11-8.27,21.53-8.91,11.42-.98,23.2.34,34.65,1.96,10.83,1.53,21.54,4.3,32.12,7.22,15.1,4.17,23.87,15.68,30.96,28.64,5.52,10.09,10.21,20.55,11.95,32.1.54,3.59,1.37,7.14,2.12,10.99,7.48-7.02,14.49-13.11,20.94-19.74,13.07-13.44,29.57-17.31,47.3-16.72,18.13.61,35.13,5.97,50.83,15.2,1.92,1.13,4.42,1.75,5.69,3.37,2.82,3.6,4.91,7.76,7.52,11.54,9.16,13.28,18.42,26.49,27.64,39.73.53.76.88,1.66,1.46,2.37,3.85,4.75,7.69,9.51,11.64,14.17,2.16,2.55,5.02,4.63,6.71,7.43,10.96,18.28,14.47,38.21,12.28,59.25-.64,6.13.62,7.65,6.8,8.02,10.21.61,20.2,2.1,29.16,7.59,1.02.63,2.34.78,4.57,1.49-.22-4.07-.34-7.36-.59-10.65-.31-4.1-1.01-8.18-1.05-12.28-.14-14.03,5.4-26.52,11.65-38.55,4.21-8.1,9.54-15.66,14.79-23.18,2.98-4.27,6.72-8.01,10.25-11.86.94-1.03,2.31-2.18,3.58-2.31,8.46-.86,16.94-1.5,25.42-2.12,3.95-.29,4.13-2.14,2.81-5.33-2.15-5.22-4.21-10.5-5.91-15.88-5-15.84-1.41-31.78,3.77-46.19,3.79-10.53,11.8-20.38,22.24-27.18,8.49-5.53,16.79-10.92,26.46-14.51,11.73-4.35,23.53-5.15,35.52-3.64,13.93,1.76,25.55,9,36.93,18.42,6.97-10.89,13.67-21.38,19.71-30.82Zm80.67-351.01c-5.12-3.48-9.34-5.95-13.11-8.98-13.35-10.71-28.52-11.25-44.52-8.94-8.82,1.28-14.42,7.51-21.41,11.75-15.12,9.16-26.15,22.67-37.98,35.14-10.29,10.86-18.77,23.48-27.68,35.59-5.91,8.03-12.08,16.21-11.17,27.1,1.82,21.7,3.26,43.44,5.77,65.06,2.73,23.51,6.49,46.91,9.83,70.35.56,3.95,1.22,7.88,1.83,11.82,10.56-4.87,20.04-9.95,30.03-13.59,6.95-2.53,14.74-2.61,21.93-4.61,15.22-4.22,30.82-4.62,46.39-5.17,10.29-.36,20.27.84,30.35,4.09,13.23,4.27,26.26,8.64,38.04,16.07,3.09,1.95,4.51,1.45,6.03-1.69,3.04-6.25,6.59-12.24,9.54-18.53,3.38-7.19,6.33-14.59,9.47-21.89-.42-.41-.83-.82-1.25-1.23-6.39,1.9-12.71,4.09-19.19,5.62-10.68,2.53-21.28,1.41-31.84-1.28-7.62-1.94-15.75-2.48-22.92-5.41-13.53-5.54-23.11-16.58-30.66-28.39-6.66-10.42-12.6-22.24-15.04-34.21-4.32-21.26-3.54-43.06,1.12-64.48,5.81-26.68,21.64-45.52,45.77-57.46,5.94-2.94,12.71-4.21,20.64-6.73ZM252.39,538.61c17.92.12,33.91-5.47,48.58-15.72,13.98-9.76,23.26-23.39,32.01-37.48,6.14-9.89,11.03-20.7,18.05-29.89,14.57-19.07,30.47-37.11,45.28-56,8.47-10.81,15.67-22.52,17.14-36.8.41-3.97-.22-6.16-4.84-5.9-8.28.46-16.61.3-24.87,1.02-21.41,1.87-42.81,3.79-64.16,6.22-22.99,2.62-43.76,12.08-64.37,21.95-9.67,4.63-15.26,11.87-16.79,22.37-.68,4.66-1.16,9.35-1.85,14-2.79,18.81-4.93,37.76-8.67,56.38-2.91,14.53-7.71,28.68-11.93,42.93-1.13,3.82-1.59,6.15,2.79,8.65,10.54,6.01,21.76,8.13,33.64,8.27Zm559.73-188.57c-.59,16.7,3.92,31.76,12.02,46.43,8.34,15.09,17.78,27.41,35.22,33.1,19.67,6.42,39.22,8.91,59.42,4.57,6.62-1.42,12.06-4.79,13.9-12.28,4.95-20.09,10.68-40.01,14.96-60.23,1.46-6.89,1-15-1.25-21.65-2.71-8-7.48-15.66-12.77-22.36-11.51-14.59-24.58-27.98-35.73-42.83-8.25-10.99-16.92-15.19-30.93-12.32-19.63,4.03-34.82,12.89-43.56,31.14-2.64,5.51-3.72,11.76-5.61,17.65-4.05,12.63-5.79,25.59-5.68,38.79Zm-503.3,459.21c1.03-13.24,2.13-26.87,3.14-40.51.62-8.32-.53-17.18,6.01-23.85,8.47-8.64,15.9-17.98,22.1-28.4,3.01-5.07,5.57-9.65,3-15.76-1.57-3.74-2.48-7.8-3.3-11.8-3.59-17.67-13.01-32.02-26.02-43.92-4.82-4.41-11.02-7.99-17.22-10.09-15.15-5.15-31.16-4.35-46.93-5-9.34-.38-18.45.32-26.9,4.75-9.71,5.08-15.45,16.9-11.52,25.45,5.08,11.04,10.74,21.85,16.68,32.46,5.17,9.25,10.78,18.29,16.71,27.07,13.74,20.33,15.02,43.15,14.15,66.53-.3,8.16-.05,16.34-.05,24.92,8.85-3.01,16.89-7.68,25.09-7.98,8.1-.3,16.37,3.83,25.05,6.14Zm593.85-283.79c1.05-24.88-6.9-35.34-28.43-41.92-17.04-5.2-35.52-6.88-53.46-7.56-18-.69-35.59,4.58-53.06,9.14-12.19,3.18-22.42,9.63-32.13,17.16-2.14,1.66-4.33,4.04-5.13,6.53-6.85,21.32,6.89,41.79,29.22,40.16,11.98-.87,23.87-2.43,35.79.89,10.58,2.94,21.53,4.67,31.97,8.01,10.85,3.47,21.05,9.05,31.97,12.22,12.75,3.7,23.85-2.21,31.64-11.44,7.74-9.17,12.73-20.49,11.63-33.2Zm-526.68,227.49c-.61,2.87-1.16,4.84-1.44,6.85-.82,6.07,5.08,12.14,10.27,10.16,5.14-1.97,9.47-5.06,11.25-11.02.64-2.16,3.13-4.63,5.29-5.32,8.4-2.66,17.05-4.52,25.52-6.95,3.53-1.01,5.16-.72,5.51,3.5.41,4.88,6.82,8.91,12.51,8.51,4.25-.3,9.05-5.43,8.94-10.09-.2-8.23,2.2-13.98,9.03-20.08,7.81-6.97,12.27-17.69,18.1-26.84.39-.62.39-2.01-.04-2.55-5.3-6.71-9.9-14.24-18.39-17.54-5.03-1.96-10.19-3.57-15.3-5.3-13.41-4.54-27.26-5.34-41.09-3.53-7.37.97-14.79,3.23-21.62,6.22-5.66,2.47-12.01,5.8-15.37,10.61-8.57,12.3-15.59,25.67-23.35,38.54-2.38,3.95-5.15,7.66-7.55,11.2,9.89,12.4,24.03,11.39,37.73,13.63Zm280.06-61.72c1.39,5.3,3.98,15.81,7.06,26.17.4,1.36,3.56,3.12,4.99,2.78,20.84-4.9,39.43-14.84,54.17-29.98,13.84-14.22,25.46-30.6,38.12-45.98,2.23-2.71,1.93-4.18-1.19-6.11-16.86-10.41-34.32-12.08-54.1-9.07-26.1,3.98-47.79,33.09-49.04,62.19ZM230,398.41c-2.12.63-3.38.81-4.45,1.35-20.79,10.54-35.65,26.82-45.49,47.73-4.92,10.45-9.02,21.29-13.81,31.81-8.49,18.63-20.53,35.58-25.72,55.8-3.17,12.37-7.53,24.43-10.76,36.79-2.18,8.36-3.98,16.94-4.75,25.52-.81,9.01-.18,18.14-.18,27.81,3.1-1.34,7.66,1.94,7.8-4.29.12-5.07.24-10.21,1.14-15.18,2.45-13.47,2.83-28.04,8.55-40.03,10.07-21.14,22.9-41.07,35.75-60.75,7.46-11.42,17.89-20.87,25.72-32.08,7.93-11.35,19.78-20.33,20.29-36.5.4-12.44,3.74-24.79,5.9-37.98Zm57.41,459.71c16.48.18,30.19-9.65,30.19-23.1,0-3.13-.48-5.02-2.8-7.22-4.77-4.52-10.74-6.43-16.31-9.39-11.85-6.3-22.17-2.6-32.59,2.48-2.88,1.4-4.77,4.74-7.55,6.5-6.57,4.18-10.25,12.1-8.25,19.49.32,1.17,1.87,2.1,2.98,2.96,11.15,8.58,24.69,6.49,34.31,8.28Zm271.11,9.76c5.09-.85,12.76-1.71,20.21-3.47,13.33-3.15,14.94-4.41,9.21-17.28-1.59-3.56-2.49-6.86-6.72-8.17-2.57-.8-4.81-2.62-7.31-3.72-5.25-2.32-10.43-5.77-15.89-6.35-6.34-.68-13.14.52-19.43,2.13-14.06,3.6-16.25,16.96-8.89,26.94,6.42,8.72,16.31,9.71,28.83,9.93Zm388.35-554.75c.84-.4,1.45-.53,1.81-.9,18.11-18.68,39.97-28.52,66.16-27.36,11.8.52,22.75,4.01,31.12,13.14,1.91,2.08,3.94,2.4,5.49-.33,2.55-4.52,4.92-9.13,7.83-14.58-4.81-2.03-8.65-3.83-12.61-5.3-13.65-5.08-27.43-10.17-42.33-7.41-12.35,2.28-24.78,4.65-36.72,8.41-6.91,2.17-13.59,6.39-19.2,11.09-9.08,7.6-9.07,13.72-1.55,23.25Zm14.2,30.41c5.41-1.16,10.85-1.55,15.62-3.53,8.77-3.64,18.52-6.19,20.3-18.42,1.04-7.14,7.98-10.1,14.05-12.73,2.99-1.3,4.13.81,3.72,3.64-.3,2.09-.82,4.14-1.25,6.21.5.5.99,1.01,1.49,1.51,7.44-3.72,14.89-7.45,22.95-11.48-3.41-1.64-5.8-3.26-8.45-3.98-9.37-2.55-18.85-6.83-28.23-6.7-17.57.24-31.95,10.04-45.38,20.59-3.52,2.77-4.24,6.91-1.84,11.24,2.36,4.27,4.47,8.68,7.01,13.67Zm-329.47,463.02c-4.04-21.8-4.01-42.85,6.32-63.42-4.96.21-10.15-.08-12.76,2.37-11.14,10.42-20.69,21.88-25.83,37-3.55,10.44-6.85,20.43-5.56,31.46,12.53-2.46,24.93-4.89,37.84-7.41Zm-20.48-476.97c2.27-1.49,4.9-2.71,6.89-4.6,8.53-8.04,18.64-12.27,29.92-15.46,20.52-5.82,40.13-1.44,59.85,2.93,3.76.83,5.57.7,6.96-2.84.68-1.73,1.71-3.35,2.75-4.91,2.18-3.31,1.22-5.31-2.5-6.04-12.08-2.37-24.09-5.27-36.27-6.83-17.03-2.18-32.41,4-47.53,11.04-8.52,3.97-16.07,8.85-21.81,16.43-3.07,4.05-2.23,7.14,1.75,10.29Zm8.11,8.32c10.8,2.88,20.46,3.38,30.87.37-1.43-1.88-3.02-3.02-3.09-4.25-.16-2.83.42-5.71.7-8.57,2.11.36,4.23.63,6.32,1.1,6.82,1.51,7.51,8.12,10.59,12.75,1.07,1.61,2.43,3.93,3.96,4.19,10.31,1.76,21.06,2.41,29.95-3.56,4-2.69,5.61-9.17,7.74-14.17.3-.69-2.44-3.59-4.16-4.06-5.42-1.5-11.03-3.26-16.55-3.22-13.3.09-26.68.41-39.85,2.03-10.69,1.31-19.3,7.43-26.49,17.4Zm-276.96,424.52c.72-.24,1.43-.48,2.15-.72-1.28-1.78-2.42-3.7-3.88-5.31-1.38-1.52-3.24-2.59-4.67-4.07-5.05-5.23-8.4-5.07-10.67,1.83-2.19,6.67-3.07,13.87-3.81,20.91-1.2,11.39-1.87,22.83-2.61,34.26-.1,1.49.32,3.36,1.24,4.44.44.52,2.75-.08,3.91-.71,6.25-3.42,12.31-7.19,18.62-10.48,3-1.57,3.78-3.43,3.37-6.71-1.39-11.12-2.46-22.28-3.66-33.43Zm280.55,57.63c-7.19,1.28-14.44,2.32-21.56,3.92-7.26,1.63-7.93,2.96-6.49,10.15.66,3.32,1.68,6.57,2.28,9.89.93,5.14,3.88,7.22,9.05,7.24,6.53.02,13.05.57,19.58.87,6.98.32,16.5-4.54,17.15-10.04.44-3.75-1.45-8.16-3.35-11.72-3.4-6.39-7.91-11.77-16.65-10.31Zm-527.15-117.5c2.65-1.23,3.64-1.62,4.55-2.13,10.59-5.9,18.32-14.9,25.4-24.35,6.11-8.15,9.48-17.48,8.01-27.99-.7-4.99-5.08-9.34-9.92-10.26-5.69-1.09-7.24,3.41-8.76,6.96-3.31,7.69-6.29,15.56-8.81,23.55-2.43,7.68-4.01,15.63-6.19,23.39-.89,3.15-2.39,6.13-4.27,10.84Zm243.55,141.22c.07.37.13.75.2,1.12,7.17-1.3,14.39-2.38,21.47-4.07,1.85-.44,3.76-2.48,4.76-4.28,1.77-3.16-2.43-19.16-5.27-21.46-.55-.45-1.34-.91-2-.88-4.65.21-9.64-.41-13.87,1.07-6.52,2.28-12.55,5.96-18.69,9.24-.9.48-1.66,1.96-1.77,3.05-1.26,12.08,1.48,15.29,13.48,16.05.56.04,1.13.11,1.69.16Zm428.96-286.58c2.88,10.6,13.33,20.68,24,22.33,12.41,1.92,24.84,1.88,36.33-7.3-5.35-1.83-10.17-2.55-13.93-4.93-14.2-8.99-29.91-9.58-46.4-10.11Zm240.09-236.89c-6.44,6.23-7.44,12.55-6.07,18.79,1.75,7.98,7.11,12.9,15.62,13.96,9.8,1.23,18.72-1.05,26.75-6.61,11.51-7.97,18.45-18.15,15.13-33.02-.6-2.68-.7-5.46-1.04-8.2-.76-.1-1.51-.19-2.27-.29-.76,1.61-2.37,3.36-2.14,4.82,2.15,13.35-3.52,23.87-11.92,33.28-5.62,6.29-14.47,7.16-21.67,2.63-8.7-5.47-14.07-12.84-12.39-25.35Zm8.89,12.3c6.08,7.67,14.82,9.48,21.44,4.35,6.08-4.71,10.58-18.55,7.79-22.61-9.64,6.02-19.26,12.04-29.23,18.27Zm-406.85,12.1c-2.54,6.5,4,20.32,11.4,23.18,13.47,5.21,27.12.85,29.24-6.42-7.85,5.85-17.32,4.96-24.09,1.38-6.88-3.64-11.25-12.03-16.55-18.15Zm10.05,4.23c4.56,7.74,10.69,9.46,17.79,9.62,5.03.12,8.41-2.43,11.42-4.96-9.5-1.52-18.67-2.98-29.21-4.66Z"/><path class="cls-1" d="m790.15,600.23c-6.04,9.44-12.74,19.92-19.71,30.82-11.38-9.43-23-16.66-36.93-18.42-12-1.52-23.79-.71-35.52,3.64-9.68,3.59-17.97,8.97-26.46,14.51-10.43,6.8-18.45,16.64-22.24,27.18-5.18,14.41-8.77,30.35-3.77,46.19,1.7,5.38,3.76,10.66,5.91,15.88,1.32,3.19,1.14,5.04-2.81,5.33-8.48.62-16.96,1.26-25.42,2.12-1.27.13-2.64,1.28-3.58,2.31-3.53,3.86-7.27,7.6-10.25,11.86-5.24,7.52-10.58,15.07-14.79,23.18-6.25,12.04-11.79,24.52-11.65,38.55.04,4.1.74,8.18,1.05,12.28.25,3.28.37,6.57.59,10.65-2.23-.7-3.54-.86-4.57-1.49-8.96-5.49-18.95-6.97-29.16-7.59-6.18-.37-7.44-1.89-6.8-8.02,2.18-21.04-1.32-40.96-12.28-59.25-1.68-2.81-4.55-4.88-6.71-7.43-3.95-4.67-7.79-9.43-11.64-14.17-.58-.72-.93-1.61-1.46-2.37-9.21-13.24-18.47-26.45-27.64-39.73-2.61-3.78-4.7-7.94-7.52-11.54-1.27-1.62-3.78-2.24-5.69-3.37-15.7-9.23-32.7-14.59-50.83-15.2-17.73-.6-34.23,3.27-47.3,16.72-6.45,6.63-13.46,12.73-20.94,19.74-.75-3.84-1.58-7.39-2.12-10.99-1.74-11.54-6.43-22.01-11.95-32.1-7.09-12.96-15.86-24.48-30.96-28.64-10.57-2.92-21.28-5.69-32.12-7.22-11.45-1.61-23.22-2.94-34.65-1.96-7.42.64-14.99,4.8-21.53,8.91-5.43,3.42-9.47,9.07-15.03,14.64-1.31-8.73-3.02-17.13-3.71-25.61-.78-9.56-.82-19.19-.85-28.79-.04-12.81,6.74-23.78,10.12-35.67.91-3.21,3.21-3.61,6.27-2.27,18.22,7.95,37.34,9.17,56.93,7.95,12.98-.81,23.5-6.3,33.93-13.53,9.73-6.75,18.87-13.95,25.39-23.77,8.73-13.15,17.1-26.58,24.89-40.3,11.98-21.09,26.18-40.42,44.04-56.82,8.77-8.05,13.43-18.55,18.76-28.58,4.74-8.91,7.83-18.7,11.89-27.99.47-1.08,2.61-2.28,3.74-2.08,30.42,5.21,61.27,8.17,91.04,16.83,14.25,4.14,28.38,8.73,42.7,12.61,17.43,4.72,35.09,8.61,52.5,13.39,19.96,5.48,40.33,7.48,60.87,8.85,8.74.59,17.43,2.49,26,4.42,1.85.42,4.12,3.37,4.44,5.44,3.92,25.1,7.69,50.23,10.96,75.42.41,3.18-2.35,6.76-3.56,10.18-1.94,5.45-4.46,10.78-5.61,16.4-3.81,18.7,10.7,31.89,22.57,38.46,2.86,1.58,7.34.51,11.04.24,2.88-.21,4.08.14,4.9,3.53,2.35,9.77,8.28,17.62,16.16,23.58,6,4.54,12.81,8.03,21.05,13.08Zm-263.28,29.8c0,.06,0,.12,0,.18,5.09,0,10.22.39,15.27-.06,33.85-3.05,61.78-18.06,84.33-43.06,12.43-13.78,19.59-30.52,24.6-48.28,4.04-14.3,1.98-28.41-.42-42.6-.93-5.51-.83-11.26-2.23-16.62-1.7-6.53-4.3-12.85-6.88-19.11-2.49-6.05-4.34-12.82-8.38-17.69-12.97-15.62-28.68-28.01-47.74-35.66-2.57-1.03-5.39-1.6-8.15-1.96-10.63-1.39-21.28-2.63-31.92-3.87-6.64-.77-13.29-1.93-19.94-2-5.2-.05-10.68.52-15.56,2.2-9.93,3.43-19.62,7.57-29.24,11.83-11.38,5.04-21.18,12.58-28.09,22.82-13.57,20.12-21.81,42.52-25.06,66.58-1.1,8.18-.98,16.52-1.48,24.78-.92,14.99.34,29.7,6.33,43.63,1.77,4.11,4.95,7.62,6.79,11.71,5.69,12.69,14.97,22.03,26.89,28.65,8.03,4.46,16.77,7.63,24.87,11.97,10.12,5.42,20.94,6.49,32.05,6.58,1.32.01,2.64,0,3.96,0Z"/><path class="cls-1" d="m870.82,249.22c-7.93,2.53-14.7,3.79-20.64,6.73-24.13,11.94-39.96,30.78-45.77,57.46-4.67,21.43-5.44,43.22-1.12,64.48,2.43,11.98,8.38,23.79,15.04,34.21,7.55,11.81,17.13,22.86,30.66,28.39,7.18,2.94,15.3,3.47,22.92,5.41,10.55,2.69,21.16,3.81,31.84,1.28,6.48-1.53,12.8-3.73,19.19-5.62.42.41.83.82,1.25,1.23-3.14,7.31-6.1,14.7-9.47,21.89-2.95,6.28-6.5,12.28-9.54,18.53-1.52,3.13-2.94,3.64-6.03,1.69-11.78-7.43-24.81-11.81-38.04-16.07-10.07-3.25-20.06-4.46-30.35-4.09-15.57.55-31.17.96-46.39,5.17-7.19,1.99-14.99,2.08-21.93,4.61-10,3.64-19.47,8.73-30.03,13.59-.61-3.94-1.27-7.87-1.83-11.82-3.33-23.44-7.09-46.84-9.83-70.35-2.51-21.62-3.95-43.36-5.77-65.06-.92-10.89,5.25-19.07,11.17-27.1,8.91-12.11,17.38-24.73,27.68-35.59,11.82-12.47,22.86-25.98,37.98-35.14,6.99-4.23,12.59-10.47,21.41-11.75,16-2.32,31.18-1.78,44.52,8.94,3.77,3.03,7.99,5.5,13.11,8.98Zm-103.94,108.21c-.34-.25-.69-.5-1.03-.75-.75-3.66-1.14-7.45-2.36-10.94-1.15-3.28-3.27-6.22-7.62-4.86-7.35,2.29-13.45,5.65-14.56,14.5-1.08,8.63,1.1,15.58,8.4,20.67,3.51,2.45,7.24,2.64,9.33-1.11,3.11-5.56,5.27-11.64,7.84-17.5Z"/><path class="cls-4" d="m252.39,538.61c-11.88-.14-23.1-2.26-33.64-8.27-4.38-2.5-3.91-4.83-2.79-8.65,4.21-14.25,9.02-28.41,11.93-42.93,3.74-18.62,5.88-37.57,8.67-56.38.69-4.66,1.17-9.34,1.85-14,1.53-10.49,7.11-17.74,16.79-22.37,20.61-9.87,41.38-19.33,64.37-21.95,21.35-2.43,42.76-4.35,64.16-6.22,8.26-.72,16.58-.55,24.87-1.02,4.62-.26,5.25,1.93,4.84,5.9-1.46,14.28-8.66,25.99-17.14,36.8-14.81,18.89-30.71,36.94-45.28,56-7.03,9.19-11.91,19.99-18.05,29.89-8.75,14.1-18.03,27.72-32.01,37.48-14.67,10.24-30.66,15.84-48.58,15.72Z"/><path class="cls-4" d="m812.13,350.05c-.11-13.2,1.63-26.15,5.68-38.79,1.89-5.88,2.97-12.13,5.61-17.65,8.74-18.25,23.93-27.11,43.56-31.14,14.02-2.88,22.68,1.32,30.93,12.32,11.15,14.85,24.22,28.24,35.73,42.83,5.28,6.7,10.06,14.36,12.77,22.36,2.25,6.65,2.71,14.76,1.25,21.65-4.28,20.23-10.01,40.14-14.96,60.23-1.85,7.5-7.28,10.86-13.9,12.28-20.2,4.34-39.75,1.85-59.42-4.57-17.44-5.69-26.88-18.01-35.22-33.1-8.11-14.66-12.61-29.72-12.02-46.43Zm98.99,12.25c-.81-3.89-.74-8.04-2.56-11.02-1.96-3.2-5.32-6.28-8.77-7.66-4.43-1.76-8.35,1.56-10.05,5.34-2.02,4.5-3.28,9.59-3.64,14.52-.41,5.6,6.44,15.79,10.06,16.57,4.06.88,10.36-3.48,13.23-9.72,1.12-2.43,1.19-5.35,1.74-8.04Z"/><path class="cls-4" d="m308.83,809.25c-8.69-2.32-16.95-6.44-25.05-6.14-8.2.3-16.24,4.97-25.09,7.98,0-8.58-.26-16.76.05-24.92.87-23.39-.41-46.2-14.15-66.53-5.93-8.78-11.54-17.82-16.71-27.07-5.94-10.61-11.6-21.42-16.68-32.46-3.93-8.54,1.81-20.36,11.52-25.45,8.46-4.43,17.57-5.13,26.9-4.75,15.77.65,31.78-.15,46.93,5,6.2,2.11,12.4,5.68,17.22,10.09,13,11.9,22.43,26.25,26.02,43.92.81,4,1.73,8.06,3.3,11.8,2.56,6.11,0,10.7-3,15.76-6.19,10.43-13.63,19.76-22.1,28.4-6.54,6.67-5.39,15.54-6.01,23.85-1.02,13.64-2.11,27.28-3.14,40.51Z"/><path class="cls-5" d="m902.68,525.46c1.1,12.7-3.88,24.03-11.63,33.2-7.79,9.22-18.89,15.14-31.64,11.44-10.92-3.17-21.12-8.75-31.97-12.22-10.44-3.34-21.39-5.06-31.97-8.01-11.93-3.32-23.81-1.76-35.79-.89-22.33,1.62-36.07-18.84-29.22-40.16.8-2.49,2.99-4.87,5.13-6.53,9.71-7.53,19.94-13.98,32.13-17.16,17.47-4.56,35.06-9.83,53.06-9.14,17.94.68,36.43,2.36,53.46,7.56,21.53,6.57,29.48,17.04,28.43,41.92Zm-141.39,1.11c3.52-.55,7.03-1.14,10.56-1.65,9.43-1.35,13.97-8.23,17.47-15.91,1.97-4.34.36-8.43-3.88-10.5-3.78-1.85-7.6-1.59-10.43,2.49-5.47,7.88-11.25,15.39-21.64,17.31-1.33.25-2.9,2.39-3.17,3.86-.15.85,1.92,2.66,3.29,3.11,2.47.8,5.16.89,7.8,1.29Zm114.94,12.69c-6.69.62-11.24-2.29-14.15-7.64-1.3-2.4-2.33-4.57,1.25-7.08,3.91-2.74,2.08-7.24-.25-10.54-2.27-3.22-5.18-3.82-8.66-.98-4.88,3.98-6.77,8.45-4.91,14.4,1.06,3.39,2.87,6.55,4.03,9.92,2.62,7.65,8.76,9.84,15.87,10.23,5.41.29,7.01-1.73,6.82-8.3Z"/><path class="cls-6" d="m376,752.95c-13.7-2.24-27.84-1.23-37.73-13.63,2.4-3.54,5.17-7.25,7.55-11.2,7.76-12.87,14.78-26.25,23.35-38.54,3.36-4.82,9.71-8.14,15.37-10.61,6.83-2.99,14.25-5.25,21.62-6.22,13.83-1.82,27.69-1.01,41.09,3.53,5.11,1.73,10.28,3.34,15.3,5.3,8.48,3.31,13.09,10.83,18.39,17.54.43.55.43,1.93.04,2.55-5.83,9.15-10.3,19.87-18.1,26.84-6.83,6.1-9.23,11.86-9.03,20.08.11,4.66-4.69,9.79-8.94,10.09-5.69.4-12.1-3.62-12.51-8.51-.35-4.22-1.98-4.52-5.51-3.5-8.48,2.43-17.12,4.3-25.52,6.95-2.17.68-4.65,3.16-5.29,5.32-1.78,5.97-6.11,9.05-11.25,11.02-5.19,1.99-11.09-4.08-10.27-10.16.27-2.01.83-3.99,1.44-6.85Z"/><path class="cls-4" d="m656.07,691.23c1.25-29.1,22.94-58.21,49.04-62.19,19.78-3.01,37.24-1.34,54.1,9.07,3.12,1.93,3.43,3.4,1.19,6.11-12.66,15.38-24.28,31.76-38.12,45.98-14.74,15.14-33.34,25.08-54.17,29.98-1.43.34-4.58-1.42-4.99-2.78-3.08-10.37-5.67-20.88-7.06-26.17Z"/><path class="cls-3" d="m230,398.41c-2.16,13.19-5.5,25.54-5.9,37.98-.52,16.17-12.37,25.14-20.29,36.5-7.83,11.22-18.26,20.66-25.72,32.08-12.85,19.67-25.67,39.61-35.75,60.75-5.71,11.99-6.1,26.56-8.55,40.03-.9,4.97-1.03,10.11-1.14,15.18-.14,6.23-4.7,2.95-7.8,4.29,0-9.66-.63-18.8.18-27.81.77-8.59,2.56-17.16,4.75-25.52,3.23-12.36,7.58-24.42,10.76-36.79,5.19-20.22,17.24-37.17,25.72-55.8,4.79-10.52,8.89-21.35,13.81-31.81,9.84-20.91,24.7-37.19,45.49-47.73,1.07-.54,2.33-.72,4.45-1.35Z"/><path d="m287.41,858.12c-9.63-1.79-23.17.3-34.31-8.28-1.12-.86-2.67-1.78-2.98-2.96-2.01-7.39,1.67-15.31,8.25-19.49,2.78-1.77,4.66-5.1,7.55-6.5,10.42-5.07,20.74-8.78,32.59-2.48,5.57,2.96,11.54,4.88,16.31,9.39,2.32,2.2,2.8,4.09,2.8,7.22,0,13.45-13.71,23.28-30.19,23.1Z"/><path d="m558.52,867.87c-12.52-.22-22.4-1.21-28.83-9.93-7.36-9.98-5.17-23.35,8.89-26.94,6.29-1.61,13.08-2.81,19.43-2.13,5.46.59,10.65,4.03,15.89,6.35,2.5,1.11,4.74,2.92,7.31,3.72,4.23,1.32,5.13,4.61,6.72,8.17,5.74,12.88,4.12,14.13-9.21,17.28-7.45,1.76-15.12,2.62-20.21,3.47Z"/><path class="cls-1" d="m946.87,313.12c-7.53-9.53-7.53-15.66,1.55-23.25,5.61-4.7,12.29-8.92,19.2-11.09,11.94-3.76,24.37-6.12,36.72-8.41,14.91-2.76,28.68,2.33,42.33,7.41,3.96,1.47,7.8,3.27,12.61,5.3-2.91,5.45-5.28,10.06-7.83,14.58-1.54,2.74-3.58,2.41-5.49.33-8.38-9.12-19.32-12.61-31.12-13.14-26.19-1.16-48.06,8.68-66.16,27.36-.36.37-.98.49-1.81.9Z"/><path class="cls-5" d="m961.07,343.53c-2.54-4.99-4.65-9.4-7.01-13.67-2.4-4.33-1.68-8.47,1.84-11.24,13.43-10.55,27.81-20.35,45.38-20.59,9.39-.13,18.87,4.16,28.23,6.7,2.64.72,5.04,2.34,8.45,3.98-8.06,4.03-15.51,7.76-22.95,11.48-.5-.5-.99-1.01-1.49-1.51.42-2.07.95-4.12,1.25-6.21.4-2.82-.74-4.93-3.72-3.64-6.07,2.63-13,5.59-14.05,12.73-1.79,12.24-11.54,14.78-20.3,18.42-4.77,1.98-10.2,2.36-15.62,3.53Z"/><path class="cls-9" d="m631.6,806.54c-12.9,2.53-25.31,4.96-37.84,7.41-1.29-11.03,2-21.02,5.56-31.46,5.14-15.12,14.69-26.58,25.83-37,2.62-2.45,7.8-2.16,12.76-2.37-10.33,20.57-10.36,41.62-6.32,63.42Z"/><path class="cls-1" d="m611.12,329.57c-3.98-3.15-4.82-6.24-1.75-10.29,5.74-7.58,13.29-12.47,21.81-16.43,15.12-7.04,30.5-13.22,47.53-11.04,12.18,1.56,24.2,4.47,36.27,6.83,3.72.73,4.68,2.73,2.5,6.04-1.03,1.56-2.07,3.18-2.75,4.91-1.38,3.54-3.19,3.67-6.96,2.84-19.72-4.37-39.33-8.74-59.85-2.93-11.28,3.2-21.39,7.42-29.92,15.46-2,1.89-4.62,3.11-6.89,4.6Z"/><path class="cls-5" d="m619.23,337.89c7.19-9.97,15.8-16.09,26.49-17.4,13.17-1.62,26.55-1.94,39.85-2.03,5.52-.04,11.13,1.73,16.55,3.22,1.72.48,4.46,3.37,4.16,4.06-2.13,5-3.74,11.48-7.74,14.17-8.89,5.97-19.65,5.32-29.95,3.56-1.52-.26-2.88-2.58-3.96-4.19-3.09-4.64-3.78-11.24-10.59-12.75-2.09-.46-4.21-.74-6.32-1.1-.28,2.86-.86,5.73-.7,8.57.07,1.22,1.66,2.36,3.09,4.25-10.41,3.02-20.07,2.51-30.87-.37Z"/><path class="cls-9" d="m342.27,762.4c1.19,11.15,2.27,22.31,3.66,33.43.41,3.28-.37,5.14-3.37,6.71-6.31,3.3-12.38,7.06-18.62,10.48-1.16.64-3.47,1.23-3.91.71-.91-1.07-1.33-2.94-1.24-4.44.74-11.43,1.41-22.88,2.61-34.26.74-7.04,1.62-14.24,3.81-20.91,2.27-6.91,5.62-7.06,10.67-1.83,1.43,1.48,3.29,2.55,4.67,4.07,1.47,1.61,2.6,3.53,3.88,5.31-.72.24-1.43.48-2.15.72Z"/><path d="m622.82,820.03c8.74-1.46,13.26,3.92,16.65,10.31,1.89,3.56,3.78,7.97,3.35,11.72-.64,5.5-10.16,10.36-17.15,10.04-6.53-.3-13.05-.84-19.58-.87-5.17-.02-8.12-2.1-9.05-7.24-.6-3.33-1.61-6.58-2.28-9.89-1.44-7.19-.77-8.52,6.49-10.15,7.12-1.6,14.37-2.64,21.56-3.92Z"/><path class="cls-8" d="m95.67,702.53c1.88-4.7,3.39-7.68,4.27-10.84,2.18-7.76,3.76-15.71,6.19-23.39,2.53-7.98,5.51-15.85,8.81-23.55,1.53-3.55,3.07-8.05,8.76-6.96,4.84.92,9.22,5.28,9.92,10.26,1.47,10.51-1.9,19.83-8.01,27.99-7.09,9.45-14.81,18.46-25.4,24.35-.92.51-1.91.9-4.55,2.13Z"/><path d="m339.22,843.76c-.56-.05-1.13-.12-1.69-.16-12.01-.76-14.75-3.96-13.48-16.05.11-1.09.88-2.57,1.77-3.05,6.14-3.28,12.18-6.96,18.69-9.24,4.23-1.48,9.22-.86,13.87-1.07.66-.03,1.44.43,2,.88,2.84,2.3,7.04,18.3,5.27,21.46-1.01,1.8-2.91,3.84-4.76,4.28-7.08,1.68-14.3,2.76-21.47,4.07-.07-.37-.13-.75-.2-1.12Z"/><path class="cls-7" d="m768.18,557.18c16.49.53,32.21,1.12,46.4,10.11,3.76,2.38,8.58,3.1,13.93,4.93-11.5,9.17-23.93,9.22-36.33,7.3-10.67-1.65-21.13-11.74-24-22.33Z"/><path class="cls-2" d="m1008.27,320.28c-1.67,12.52,3.69,19.88,12.39,25.35,7.2,4.53,16.05,3.66,21.67-2.63,8.4-9.4,14.07-19.92,11.92-33.28-.23-1.45,1.38-3.2,2.14-4.82.76.1,1.51.19,2.27.29.33,2.74.44,5.52,1.04,8.2,3.32,14.87-3.62,25.04-15.13,33.02-8.02,5.56-16.94,7.84-26.75,6.61-8.51-1.06-13.87-5.98-15.62-13.96-1.37-6.24-.37-12.57,6.07-18.79Z"/><path class="cls-2" d="m610.31,344.68c5.3,6.12,9.67,14.51,16.55,18.15,6.77,3.58,16.24,4.47,24.09-1.38-2.12,7.27-15.77,11.63-29.24,6.42-7.4-2.86-13.94-16.68-11.4-23.18Z"/><path d="m526.86,630.03c-1.32,0-2.64,0-3.96,0-11.11-.09-21.93-1.16-32.05-6.58-8.1-4.34-16.84-7.51-24.87-11.97-11.91-6.62-21.19-15.96-26.89-28.65-1.84-4.09-5.01-7.6-6.79-11.71-6-13.93-7.25-28.64-6.33-43.63.51-8.26.38-16.6,1.48-24.78,3.25-24.06,11.49-46.46,25.06-66.58,6.91-10.24,16.71-17.78,28.09-22.82,9.61-4.25,19.31-8.4,29.24-11.83,4.88-1.68,10.36-2.25,15.56-2.2,6.65.07,13.3,1.23,19.94,2,10.65,1.24,21.3,2.48,31.92,3.87,2.76.36,5.58.93,8.15,1.96,19.05,7.65,34.77,20.05,47.74,35.66,4.04,4.87,5.89,11.64,8.38,17.69,2.57,6.26,5.17,12.59,6.88,19.11,1.4,5.37,1.29,11.11,2.23,16.62,2.41,14.19,4.46,28.3.42,42.6-5.01,17.76-12.17,34.5-24.6,48.28-22.55,25-50.49,40.01-84.33,43.06-5.05.46-10.18.06-15.27.06,0-.06,0-.12,0-.18Zm109.49-116.49c-.39-4.69-.44-9.44-1.23-14.06-2.93-16.95-6.52-33.7-17.43-47.77-10.12-13.06-25.05-19.02-39.08-26.1-15.01-7.57-31.81-9.03-48.11-11.6-6.4-1.01-13.65.17-19.9,2.23-8.66,2.85-16.97,7.06-25.03,11.42-25.01,13.54-37.92,36.09-43.42,62.8-2.7,13.11-2.51,26.94-2.6,40.44-.16,23.66,8.01,44.29,25.54,60.48,12.76,11.78,28.75,18.12,45.28,21.8,25.91,5.77,50.95,1.5,74.19-11.38,7.34-4.07,15.14-8.52,20.46-14.73,8.09-9.44,15.33-20.02,20.84-31.15,6.49-13.1,11.27-27.19,10.5-42.37Z"/><path d="m766.87,357.43c-2.57,5.86-4.73,11.95-7.84,17.5-2.1,3.75-5.82,3.55-9.33,1.11-7.31-5.09-9.49-12.04-8.4-20.67,1.11-8.85,7.22-12.21,14.56-14.5,4.36-1.36,6.48,1.58,7.62,4.86,1.22,3.5,1.61,7.28,2.36,10.94.34.25.69.5,1.03.75Z"/><path d="m911.12,362.3c-.55,2.69-.62,5.6-1.74,8.04-2.87,6.24-9.17,10.59-13.23,9.72-3.61-.78-10.47-10.97-10.06-16.57.36-4.93,1.61-10.02,3.64-14.52,1.7-3.78,5.62-7.1,10.05-5.34,3.45,1.37,6.81,4.45,8.77,7.66,1.83,2.98,1.75,7.13,2.56,11.02Z"/><path d="m761.29,526.57c-2.64-.39-5.33-.49-7.8-1.29-1.37-.45-3.45-2.26-3.29-3.11.27-1.48,1.84-3.62,3.17-3.86,10.39-1.92,16.17-9.43,21.64-17.31,2.83-4.08,6.65-4.34,10.43-2.49,4.24,2.08,5.86,6.17,3.88,10.5-3.5,7.68-8.04,14.56-17.47,15.91-3.53.5-7.04,1.09-10.56,1.65Z"/><path d="m876.23,539.26c.19,6.57-1.41,8.6-6.82,8.3-7.11-.39-13.25-2.58-15.87-10.23-1.15-3.37-2.97-6.52-4.03-9.92-1.86-5.95.03-10.42,4.91-14.4,3.48-2.84,6.39-2.24,8.66.98,2.33,3.3,4.16,7.8.25,10.54-3.59,2.52-2.56,4.69-1.25,7.08,2.91,5.35,7.46,8.26,14.15,7.64Z"/><path class="cls-4" d="m636.35,513.55c.77,15.18-4.01,29.27-10.5,42.37-5.51,11.13-12.76,21.7-20.84,31.15-5.32,6.21-13.12,10.66-20.46,14.73-23.24,12.88-48.27,17.15-74.19,11.38-16.53-3.68-32.53-10.02-45.28-21.8-17.53-16.18-25.7-36.81-25.54-60.48.09-13.51-.1-27.33,2.6-40.44,5.5-26.71,18.41-49.26,43.42-62.8,8.06-4.36,16.37-8.57,25.03-11.42,6.25-2.06,13.5-3.24,19.9-2.23,16.3,2.57,33.1,4.03,48.11,11.6,14.03,7.08,28.96,13.05,39.08,26.1,10.91,14.07,14.5,30.82,17.43,47.77.8,4.62.84,9.37,1.23,14.06Z"/></svg>