<?xml version="1.0" encoding="UTF-8"?><svg id="Layer_1" xmlns="http://www.w3.org/2000/svg" viewBox="0 0 800 738"><defs><style>.cls-1{fill:#ffdc2d;}.cls-2{fill:#ff9fe4;}.cls-3{fill:#9fd356;}.cls-4{fill:#db7f8e;}</style></defs><path d="m264.16,502.36c1.62,0,2.62-.09,3.59.01,5.64.6,11.26,1.39,16.91,1.83,5.46.43,10.83-.33,16.01-2.23.87-.32,1.77-.76,2.66-.77,4.54-.01,8.37-2.24,12.44-3.76.54-.2,1.08-.63,1.6-.59,5.4.4,9.14-3.63,13.82-5.14.57-.18,1.14-.67,1.48-1.17,1.62-2.38,4.73-3.56,5.39-6.74.09-.41.82-.93,1.31-.99,3.87-.43,5.51-3.54,7.49-6.2,1.28-1.72,2.31-3.61,3.53-5.38,1.17-1.7,2.69-3.21,3.62-5.02,1.66-3.27,3.49-6.59,4.37-10.1,2.18-8.68,1.5-17.39-.06-26.19-.76-4.31-2.62-7.77-4.94-11.14-1.46-2.12-3.66-3.73-3.77-6.66-.02-.66-.81-1.3-1.26-1.94-.42-.58-1.2-1.1-1.25-1.7-.19-2.51-1.81-4.08-3.34-5.77-2.04-2.26-3.88-4.71-5.99-6.9-3.66-3.81-7.25-7.73-11.28-11.13-3.52-2.96-7.54-5.34-11.44-7.83-2.22-1.42-4.59-2.62-6.98-3.75-1.34-.63-2.86-.86-4.27-1.37-1.15-.42-2.23-1.01-3.35-1.49-.9-.39-1.81-.94-2.75-1.03-3.27-.31-6.56-.48-9.84-.65-2.88-.15-3.5-.52-3.58-3.37-.2-6.64-.05-13.29-.34-19.92-.22-4.9-.13-10.05-1.64-14.6-1.59-4.8-3.84-9.6-7.41-13.57-1.88-2.09-3.14-4.75-4.68-7.15-.58-.9-1.03-1.93-1.77-2.66-3.59-3.57-7.14-7.2-10.95-10.52-1.67-1.45-3.9-2.26-5.92-3.28-1.82-.92-3.64-1.91-5.57-2.56-2.49-.83-5.08-1.36-7.62-2.01-.54-.14-1.45-.06-1.6-.36-1.19-2.44-3.41-1.55-5.25-1.69-3.18-.25-6.38-.43-9.57-.44-2.7-.01-5.42.13-8.11.43-4.03.46-8.19.65-12.03,1.81-5.44,1.64-10.63,4.1-15.96,6.13-2.76,1.05-5.09,3.24-8.3,3.15-.44-.01-.94.33-1.33.63-2.76,2.14-5.52,4.27-8.22,6.49-2.09,1.71-4.45,3.27-6.01,5.4-1.7,2.31-2.59,5.21-3.88,7.83-.37.75-.8,1.5-1.34,2.14-1.03,1.2-2.11,1.2-2.86-.28-3.07-6.01-8.17-9.72-14.06-12.57-2.12-1.02-4.42-1.8-6.29-3.17-2.07-1.52-4.62-1.31-6.56-2.25-5.2-2.51-10.35-1.7-15.62-1.25-5.26.44-10.61.4-15.76,1.4-4.91.96-10,2.3-14.29,4.75-4.85,2.77-10.15,4.59-14.8,7.52-3.86,2.44-7.04,6.01-10.38,9.22-2.93,2.82-4.54,6.49-6.11,10.18-.94,2.21-1.85,4.34-1.39,6.81.06.34.05.73-.04,1.07-2.39,9.27-1.25,23.94,2.84,32.55,2.13,4.5,4.73,8.78,7.07,13.18.34.64.38,1.43.55,2.16-.73.05-1.47.17-2.2.15-1.78-.06-3.57-.11-5.34-.3-1.66-.17-3.3-.54-4.96-.77-.69-.09-1.43-.17-2.09-.02-1.79.43-3.53,1.13-5.33,1.48-7.47,1.48-13.63,5.62-19.02,10.52-3.48,3.17-7.1,6.76-8.22,11.93-.58,2.68-2,5.16-2.9,7.79-1.89,5.51-.72,11.07.03,16.58,1.13,8.37,5.1,15.54,9.96,22.27,1.13,1.56,2.55,2.92,3.62,4.52,2.85,4.23,7.39,6.21,11.47,8.8,1.68,1.06,3.51,1.94,5.35,2.71,3.95,1.64,8.03,2.77,12.34,3.03,1.98.12,3.94.53,5.91.84,1.59.25,1.93,1.24,1.54,2.67-.71,2.62-1.4,5.25-2.08,7.88-.78,3.03-1.52,6.08-2.32,9.1-.23.88-.53,1.78-.97,2.57-1.16,2.1-1.63,4.14-.63,6.53.48,1.17.21,2.66.21,4.01,0,2.71.22,5.45-.14,8.11-.53,3.84.64,7.69-.88,11.6-1.71,4.36.22,8.25,3.54,11.31,1.43,1.32,1.85,2.82,2.19,4.65.43,2.31,1.42,4.55,2.35,6.74.92,2.17,2.06,4.24,3.13,6.34.29.57.62,1.14,1.05,1.6,5.92,6.29,11.82,12.6,17.82,18.82.84.87,2.09,1.51,3.27,1.88,7.15,2.21,14.57,2.64,21.96,3.25,6.85.57,13.29-.8,19.41-3.88,1.34-.68,2.74-1.23,4.09-1.88.45-.21,1-.42,1.25-.79,2.98-4.48,8.03-6.66,11.57-10.51,1.35-1.47,2.48-3.12,3.72-4.69.53-.67.95-1.46,1.59-1.99,1.66-1.38,3.15-1.07,3.86.96.77,2.19,1.15,4.52,1.78,6.76.21.73.56,1.49,1.05,2.06,2.46,2.88,5.1,5.62,7.45,8.58,1.2,1.51,1.86,3.44,2.93,5.07.96,1.46,2.01,2.93,3.29,4.1,4.9,4.48,9.92,8.84,14.88,13.25,3.86,3.43,8.45,5.12,13.45,6.18,5.88,1.24,11.74,1.59,17.67.78,1.54-.21,3.08-.51,4.59-.91,4.77-1.25,9.52-2.54,14.28-3.85.75-.21,1.6-.4,2.16-.88,3.22-2.73,6.46-5.45,9.5-8.38,2.24-2.16,4.21-4.61,6.26-6.97,1.85-2.15,4.01-4.11,4.45-7.16.07-.46.5-.85.75-1.29,2.09-3.62,4.17-7.24,6.26-10.86.57-.99,1.35-1.91,1.69-2.96.84-2.62,1.46-5.31,2.21-7.96.89-3.14,1.87-6.24,2.69-9.4.32-1.22.32-2.52.44-3.78.05-.57-.13-1.2.07-1.7,2.52-6.27.91-12.6.19-18.86-.71-6.13-2.49-12.01-5.32-17.56-.79-1.55-1.11-3.33-1.8-5.46Zm-67.46-194.61c2.67-.2,5.36.18,7.59-.66,9.94-3.71,20.08-3.93,30.32-2.11,2.29.41,4.69,1.47,6.54,2.88,6.83,5.21,12.5,11.52,16.77,19.01,1.41,2.46,3.3,4.93,3.75,7.6,1.16,6.82,1.74,13.74,2.31,20.65.14,1.68-.6,3.44-1.01,5.15-.38,1.57-1.18,3.12-1.2,4.68-.02,1.89-.65,2.95-2.19,4.02-3.32,2.31-7.08,4.4-9.52,7.48-4.05,5.1-4.6,6.89-1.05,12.31,2.06,3.14,9.69,5.65,13.34,4.94,4.09-.79,8.14-1.45,11.33-4.46.26-.25.83-.36,1.21-.28,1.45.31,2.53.15,2.97-1.54.07-.28.78-.58,1.18-.56,2.83.12,5.69.63,8.49.43,6.93-.49,12.99,1.69,18.46,5.64,3.12,2.25,6.02,4.83,8.94,7.35,1.98,1.71,3.92,3.48,5.72,5.38,5.72,6.07,10.65,12.71,14.08,20.36,2.16,4.81,4.13,9.56,4.57,15.05.5,6.19-.12,11.79-3.65,16.95-.96,1.4-1.79,2.91-2.91,4.17-1.55,1.74-3.31,3.29-4.98,4.93-1.87,1.82-3.52,3.96-5.65,5.39-2.83,1.91-6.18,3.03-9,4.95-1.69,1.15-3.22,1.95-5.25,1.92-1.37-.02-2.72.08-3.25,1.82-.12.39-1.01.66-1.59.78-2.03.43-4.17.49-6.09,1.19-5.41,1.96-11.18,2.51-16.42,1.07-4.88-1.35-9.85-.7-14.74-2.34-4.25-1.43-8.81-1.98-12.77-4.41-.36-.22-1.01-.3-1.39-.13-1.84.79-3.84,1.41-5.39,2.6-2.5,1.91-5.26,1.93-8.13,2.01-.84.02-1.87.28-2.47.81-3.45,3.09-6.52,6.41-5.25,11.66.13.54-.12,1.18.04,1.71.4,1.33.6,2.92,1.47,3.86,2.27,2.44,4.79,4.66,7.33,6.84,3.02,2.6,5.14,5.72,6.21,9.57.36,1.31.74,2.63,1.29,3.86,3.18,7.18,3.41,14.9,2.56,22.34-.75,6.56-3.39,12.91-5.36,19.3-.88,2.86-1.74,5.87-3.35,8.32-4.55,6.91-9.62,13.44-16.46,18.33-.39.28-.9.43-1.37.57-1.91.58-3.8,1.28-5.75,1.66-2.43.47-4.95,1.09-7.37.9-5.1-.4-9.56-2.82-13.83-5.48-2.17-1.35-4.34-2.78-4.89-5.62-.13-.66-.63-1.29-1.09-1.83-4.71-5.65-9.38-11.25-12.41-18.15-2.46-5.61-4.67-11.23-5.4-17.27-.7-5.82-.8-11.7-1.17-17.56-.18-2.79-3.32-6.54-6.02-6.73-2.69-.19-5.46-.2-8.12.21-5.45.84-8.64,4.74-11.06,9.26-1.13,2.11-1.76,4.48-2.57,6.75-.46,1.31-.69,2.71-1.26,3.97-.58,1.3-1.45,2.46-2.16,3.7-5.79,10.06-13.67,17.91-24.32,22.72-2.29,1.03-4.87,1.4-7.26,2.24-2.66.93-5.07.41-7.42-.88-1.38-.76-2.87-1.38-4.08-2.36-3.7-3.01-7.92-5.67-10.75-9.37-3.43-4.49-5.84-9.82-8.31-14.96-1.2-2.49-2.84-4.84-2.75-7.98.18-6.41-.4-12.84-.1-19.24.23-4.89,1.06-9.79,2.1-14.58,1.11-5.13,2.31-10.21,6.75-13.97,2.9-2.45,6.25-3.97,9.37-5.93,2.39-1.5,5.28-2.46,7.22-4.39,3.31-3.3,2.08-7.59,1.18-11.56-.9-3.96-4.03-5.32-7.6-6.26-5.92-1.57-11.5-.99-16.16,3.03-2.44,2.11-4.78,2.16-7.62,1.84-4.89-.55-9.81-.81-14.72-1.22-6.07-.5-10.88-3.5-14.49-8.16-3.83-4.93-6.71-10.5-8.67-16.44-.93-2.81-1.61-5.87-1.54-8.79.07-2.92.71-6.08,2.03-8.66,1.2-2.33,2.99-4.74,6.02-5.48.77-.19,1.38-.95,2.12-1.35,1.12-.62,2.24-1.5,3.44-1.67,7.59-1.09,15.22-1.13,22.88-1.07,3.6.03,7.06-.32,10.26,1.74.56.36,1.39.28,2.07.51,1.62.53,3.48.79,4.79,1.77,2.17,1.62,4.3,1.71,6.85,1.43,3.57-.39,6.93-.86,9.02-4.2.64-1.03,1.45-2.16,1.54-3.3.17-1.97-.03-4.01-.32-5.98-.17-1.16-.49-2.63-1.3-3.3-2.43-2.05-5.41-3.49-7.67-5.69-4.9-4.76-11.04-8.46-13.65-15.28-.12-.33-.41-.58-.58-.9-1.52-2.83-3.21-5.58-4.49-8.51-2.65-6.05-3.27-12.55-3.58-19.06-.19-3.85-.19-7.76,2.29-11.1.8-1.07,1.97-1.96,2.5-3.14,1.35-2.99,3.21-5.07,6.7-5.39.61-.05,1.12-.97,1.71-1.45.86-.7,1.65-1.6,2.64-2,2.59-1.04,5.38-1.64,7.9-2.81,4.72-2.19,9.26-4.98,14.42-5.8,3.65-.57,7.72-.95,11.14.1,6.4,1.97,12,5.66,15.85,11.48.78,1.18,1.88,2.16,2.72,3.31,1.25,1.71,2.66,3.38,3.55,5.28,1.97,4.16,2.93,8.79,6.02,12.43.6.7.77,1.84.95,2.81.69,3.84,2.42,7.15,5.02,10.01.33.36.98.81,1.34.7,2.61-.74,4.91.02,7.18,1.22,2.27,1.19,5.34.66,6.47-.91.95-1.32,1.88-2.72,3.1-3.77,2.86-2.48,3.43-5.97,3.79-9.26.38-3.44-.18-6.99-.46-10.48-.33-4.12-.06-8.34,1.73-11.91,2.72-5.42,6.36-10.33,12.32-12.87.66-.28,1.26-.96,1.64-1.61.71-1.21,1.43-1.88,3.04-1.76,2.19.16,3.59-1.29,3.2-3.01Z"/><path class="cls-4" d="m196.7,307.75c.38,1.72-1.01,3.17-3.2,3.01-1.61-.12-2.33.55-3.04,1.76-.37.64-.97,1.32-1.64,1.61-5.95,2.53-9.6,7.45-12.32,12.87-1.79,3.57-2.06,7.79-1.73,11.91.28,3.49.84,7.04.46,10.48-.36,3.29-.93,6.78-3.79,9.26-1.21,1.05-2.15,2.45-3.1,3.77-1.13,1.57-4.2,2.1-6.47.91-2.28-1.19-4.57-1.96-7.18-1.22-.36.1-1.01-.34-1.34-.7-2.6-2.86-4.33-6.17-5.02-10.01-.17-.97-.35-2.11-.95-2.81-3.1-3.64-4.05-8.27-6.02-12.43-.9-1.9-2.3-3.57-3.55-5.28-.84-1.15-1.94-2.12-2.72-3.31-3.85-5.82-9.45-9.51-15.85-11.48-3.42-1.05-7.49-.67-11.14-.1-5.17.81-9.71,3.61-14.42,5.8-2.52,1.17-5.31,1.77-7.9,2.81-.99.4-1.78,1.3-2.64,2-.59.48-1.1,1.4-1.71,1.45-3.49.31-5.35,2.4-6.7,5.39-.53,1.18-1.7,2.06-2.5,3.14-2.48,3.33-2.48,7.24-2.29,11.1.32,6.5.94,13.01,3.58,19.06,1.28,2.93,2.98,5.68,4.49,8.51.17.31.46.57.58.9,2.61,6.82,8.75,10.52,13.65,15.28,2.26,2.2,5.24,3.64,7.67,5.69.8.68,1.13,2.14,1.3,3.3.29,1.97.49,4.01.32,5.98-.1,1.14-.9,2.26-1.54,3.3-2.09,3.34-5.45,3.81-9.02,4.2-2.55.28-4.68.19-6.85-1.43-1.31-.98-3.16-1.23-4.79-1.77-.68-.22-1.51-.14-2.07-.51-3.2-2.06-6.66-1.71-10.26-1.74-7.66-.06-15.3-.02-22.88,1.07-1.2.17-2.32,1.05-3.44,1.67-.74.41-1.35,1.17-2.12,1.35-3.04.74-4.82,3.15-6.02,5.48-1.32,2.58-1.96,5.73-2.03,8.66-.07,2.93.61,5.98,1.54,8.79,1.96,5.93,4.84,11.51,8.67,16.44,3.61,4.66,8.42,7.66,14.49,8.16,4.91.4,9.83.67,14.72,1.22,2.84.32,5.18.27,7.62-1.84,4.66-4.03,10.23-4.6,16.16-3.03,3.57.94,6.7,2.3,7.6,6.26.9,3.96,2.13,8.25-1.18,11.56-1.94,1.93-4.82,2.89-7.22,4.39-3.13,1.96-6.47,3.47-9.37,5.93-4.45,3.76-5.65,8.84-6.75,13.97-1.03,4.79-1.87,9.7-2.1,14.58-.3,6.4.28,12.83.1,19.24-.09,3.14,1.55,5.49,2.75,7.98,2.48,5.14,4.88,10.47,8.31,14.96,2.83,3.7,7.05,6.37,10.75,9.37,1.2.98,2.7,1.6,4.08,2.36,2.35,1.29,4.76,1.81,7.42.88,2.39-.83,4.97-1.2,7.26-2.24,10.65-4.81,18.53-12.66,24.32-22.72.71-1.24,1.58-2.41,2.16-3.7.56-1.26.79-2.66,1.26-3.97.81-2.27,1.44-4.65,2.57-6.75,2.42-4.52,5.6-8.42,11.06-9.26,2.66-.41,5.43-.4,8.12-.21,2.7.19,5.84,3.94,6.02,6.73.37,5.85.47,11.74,1.17,17.56.72,6.04,2.93,11.67,5.4,17.27,3.03,6.9,7.69,12.5,12.41,18.15.45.54.96,1.17,1.09,1.83.55,2.85,2.72,4.27,4.89,5.62,4.27,2.66,8.73,5.08,13.83,5.48,2.42.19,4.94-.43,7.37-.9,1.95-.38,3.84-1.08,5.75-1.66.47-.14.98-.29,1.37-.57,6.84-4.89,11.91-11.42,16.46-18.33,1.61-2.45,2.47-5.46,3.35-8.32,1.97-6.39,4.62-12.75,5.36-19.3.85-7.44.62-15.16-2.56-22.34-.55-1.24-.93-2.56-1.29-3.86-1.07-3.85-3.18-6.97-6.21-9.57-2.53-2.18-5.06-4.4-7.33-6.84-.87-.94-1.07-2.53-1.47-3.86-.16-.52.09-1.17-.04-1.71-1.27-5.25,1.8-8.58,5.25-11.66.6-.54,1.63-.79,2.47-.81,2.87-.08,5.63-.09,8.13-2.01,1.55-1.19,3.55-1.81,5.39-2.6.38-.16,1.03-.09,1.39.13,3.95,2.43,8.51,2.99,12.77,4.41,4.89,1.64,9.87,1,14.74,2.34,5.24,1.45,11.02.9,16.42-1.07,1.92-.7,4.06-.76,6.09-1.19.58-.12,1.47-.39,1.59-.78.53-1.74,1.88-1.84,3.25-1.82,2.03.03,3.56-.77,5.25-1.92,2.81-1.92,6.17-3.04,9-4.95,2.13-1.43,3.78-3.57,5.65-5.39,1.67-1.63,3.44-3.18,4.98-4.93,1.12-1.26,1.95-2.77,2.91-4.17,3.54-5.16,4.15-10.76,3.65-16.95-.44-5.48-2.41-10.23-4.57-15.05-3.44-7.65-8.36-14.3-14.08-20.36-1.79-1.9-3.74-3.67-5.72-5.38-2.92-2.52-5.82-5.1-8.94-7.35-5.48-3.95-11.53-6.13-18.46-5.64-2.8.2-5.66-.31-8.49-.43-.4-.02-1.11.28-1.18.56-.44,1.69-1.52,1.85-2.97,1.54-.37-.08-.94.03-1.21.28-3.19,3.02-7.24,3.67-11.33,4.46-3.65.71-11.28-1.8-13.34-4.94-3.55-5.42-3-7.21,1.05-12.31,2.44-3.08,6.2-5.17,9.52-7.48,1.54-1.07,2.17-2.13,2.19-4.02.02-1.56.82-3.11,1.2-4.68.41-1.71,1.15-3.47,1.01-5.15-.57-6.9-1.15-13.83-2.31-20.65-.45-2.67-2.35-5.14-3.75-7.6-4.27-7.49-9.95-13.81-16.77-19.01-1.85-1.41-4.25-2.48-6.54-2.88-10.25-1.82-20.38-1.6-30.32,2.11-2.24.83-4.92.46-7.59.66Zm3.36,100.42c2.83-.61,5.47-1.89,6.69,1.73.11.34.82.49,1.28.68,2.03.85,4.09,1.61,6.08,2.53,2.06.96,4.36,1.74,5.97,3.22,2.17,1.99,3.69,4.67,5.68,6.9,3.48,3.89,5.86,8.39,8.08,13.06,1.04,2.2,1.81,4.29,1.78,6.72-.05,4.28.15,8.57-.08,12.84-.18,3.21-.81,6.41-1.39,9.58-.1.54-.96.92-1.42,1.42-.49.52-1.22,1.02-1.34,1.63-1.23,5.87-3.94,10.42-10.11,12.21-1.01.29-1.87,1.04-2.86,1.42-1.13.42-2.33.65-3.49.99-.69.2-1.73.25-1.99.71-1.04,1.85-2.22,2.18-4.04,1.09-.97-.58-1.99-.75-2.48.85-.14.46-1.12.81-1.76.93-1.95.35-3.94.5-5.89.85-1.8.33-3.58,1.17-5.37,1.17-3.82,0-7.72.48-11.38-1.26-2.42-1.16-4.97-2.08-7.35-3.31-4.12-2.13-8.32-4.16-12.18-6.7-3.37-2.22-6.69-4.74-9.38-7.72-3.91-4.35-7.26-9.2-10.75-13.9-.59-.8-.86-1.93-1.02-2.95-.41-2.66-.63-5.35-1.01-8.01-.25-1.77-.71-3.5-.89-5.27-.07-.69.34-1.46.61-2.16.3-.77.83-1.46,1.04-2.24.81-3.02,1.52-6.06,2.32-9.08.14-.53.49-1.04.84-1.47,2.62-3.2,5.37-6.31,7.88-9.59,1.37-1.79,2.52-3.59,5.04-3.88.7-.08,1.33-.77,2-1.16,1.1-.65,2.13-1.48,3.31-1.89,3.82-1.31,7.53-3.19,11.78-2.52.52.08,1.11-.22,1.67-.33,1.94-.37,3.91-1.18,5.8-1.02,4.75.41,9.73-1.06,14.26,1.55.56.32,1.4.19,2.11.18,1.34-.02,2.51.09,1.93,2.2Z"/><path d="m200.07,408.16c.58-2.1-.59-2.21-1.93-2.2-.71,0-1.55.14-2.11-.18-4.53-2.61-9.51-1.15-14.26-1.55-1.89-.16-3.87.64-5.8,1.02-.56.11-1.14.41-1.67.33-4.26-.67-7.97,1.21-11.78,2.52-1.18.41-2.21,1.24-3.31,1.89-.67.4-1.3,1.08-2,1.16-2.52.29-3.67,2.09-5.04,3.88-2.51,3.29-5.26,6.39-7.88,9.59-.36.43-.7.94-.84,1.47-.8,3.02-1.51,6.06-2.32,9.08-.21.78-.74,1.48-1.04,2.24-.28.7-.68,1.46-.61,2.16.18,1.77.64,3.51.89,5.27.37,2.67.6,5.35,1.01,8.01.16,1.02.42,2.15,1.02,2.95,3.49,4.71,6.85,9.56,10.75,13.9,2.68,2.98,6,5.51,9.38,7.72,3.86,2.54,8.06,4.58,12.18,6.7,2.38,1.23,4.93,2.15,7.35,3.31,3.65,1.74,7.56,1.27,11.38,1.26,1.79,0,3.56-.84,5.37-1.17,1.95-.35,3.94-.5,5.89-.85.65-.12,1.63-.47,1.76-.93.49-1.6,1.51-1.43,2.48-.85,1.82,1.1,3,.76,4.04-1.09.26-.47,1.3-.51,1.99-.71,1.16-.34,2.36-.57,3.49-.99.99-.37,1.86-1.12,2.86-1.42,6.16-1.79,8.88-6.34,10.11-12.21.13-.61.86-1.11,1.34-1.63.47-.49,1.32-.88,1.42-1.42.58-3.18,1.21-6.37,1.39-9.58.23-4.27.03-8.56.08-12.84.03-2.43-.74-4.52-1.78-6.72-2.22-4.68-4.6-9.17-8.08-13.06-1.99-2.22-3.51-4.9-5.68-6.9-1.62-1.48-3.92-2.26-5.97-3.22-1.99-.93-4.05-1.69-6.08-2.53-.45-.19-1.17-.35-1.28-.68-1.22-3.62-3.86-2.34-6.69-1.73Zm-35.93,29.08c0-1.13-.36-2.42.06-3.37,1.46-3.29,3.91-6.14,7.27-7.1,3.63-1.04,7.61-1.1,11.44-1.15,3.09-.04,6.19.61,9.3.9,2.53.23,5.06.36,7.59.6.38.04.77.36,1.09.63,1.74,1.48,3.57,2.87,5.15,4.5,1.67,1.73,3.44,3.51,4.56,5.59,3.91,7.28,3.61,15.14,2.57,23.03-.04.34-.15.79-.39.97-3.24,2.54-5.26,6.79-10.06,7.17-.6.05-1.15.52-1.74.74-1.17.45-2.33,1.17-3.52,1.23-7.26.39-13.8-1.94-19.05-6.76-3.41-3.13-5.72-7.41-8.81-10.94-4.08-4.66-5.28-10.15-5.46-16.07Z"/><path class="cls-1" d="m164.14,437.25c.18,5.91,1.38,11.41,5.46,16.07,3.08,3.52,5.4,7.81,8.81,10.94,5.25,4.82,11.79,7.15,19.05,6.76,1.19-.06,2.36-.79,3.52-1.23.59-.23,1.15-.7,1.74-.74,4.8-.38,6.81-4.64,10.06-7.17.24-.19.35-.63.39-.97,1.03-7.89,1.34-15.75-2.57-23.03-1.12-2.08-2.89-3.87-4.56-5.59-1.58-1.63-3.41-3.02-5.15-4.5-.32-.27-.71-.59-1.09-.63-2.53-.24-5.06-.37-7.59-.6-3.1-.29-6.2-.94-9.3-.9-3.83.05-7.81.11-11.44,1.15-3.36.96-5.81,3.81-7.27,7.1-.42.95-.06,2.24-.06,3.37Z"/><path d="m339.13,129.87c-3.1.57-5.54,1.07-8.01,1.46-7.01,1.11-13.18,4.22-19.06,7.98-1.4.9-2.45,2.36-3.63,3.59-.73.76-1.28,1.73-2.08,2.37-4.92,3.93-7.34,9.4-8.75,15.21-1,4.12-1.01,8.48-1.42,12.74-.18,1.84-.13,3.71-.36,5.54-1.05,8.28,3.11,14.81,7.05,21.43,1.75,2.94,3.38,5.95,5.21,8.84.78,1.23,1.86,2.32,2.95,3.31.72.65,1.92.81,2.53,1.51,2.8,3.2,6.85,3.93,10.5,5.31,7.12,2.71,14.58,3.51,22.17,2.81,3.81-.35,6.94,2.7,6.36,6.4-.09.59-.13,1.2-.31,1.76-1.67,4.97-.07,9.89.01,14.84.06,3.5,1.15,6.69,1.69,10.03.72,4.46,1.48,9.04,3.18,13.18,2.83,6.9,7.86,12.17,14.39,15.91,2.3,1.31,4.54,2.73,6.88,3.95,3.45,1.8,6.93,3.54,10.48,5.13.89.4,2.11-.02,3.12.2.94.2,1.81.73,2.71,1.13.91.41,1.85,1.26,2.72,1.2,5.6-.42,11.22-.87,16.77-1.69,1.93-.28,3.82-1.47,5.54-2.54,3.53-2.19,6.94-4.59,10.41-6.87.36-.24.93-.17,1.3-.4.83-.52,1.73-1.03,2.37-1.75,1.29-1.48,2.46-3.07,3.62-4.66.61-.84,1.19-1.72,1.64-2.65.78-1.62,1.58-1.94,2.83-.62,2.09,2.19,4.23,4.4,5.93,6.89,2.48,3.63,5.73,6.21,9.88,7.12,3.89.86,7.97,1.15,11.97,1.15,4.35,0,8.7-.54,13.04-.99,1.83-.19,3.61-.76,5.42-1.16.19-.04.47-.06.55-.19,1.43-2.39,4.05-1.74,6.13-2.47,1.4-.49,2.63-1.43,3.99-2.05,1.34-.62,2.77-1.05,4.13-1.65,1.01-.45,1.99-1.01,2.92-1.61.6-.38,1.08-.94,1.64-1.38.26-.2.73-.22.86-.46,1.81-3.36,5.59-3.91,8.33-5.94.99-.73,1.72-1.82,2.55-2.75.22-.25.37-.74.59-.77,3.22-.35,4.32-3.84,7.12-4.76,1.76-.58,2.44-1.75,2.9-3.58.64-2.52,2-4.85,2.96-7.3,1.42-3.62,2.78-7.26,4.11-10.9,1.12-3.06,2.17-6.15,3.3-9.36-2.04-.65-2.41-1.88-1.69-3.59.17-.4.11-.92.07-1.37-.27-3.08-.5-6.17-.88-9.24-.14-1.09-.54-2.18-1.02-3.18-1.08-2.26-2.43-4.4-3.4-6.7-1.79-4.21-.54-6.89,3.95-9.42,5.11-2.88,9.94-6.1,14.05-10.25,1.83-1.84,3.16-4.22,4.55-6.45,3.92-6.29,7.36-12.81,9.63-19.9.36-1.13.61-2.3.89-3.45.56-2.34,1.1-4.69,1.65-7.03.06-.26.19-.51.19-.77-.07-5.18,1.08-10.35-.28-15.57-.7-2.69-.34-5.64-.91-8.38-.9-4.36-1.46-8.87-4.18-12.68-1.13-1.59-2.24-3.29-2.92-5.1-1.36-3.64-3.56-6.65-6.38-9.19-1.13-1.02-2.67-1.58-4.03-2.34-.29-.16-.68-.18-.9-.39-3.09-2.93-7.32-3.64-10.96-5.51-1.23-.63-2.94-.49-4.42-.42-3.83.18-7.65.5-11.47.81-1.39.11-1.54-.71-1.48-1.73.19-3.04.22-6.1.64-9.11.75-5.43-.28-10.68-1.15-15.96-.32-1.95-.25-3.99-.73-5.89-.71-2.79-1.68-5.53-2.68-8.24-2.42-6.53-6.07-12.22-11.13-17.12-3.35-3.24-6.07-7.12-9.1-10.69-.59-.69-1.27-1.41-2.06-1.81-5.19-2.59-10.37-5.23-15.68-7.56-2.93-1.28-6.12-1.97-9.18-2.95-1.39-.44-2.82-1.45-4.14-1.31-4.78.51-9.5,1.67-14.28,2.05-4.06.32-7.18,2.31-10.47,4.29-3.67,2.21-7.48,4.17-11.2,6.3-.79.45-1.51,1.09-2.1,1.78-3.41,3.95-6.87,7.87-10.11,11.95-1.24,1.56-1.88,3.57-2.9,5.32-.6,1.03-1.41,1.93-2.11,2.9-.56.79-1.35,1.52-1.59,2.41-.66,2.41-1.06,4.9-1.63,7.34-.19.8-.39,1.79-.94,2.26-1.74,1.46-2.05,3.23-1.83,5.35.09.88-.36,1.82-.56,2.73-1.03-.25-2.35-.17-3.04-.8-3.18-2.86-6.62-5.25-10.51-7.02-.73-.33-1.47-1.05-1.81-1.78-.79-1.67-2.04-1.88-3.7-1.92-4.23-.11-8.45-.47-12.68-.69-1.36-.07-2.74-.31-3.82,1.03-.3.38-1.23.27-1.88.37-3.39.5-6.8.87-10.16,1.53-1.96.38-3.85,1.18-5.74,1.87-.53.19-.96.66-1.45.99-2.42,1.68-4.94,3.23-7.24,5.06-1.57,1.25-2.9,2.84-4.23,4.37-1.21,1.39-2.43,2.83-3.36,4.41-.75,1.27-1.02,2.82-1.61,4.19-.66,1.54-1.63,2.98-2.14,4.56-.82,2.55-1.8,5.17-1.94,7.8-.28,5.61-.09,11.24.01,16.87.01.72.66,1.42,1,2.14.35.74.79,1.46,1.01,2.24.78,2.86,1.45,5.75,2.21,8.61.44,1.65.95,3.28,1.49,4.9.25.73.64,1.42,1,2.11.73,1.42,1.48,2.82,2.35,4.46Zm-23.98,46.1c.28-2.76-.02-5.75.96-8.23,2-5.02,4.39-10.05,8.95-13.32,2.71-1.95,5.52-4.18,9.32-3.68.46.06,1.23-.13,1.41-.45.85-1.5,2.09-1.3,3.46-1.13,1.11.14,2.25.12,3.37.06,7.4-.38,14.79-.76,22.18-1.21.8-.05,1.78-.35,2.33-.89,1.89-1.85,3.68-3.8,5.39-5.81.98-1.16,1.22-2.53.69-4.1-.21-.61.11-1.86.59-2.14,1.61-.96.82-2.13.18-2.8-3.2-3.35-6.5-6.61-11.25-7.79-.96-.24-1.86-.9-2.69-1.51-2.74-2.01-4.27-4.97-5.94-7.8-1.27-2.15-2.75-4.21-3.75-6.47-2.52-5.7-1.9-11.61-.92-17.56,1-6.09,4.41-10.42,9.27-13.84,1.72-1.21,3.47-2.4,5.29-3.44,1.08-.62,2.31-1.13,3.53-1.33,1.28-.22,2.64-.07,3.96.02,3.91.26,7.8.59,11.25,2.75,3.46,2.17,7.13,4.06,10.38,6.51,4.75,3.57,9.12,7.61,12.72,12.43,1.35,1.8,2.99,3.67,4.92,4.7,3.46,1.83,7.24,2.26,11.33,1.93,4.01-.32,7.14-3.98,6.51-7.8-.69-4.17-1.29-8.38-2.32-12.47-.48-1.92-.69-3.65-.39-5.61.5-3.18.3-6.5,1.02-9.61.85-3.64,2-7.14,4.04-10.52,2.14-3.56,3.81-7.41,6.28-10.89,3.01-4.25,7.77-6.2,11.23-9.77.17-.17.47-.24.73-.3,2.01-.46,3.67-2.18,5.98-1.64.36.08.88-.27,1.25-.52,2.41-1.63,5-1.7,7.59-.7,4.25,1.64,8.49,3.34,12.68,5.15,5.49,2.37,9.92,6.15,13.24,11.04,3,4.41,5.47,9.17,8.31,13.69,2.12,3.37,2.97,7.06,3.13,10.93.19,4.62.24,9.24.3,13.86,0,.47-.19,1.2-.53,1.38-1.35.71-1.49,1.87-1.59,3.17-.04.53-.35,1.15-.74,1.53-1.79,1.76-3.64,3.45-5.48,5.16-1.36,1.26-3.19,2.27-2.12,4.7.18.42-.28,1.12-.43,1.69-.2.76-.52,1.53-.53,2.3-.02,1.49,0,2.89-1.42,3.9-.32.23-.36,1.09-.27,1.61.58,3.3,1.73,6.23,4.36,8.63,2.75,2.52,8.48,3.36,11.66,1.28.86-.56,1.88-.89,2.86-1.24,1.49-.53,3.06-.87,4.52-1.48,5.93-2.49,11.85-4.98,18.53-4.12.7.09,1.45-.23,2.17-.16,1.36.12,2.88.04,4.02.65,4.08,2.17,7.78,4.44,9.39,9.54.99,3.14,3.13,5.95,4,9.41.76,3.01,1.33,5.84,1.01,8.91-.28,2.63-.67,5.3-.47,7.9.21,2.72-.31,4.96-1.76,7.27-.97,1.54-.97,3.66-1.83,5.29-1.06,2.01-2.67,3.72-3.86,5.68-2.93,4.83-8.59,6.53-12.09,10.68-.12.14-.34.21-.53.26-2.66.71-5.32,1.41-7.97,2.13-.82.22-1.93.26-2.4.81-1.46,1.71-3.34,1.67-5.26,1.72-3.64.1-7.27.13-10.91.31-.67.03-1.46.5-1.95,1-1.37,1.4-2.71,2.85-3.9,4.41-2.22,2.89-3.2,5.9-1.04,9.48,1.6,2.66,3.45,4.97,5.67,7.06,1.49,1.4,2.78,3.21,4.54,4.08,3.61,1.78,5.98,4.65,8.29,7.73,3.89,5.18,4.05,11.18,3.94,17.25-.01.75-.39,1.54-.74,2.23-3.18,6.25-7.14,11.86-13.07,15.85-.92.62-1.7,1.47-2.54,2.22-2.87,2.56-5.69,5.1-9.58,6.15-2.02.55-3.93,1.57-5.83,2.48-4.76,2.28-9.72,3.84-14.98,4.38-3.98.41-7.86.34-10.61-3.22-.91-1.18-1.67-2.48-2.41-3.78-.39-.68-.4-1.61-.88-2.18-3.2-3.8-3.89-8.45-4.48-13.11-.14-1.12-.35-1.89-1.46-2.26-1.18-.39-1.34-1.11-1.06-2.32.27-1.15.54-2.74-.02-3.57-1.62-2.39-3.7-4.46-5.52-6.71-1.66-2.05-3.65-2.6-6.17-1.84-1.7.52-3.5.72-5.24,1.11-3.16.7-5.63,3.63-5.88,6.87-.33,4.28-.33,8.63-1.1,12.83-.93,5.07-2.77,9.89-6.68,13.61-.67.64-1.16,1.46-1.85,2.06-2.76,2.41-5.26,5.35-8.42,7.03-6.19,3.31-12.55.05-18.83-.55-.06,0-.12-.05-.18-.08-3.44-1.96-7.03-3.7-10.29-5.94-3.1-2.13-6.04-4.64-6.04-8.99,0-.42-.32-.84-.5-1.25-.59-1.3-1.31-2.56-1.76-3.91-1.46-4.43-2.36-8.91-1-13.57.2-.68.2-1.47.07-2.17-1.28-6.79,3.4-11.72,5.43-17.47.04-.12.14-.22.24-.31,2.13-1.98,4.1-4.17,6.43-5.86,2.7-1.97,4.26-4.62,5.72-7.47,1.61-3.15-1.09-6.06-.4-9.17.11-.5-.62-1.27-1.09-1.8-1.82-2.09-3.92-3.46-6.91-2.76-1.08.25-2.24.23-3.36.3-3.34.2-6.02,2.1-8.37,4.04-2.05,1.69-4.16,2.96-6.59,3.81-8.87,3.1-17.9,2.07-26.91.92-1.66-.21-3.29-1-4.83-1.73-2.69-1.27-5.29-2.71-7.94-4.06-2.6-1.33-4.68-3.14-6.02-5.82-2.16-4.29-3.61-8.69-2.78-13.59Z"/><path class="cls-4" d="m315.14,175.97c-.83,4.9.62,9.29,2.78,13.59,1.34,2.67,3.42,4.49,6.02,5.82,2.65,1.35,5.26,2.79,7.94,4.06,1.54.73,3.17,1.52,4.83,1.73,9.01,1.16,18.04,2.18,26.91-.92,2.43-.85,4.54-2.11,6.59-3.81,2.35-1.95,5.03-3.84,8.37-4.04,1.12-.07,2.28-.04,3.36-.3,2.99-.7,5.09.67,6.91,2.76.47.54,1.2,1.3,1.09,1.8-.69,3.11,2.01,6.01.4,9.17-1.46,2.85-3.01,5.5-5.72,7.47-2.33,1.7-4.3,3.89-6.43,5.86-.1.09-.2.19-.24.31-2.03,5.75-6.71,10.68-5.43,17.47.13.7.12,1.5-.07,2.17-1.36,4.66-.46,9.14,1,13.57.45,1.35,1.17,2.61,1.76,3.91.19.41.5.84.5,1.25,0,4.36,2.95,6.86,6.04,8.99,3.25,2.24,6.84,3.98,10.29,5.94.06.03.12.08.18.08,6.29.59,12.64,3.85,18.83.55,3.16-1.69,5.66-4.62,8.42-7.03.69-.6,1.19-1.43,1.85-2.06,3.9-3.72,5.75-8.54,6.68-13.61.77-4.2.77-8.55,1.1-12.83.25-3.25,2.72-6.17,5.88-6.87,1.74-.39,3.54-.6,5.24-1.11,2.52-.76,4.51-.22,6.17,1.84,1.82,2.25,3.9,4.32,5.52,6.71.56.83.29,2.42.02,3.57-.28,1.21-.12,1.93,1.06,2.32,1.12.37,1.32,1.14,1.46,2.26.59,4.66,1.28,9.31,4.48,13.11.48.57.49,1.51.88,2.18.74,1.3,1.49,2.6,2.41,3.78,2.75,3.56,6.63,3.63,10.61,3.22,5.26-.54,10.22-2.1,14.98-4.38,1.91-.91,3.81-1.94,5.83-2.48,3.89-1.05,6.71-3.6,9.58-6.15.84-.75,1.61-1.6,2.54-2.22,5.93-3.99,9.89-9.6,13.07-15.85.35-.69.73-1.48.74-2.23.12-6.07-.05-12.07-3.94-17.25-2.31-3.08-4.68-5.95-8.29-7.73-1.76-.87-3.05-2.67-4.54-4.08-2.22-2.09-4.07-4.41-5.67-7.06-2.16-3.59-1.17-6.59,1.04-9.48,1.19-1.55,2.52-3.01,3.9-4.41.49-.5,1.28-.97,1.95-1,3.63-.18,7.27-.21,10.91-.31,1.91-.05,3.8-.01,5.26-1.72.47-.55,1.57-.58,2.4-.81,2.66-.72,5.32-1.42,7.97-2.13.19-.05.41-.12.53-.26,3.51-4.15,9.17-5.84,12.09-10.68,1.18-1.96,2.8-3.67,3.86-5.68.86-1.63.86-3.75,1.83-5.29,1.45-2.31,1.97-4.55,1.76-7.27-.2-2.61.19-5.28.47-7.9.32-3.07-.25-5.9-1.01-8.91-.88-3.47-3.01-6.27-4-9.41-1.61-5.11-5.32-7.37-9.39-9.54-1.14-.6-2.66-.52-4.02-.65-.71-.06-1.46.25-2.17.16-6.68-.86-12.59,1.64-18.53,4.12-1.46.61-3.02.95-4.52,1.48-.98.35-2,.68-2.86,1.24-3.18,2.08-8.91,1.24-11.66-1.28-2.63-2.41-3.77-5.33-4.36-8.63-.09-.52-.05-1.38.27-1.61,1.42-1.02,1.39-2.41,1.42-3.9.01-.77.33-1.53.53-2.3.15-.57.61-1.27.43-1.69-1.07-2.42.76-3.43,2.12-4.7,1.83-1.71,3.69-3.4,5.48-5.16.39-.38.7-1,.74-1.53.09-1.31.24-2.46,1.59-3.17.33-.18.53-.91.53-1.38-.06-4.62-.11-9.24-.3-13.86-.16-3.87-1.01-7.56-3.13-10.93-2.84-4.52-5.31-9.28-8.31-13.69-3.32-4.89-7.76-8.67-13.24-11.04-4.19-1.81-8.42-3.51-12.68-5.15-2.6-1-5.18-.93-7.59.7-.37.25-.89.61-1.25.52-2.31-.54-3.97,1.18-5.98,1.64-.25.06-.56.12-.73.3-3.46,3.57-8.22,5.52-11.23,9.77-2.47,3.49-4.13,7.33-6.28,10.89-2.04,3.39-3.19,6.89-4.04,10.52-.72,3.11-.53,6.43-1.02,9.61-.31,1.96-.09,3.69.39,5.61,1.03,4.09,1.63,8.3,2.32,12.47.64,3.83-2.5,7.48-6.51,7.8-4.09.33-7.86-.1-11.33-1.93-1.94-1.02-3.57-2.89-4.92-4.7-3.61-4.82-7.97-8.85-12.72-12.43-3.25-2.45-6.92-4.34-10.38-6.51-3.45-2.16-7.34-2.49-11.25-2.75-1.32-.09-2.68-.24-3.96-.02-1.22.2-2.45.71-3.53,1.33-1.82,1.04-3.57,2.23-5.29,3.44-4.86,3.42-8.27,7.75-9.27,13.84-.98,5.96-1.6,11.86.92,17.56,1,2.27,2.48,4.33,3.75,6.47,1.68,2.83,3.21,5.79,5.94,7.8.83.61,1.72,1.27,2.69,1.51,4.76,1.17,8.05,4.44,11.25,7.79.64.67,1.43,1.85-.18,2.8-.48.28-.79,1.53-.59,2.14.53,1.57.29,2.95-.69,4.1-1.7,2.02-3.5,3.97-5.39,5.81-.55.54-1.53.84-2.33.89-7.39.45-14.79.84-22.18,1.21-1.12.06-2.26.08-3.37-.06-1.37-.17-2.61-.37-3.46,1.13-.18.32-.95.51-1.41.45-3.8-.51-6.6,1.73-9.32,3.68-4.56,3.28-6.96,8.31-8.95,13.32-.99,2.48-.68,5.47-.96,8.23Zm129.37-49.85c1.97.83,4.1,2.55,6.09,2.4,3.71-.28,6.97.79,10.13,2.11,3,1.25,5.71,3.2,8.49,4.94,1.83,1.14,3.42,2.8,5.38,3.57,2.31.9,3.59,2.55,4.84,4.43.47.71.97,1.58,1.67,1.91,1.92.89,2.14,2.49,2.25,4.26.03.49.19,1,.42,1.43.61,1.12,1.62,2.11,1.91,3.29,2.01,8.34,1.6,16.73-.23,25.02-.79,3.59-2.18,7.08-3.59,10.5-.9,2.19-2.35,4.09-4.83,4.96-.85.3-1.49,1.19-2.2,1.84-2.06,1.91-3.85,4.34-6.25,5.59-1.8.94-3.62,1.7-5.18,3.06-.66.58-1.54,1.1-2.39,1.25-3.99.71-7.89,2-12.08,1.45-3.18-.42-6.42-.26-9.63-.47-1.39-.09-2.77-.37-3.3-2.05-.1-.31-.7-.61-1.11-.66-3.8-.46-7.24-1.87-10.52-3.8-.87-.51-2.01-.52-2.99-.89-.82-.31-1.7-.65-2.32-1.23-1-.94-1.77-2.13-2.72-3.13-1.98-2.09-4.95-3.39-5.19-6.85-.03-.47-.85-.83-1.12-1.34-1.27-2.37-2.96-4.65-3.6-7.19-1.39-5.53-2.19-11.19-3.29-16.79-.83-4.22-1.17-8.35,1.04-12.35.45-.81.45-2.12.15-3.04-.43-1.35-.11-2.33.75-3.25,1.09-1.15,2.66-2.05,3.26-3.39,1.58-3.5,4.18-5.78,7.33-7.77,6.67-4.21,13.54-7.61,21.74-6.93,1.05.09,2.13.18,3.17.04,1.32-.18,2.6-.6,3.89-.92Z"/><path d="m444.51,126.12c-1.29.32-2.57.74-3.89.92-1.04.14-2.12.04-3.17-.04-8.2-.68-15.07,2.72-21.74,6.93-3.15,1.99-5.76,4.27-7.33,7.77-.61,1.35-2.18,2.25-3.26,3.39-.87.92-1.19,1.89-.75,3.25.29.92.3,2.22-.15,3.04-2.22,4-1.87,8.12-1.04,12.35,1.1,5.6,1.91,11.27,3.29,16.79.64,2.54,2.33,4.82,3.6,7.19.27.51,1.08.87,1.12,1.34.24,3.46,3.21,4.76,5.19,6.85.95,1,1.71,2.19,2.72,3.13.62.58,1.5.92,2.32,1.23.97.36,2.12.38,2.99.89,3.28,1.93,6.72,3.34,10.52,3.8.4.05,1.01.35,1.11.66.53,1.67,1.91,1.96,3.3,2.05,3.21.21,6.46.06,9.63.47,4.2.55,8.09-.73,12.08-1.45.85-.15,1.73-.67,2.39-1.25,1.56-1.36,3.38-2.12,5.18-3.06,2.4-1.25,4.19-3.68,6.25-5.59.71-.65,1.35-1.54,2.2-1.84,2.48-.88,3.93-2.77,4.83-4.96,1.41-3.42,2.8-6.91,3.59-10.5,1.82-8.29,2.24-16.68.23-25.02-.28-1.18-1.29-2.18-1.91-3.29-.23-.43-.39-.94-.42-1.43-.11-1.77-.33-3.37-2.25-4.26-.7-.33-1.2-1.2-1.67-1.91-1.25-1.88-2.53-3.52-4.84-4.43-1.96-.77-3.55-2.43-5.38-3.57-2.78-1.73-5.5-3.69-8.49-4.94-3.16-1.32-6.42-2.39-10.13-2.11-1.99.15-4.12-1.57-6.09-2.4Zm-3.52,21.62c3.22-.45,5.8,1.02,8.36,2.64.61.39,1.28.85,1.96.92,4.68.46,8.23,2.94,11.47,6.1,2.48,2.41,4.13,5.17,3.88,8.75-.12,1.78-.34,3.56-.66,5.31-.62,3.37-1.05,6.85-4.32,9-.46.31-.51,1.18-.88,1.7-.65.92-1.24,1.97-2.12,2.59-1.23.87-2.73,1.33-4.05,2.07-2.59,1.45-5.39,1.65-8.09.88-3.81-1.09-7.72-1.81-11.11-4.31-4.62-3.41-8.58-7.34-10.02-12.89-1.03-3.96-1.02-8.22-1.15-12.36-.13-4.17,3.96-9.17,8.09-9.86,2.83-.48,5.76-.38,8.65-.54Z"/><path class="cls-1" d="m441,147.74c-2.89.16-5.82.06-8.65.54-4.13.7-8.21,5.69-8.09,9.86.13,4.14.12,8.4,1.15,12.36,1.44,5.55,5.4,9.48,10.02,12.89,3.4,2.51,7.3,3.22,11.11,4.31,2.7.77,5.5.57,8.09-.88,1.32-.74,2.83-1.2,4.05-2.07.88-.62,1.48-1.68,2.12-2.59.37-.52.42-1.4.88-1.7,3.27-2.15,3.69-5.63,4.32-9,.32-1.75.54-3.53.66-5.31.25-3.58-1.41-6.33-3.88-8.75-3.24-3.16-6.79-5.64-11.47-6.1-.68-.07-1.35-.53-1.96-.92-2.55-1.62-5.13-3.09-8.36-2.64Z"/><path d="m696.69,438.99c-.1-.57-.38-1.12-.26-1.55,2.24-7.58-1.47-14.83-1.32-22.32.04-1.96-1.81-4-2.9-5.94-.54-.97-1.76-1.7-1.96-2.69-1.04-5.06-4.88-8.3-7.63-12.25-.89-1.28-2.19-2.42-2.65-3.83-1.87-5.73-6.44-9.3-10.69-12.81-5.31-4.39-11.26-8.05-17.16-11.65-4.35-2.65-8.94-4.97-13.65-6.91-3.42-1.41-6.91-1.67-10.69.42-2.9,1.6-6.68,1.61-10.07,2.33-.84.18-2.03.05-2.46.56-2.09,2.5-4.91,2.37-7.67,2.38-3.13.02-5.83.83-8.52,2.62-4.3,2.88-9.12,5-13.37,7.93-2.7,1.86-4.79,4.62-7.12,7.01-.48.49-.72,1.24-1.24,1.66-2.35,1.92-3.65,4.19-3.43,7.39.13,1.96-1.35,2.86-3.19,2.16-1.41-.54-2.83-1.36-3.89-2.41-1.66-1.64-3.27-3.43-4.46-5.42-2.29-3.82-5.61-6.33-9.43-8.36-7.74-4.12-15.51-8.11-24.19-10.06-5.82-1.3-11.45-3.47-17.28-4.73-6.89-1.49-13.89-1.48-20.86-.08-3.06.61-6.2.82-9.26,1.41-1.49.28-2.98.84-4.31,1.56-5.57,3.02-11.08,6.14-16.6,9.25-.51.29-.96.71-1.38,1.13-2.41,2.46-4.66,5.1-7.24,7.37-3.81,3.36-7.33,6.88-9.38,11.65-.47,1.08-1.47,1.92-2.14,2.93-8.46,12.88-10.96,26.96-8.1,41.98.76,3.98,2.23,7.84,3.48,11.72,1.99,6.18,3.94,12.38,6.16,18.48.69,1.9,2.17,3.52,3.31,5.25,1.03,1.56,1.04,2.2-1.13,3.04-8.05,3.11-17.17,2.93-24.52,8.07-1.51,1.05-2.95,2.25-4.22,3.58-3.05,3.21-6.15,6.39-8.89,9.85-2.83,3.58-5.27,7.47-7.87,11.23-.15.21-.16.6-.34.69-3.31,1.51-3.15,4.91-4.21,7.64-.34.89-.59,1.92-1.22,2.58-3.26,3.42-3.01,7.72-3.4,11.97-.83,9.14-.33,18.2,1.02,27.23.21,1.41.93,2.76,1.45,4.12.21.56.75,1.11.72,1.64-.35,6.8,3.52,12.46,5.01,18.75.64,2.7,8.4,16.11,10.48,17.82,1.51,1.25,3.3,2.19,5.01,3.17,6.89,3.95,14.38,7.13,20.54,11.99,7.38,5.83,15.1,2.86,22.77,3.04,1.38.03,2.8-.15,4.14.07,4.39.72,6.84,4.84,5.12,8.93-.83,1.97-2.77,3.49-3.51,5.48-.93,2.48-1.17,5.22-1.68,7.85-.08.42.06.91-.09,1.29-2.78,7.19-1.99,14.62-.89,21.89,1.07,7.08,2.77,14.09,4.76,20.97.83,2.88,2.76,5.67,4.8,7.94,5.15,5.73,10.46,11.34,16.08,16.61,4.28,4.02,8.89,7.81,13.8,11.02,4.42,2.89,9.81,3.36,15.06,3.51,4.6.13,9.21.05,13.82.06.26,0,.57-.1.78,0,4.3,2.08,8.39-.1,12.51-.7,2.26-.33,4.4-1.4,6.61-2.09,4.36-1.37,8.72-2.72,13.09-4.05.66-.2,1.36-.33,2.05-.34,2.34-.06,5.05.64,5.43-2.97,4.44-3.43,8.67-7.18,13.39-10.16,2.74-1.73,5.47-3.21,7.52-5.81,1.6-2.04,3.6-3.76,5.18-5.81.98-1.26,1.74-2.79,2.19-4.32.69-2.37,1.93-3.1,4.08-1.89.66.37,1.24.96,1.75,1.53,5.17,5.8,11.35,10.39,17.84,14.54,2.06,1.32,4.73,1.67,7.09,2.53,2.58.94,5.21,1.8,7.66,3,6.84,3.36,14.08,4.89,21.64,4.94,3.08.02,6.09.03,8.78,1.82.4.27,1.1.5,1.48.33,4.06-1.81,9.14-.26,12.66-3.94.54-.56,1.73-.5,2.63-.7,1.33-.3,3.04-.16,3.95-.94,5.76-4.96,12.94-8.6,15.73-16.42.23-.64.61-1.32,1.12-1.74,3.54-2.97,4.52-7.21,5.95-11.3,2.36-6.73,4.73-13.41,5.1-20.62,0-.17.03-.36.11-.51,2.74-5.06.86-9.35-1.78-13.84-1.5-2.56-1.87-5.75-4.82-7.42-.33-.18-.37-1.35-.16-1.92.71-1.95.07-3.49-.95-5.13-1.33-2.13-2.19-4.58-3.65-6.6-2.16-2.98-4.48-5.9-7.1-8.47-1.51-1.48-1.43-2.14.19-3.04.6-.33,1.27-.74,1.92-.75,7.87-.15,13.97-4.94,20.79-7.82,2.48-1.05,5.82-1.06,7.46-2.79,2.04-2.15,4.42-3.13,6.75-4.55,2.46-1.5,4.51-3.69,6.72-5.6.32-.28.48-.75.81-1.01,3.65-2.95,7.4-5.78,10.95-8.84,1.41-1.22,2.33-2.99,3.6-4.4,2.62-2.89,5.36-5.69,7.99-8.58.48-.53,1.06-1.52.88-2.02-1.19-3.18,1.36-4.48,2.88-6.38,4.95-6.19,11.21-11.4,14.73-18.65,1.5-3.08,2.05-6.61,3.16-9.89.61-1.79,1.71-3.42,2.18-5.23.42-1.62.36-3.39.4-5.09.07-2.76-.09-5.52.08-8.27.43-7-.34-13.62-2.88-20.37-1.92-5.11-5.38-8.6-8.45-12.64-1.82-2.39-3.16-5.15-4.85-7.66-.9-1.34-1.94-2.68-3.19-3.68-2.96-2.37-5.4-5.04-7.06-8.53-.69-1.45-2.08-3.1-3.5-3.56-3.27-1.07-4.95-3.62-6.95-5.96-.28-.33-.48-.78-.83-1-3.24-1.97-6.43-4.03-9.77-5.8-4.53-2.39-9.06-4.84-13.81-6.69-3.89-1.51-7.66-3.92-12.31-2.77-2.13.53-4.51-.04-6.71.31-2.94.46-5.81,1.34-8.72,2.02-.39.09-.83.01-1.37.01Zm-119.5,13.02c2.51-.43,4.39-.94,6.29-1.03,1.82-.08,3.01-.53,3.96-2.26.71-1.29,2.03-2.56,3.38-3.12,2.7-1.12,2.34-2.8,1.87-5.05-.5-2.39-.73-4.92-.53-7.34.33-4.13.91-8.27,1.72-12.33.6-2.99,1.75-5.88,2.64-8.82.37-1.22,1.17-2.53.97-3.65-.45-2.41.21-4.43,1.74-6.01,1.85-1.92,3.1-3.82,2.37-6.61-.12-.47.26-1.2.62-1.64,3.14-3.88,6.57-7.42,11.61-8.78,4.94-1.34,9.85-2.83,14.85-3.86,1.98-.41,4.6-.45,6.21.53,5.1,3.11,9.91,6.69,14.72,10.25,5.59,4.14,8.82,10.21,12.52,15.87,1.76,2.69,3.57,5.36,5.09,8.19,3.06,5.7,4.43,11.62,3.64,18.29-.54,4.59-1.56,8.61-4.5,12.16-3.48,4.2-6.88,8.47-10.25,12.77-1.07,1.36-2.36,2.79-2.74,4.38-.62,2.6-1.65,5.96-.56,7.92,1.59,2.86,4.76,4.97,7.55,6.97.77.55,2.62-.4,3.97-.63.34-.06.7-.07,1.04-.03,2.23.29,4.51.42,6.68.97,2.26.57,4.13.31,5.69-1.44.98-1.09,1.93-2.22,2.83-3.39,3.02-3.93,5.91-7.98,10.89-9.73,4.24-1.49,8.39-3.24,12.68-4.56,2.79-.86,5.74-1.23,8.64-1.66.97-.14,2.18-.1,3,.36,6.55,3.73,13.61,6.86,19.39,11.56,7.5,6.1,14.6,12.9,19.54,21.5,1.17,2.03,2.21,4.19,3.69,5.98,3.96,4.79,5.59,10.27,5.65,16.4.08,9.21-1,18.16-6.82,25.68-2.34,3.03-4.85,5.82-7.02,9.07-4.74,7.11-10.5,13.57-16.2,19.98-3.16,3.55-7.01,6.48-10.62,9.61-.69.6-1.72.78-2.56,1.22-1.2.63-2.43,1.23-3.56,1.98-3.36,2.23-6.39,4.88-10.57,5.82-3.62.81-7.12,2.22-10.61,3.56-2.83,1.09-5.86,2.36-8.58,2.93-5.2,1.09-10.99,1.4-15.89-1.98-3.43-2.37-7.15-2.95-11.12-2.29-1.43.24-2.78,1.16-4.19,1.21-4.71.17-7.81,2.9-10.81,6.05-1.6,1.69-1.93,3.27-1.01,5.41.53,1.22.87,2.71.7,4-.25,1.86-.23,3.24,1.83,3.91.45.15.78.67,1.18,1.01,4.74,4.07,9.29,8.43,15.68,9.94,1.05.25,2.08.95,2.91,1.67,3.98,3.43,7.44,7.29,9.69,12.1,1.58,3.37,3.05,6.81,4.78,10.11,5.01,9.58,8.36,19.31,2.8,29.83-1.07,2.02-2.6,3.79-3.8,5.75-.41.68-.8,1.65-.63,2.35.99,4.07-.12,6.94-4.22,8.42-.55.2-.99.69-1.5,1.02-3.28,2.15-6.79,3.65-10.79,3.04-3.92-.59-7.8-1.48-11.71-2.15-8.32-1.42-16.14-3.98-22.65-9.62-1.23-1.07-2.4-2.23-3.51-3.43-1.99-2.16-3.94-4.35-5.82-6.6-.62-.75-1-1.71-1.44-2.59-.38-.77-.61-1.61-1.05-2.34-1.67-2.79-3.66-5.42-5.05-8.35-3.23-6.8-6.81-13.55-6.12-21.52.07-.81-.75-1.89-1.44-2.53-1.33-1.22-2.76-2.4-4.33-3.26-3.08-1.69-6.16-3.62-9.49-4.58-5.52-1.6-9.33,1.84-12.89,5.5-3.98,4.11-3.36,8.66-1.89,13.59,1.2,4.02,1.78,8.22,2.57,12.36.11.56.05,1.41-.3,1.75-2.13,2.09-1.07,4.68-1.42,7.08-.53,3.61-1.58,7.17-2.7,10.66-.48,1.5-1.63,2.82-2.62,4.11-1.14,1.48-2.31,2.97-3.69,4.21-1.6,1.44-3.8,2.33-5.12,3.95-3.42,4.22-7.63,6.41-13.05,6.49-.94.01-1.95.5-2.79,1.01-1.26.77-2.26,2.12-3.6,2.56-2.53.83-5.2,1.31-7.85,1.71-4.71.71-9.11,3.01-14.1,2.36-2.73-.36-5.57.11-8.33-.13-1.33-.12-2.75-.79-3.85-1.59-2.22-1.64-4.19-3.63-6.37-5.33-7.81-6.08-13.97-13.25-15.57-23.44-.73-4.62-1.41-9.24-2.08-13.87-.27-1.87-.79-3.78-.61-5.62.71-7.21,2.55-14.14,5.77-20.66.88-1.77,1.73-3.59,2.87-5.2,1.21-1.7,2.49-3.54,4.17-4.67,3.88-2.6,8.24-4.52,12.02-7.26,3.61-2.62,8.22-3.65,11-7.68,1.58-2.29,2.11-4.18.58-6.35-1.9-2.68-4.29-5.03-6.01-7.81-3.19-5.14-7.74-6.99-13.49-6.33-1.95.23-3.89.74-5.78,1.32-1.98.61-3.86,1.58-5.84,2.19-6.26,1.94-12.51,3.94-18.83,5.64-7.95,2.14-16.11,3.13-24.21,1.35-5.81-1.28-11.67-3.03-15.22-8.63-3.15-4.98-6.33-9.95-9.68-14.79-3.89-5.6-5.15-12.2-6.54-18.54-1.34-6.12-1.01-12.61-1.32-18.94-.24-4.97.58-9.67,3.64-13.82,1.73-2.35,3.8-4.65,4.75-7.32.95-2.68,2.41-4.71,4.3-6.65.95-.99,1.91-2.1,2.45-3.34,1.93-4.43,6.22-6.32,10.04-7.16,7.14-1.59,14.59-1.87,21.93-2.41,1.98-.15,4.04.73,6.06,1.12,2.19.42,4.38.82,6.57,1.2,1.98.34,4.02.48,5.94,1.02,1.97.56,3.77,1.86,5.75,2.17,2.89.45,5.89.27,8.83.44,2.8.17,5.28-.22,7.87-1.73,5.32-3.1,6.24-9.08,4.61-13.83-.42-1.23-1.71-2.55-2.92-3.05-5.19-2.15-10.47-4.08-15.77-5.96-7.61-2.69-13.19-8.2-18.99-13.42-.73-.65-1.12-1.72-1.55-2.66-.75-1.65-1.38-3.35-2.09-5.01-.92-2.15-2.17-4.21-2.75-6.45-1.54-5.95-3.17-11.92-4.06-17.98-1.21-8.26-2.75-16.66,1.83-24.6,2.62-4.53,4.35-9.44,8.93-12.82,6.84-5.05,12.32-12.01,20.96-14.46.47-.13.8-.69,1.26-.91.84-.41,1.71-.97,2.6-1.03,4.51-.32,8.88-1.91,13.59-.64,4.48,1.21,9.53.82,13.65,2.66,4.26,1.91,8.78,3.01,12.99,5.22,7.26,3.83,12.64,9.4,17.7,15.49,1.63,1.96,3.36,4.33,3.71,6.7.38,2.59,1.4,4.39,3.15,5.96,2.99,2.68,4.4,6.22,5.53,9.88.48,1.56.38,3.3.58,5.41-1.25-.56-1.89-.85-2.97-1.33.68,11.09,9.02,16.11,15.32,21.73Z"/><path class="cls-2" d="m577.19,452.01c-6.3-5.62-14.64-10.64-15.32-21.73,1.08.48,1.72.77,2.97,1.33-.21-2.11-.1-3.85-.58-5.41-1.13-3.66-2.55-7.2-5.53-9.88-1.75-1.57-2.77-3.37-3.15-5.96-.35-2.38-2.09-4.75-3.71-6.7-5.05-6.08-10.44-11.66-17.7-15.49-4.21-2.22-8.74-3.32-12.99-5.22-4.12-1.84-9.17-1.45-13.65-2.66-4.7-1.27-9.07.32-13.59.64-.89.06-1.76.62-2.6,1.03-.46.22-.79.78-1.26.91-8.64,2.45-14.12,9.41-20.96,14.46-4.57,3.38-6.31,8.29-8.93,12.82-4.58,7.93-3.03,16.34-1.83,24.6.89,6.07,2.52,12.03,4.06,17.98.58,2.24,1.83,4.3,2.75,6.45.71,1.66,1.34,3.36,2.09,5.01.42.93.82,2,1.55,2.66,5.8,5.22,11.38,10.73,18.99,13.42,5.3,1.87,10.58,3.81,15.77,5.96,1.21.5,2.5,1.82,2.92,3.05,1.63,4.75.71,10.73-4.61,13.83-2.59,1.51-5.07,1.9-7.87,1.73-2.94-.18-5.94.01-8.83-.44-1.98-.31-3.78-1.62-5.75-2.17-1.92-.54-3.96-.68-5.94-1.02-2.19-.38-4.38-.78-6.57-1.2-2.03-.38-4.08-1.26-6.06-1.12-7.34.54-14.79.82-21.93,2.41-3.81.85-8.11,2.73-10.04,7.16-.54,1.24-1.49,2.36-2.45,3.34-1.88,1.95-3.34,3.97-4.3,6.65-.95,2.67-3.01,4.97-4.75,7.32-3.06,4.15-3.89,8.85-3.64,13.82.31,6.33-.03,12.83,1.32,18.94,1.39,6.34,2.65,12.94,6.54,18.54,3.36,4.84,6.53,9.81,9.68,14.79,3.55,5.6,9.41,7.35,15.22,8.63,8.1,1.78,16.26.79,24.21-1.35,6.33-1.7,12.57-3.7,18.83-5.64,1.98-.62,3.86-1.58,5.84-2.19,1.88-.58,3.82-1.1,5.78-1.32,5.76-.67,10.31,1.19,13.49,6.33,1.72,2.77,4.11,5.13,6.01,7.81,1.54,2.17,1,4.06-.58,6.35-2.77,4.04-7.39,5.06-11,7.68-3.77,2.74-8.13,4.66-12.02,7.26-1.69,1.13-2.97,2.97-4.17,4.67-1.14,1.6-1.99,3.42-2.87,5.2-3.22,6.52-5.06,13.46-5.77,20.66-.18,1.83.34,3.75.61,5.62.67,4.63,1.35,9.25,2.08,13.87,1.6,10.19,7.76,17.36,15.57,23.44,2.18,1.7,4.15,3.69,6.37,5.33,1.09.81,2.52,1.48,3.85,1.59,2.76.24,5.6-.23,8.33.13,4.99.65,9.4-1.65,14.1-2.36,2.65-.4,5.31-.88,7.85-1.71,1.33-.44,2.34-1.79,3.6-2.56.83-.51,1.85-.99,2.79-1.01,5.42-.07,9.63-2.27,13.05-6.49,1.32-1.63,3.51-2.52,5.12-3.95,1.38-1.24,2.56-2.73,3.69-4.21.99-1.29,2.14-2.61,2.62-4.11,1.13-3.49,2.18-7.05,2.7-10.66.35-2.4-.71-4.99,1.42-7.08.35-.34.41-1.19.3-1.75-.79-4.13-1.37-8.34-2.57-12.36-1.47-4.93-2.1-9.49,1.89-13.59,3.55-3.66,7.36-7.1,12.89-5.5,3.33.96,6.4,2.89,9.49,4.58,1.57.86,3,2.04,4.33,3.26.69.64,1.51,1.72,1.44,2.53-.68,7.97,2.9,14.71,6.12,21.52,1.39,2.92,3.38,5.55,5.05,8.35.44.73.67,1.58,1.05,2.34.44.89.82,1.85,1.44,2.59,1.88,2.25,3.83,4.44,5.82,6.6,1.11,1.2,2.27,2.36,3.51,3.43,6.51,5.64,14.33,8.2,22.65,9.62,3.91.67,7.79,1.56,11.71,2.15,4,.61,7.52-.89,10.79-3.04.51-.33.95-.83,1.5-1.02,4.1-1.48,5.21-4.36,4.22-8.42-.17-.7.21-1.68.63-2.35,1.2-1.96,2.73-3.73,3.8-5.75,5.56-10.53,2.21-20.25-2.8-29.83-1.72-3.3-3.19-6.73-4.78-10.11-2.26-4.81-5.72-8.67-9.69-12.1-.84-.72-1.87-1.42-2.91-1.67-6.39-1.51-10.94-5.87-15.68-9.94-.4-.34-.73-.86-1.18-1.01-2.06-.68-2.08-2.06-1.83-3.91.17-1.29-.17-2.78-.7-4-.92-2.13-.6-3.72,1.01-5.41,3-3.16,6.11-5.89,10.81-6.05,1.41-.05,2.76-.97,4.19-1.21,3.97-.67,7.69-.08,11.12,2.29,4.9,3.38,10.69,3.07,15.89,1.98,2.71-.57,5.74-1.84,8.58-2.93,3.48-1.34,6.98-2.75,10.61-3.56,4.17-.93,7.21-3.59,10.57-5.82,1.13-.75,2.35-1.35,3.56-1.98.84-.44,1.87-.62,2.56-1.22,3.61-3.13,7.46-6.06,10.62-9.61,5.7-6.41,11.47-12.87,16.2-19.98,2.17-3.26,4.68-6.05,7.02-9.07,5.82-7.52,6.9-16.47,6.82-25.68-.06-6.12-1.69-11.6-5.65-16.4-1.48-1.79-2.52-3.95-3.69-5.98-4.94-8.59-12.04-15.4-19.54-21.5-5.78-4.7-12.84-7.84-19.39-11.56-.81-.46-2.03-.51-3-.36-2.9.43-5.85.8-8.64,1.66-4.29,1.32-8.44,3.08-12.68,4.56-4.99,1.75-7.88,5.79-10.89,9.73-.89,1.17-1.85,2.29-2.83,3.39-1.56,1.74-3.43,2.01-5.69,1.44-2.17-.55-4.45-.67-6.68-.97-.34-.04-.7-.03-1.04.03-1.36.24-3.2,1.19-3.97.63-2.8-2.01-5.97-4.11-7.55-6.97-1.09-1.96-.06-5.32.56-7.92.38-1.59,1.68-3.02,2.74-4.38,3.37-4.3,6.77-8.56,10.25-12.77,2.95-3.56,3.96-7.57,4.5-12.16.79-6.66-.58-12.59-3.64-18.29-1.52-2.83-3.33-5.5-5.09-8.19-3.7-5.66-6.93-11.73-12.52-15.87-4.81-3.56-9.62-7.14-14.72-10.25-1.61-.98-4.22-.94-6.21-.53-5,1.03-9.91,2.52-14.85,3.86-5.04,1.37-8.47,4.9-11.61,8.78-.36.44-.74,1.18-.62,1.64.73,2.8-.52,4.69-2.37,6.61-1.53,1.59-2.19,3.6-1.74,6.01.21,1.12-.6,2.43-.97,3.65-.89,2.94-2.04,5.82-2.64,8.82-.81,4.06-1.39,8.2-1.72,12.33-.19,2.42.03,4.95.53,7.34.47,2.25.83,3.93-1.87,5.05-1.35.56-2.67,1.83-3.38,3.12-.95,1.74-2.14,2.18-3.96,2.26-1.9.08-3.78.59-6.29,1.03Zm10.26,44.28c6.6.88,12.17,1.71,17.77,2.34,3.34.37,6.42,1.04,8.91,3.56.94.95,2.22,1.71,3.48,2.21,7.5,2.93,14.96,5.88,19.12,13.5,1.89,3.46,4.55,6.8,5.29,10.51,1.36,6.85,1.57,13.93,2.23,20.91.04.41-.06.89-.24,1.26-1.94,3.98-3.63,7.96-6.33,11.67-6.32,8.66-14.74,13.46-24.84,15.77-4.72,1.08-9.62,1.39-14.31,2.54-8.92,2.18-17.17.54-25.19-3.46-2.54-1.27-5.13-2.68-7.86-3.27-5.19-1.11-9.24-3.84-12.36-7.88-2.85-3.7-4.91-8.07-8.02-11.49-3.07-3.38-3.17-6.89-2.51-10.84.38-2.3,1.42-4.67,1.11-6.86-.82-5.88,1.15-10.68,4.43-15.31.6-.85.28-2.37.36-3.58.06-.96-.21-2.07.18-2.85.96-1.91,2.1-3.77,3.4-5.46.63-.81,1.78-1.23,2.71-1.79,1.07-.64,2.31-1.06,3.21-1.88,1.34-1.22,2.32-2.84,3.68-4.03,3.16-2.79,6.22-5.43,11.2-4.29,2.89.66,6.14-.08,9.21-.36,2.11-.2,4.19-.7,5.38-.91Z"/><path d="m587.44,496.29c-1.19.21-3.27.72-5.38.91-3.07.29-6.32,1.03-9.21.36-4.97-1.14-8.03,1.5-11.2,4.29-1.36,1.2-2.34,2.82-3.68,4.03-.9.81-2.14,1.24-3.21,1.88-.94.56-2.09.98-2.71,1.79-1.3,1.69-2.44,3.55-3.4,5.46-.39.78-.12,1.89-.18,2.85-.08,1.21.24,2.73-.36,3.58-3.27,4.62-5.24,9.43-4.43,15.31.3,2.19-.73,4.57-1.11,6.86-.66,3.95-.57,7.46,2.51,10.84,3.12,3.43,5.17,7.79,8.02,11.49,3.12,4.04,7.17,6.77,12.36,7.88,2.73.58,5.32,2,7.86,3.27,8.02,4,16.28,5.64,25.19,3.46,4.7-1.15,9.59-1.46,14.31-2.54,10.1-2.3,18.52-7.1,24.84-15.77,2.7-3.7,4.4-7.69,6.33-11.67.18-.37.28-.85.24-1.26-.66-6.99-.87-14.06-2.23-20.91-.74-3.71-3.4-7.06-5.29-10.51-4.16-7.61-11.62-10.57-19.12-13.5-1.26-.49-2.53-1.25-3.48-2.21-2.49-2.52-5.57-3.18-8.91-3.56-5.6-.63-11.17-1.46-17.77-2.34Zm-19.45,48.12c-.28-5.24,2.79-15.28,4.6-18.94,3.35-6.8,15.02-10.04,21.55-6.1,4.22,2.55,8.35,5.29,12.74,7.51,3.61,1.83,7.6,2.88,11.28,4.59,1.11.52,2.47,2.07,2.47,3.15,0,3.85-.35,7.73-.9,11.55-.4,2.78-1.37,5.38-4.7,6.13-.64.14-1.04,1.12-1.65,1.6-1.48,1.16-2.87,2.71-4.57,3.28-6.62,2.22-13.45,3.57-20.37,4.58-4,.58-7.36-.27-10.49-2.59-1.18-.88-2.39-1.77-3.41-2.82-3.37-3.46-7.3-6.67-6.55-11.94Z"/><path class="cls-1" d="m568,544.41c-.75,5.27,3.18,8.48,6.55,11.94,1.02,1.05,2.23,1.94,3.41,2.82,3.13,2.32,6.49,3.17,10.49,2.59,6.93-1.01,13.75-2.36,20.37-4.58,1.7-.57,3.08-2.12,4.57-3.28.61-.47,1.01-1.45,1.65-1.6,3.33-.76,4.31-3.36,4.7-6.13.55-3.82.9-7.69.9-11.55,0-1.08-1.35-2.64-2.47-3.15-3.68-1.71-7.68-2.76-11.28-4.59-4.39-2.22-8.52-4.97-12.74-7.51-6.53-3.94-18.2-.69-21.55,6.1-1.81,3.66-4.88,13.7-4.6,18.94Z"/><path d="m143.94,156.33c-.69.57-1.5,1.04-2.32-.31-.26-.43-1.03-.6-1.6-.79-1.66-.55-3.36-.97-4.98-1.6-1.91-.74-3.81-1-5.87-.91-2.09.09-4.2-.2-6.3-.36-3.07-.24-6.13-.61-9.21-.74-1.24-.05-2.49.44-3.74.55-2.39.21-4.8.48-7.19.44-5.95-.1-11.9-.31-17.84-.56-2.36-.1-4.72-.34-7.05-.71-2-.31-3.97-.87-5.94-1.38-.34-.09-.72-.41-.9-.73-1.02-1.82-4.19-2.3-5.64-.82-.94.95-1.89,1.89-2.88,2.79-.33.3-.81.64-1.2.61-1.71-.11-1.72.83-1.65,2.14.08,1.67,0,3.37-.18,5.03-.17,1.52.25,2.73.98,4.05.72,1.29,1.06,2.53,2.96,2.43.52-.03,1.14,1.03,1.64,1.65.38.47.53,1.3.99,1.5,2.75,1.17,3.12,4.04,4.56,6.13.7,1.01,1.14,2.21,1.89,3.16,2.58,3.29,3.02,7.48,4.77,11.12.6,1.24,1.04,2.56,1.57,3.84.86,2.09,1.59,4.24,2.65,6.23.87,1.63,1.86,3.1,1.83,5.08,0,.65.82,1.32,1.3,1.96.49.66,1.27,1.22,1.49,1.96.6,2.04,1.97,3.45,3.39,4.87,1.09,1.09,2.14,2.22,3.12,3.41,1.5,1.82,2.96,3.48,5.43,4.28,2.59.84,4.96,2.38,7.42,3.61.05.02.09.06.13.07,2.49.69,4.97,1.45,7.49,2.05,2.05.49,4.16.68,6.2,1.17,5.15,1.23,10.33,1.6,15.57.7.2-.03.41-.09.61-.07,3.9.36,7.8.89,11.71,1.03,2.27.08,4.74.49,6.78-1.2.28-.23.86-.14,1.3-.14,1.53-.02,3.05-.03,4.58-.02,1.43.01,2.88.18,4.3.05.91-.09,1.79-.59,2.66-.93,1.76-.69,3.46-1.53,5.26-2.08,6.02-1.86,12.17-3.38,16.76-8.23,2.03-2.15,4.27-4.09,6.39-6.15.26-.26.43-.7.46-1.08.04-.45-.02-.95-.2-1.36-2.97-6.85-4.86-14.15-8.37-20.77-3.62-6.83-8.69-12.4-15.28-16.6-2.79-1.78-5.28-4.04-7.92-6.07-.32-.25-.67-.57-1.04-.61-3.19-.39-5.89-1.87-8.63-3.44-1.92-1.1-4.21-1.53-6.3-2.35-1.27-.5-2.47-1.17-3.96-1.89Zm-26.47,55.65c-.05.14-.11.28-.16.42-3.68-1.07-7.36-2.13-11.03-3.22-.38-.11-.72-.4-1.02-.67-3.51-3.12-6.18-6.8-7.92-11.21-3.68-9.33-6.93-18.86-11.71-27.73-.23-.42-.17-1-.23-1.5-.16-1.22.36-1.48,1.53-1.33,1.88.23,3.78.3,5.68.37,3.59.15,7.19.17,10.78.4,4.07.26,8.05.06,12.1-.58,3.17-.51,6.52.13,9.79.27.19,0,.38.15.56.24,2.9,1.46,5.98,2.01,9.22,2.14,1.73.07,3.45.73,5.13,1.28,1,.32,1.87,1.03,2.86,1.4,1.59.59,3.43.72,4.78,1.62,1.39.93,2.78,1.14,4.29,1.37.77.11,1.68.39,2.18.92,1.19,1.25,2.48,2.12,4.24,2.23.39.02.84.18,1.15.42,2.17,1.7,4.56,3.21,6.41,5.2,2.58,2.78,5.95,5.02,7.01,9.01.07.27.32.56.57.71,1.01.65,1.03,1.63,1.16,2.68.16,1.28.42,2.63,1.01,3.75,1.69,3.24.4,6.55-3.06,7.49-.59.16-1.15.45-1.74.6-2.76.72-5.53,1.43-8.31,2.12-1.78.44-3.59.74-5.34,1.25-1.21.35-2.36,1.39-3.5,1.34-1.81-.09-3.53.29-5.27.35-4.23.14-8.5,1.08-12.74-.06-.47-.13-1.01.03-1.52.07-1.22.11-2.43.31-3.64.32-2.82.02-5.64-.03-8.46-.09-.6-.01-1.22-.11-1.78-.31-1.02-.36-2-.84-3-1.26Z"/><path d="m250.84,127.42c.23-6.32.57-13.09.68-19.87.06-3.71-1.29-7.17-2.66-10.56-1.89-4.65-3.81-9.29-5.85-13.87-.44-.98-1.27-1.92-2.15-2.56-3.96-2.88-6.9-6.73-10.14-10.31-1.48-1.64-2.94-3.26-5.31-3.94-1.79-.51-3.35-1.88-5-2.87-.18-.1-.33-.24-.51-.34-3.57-2.1-7.01-4.47-10.75-6.21-3.63-1.68-6.46-4.5-9.99-6.26-.14-.07-.3-.14-.38-.25-1.32-1.92-3.44-2.5-5.4-3.49-3.77-1.9-6.15-5.33-8.19-8.91-.86-1.52-1.76-2.46-3.6-2.63-2.03-.19-4.02-.75-6.03-1.13-.33-.06-.79-.17-1.02-.02-1.88,1.31-3.77,2.63-5.56,4.07-.63.51-1.07,1.35-1.41,2.12-.4.93-.47,1.96-1.69,2.4-.25.09-.32,1.38-.09,1.98,1.08,2.85,2.09,5.77,3.51,8.45,1.47,2.78.91,5.61.88,8.44-.01,1.43-.39,2.86-.43,4.3-.02.94.28,1.88.41,2.82.09.6.28,1.23.16,1.8-.43,2.13-1.15,4.22-1.4,6.37-.27,2.28-.27,4.62-.14,6.91.25,4.72.71,9.44.98,14.16.05.92-.18,1.96-.6,2.79-.53,1.06-.53,1.9.13,2.86.3.44.5,1.04.52,1.58.13,2.93.32,5.86.24,8.78-.07,2.32.62,4.3,1.65,6.32.93,1.8,1.7,3.73,2.24,5.68.84,3.04,2.02,5.8,4.6,7.79.52.4,1,.92,1.36,1.47,2.36,3.57,5.51,6.28,8.89,8.88,3.86,2.96,7.24,6.55,11.06,9.57,1.75,1.39,4.05,2.09,6.1,3.08,1.15.55,2.27,1.17,3.47,1.59,1.67.58,3.38,1.07,5.1,1.44,1.3.28,2.66.5,3.98.42,2.03-.12,4.04-.5,6.05-.8.19-.03.44-.14.52-.29,1.79-3.1,5.39-3.99,7.76-6.38.3-.31.8-.51,1.23-.58,1.54-.26,2.44-1.29,3.42-2.42,2.02-2.35,4.24-4.54,6.35-6.82,3.97-4.29,6.3-9.33,6.99-15.61Zm-16.74-4.21c-.48,7.79-3.87,13.66-10.94,17.33-1.64.85-3.58,1.57-4.4,3.62-.16.39-1.03.74-1.52.69-2.47-.27-4.83-.84-6.85-2.47-1.19-.97-2.56-1.71-3.85-2.56-1.67-1.1-3.64-1.92-4.95-3.34-2.61-2.82-4.86-5.98-7.26-9-.45-.56-.83-1.25-1.41-1.61-4.03-2.51-4.87-6.66-5.7-10.83-.14-.7-.33-1.39-.5-2.08-.29-1.19-.68-2.36-.85-3.56-.96-6.83.41-13.71-.58-20.58-.46-3.25.13-6.66.35-9.99.36-5.41,1.18-10.8.89-16.24-.08-1.58.83-2.61,1.97-2.23,1.17.39,2.31.89,3.45,1.37.18.07.3.27.47.39,2.8,2.11,5.61,4.22,8.41,6.32.12.09.28.14.41.21,2.89,1.49,5.91,2.79,8.65,4.53,4.01,2.55,7.78,5.48,11.72,8.13,2.9,1.95,4.91,4.69,6.61,7.6,2.9,4.97,4.56,10.43,5.56,16.08.37,2.12.93,4.27.92,6.4-.01,3.95-.38,7.9-.6,11.85Z"/><path class="cls-3" d="m117.47,211.98c1,.43,1.98.9,3,1.26.56.2,1.19.29,1.78.31,2.82.06,5.64.12,8.46.09,1.22,0,2.43-.21,3.64-.32.51-.04,1.06-.2,1.52-.07,4.24,1.14,8.5.19,12.74.06,1.74-.06,3.46-.44,5.27-.35,1.14.06,2.3-.99,3.5-1.34,1.75-.51,3.57-.81,5.34-1.25,2.77-.68,5.54-1.4,8.31-2.12.59-.15,1.15-.44,1.74-.6,3.46-.94,4.75-4.25,3.06-7.49-.59-1.13-.84-2.47-1.01-3.75-.14-1.05-.16-2.04-1.16-2.68-.25-.16-.5-.44-.57-.71-1.06-3.99-4.43-6.23-7.01-9.01-1.86-2-4.24-3.51-6.41-5.2-.31-.24-.75-.39-1.15-.42-1.76-.1-3.05-.97-4.24-2.23-.5-.53-1.41-.81-2.18-.92-1.52-.22-2.9-.43-4.29-1.37-1.35-.9-3.2-1.04-4.78-1.62-.99-.37-1.86-1.07-2.86-1.4-1.68-.54-3.4-1.21-5.13-1.28-3.24-.14-6.32-.68-9.22-2.14-.18-.09-.37-.23-.56-.24-3.27-.14-6.62-.78-9.79-.27-4.06.65-8.04.85-12.1.58-3.59-.23-7.19-.25-10.78-.4-1.9-.08-3.8-.14-5.68-.37-1.17-.14-1.69.11-1.53,1.33.07.5,0,1.08.23,1.5,4.78,8.87,8.03,18.4,11.71,27.73,1.74,4.42,4.41,8.09,7.92,11.21.3.27.65.56,1.02.67,3.67,1.09,7.35,2.15,11.03,3.22.05-.14.11-.28.16-.42Z"/><path class="cls-3" d="m234.09,123.2c.22-3.95.59-7.9.6-11.85,0-2.13-.55-4.27-.92-6.4-1-5.66-2.66-11.12-5.56-16.08-1.7-2.91-3.7-5.64-6.61-7.6-3.95-2.65-7.71-5.58-11.72-8.13-2.74-1.74-5.76-3.04-8.65-4.53-.14-.07-.29-.12-.41-.21-2.81-2.1-5.61-4.21-8.41-6.32-.16-.12-.29-.32-.47-.39-1.14-.47-2.28-.97-3.45-1.37-1.14-.38-2.05.64-1.97,2.23.29,5.45-.54,10.83-.89,16.24-.22,3.33-.82,6.74-.35,9.99.98,6.87-.38,13.75.58,20.58.17,1.2.56,2.37.85,3.56.17.69.36,1.38.5,2.08.84,4.17,1.68,8.32,5.7,10.83.58.36.96,1.05,1.41,1.61,2.4,3.01,4.65,6.17,7.26,9,1.32,1.42,3.28,2.25,4.95,3.34,1.29.84,2.66,1.59,3.85,2.56,2.02,1.63,4.38,2.21,6.85,2.47.5.05,1.37-.3,1.52-.69.82-2.04,2.76-2.76,4.4-3.62,7.08-3.67,10.46-9.54,10.94-17.33Z"/><path d="m686.32,209.32c-.31-.84-.5-1.75,1.05-2.09.49-.11.9-.78,1.27-1.26,1.06-1.39,2-2.87,3.13-4.2,1.32-1.57,2.18-3.28,2.76-5.26.59-2.01,1.55-3.91,2.38-5.85,1.22-2.83,2.55-5.61,3.67-8.47.45-1.15.38-2.5.69-3.72.58-2.33,1.1-4.69,1.91-6.95,2.01-5.6,4.13-11.16,6.3-16.71.86-2.2,1.85-4.36,2.95-6.44.94-1.79,2.11-3.47,3.23-5.17.2-.3.62-.55.98-.62,2.05-.37,3.53-3.22,2.6-5.07-.6-1.19-1.18-2.4-1.71-3.62-.17-.41-.34-.97-.19-1.33.65-1.58-.23-1.9-1.49-2.26-1.61-.46-3.19-1.08-4.7-1.8-1.38-.65-2.66-.65-4.15-.38-1.45.26-2.74.18-3.25,2.01-.14.5-1.35.74-2.09,1.02-.57.21-1.41.08-1.74.45-1.99,2.22-4.83,1.65-7.28,2.34-1.18.33-2.46.37-3.61.77-3.95,1.38-8.05.44-12.06.92-1.37.16-2.76.16-4.14.25-2.25.14-4.53.14-6.75.5-1.82.3-3.53.75-5.4.09-.61-.22-1.52.35-2.28.59-.79.25-1.57.81-2.33.78-2.12-.09-3.9.75-5.71,1.64-1.38.68-2.79,1.31-4.23,1.85-2.21.83-4.25,1.68-5.8,3.75-1.63,2.18-3.85,3.92-5.82,5.86-.04.04-.09.06-.11.1-1.46,2.14-2.98,4.24-4.36,6.43-1.12,1.78-1.99,3.71-3.11,5.49-2.83,4.48-4.85,9.26-5.7,14.51-.03.2-.05.42-.13.6-1.6,3.58-3.37,7.1-4.76,10.75-.81,2.12-2,4.32-1.06,6.8.13.34-.15.86-.28,1.28-.47,1.45-.95,2.9-1.46,4.34-.47,1.35-1.1,2.67-1.43,4.05-.21.89-.02,1.88.02,2.82.09,1.88.33,3.77.27,5.65-.18,6.3-.73,12.61,2.37,18.52,1.38,2.61,2.49,5.36,3.76,8.03.16.33.53.63.87.78.41.18.9.29,1.35.25,7.44-.6,14.97-.03,22.36-1.21,7.63-1.22,14.54-4.21,20.64-9.09,2.59-2.07,5.53-3.69,8.3-5.53.34-.22.76-.45.92-.78,1.4-2.89,3.67-4.97,6.05-7.06,1.66-1.46,2.81-3.49,4.26-5.2.88-1.04,1.91-1.96,3.07-3.14Zm-44.11-43.03c-.11-.1-.23-.19-.34-.29,2.2-3.13,4.39-6.28,6.61-9.4.23-.32.61-.55.96-.75,4.09-2.31,8.43-3.65,13.17-3.87,10.02-.47,20.09-.47,30.03-2.12.47-.08,1,.17,1.5.26,1.21.24,1.28.82.77,1.88-.83,1.7-1.5,3.48-2.19,5.25-1.3,3.35-2.48,6.75-3.86,10.07-1.56,3.76-2.66,7.59-3.36,11.64-.54,3.16-2.23,6.13-3.42,9.18-.07.18-.26.31-.41.46-2.32,2.27-3.83,5.01-5.01,8.03-.63,1.61-1.81,3.03-2.87,4.44-.63.84-1.58,1.44-2.25,2.26-1.07,1.31-1.79,3.02-3.08,4-1.33,1.02-1.98,2.26-2.68,3.62-.35.69-.91,1.46-1.57,1.77-1.57.72-2.81,1.66-3.48,3.3-.15.36-.44.74-.76.95-2.31,1.51-4.51,3.28-7,4.39-3.46,1.55-6.67,4.01-10.79,3.73-.28-.02-.63.13-.86.31-.94.74-1.88.44-2.92.23-1.26-.26-2.62-.45-3.88-.26-3.61.55-6.33-1.74-6.1-5.32.04-.61-.05-1.23,0-1.84.21-2.85.43-5.7.68-8.55.16-1.82.46-3.64.54-5.46.06-1.25-.56-2.69-.13-3.75.67-1.69.87-3.44,1.37-5.1,1.24-4.05,1.72-8.39,4.17-12.04.27-.4.3-.97.42-1.46.29-1.18.49-2.4.88-3.55.89-2.68,1.85-5.33,2.82-7.98.21-.56.5-1.12.87-1.59.67-.85,1.44-1.63,2.16-2.43Z"/><path d="m679.14,319.83c5.91,2.26,12.2,4.77,18.58,7.06,3.49,1.25,7.2,1.1,10.85.89,5.01-.29,10.02-.61,15.02-1.05,1.07-.1,2.22-.59,3.12-1.21,4.01-2.81,8.6-4.36,13.03-6.27,2.03-.87,4.03-1.73,5.44-3.76,1.06-1.53,2.86-2.56,4.33-3.81.16-.13.33-.24.49-.37,3.14-2.7,6.5-5.19,9.35-8.17,2.76-2.89,6.34-4.66,9.15-7.43.11-.11.23-.24.36-.28,2.24-.63,3.48-2.44,5.05-3.98,3.01-2.96,7.03-4.1,11.08-4.88,1.71-.33,2.89-.87,3.65-2.56.83-1.86,2.01-3.56,3.02-5.34.17-.3.42-.69.34-.96-.64-2.21-1.27-4.42-2.06-6.57-.28-.76-.93-1.45-1.55-2.02-.75-.68-1.7-1.08-1.72-2.37,0-.27-1.21-.75-1.84-.73-3.05.1-6.13.11-9.13.59-3.1.5-5.6-.95-8.27-1.9-1.35-.48-2.58-1.29-3.93-1.79-.88-.32-1.87-.34-2.81-.52-.59-.11-1.26-.14-1.76-.43-1.88-1.09-3.63-2.45-5.58-3.39-2.07-.99-4.28-1.74-6.5-2.37-4.55-1.29-9.16-2.38-13.72-3.65-.89-.25-1.8-.81-2.45-1.47-.83-.85-1.63-1.11-2.75-.8-.52.14-1.15.14-1.66-.01-2.81-.82-5.65-1.59-8.39-2.61-2.17-.81-4.27-.8-6.51-.48-2.01.29-4.08.4-6.1.28-3.15-.19-6.14.04-8.86,1.84-.55.36-1.19.65-1.83.82-4.14,1.08-7.72,3.18-11.27,5.55-4.05,2.7-8.54,4.74-12.63,7.37-1.88,1.21-3.28,3.15-4.89,4.78-.9.91-1.85,1.77-2.62,2.77-1.08,1.39-2.1,2.85-3.01,4.36-.69,1.14-1.33,2.36-1.68,3.63-.54,1.95-.83,3.98-1.2,5.98-.04.19-.01.46.1.59,2.35,2.69,2.03,6.39,3.53,9.41.19.39.22.92.15,1.36-.25,1.55.43,2.73,1.18,4.01,1.57,2.67,2.92,5.48,4.4,8.21,2.78,5.14,6.8,8.98,12.51,11.66Zm9.4-14.48c-7.21-2.97-11.68-8.07-12.86-15.96-.27-1.83-.33-3.89-2-5.33-.32-.27-.37-1.21-.16-1.66,1.05-2.25,2.36-4.3,4.55-5.68,1.3-.82,2.45-1.87,3.67-2.81,1.58-1.23,2.99-2.82,4.76-3.61,3.52-1.56,7.23-2.66,10.86-3.96.68-.24,1.45-.38,1.98-.81,3.68-3,7.88-2.45,12.1-1.9.71.09,1.42.14,2.13.2,1.21.11,2.45.12,3.64.35,6.77,1.3,12.85,4.82,19.67,6.1,3.22.61,6.26,2.28,9.34,3.56,5.01,2.09,9.83,4.61,15.08,6.09,1.52.43,2.2,1.63,1.47,2.58-.75.98-1.59,1.9-2.41,2.82-.13.15-.35.2-.52.32-2.9,1.97-5.8,3.94-8.7,5.92-.13.09-.22.22-.33.32-2.35,2.26-4.55,4.7-7.08,6.72-3.71,2.97-7.7,5.59-11.48,8.47-2.79,2.12-6.02,3.13-9.33,3.8-5.64,1.14-11.34.95-17.02.06-2.13-.33-4.34-.5-6.35-1.2-3.73-1.29-7.35-2.91-11.02-4.4Z"/><path class="cls-3" d="m642.21,166.29c-.73.81-1.49,1.59-2.16,2.43-.37.47-.66,1.03-.87,1.59-.97,2.65-1.93,5.3-2.82,7.98-.38,1.15-.58,2.37-.88,3.55-.12.5-.15,1.06-.42,1.46-2.45,3.64-2.93,7.99-4.17,12.04-.51,1.66-.7,3.41-1.37,5.1-.42,1.06.19,2.49.13,3.75-.09,1.82-.38,3.64-.54,5.46-.25,2.85-.47,5.7-.68,8.55-.05.61.04,1.23,0,1.84-.23,3.58,2.49,5.87,6.1,5.32,1.26-.19,2.61,0,3.88.26,1.04.21,1.98.51,2.92-.23.23-.18.58-.33.86-.31,4.12.29,7.33-2.18,10.79-3.73,2.49-1.11,4.69-2.88,7-4.39.33-.21.61-.59.76-.95.67-1.64,1.91-2.57,3.48-3.3.66-.31,1.22-1.08,1.57-1.77.7-1.36,1.35-2.61,2.68-3.62,1.29-.98,2.01-2.69,3.08-4,.67-.82,1.62-1.42,2.25-2.26,1.06-1.41,2.24-2.83,2.87-4.44,1.18-3.02,2.68-5.76,5.01-8.03.15-.14.34-.28.41-.46,1.19-3.05,2.88-6.02,3.42-9.18.7-4.05,1.79-7.88,3.36-11.64,1.38-3.32,2.56-6.72,3.86-10.07.69-1.77,1.36-3.55,2.19-5.25.51-1.06.44-1.64-.77-1.88-.5-.1-1.02-.34-1.5-.26-9.94,1.66-20,1.65-30.03,2.12-4.74.22-9.08,1.56-13.17,3.87-.35.2-.74.43-.96.75-2.22,3.12-4.41,6.26-6.61,9.4.11.1.23.19.34.29Z"/><path class="cls-3" d="m688.54,305.34c3.67,1.48,7.28,3.11,11.02,4.4,2.01.7,4.22.86,6.35,1.2,5.67.88,11.38,1.07,17.02-.06,3.3-.67,6.54-1.68,9.33-3.8,3.79-2.88,7.77-5.5,11.48-8.47,2.53-2.03,4.73-4.47,7.08-6.72.11-.11.2-.24.33-.32,2.9-1.98,5.8-3.95,8.7-5.92.17-.11.39-.17.52-.32.82-.93,1.66-1.84,2.41-2.82.73-.96.05-2.15-1.47-2.58-5.25-1.48-10.08-4.01-15.08-6.09-3.08-1.28-6.12-2.95-9.34-3.56-6.82-1.29-12.89-4.8-19.67-6.1-1.19-.23-2.43-.24-3.64-.35-.71-.06-1.42-.11-2.13-.2-4.22-.56-8.42-1.1-12.1,1.9-.53.43-1.31.57-1.98.81-3.63,1.3-7.34,2.41-10.86,3.96-1.77.78-3.18,2.38-4.76,3.61-1.22.95-2.37,2-3.67,2.81-2.2,1.38-3.5,3.43-4.55,5.68-.21.45-.16,1.39.16,1.66,1.67,1.44,1.72,3.5,2,5.33,1.18,7.88,5.65,12.98,12.86,15.96Z"/></svg>