<?xml version="1.0" encoding="UTF-8"?><svg id="Layer_1" xmlns="http://www.w3.org/2000/svg" xmlns:xlink="http://www.w3.org/1999/xlink" viewBox="0 0 1150 1100"><defs><style>.cls-1,.cls-2{fill:#fff;}.cls-3{fill:#f2d4ff;}.cls-4{fill:#b09ad4;}.cls-5{fill:#6e4e84;}.cls-6{fill:#3a1f51;}.cls-7{fill:#3a6a32;}.cls-8{fill:#709e65;}.cls-2{filter:url(#drop-shadow-2);}</style><filter id="drop-shadow-2" filterUnits="userSpaceOnUse"><feOffset dx="15.52" dy="15.52"/><feGaussianBlur result="blur" stdDeviation="15.52"/><feFlood flood-color="#000" flood-opacity=".5"/><feComposite in2="blur" operator="in"/><feComposite in="SourceGraphic"/></filter></defs><path class="cls-2" d="m449.82,1038.54c-13.31,0-26.07-3.75-36.9-10.85-15.38-10.07-26.37-26.62-30.14-45.39-3.71-18.48-.04-37.66,10.07-52.63,3.63-5.37,7.23-10.3,10.71-15.07,3.55-4.86,6.9-9.45,9.75-13.8.73-1.11,1.42-2.21,2.08-3.29-2.54-.02-4.94-.04-7.25-.08-5.8-.09-11.07-.6-15.29-1.01-2.75-.27-5.6-.54-7.14-.54h-.15c-4.69.09-10.18.61-15.99,1.15-2.63.25-5.33.5-8.12.73-1.45.87-3.44,2.18-5.03,3.21l-1.51.99c-5.55,3.61-11.2,7.6-17.17,11.83-2.57,1.82-5.14,3.63-7.72,5.43-9.83,6.86-21.1,10.48-32.61,10.48-14.62,0-28.8-6.02-38.92-16.52-10.55-10.95-16.03-25.74-15.43-41.66.43-11.57,1.29-21.11,2.71-30.02,1.79-11.29,3.89-22.29,5.93-32.93.61-3.2,1.22-6.41,1.83-9.61,1.01-5.38,2.07-10.68,3.1-15.81,2.01-10.06,3.91-19.56,5.29-28.78,3.31-22.12,10.2-43.44,20.46-63.35l.74-1.44c8.99-17.47,20.1-39.05,38.59-57.52-20.56-16.61-31.8-44.15-28.13-71.87.8-6.06,2.11-11.92,3.92-17.59-3.69-8.72-6.63-20.65-4.42-34.34.96-5.99,2.63-11.99,4.92-17.81-2.14-2.99-4.07-6.14-5.81-9.45-10.07-19.25-10.94-42.09-2.38-62.66,9.11-21.9,27.68-39.03,49.68-45.84,1.82-.56,3.64-1.08,5.48-1.54-5.7-16.75-6.02-36.28,2.11-53-2.61-4.93-4.58-10.17-5.9-15.7-3.66-15.4-1.85-31.52,5.55-49.28,3.89-9.34,9.13-17.56,15.7-24.64-2.59-26.87,6.97-51.02,27.3-68.57,3.73-3.22,7.64-6.07,11.7-8.55,1.65-11.55,6.1-22.73,13.27-32.88,17-24.06,38.55-37.3,64.06-39.36,1.92-.15,3.87-.23,5.81-.23,4.17,0,8.36.34,12.6,1.04,14.22-11,28.29-15.52,38.77-17.29,4.04-.68,8.14-1.03,12.2-1.03,19.82,0,38.46,8.01,52.49,22.56,11.74,12.18,19.18,27.88,21.25,44.37,6.71-1.66,13.71-2.54,20.91-2.54,10.56,0,20.96,1.92,30.92,5.71,21.6,8.22,37.9,24.91,48.43,49.59,8.37,19.63,9.81,38.97,4.28,57.48l-.04.14c1.47,2.8,2.66,5.33,3.64,7.43.6,1.29,1.23,2.62,1.59,3.31,2.68,5.04,4.68,10.24,6.02,15.53,6.78,3.62,13.07,8.34,18.76,14.1,18.64,18.86,27.71,45.47,24.27,71.17-1.09,8.18-3.45,16-6.94,23.28,3.06,8.91,4.82,18.4,5.19,28.31,5.31,13.08,6.41,26.98,3.39,40.6,3.21,6.56,5.36,13.46,6.4,20.49,6.55,3.02,12.87,6.84,18.88,11.44,13.87,10.62,22.95,26.85,25.57,45.69.38,2.73.62,5.45.71,8.16.37-.1.74-.21,1.11-.31l.4-.13c.64-.22,1.31-.44,2.02-.68l39.33-12.87,21.2,35.55c6.94,11.63,13.47,30.68,5.18,55.36-4,11.93-8.54,25.47-13.4,38.93l-.91,2.53c-3.02,8.41-6.44,17.95-11.48,27.85-6.83,13.43-14.29,25.97-20.69,36.46-.91,1.48-1.8,2.97-2.7,4.46-5.88,9.76-12.56,20.81-21.44,31.57-10.73,12.99-22.35,23.94-33.34,34.05-2,1.84-4.03,3.56-6.07,5.18,1.19,5.35,2.12,10.9,2.67,16.64,1.29,13.4.84,27.89-1.36,44.31-1.14,8.49-2.88,16.19-4.42,23-1.26,5.58-2.45,10.86-2.91,14.94-1.99,17.54-7.03,32.57-12.17,46.21-.63,1.66-1.31,3.64-2.03,5.73-1.48,4.29-3.16,9.14-5.4,14.42-8.24,19.34-27.71,32.58-49.63,33.77l-1.4.08h-1.47c-24.84,0-46.74-16.98-53.22-40.36-.6-.75-1.29-1.59-1.86-2.3-.98-1.2-1.95-2.39-2.89-3.58-7.18-9.08-14.78-15.3-22.61-18.49-10.17-4.15-18.67-6.88-25.97-8.33-18.44-3.67-34.96-9.04-49.88-16.25-1.32,4.71-2.53,9.14-3.29,12.96-5.29,26.74-17.39,48.38-28.32,66.55-6.05,10.06-12.36,19.32-18.47,28.27-1.61,2.36-3.22,4.73-4.82,7.09-11.68,17.3-31.78,27.63-53.78,27.63Z"/><path d="m531.73,740.77c-.54,8.84-1.04,17.23-1.58,25.61-.52,8.12-.88,16.26-1.7,24.35-.69,6.89-1.81,13.74-2.99,20.56-.45,2.63-1.82,5.08-2.4,7.7-3.56,15.89-6.84,31.84-10.56,47.69-2.56,10.92-6.26,21.6-8.43,32.59-3.63,18.34-12.49,34.28-21.91,49.94-6.8,11.31-14.43,22.12-21.83,33.06-3.59,5.32-13.37,6.43-19.45,2.45-7.8-5.11-10.82-17.97-5.55-25.77,6.73-9.96,14.25-19.4,20.84-29.44,7.37-11.24,13.43-23.15,17-36.29,3.52-12.96,7.76-25.71,11.54-38.6.94-3.19,1.29-6.56,2.15-11.15-3.26,1.42-5.26,2.96-7.33,3.07-6.9.37-13.83.27-20.75.24-1.32,0-2.64-.78-3.97-.78-15.42-.01-30.85.25-46.26.01-8.13-.13-16.25-1.7-24.35-1.54-10.13.19-20.24,1.54-30.36,2.28-10.65.78-19.07,6.65-27.55,12.17-8.92,5.81-17.53,12.09-26.27,18.19-3.32,2.32-5.81,1.17-5.64-3.34.3-7.97.86-15.99,2.1-23.86,2.18-13.75,4.93-27.41,7.5-41.09,2.91-15.5,6.38-30.91,8.71-46.49,2.5-16.69,7.66-32.53,15.28-47.31,8.68-16.85,17.34-34.08,31.27-47.39,8.26-7.9,17-15.31,28.09-19.87,14.06-5.79,27.67-5.22,41.29-.15,17.6,6.55,31.52,17.9,40.93,34.35,3.02,5.28,5.66,10.77,8.71,16.63,10.51-7.7,21.84-12.91,35.02-12.78,1.28-10.88,2.46-21.11,3.71-31.34,1.12-9.1,2.61-18.16,3.43-27.29,1.1-12.19,1.48-24.45,2.69-36.63.44-4.46-1-6.67-4.93-8.09-1.68-.61-3.14-1.84-4.58-2.71-1.37,6.09-2.69,11.95-4.01,17.81-1.73,7.66-6.61,13.39-12.04,18.56-10.9,10.37-23.92,10.15-36.74,5.24-7.51-2.88-9.55-11.12-10.2-18.32-.73-8.03.38-16.23.78-24.36.12-2.47.52-4.92.24-7.76-4.29,10.92-12.13,16.52-23.4,18.62-12.83,2.39-19.42-5.07-25.42-14.82-1.93,1.78-3.5,3.29-5.13,4.71-5.06,4.42-10.16,8.79-15.22,13.21-7.83,6.84-17.06,5.65-24.89,1.86-10.02-4.84-14.44-17.18-13.11-27.23,1.59-11.99,7.11-21.78,16.83-31.51-8.57-.08-11.98-5.33-15.2-10.42-1.53-2.42-2.78-5.86-2.34-8.54,1.63-10.14,10.62-26.91,24.95-25.54,3.89.37,7.9-.58,12.77-1,.86-3.62,1.92-8.09,2.93-12.33-8.93-1.72-17.29-2.61-25.18-5.03-8.72-2.68-16.81-6.47-21.59-15.6-7.47-14.28,4.04-31.14,16.76-35.08,11.68-3.61,23.12-3.14,35.62,1.02,0-5.11-.71-10.32.15-15.25,1.74-9.91,6.26-18.26,14.7-24.59,10.63-7.96,27.4,2.16,29.44,12.12.59,2.9,1.9,5.64,3.25,9.51.94-5.23,1.6-9.18,2.4-13.1.3-1.49.51-3.54,1.52-4.25,6.91-4.85,3.95-11.74,4.2-18.44-5.43,1-10.67,1.98-15.92,2.94-12.87,2.38-23.36-2.44-32.55-10.95-4.31-3.99-6.72-16.16-3.64-21.01,4.23-6.68,8.06-14.31,14.04-19.04,9.81-7.75,21.62-11.35,34.47-7.13.73.24,1.49.41,2.61.71-1.28-6.73-2.46-12.97-3.79-19.95-2.15,1.64-3.97,2.81-5.54,4.27-8.62,7.98-25.26,9.71-34.92,3.08-10.23-7.02-12.5-14.22-6.34-29.01,5.29-12.7,16.22-18.07,28.64-21.33.65-.17,1.33-.26,1.96-.5.27-.1.43-.48.93-1.09-8.44-5.56-10.21-14.7-11.7-23.59-1.75-10.5.26-19.7,9.21-27.43,8.88-7.66,18.28-9.24,28.84-6.61,7.53,1.88,11.23,8.55,15.12,14.46,3.13,4.77,5.44,10.07,8.81,16.45.78-10.92,6.56-17.94,13.77-25.28-2.73-.75-4.47-1.05-6.07-1.7-12.19-4.92-23.45-11.41-29.06-23.9-3.57-7.94-3.53-16.34,2-24.16,6.52-9.23,14.35-16.71,25.96-17.64,5.23-.42,10.98,1.27,15.96,3.31,4.6,1.89,8.48,5.53,12.83,8.5,3.09-4.78,5.65-9.79,9.19-13.97,6.24-7.36,13.96-13.25,23.65-14.88,15.47-2.61,26.64,12.01,26.17,25.16-.31,8.46-2.57,14.79-10.06,27.38,7.72,3.85,17.73,3.07,23.25,11.26,5.12,7.6,7.63,15.9,5.88,25.2,6.22,2.27,12.07,4.41,18.31,6.69.31-.87.93-2.03,1.13-3.26,3.46-21.1,25.48-33.85,46.07-26.02,9.59,3.65,15.33,12.37,19.23,21.53,7.08,16.61,3.26,28.71-12.62,42.91,3.03,2.36,5.92,4.89,9.08,7.01,8.14,5.44,10.67,14.44,14.92,22.44,3.41,6.41,2.08,11.96-1.41,17.47-4.84,7.65-10.47,14.27-20.47,15.12-14.33,1.23-14.6,1.22-26.28-8.09-9.7,5.9-19.19,11.68-28.81,17.54,1.72,2.45,4.1,4.02,7.84,2.86,15.94-4.95,29.84-1.45,41.71,10.26.81.8,1.78,1.45,2.86,2.32,6.55-9.21,14.26-16.57,25-20.18,11.83-3.98,23.35-5.59,33.22,4.4,11.87,12.01,16.48,36.19-4.65,48.44-2.45,1.42-4.88,2.88-7.49,4.42,13.16,9.06,19.5,21.52,19.79,36.44.12,5.99,1.45,11.13,3.64,16.33,2.56,6.07,1.2,11.69-1.81,17.04-2.55,4.52-5.5,8.81-8.28,13.21,3.67,2.69,8.4,5.01,11.58,8.68,9.91,11.47,5.14,23.63-7.22,29.33-3.35,1.54-7.03,2.35-10.17,3.37,1.65,8.23,3.22,16.08,4.73,23.57,6.67-2.63,13.87-6.06,21.42-8.29,12.82-3.79,24.67-.46,35.01,7.46,6.31,4.83,7.86,18.16,3.79,24.99-8.85,14.85-22.5,21.94-39.13,24.22-1.01.14-2.03.16-3.03.33-.29.05-.52.39-.78.6,3.09,8.47,5.21,9.2,13.54,10.16,10.75,1.24,21.37,3.75,32.01,5.91,13.33,2.71,26.61,6.46,40.35,3.2,8.91-2.12,17.68-4.8,26.51-7.24,1.29-.36,2.55-.83,4.1-1.33,2.5,4.19,1.93,8.34.57,12.39-4.24,12.65-8.5,25.3-13.02,37.85-2.98,8.27-5.86,16.67-9.83,24.47-5.73,11.27-12.17,22.2-18.75,33-6.25,10.25-12.26,20.82-19.86,30.02-8.58,10.4-18.52,19.76-28.47,28.91-5.26,4.84-11.59,8.66-17.84,12.22-5.17,2.95-10.93,4.85-16.71,7.34,6.89,14.81,13.15,29.5,14.67,45.29,1.03,10.71.3,21.77-1.14,32.48-1.76,13.1-5.98,25.89-7.46,39-1.35,11.88-5.03,22.8-9.17,33.76-2.28,6.03-4.12,12.24-6.64,18.17-.55,1.3-3.12,2.26-4.82,2.36-1.15.06-3.3-1.52-3.47-2.61-1.57-9.82-8.38-16.89-13.98-23.98-11.66-14.74-25.98-27.09-43.64-34.3-11.44-4.67-23.35-8.77-35.43-11.17-20.52-4.08-39.58-11.01-56.37-23.54-4.87-3.64-9.29-7.87-10.71-14.39-1.51-6.93-4.33-13.66-5.07-20.64-1.08-10.19.95-20.11,7.04-28.72,4.08-5.77,8.48-11.32,12.99-17.31-7.41-11.61-19.85-14.3-34.23-16.5Zm-63.1-29.9c-2.41-6.02-4.13-11.76-6.92-16.93-3.51-6.49-6.85-13.64-12.12-18.49-14.29-13.16-31.24-19.83-51.15-16.21-.83.15-1.7.28-2.54.23-11.1-.58-19.44,5.04-26.79,12.36-5.41,5.39-10.51,11.14-15.38,17.03-8.32,10.07-15.34,21-20.08,33.27-3.36,8.68-6.95,17.29-10.04,26.06-3.03,8.6-6.52,17.21-8.14,26.12-4.28,23.57-7.77,47.29-11.31,70.99-.83,5.56-.63,11.26-.94,17.57,1.77-.82,2.75-1.11,3.54-1.66,6.4-4.46,12.43-9.58,19.22-13.33,8.69-4.81,18.3-7.39,27.91-10.18,8.78-2.54,17.25-2.13,25.86-2.22,8.1-.08,16.21,1.04,24.33,1.19,19.59.37,39.18.44,58.77.73,11.85.18,22.69-2.39,31.67-10.69,1.72-1.59,3.71-2.96,5.74-4.16,7.96-4.72,14.23-11.34,15.76-20.34,1.95-11.49,2.29-23.27,2.91-34.95.2-3.81-.12-7.98-1.5-11.47-5.11-12.98-12.81-24.21-26.1-29.84-7.9-3.35-15.57-8.98-25.03-6.27-3.87,1.11-7.65,2.6-11.37,4.16-6.12,2.55-11.92,6.28-18.27,7.75-15.69,3.62-27.44,13.74-39.81,22.78-6.95,5.08-12.94,11.49-20.43,18.26,1.03-3.28,1.13-5.56,2.29-6.98,5.06-6.21,9.8-12.9,15.82-18.07,10.47-8.98,22-16.67,34.67-22.36,5.57-2.5,11.22-4.85,16.98-6.85,6.17-2.15,12.52-3.79,18.77-5.71,1.09-.34,2.09-.99,3.69-1.78Zm278.78-124.79c.43,1.2.93,2.37,1.28,3.58,1.31,4.56,3.7,9.15,3.62,13.7-.2,10.92-3.95,20.73-14.97,25.15-11.53,4.62-23.32,5.26-33.93-2.68-4.19-3.14-7.77-7.14-11.3-11.05-1.35-1.5-2.25-3.78-2.49-5.81-.82-6.78-1.25-13.61-1.85-20.72-4.64,3.1-8.8,5.62-12.63,8.56-1.81,1.39-3.74,3.38-4.33,5.46-3.46,12.26-10.32,18.54-21.99,19.32-3.15.21-6.33.03-10,.03.5,2.01,1.24,3.62,1.25,5.22.03,7.74.92,15.68-.51,23.16-1.66,8.67.93,20.9,7.63,26.74,3.3,2.88,6.63,5.81,9.45,9.13,3.75,4.41,8.54,6.27,13.59,4.37,12.8-4.79,25.87-9.31,37.81-15.81,11.9-6.47,23.31-13.79,36.08-18.55,1.3-.49,2.71-.69,4.08-1.03-1.31,3.01-3.01,5.32-5.22,6.89-4.27,3.04-8.94,5.52-13.25,8.5-17.43,12.03-35.91,22.13-55.13,31-2.35,1.09-5.03,4.88-4.9,7.27.32,5.99,2.1,11.91,3.48,17.82.18.77,1.33,1.55,2.2,1.88,3.8,1.45,7.61,2.96,11.52,4.04,13.36,3.68,25.49,9.36,34.9,19.96.85.96,2.74,1.93,3.78,1.63,5.69-1.66,11.52-3.21,16.83-5.76,9.15-4.4,17.12-10.29,24.53-17.59,13.28-13.09,23.85-28.01,33.82-43.52,1.73-2.7,3.14-5.6,4.67-8.43,6.15-11.33,12.87-22.39,18.28-34.06,5.74-12.37,10.37-25.27,15.22-38.04,1.99-5.24,3.3-10.74,4.85-15.91-7.09,1.5-13.88,1.91-19.78,4.41-10.86,4.61-21.74,3.93-32.85,2.53-2.18-.28-4.55-.38-6.46-1.33-11.64-5.79-23.99-8.87-37.29-10.07Zm-70.83,226.72c-.39.22-.79.44-1.18.65-.9-.85-1.85-1.67-2.71-2.57-7.58-7.97-14.48-16.75-22.89-23.72-9.22-7.65-19.52-14.18-29.93-20.18-10.06-5.81-21.11-8.27-33.08-6.88-24.25,2.82-41.53,31.09-28.29,53.43,2.64,4.45,6.34,8.41,10.12,12,4.51,4.28,9.16,8.84,14.6,11.6,7.83,3.98,16.29,6.87,24.72,9.46,12.43,3.82,25.27,6.3,36.98,12.32,11.12,5.7,23.8,7.79,34.19,15.39,8.37,6.12,17.01,11.62,22.27,21.07,3.77,6.77,8.25,13.14,13.03,20.66,2.42-5.91,5.35-11.13,6.69-16.73,3.58-14.93,6.24-30.08,9.72-45.04,4.28-18.42,5.5-36.62,1.13-55.35-5.42-23.25-17.57-40.97-38.76-52.05-4.86-2.54-10.36-4-15.7-5.45-12.19-3.32-24.21-8.36-37.26-3.36-8.17,3.13-14.57,7.98-18.17,16.08-1.23,2.77-1.56,5.03,1.69,7.37,11.84,8.54,23.89,16.92,34.81,26.55,6.62,5.84,11.35,13.84,16.8,20.97.76.99.83,2.51,1.21,3.79Zm-121.56-475.01c-9.09,6.95-17.55,13.41-25.99,19.87-9.82,7.52-15.75,16.99-15.24,29.83.12,2.88-.18,5.79-.56,8.65-.16,1.18-.9,3.09-1.62,3.21-1.2.2-2.87-.45-3.87-1.31-2.32-1.97-4.4-4.23-6.49-6.46-12.33-13.12-25.86-15.72-41.41-7.97-13.29,6.63-16.26,22.33-3.2,31.79,9.14,6.62,18.85,11.21,29.94,13.09,5.26.89,6.01,3.14,3.46,7.71-4.68,8.41-9.75,16.69-13.45,25.53-4.08,9.75-2.63,19.68,3.18,28.57,4.09,6.26,16.56,8.56,22.02,4.06,4.29-3.54,8.61-7.36,11.82-11.84,7.54-10.53,12.63-22.03,11.28-35.58-.2-2.04,1.07-5.09,2.68-6.19,1.29-.89,4.78-.27,6.14.95,6.16,5.51,11.41,12.15,17.98,17.06,5.13,3.83,11.73,7.96,17.67,7.94,10.3-.03,21.17-10.5,12.54-23.31-4.7-6.98-9.76-13.91-15.71-19.81-6.62-6.57-13.57-13.67-24.62-11.73-1.27.22-3.77-1.06-4.07-2.11-.41-1.41.5-3.43,1.33-4.92.6-1.1,1.95-1.8,3-2.64,5.3-4.22,11.35-7.78,15.67-12.83,3.58-4.18,5.53-9.97,7.46-15.31,1.79-4.92-.59-9.2-3.78-13.05-.82-.99-1.21-2.43-1.53-3.73-1.46-5.92-2.83-11.85-4.63-19.48Zm41.47,236.36c10.71.14,22.14-8.02,22.32-16.69.27-13.34-.22-26.7-.21-40.06,0-1.57.9-4.37,1.66-4.47,1.66-.22,4.45.42,5.1,1.62,2.13,3.91,5.4,4.7,9.07,4,5.33-1.02,10.82-1.98,15.72-4.16,3.55-1.58,6.77-4.7,9.1-7.89,1.13-1.55-.11-4.84-.32-7.34-.2-2.37-.11-4.84-.77-7.08-1.37-4.65-2.05-8.96-8.2-11.37-8.17-3.2-14.88.23-22.2,1.38-1.37.22-2.79.12-4.19.17-.02-1.62-.36-3.32.03-4.83.36-1.41,1.65-2.56,2.27-3.94,2.47-5.54,5.57-10.94,7.06-16.74,1.64-6.4-.75-9.89-6.67-12.94-6.26-3.22-12.13-6.91-15.86-13.15-1.53-2.56-3.87-3.4-5.89-1.47-3.84,3.67-7.4,7.69-10.62,11.92-1.12,1.47-1.02,3.97-1.22,6.03-.52,5.51.02,11.31-1.55,16.48-2.85,9.38-15.1,16.38-22.8,14.19-6.84-1.95-13.7-3.86-20.6-5.57-9.75-2.43-18.95,1.4-22.44,9.39-.55,1.26-.57,3.58.23,4.46,7.18,8.05,9.59,17.28,7.66,27.8-.2,1.1-.16,2.5.35,3.44,1.73,3.19,15.18,7.67,18.57,6.51,7.85-2.68,15.78-5.14,23.61-7.87,3.14-1.09,6.05-2.82,9.19-3.92,1.7-.6,5.02-1.09,5.26-.56.89,1.95,1.7,4.75.91,6.5-2.82,6.27-6.43,12.18-9.51,18.34-1.89,3.78-3.27,7.42-.73,11.99,1.59,2.85,1.41,6.96,1.23,10.47-.49,9.54,4.67,15.22,14.45,15.35Zm-74.96-85.6c-4.43,3.84-8.29,7.64-12.62,10.8-4.03,2.94-8.5,7.21-12.88,7.33-8.96.26-11.77,4.13-11.67,12.18.02,1.3-1.51,3.01-2.77,3.73-.54.3-2.58-1.25-3.38-2.37-5.8-8.03-12.4-14.53-23.01-15.76-7.79-.9-14.53,1.03-20.29,6.03-4.39,3.81-8.34,8.15-12.44,12.3-.89.9-2.14,1.94-2.25,3.02-.81,8.03,7.8,18.18,16.01,19.09,3.71.41,7.49.36,11.12,1.09,6.26,1.25,12.54,2.63,18.6,4.59,3.2,1.03,4.04,3.65,1.72,6.91-2.22,3.14-4.36,6.48-5.74,10.04-4.38,11.29-2.74,23.06-.44,34.25,2.98,14.49,16.46,17.67,27.62,7.76,10.42-9.25,13.5-21.97,15.39-35.12.28-1.97,1.13-4.46,2.57-5.44.94-.63,3.51.92,5.22,1.75,5.6,2.71,10.98,7.44,16.73,7.92,12.67,1.05,25.38-1.41,35.24-10.24,9.94-8.9,13.46-12.51,2.5-24.63-3.13-3.46-7.08-6.47-11.2-8.66-3.76-2-8.31-3.74-12.42-3.58-8.73.35-17.4,2.18-26.13,2.99-1.72.16-4.25-1.1-5.2-2.51-.62-.92.62-3.52,1.59-4.99,3.05-4.66,6.9-8.87,9.47-13.76,4.17-7.95,4.66-16.17-1.37-24.7Zm136.66-84.22c0-.9-.44-2.63.11-3.92.7-1.63,2.17-4.01,3.39-4.06,1.72-.07,3.77,1.44,5.19,2.78.8.76.58,2.56.88,3.87,2.23,9.87,5.61,19.1,15.33,24.07,2.94,1.5,6.5,1.73,9.55,3.06,4.21,1.83,8.01,1.29,11.55-1.24,5.83-4.17,8.17-10.2,10.03-17.03,4.91-18.01-.5-29.36-17.56-35.78-2.21-.83-4.08-3.7-5.06-6.07-.35-.84,2.14-3.53,3.83-4.42,8.24-4.35,14.78-10.2,20.13-18,4.09-5.97,1.72-17.32-2.16-22.58-4.24-5.75-12.92-8.4-20.08-6.82-12.38,2.75-19.55,11-24.65,21.95-3.1,6.67-8.75,7.23-12.84,1.03-6.99-10.59-17.87-13.59-29.08-15.55-9.01-1.58-11.3,1.34-9.85,10.33.11.67.15,1.36.32,2.02,2.37,9.02,1.72,17.84-2.11,26.32-1.57,3.48-.56,6.03,2.73,6.75,5.71,1.25,11.62,1.54,17.37,2.63,2.42.46,4.65,1.91,6.96,2.91-1.33,1.92-2.38,4.13-4.05,5.68-1.94,1.8-4.33,3.19-6.68,4.48-10.95,6.07-17.44,24.13-13.48,37.14,2.74,9,12.28,13.54,21.1,11.02,11.13-3.17,20.22-16.8,19.13-30.59Zm41.15,182.17c-.15.01-.29.02-.44.03.35,4.41.72,8.81,1.05,13.22,1.01,13.4,10.03,23.33,23.28,23.8,12.11.43,19.91-5.62,18-17.26-2.39-14.57-5.15-30.11-19.45-39.43-1.26-.82-1.74-3.57-1.7-5.41.02-1.03,1.69-2.64,2.88-2.93,4.26-1.03,8.61-2.06,12.96-2.27,11.93-.56,21.74-5.66,29.47-14.24,2.63-2.92,4.67-8.03,4.16-11.76-.76-5.59-5.1-10.1-11.18-10.89-13.18-1.71-25.59.4-36.3,9.05-1.7,1.38-3.46,3.09-5.45,3.59-2.09.53-4.74.31-6.68-.59-.96-.45-1.3-3.18-1.2-4.83.95-16.33-2.88-33.71-25.01-39.86-8.57-2.38-16.28,3.89-15.7,10.73,1.06,12.45,3.41,24.33,15.36,31.5.72.43,1.33,1.06,2.02,1.55,3.65,2.63,2.99,5.08-.69,6.67-4.17,1.79-8.68,2.79-12.85,4.59-8.98,3.88-19.04,6.59-26.35,12.58-5.59,4.58-7.97,13.34-11.06,20.55-.98,2.29-.42,5.93.72,8.34,4.6,9.68,23.38,10.04,29.26,6.11,8.82-5.9,17.42-12.14,26.13-18.21,4.34-3.02,7.18-1.72,7.8,3.65.45,3.89.66,7.8.97,11.7Zm-222.17-147.69c-4.73-2.85-9.76-5.91-14.82-8.92-.86-.51-1.87-1.2-2.78-1.16-9.43.42-17.71,3.55-23.18,11.59-2.15,3.16-4.17,2.16-6.48,1.15-2.51-1.1-3.04-2.67-2.29-5.7,1.57-6.35,3.29-12.96,3.02-19.39-.36-8.58.18-17.72-7.68-24.47-5.94-5.1-15.86-4.49-19.53,2.59-4.23,8.17-6.48,16.81-3.45,26.07.95,2.91,1.64,5.9,2.4,8.87,1.27,4.96-1.24,7.76-6.24,6.31-5.15-1.49-10.04-3.86-15.1-5.67-13.46-4.81-24.1-5.04-33.18,7.17-5.39,7.25-5.81,14.49.98,19.95,5.26,4.24,11.76,7.71,18.27,9.43,6.35,1.67,13.4.91,20.14.79,5.31-.09,7.59,2.31,6.27,7.49-1.17,4.6-2.6,9.15-3.52,13.8-1.55,7.87-2.01,15.68,4.56,21.86,11.88,11.19,30.54,5.41,35.56-8.57,4.22-11.75,5.1-23.61-2.43-34.74-.8-1.18-1.12-2.67-1.67-4.01.28-.5.57-.99.85-1.49,2.88.8,5.94,1.23,8.59,2.51,3.01,1.45,5.55,3.84,8.48,5.49,7.99,4.5,20.16-.09,23.54-8.49,3.08-7.64,6.51-15.13,9.7-22.5Zm100.95-165.68c-.2-.03-.39-.07-.59-.1-.06-1.19-.17-2.38-.18-3.57-.14-15.3-19.76-24.1-31.02-19.27-6.99,3-8.31,9.7-10.6,14.9-3.52,8.03-.51,12.8,7.35,17.55,3.05,1.84,6.53,3.17,9.16,5.47,2.13,1.86,3.28,4.83,4.86,7.31-2.46,1.53-4.74,3.63-7.42,4.48-13.79,4.35-27.54,8.61-38.29,19.1-5.19,5.06-4.89,14.26,1.46,16.87,8.98,3.69,18.61,6.8,28.14,2.5,5.57-2.52,10.61-6.5,15.37-10.45,6.68-5.53,7.92-5.33,10.45,3.41.23.81.14,1.71.38,2.51,2.37,7.95,4.19,16.12,7.31,23.77,4.72,11.54,10.13,13.46,23.45,8.99,5.72-1.92,10.9-5.36,11.03-12.51.09-4.92.28-9.95-.57-14.75-1.93-10.87-8.48-18.6-17.85-24.2-1.35-.81-3.23-3.05-2.91-3.85.64-1.62,2.5-2.91,4.11-3.93.9-.57,2.32-.48,3.5-.43,10.88.4,20.31-3.46,28.8-9.9,6.53-4.95,6.28-18.67-.63-21.71-6.12-2.69-12.7-2.48-18.71.78-7.12,3.86-13.96,8.24-21.14,12-1.64.86-4.55.75-6.11-.19-1.05-.62-1.13-3.53-.98-5.35.27-3.16,1.06-6.28,1.63-9.42Zm-17.73-139.48c0-6.54-7.35-12.29-17.32-9.35-14.68,4.32-22.07,15.27-25.86,29.36-.49,1.8-1.77,3.39-2.69,5.08-1.69-.98-3.46-1.84-5.02-2.99-.92-.68-1.49-1.83-2.22-2.76-6.39-8.17-14.16-13.39-25.16-12.58-9.52.7-18.59,12.1-16.7,21.44,3.06,15.12,17.56,25.34,33.22,23.68,1.5-.16,3.54.97,4.62,2.14.69.75.58,2.98-.03,4.05-1.9,3.34-3.81,6.83-6.44,9.56-5.33,5.53-7.94,12.23-9.36,19.47-1.24,6.28,3.81,16.64,9.06,19.5,3.91,2.13,13.93-1.16,17.36-5.81,7.5-10.18,13.8-20.86,15.25-33.84.54-4.79,4.72-6.24,8.57-3.33,4.62,3.49,9.04,7.24,13.72,10.63,4.88,3.54,9.64,5.84,16.47,3.88,6.89-1.98,9.87-6.2,11.34-12.2,1.35-5.52-2.1-14.98-6.84-16.81-7.43-2.86-15.31-4.55-23-6.73-2.81-.8-7.03-.44-6.84-4.5.11-2.44,2.11-5.49,4.19-7.03,9.19-6.83,13.42-15.91,13.68-30.86Zm29,139c8.05-6.16,16.98-9.04,27.13-8.81,11.68.27,19.69,6.48,21.89,17.88.25,1.3.48,2.96,1.36,3.72,6.06,5.29,11.35,11.71,20.57,11.92,6.99.16,14.65-5.35,14.81-12.36.17-7.68-1.3-15.27-5.25-21.98-4.93-8.38-12.89-11.52-22.3-12.03-1.69-.09-3.29-1.81-4.93-2.77.97-1.33,1.75-2.88,2.96-3.92,1.37-1.17,3.34-1.66,4.69-2.84,5.04-4.4,11.31-8.13,14.62-13.62,7.09-11.77,4.8-25.82-8.56-35.71-11.96-8.85-32.99-3.35-37.38,10.13-1.75,5.36-1.71,11.29-2.87,16.88-.38,1.84-2.07,4.94-2.96,4.87-2.77-.21-6.33-.9-7.98-2.79-4.18-4.79-8.77-8.51-15.12-9.33-1.85-.24-4.01.6-5.79,1.44-5.31,2.53-10.25,6.5-15.8,7.65-5.77,1.19-7.09,4.51-7.68,8.93-.64,4.73-.27,8.49,6.02,10.21,8.54,2.33,14.79,8.31,17.83,16.93,1.73,4.93,3.05,10,4.74,15.6Zm-85.49,107.26c5.75-10.29,11.15-19.94,16.57-29.63-4.29-1.82-9.49-3.81-14.5-6.21-9.46-4.54-12.43-13.76-7.73-23.11.87-1.72,1.52-3.55,2.28-5.33-4.47,1.04-8.01,2.92-11.55,4.79-2.81,1.48-5.15,1.69-4.86-2.52.26-3.69.89-7.35,1.38-11.01.87-6.56,2.73-13.16,2.46-19.66-.63-14.85-11.31-18.38-21.17-14.33-10.53,4.33-16.49,15.61-14.8,26.95,1.05,7.03,2.93,13.96,4.77,20.84.97,3.65.21,5.59-3.69,4.71-3.34-.75-6.52-2.2-9.75-3.41-14.96-5.58-28.11,1.88-36.25,12.71-6.89,9.17-4.96,18.26,3.52,24.6,8.85,6.61,29.52,6.43,38.74-.58,2.24-1.7,4.55-2.63,6.18-.48,1.23,1.63,1.47,4.45,1.24,6.65-.34,3.24-1.5,6.39-2.58,10.62,18.31-5.42,35.34-8.8,49.75,4.4Zm47.36,237.38c-.37,3.31-.78,7.67-1.36,12.01-2.63,19.49-5.2,38.98-8.03,58.44-1.58,10.85-3.68,21.63-5.39,32.46-.18,1.14.65,3.49,1.03,3.49,4.6.06,10.13,1.33,13.6-.75,6.06-3.64,10.61-9.69,16.25-14.15,4.16-3.29,8.79-6.23,13.65-8.31,6.15-2.64,12.67-4.55,19.16-6.26,8.19-2.15,16.48-3.93,24.79-5.59,5.46-1.09,11.01-1.69,16.62-2.52-4.36-6.7-8.34-12.81-12.31-18.91-14.11,9.79-32.39,7.79-41.8-6.52-5-7.61-6.85-17.53-9.01-26.67-1.23-5.22-.22-10.97-.22-15.11-8.58-.51-17.23-1.02-26.96-1.6Zm-9.77-31.92c.84,3.47,1.61,6.02,2.06,8.63,1.12,6.4,4.9,9.92,11.03,11.93,10.69,3.51,20.99,2.67,31.3-1.25,1.06-.4,2.51-.34,3.56.07.49.19.77,1.8.6,2.66-.71,3.6-1.78,7.13-2.45,10.73-2.25,12.12.52,22.91,9.03,31.97,5.33,5.68,11.77,9.8,19.79,8.45,3.81-.64,9.63-3.04,10.37-5.77,2.91-10.74,4.75-21.91.65-32.98-2.66-7.18-.38-9.85,7.22-8.85,4.54.6,9.13,1.17,13.69,1.12,6.73-.07,11.69-4.97,12.05-11.43-.8-.1-1.66-.42-2.43-.26-9.19,1.88-17.31-.82-25.35-5.13-6.47-3.47-10.82-10.93-9.26-18.05.91-4.15,2.03-8.25,3.27-13.21-4.27,5.21-7.89,9.63-11.53,14.06,6.78,9.62,6.31,15.16-2.07,24.22-4.13,4.47-11.53,4.97-18.17,1.23-6.67-3.75-8.53-10.39-5.86-19.08-4.94-3.57-9.65-6.97-14.95-10.8-9.33,5.83-19.18,12.75-32.56,11.75Zm-25.72-336.61c-10.61,7.09-20.56,5.14-29.12-2.03-3.95-3.31-7.27-3.99-11.77-3.23-4.16.7-6.02-.84-6.27-5.49-.72-13.08-6.04-24.09-17.29-31.24-5.44-3.45-11.77-7.28-18.42-3.02-3.11,1.99-5.41,5.46-7.61,8.58-3.39,4.82-3.71,10.27-3.1,16.11.82,7.8,5.32,12.98,10.75,17.79,5.3,4.69,4.49,10.03-1.89,12.76-4.02,1.72-8.01,3.53-12.05,5.22-9.58,3.98-14.85,11.61-17.54,21.17-1.71,6.07.07,8.72,6.14,10.6,11.52,3.58,27.34-1.74,34.83-11.92,3.57-4.86,6.81-9.96,10.2-14.95-7.12-3.82-8.5-8.93-4.51-16.27,2.45-4.51,6.54-6.2,11.18-7.01,10.89-1.89,16.19,1.99,16.6,12.01.01.3.27.6.59,1.28,5.85.09,11.02,2.13,14.45,7.47.37.58,1.33,1.18,1.98,1.14,8-.46,15.3-2.84,21.19-8.52,2.85-2.75,3.29-6.09,1.67-10.48Zm-113.92,307.52c3.13,1.45,6.99.73,7.12,5.58.27,10.04,9.7,15.48,20.34,16.02,7.65.39,14.16-9.94,15.94-16.57.92-3.44-.5-4.91-4.28-5.73-9.67-2.1-18.82-5.56-25.57-13.52-.76-.9-3.31-1.5-4.15-.93-4.49,3.05-9.09,2.83-14.16,1.96-9.58-1.65-14.07-9.47-10.28-18.24.65-1.5.72-4.51-.19-5.22-5.03-3.9-6.8-9.03-7.27-15.07-.23-2.95-1.31-5.67-5.11-5.95-6.95-.51-17.63,6.1-20.16,12.61-2.79,7.2-1.49,10.75,5.49,13.99,3.16,1.47,6.66,2.23,9.8,3.74,1.99.96,3.59,2.73,5.37,4.14-1.57,1.82-2.97,3.82-4.75,5.41-3.6,3.21-8.35,5.58-10.89,9.43-3,4.54-4.55,10.17-6.04,15.53-2.18,7.82,2.38,17.18,9.89,20.32,3.06,1.28,7.44,2.81,9.89,1.58,9.47-4.76,19.14-9.67,23.92-20.21,1.32-2.91,3.17-5.57,5.08-8.87Zm321.52-133.71c-7.92,10.52-15.99,18.35-29.73,16.7-12.64-1.52-22.23-7.14-29.02-18.02-1.28,1.97-2.32,3.72-3.5,5.37-1.28,1.8-2.49,3.7-4.06,5.21-3.08,2.97-2.67,5.57.36,8.14,1.04.88,2.19,1.62,3.23,2.5,4.53,3.84,3.86,6.87-1.62,9.15-8.75,3.64-16.3,8.78-20.85,18.53,10.38.36,18.82,3.67,24.53,11.38,12.57-6.3,24.66-7.68,37.15-1.62,3.93,1.91,7.99,3.79,12.21,4.83,7.48,1.85,12.23-.53,14.02-6.22,2.52-8.01-.29-16.75-6.75-19.06-4.14-1.48-8.74-1.64-13.08-2.63-1.08-.24-2.57-1.26-2.75-2.15-.19-.93.74-2.39,1.59-3.17.97-.88,2.38-1.29,3.61-1.87,9.41-4.44,15.57-15.15,14.64-27.07Zm-60.49,302.93c-.75-4.29-1.8-8.03-1.99-11.82-.39-7.69-.82-8.34-8.28-7.45-22.66,2.69-44.8,7.71-66.04,16.04-5.88,2.3-10.98,6.6-16.66,10.13,5.77,4.66,10.6,8.12,14.88,12.17,3.1,2.93,5.7,5.87,10.53,5.95,3.1.05,6.28,1.14,9.24,2.27,3.45,1.32,5.95.34,8.07-2.28,1.49-1.85,2.74-3.9,4.28-5.71,4.35-5.11,8.07-10.55,14.75-13.56,10.07-4.53,20.01-8.27,31.23-5.72Zm-154.71,108.52c-.48-.36-.96-.71-1.44-1.07-3.36,2.57-8.66,4.51-9.74,7.83-5.25,16.12-9.58,32.55-13.81,48.98-3.45,13.4-8.12,26.37-15.14,38.18-6.83,11.49-15.17,22.07-22.7,33.15-1.39,2.04-3.22,4.77-2.81,6.78.5,2.53,2.82,4.94,4.9,6.8.94.84,3.54.86,4.75.15,2.13-1.25,4.19-3.07,5.55-5.14,6.12-9.29,12.5-18.47,17.8-28.23,4.81-8.85,8.71-18.25,12.35-27.66,4.01-10.37,7.53-20.94,10.75-31.58,2.21-7.3,3.76-14.82,5.22-22.32,1.67-8.58,2.91-17.24,4.34-25.87Zm29.58-623.46c-3.47,8.48-6.75,17.88-11.18,26.7-1.83,3.64-2.59,6.46-1.66,10.38,1.92,8.13-.48,15.01-7.13,20.37-6.46,5.21-13.59,8.71-21.48,9.36-.78,9.58-1.55,18.92-2.27,27.81,4.15-1.05,8.29-2.45,12.54-3.05,2.35-.33,5.31,1.68,7.28.88,8.01-3.27,15.75-7.22,24.1-11.16-10.63-4.98-13.42-13.28-11.19-23.83.17-.82.06-1.7.16-2.55,1.87-16.06,8.32-23.06,24.04-26.2.9-.18,1.72-.81,2.57-1.23l-1.36-.44c.72-6,1.43-12,2.14-17.93-5.47-3.01-11.48-6.32-16.57-9.12Zm-14.15,533.72c.31-1.68.49-2.6.65-3.53,2.31-13.74,4.28-27.55,7-41.22,5.18-26.02,10.75-51.96,10.92-78.65.03-5.29,1.67-10.66-1.95-15.79-2.48-3.51-3.95-7.8-5.42-11.91-.71-1.99-.39-4.35-.54-6.55-1.36.4-1.9.87-1.95,1.4-.61,6.21-1.26,12.42-1.69,18.65-.95,13.57-1.78,27.15-2.68,40.73-.4,6.11-.55,12.26-1.32,18.33-2.66,20.92-5.31,41.85-8.46,62.69-.93,6.16.58,10.83,5.45,15.85Zm50.69-367.47c-1.78,5.7-3.36,10.74-4.54,14.55,7.36,4.89,14.41,9.56,21.35,14.18,4.81-6.24,9.73-13.49,19.09-14.56,5.67-.65,8.23-4.72,12-7.93-5.7-2.7-10.71-5.08-16.6-7.88-9.21,5.06-20.13,5.32-31.29,1.64Zm54.47,150.31v26.2c14.63-7.36,29.3-14.75,43.91-22.11-3.48-3.76-7.45-8.04-11.05-11.92-4.87,2.58-9.58,6.25-14.86,7.54-5.4,1.32-11.37.29-17.99.29Zm-41.8-92.4c6.22-4.96,12.2-9.69,18.12-14.51.7-.57,1.31-1.6,1.42-2.48.75-5.81,1.35-11.63,2.01-17.45-9.43,3.17-11.35,5.14-14.17,14.11-.5,1.58-1.35,3.12-2.32,4.48-1.75,2.47-4.29,2.36-5.08-.27-2.29-7.6-8.47-11.13-14.39-15.05-5.04-3.33-12.01-3.03-18.14,1.22,14.52,6.85,24.95,17.7,32.55,29.95Zm-10.96,318.4c2.92-1.07,3.67-2.57.64-4.72-5.25-3.73-10.61-7.31-15.78-11.16-2.82-2.1-3.31-4.12-.73-7.59,5.36-7.21,13.13-10.47,20.71-13.8,8.87-3.9,18.31-6.5,27.4-9.94,11.06-4.19,22.43-6.58,34.25-7.13,3.72-.17,7.41-1.24,11.11-1.9.02-.63.04-1.26.07-1.89-2.14-.44-4.3-1.31-6.42-1.22-4.67.21-9.43.45-13.97,1.49-12.37,2.83-24.72,5.83-36.94,9.27-4.75,1.34-9.36,3.63-13.62,6.17-8.07,4.81-16.2,9.67-23.65,15.36-6.14,4.7-11.83,8.86-20.03,5.85-1.47-.54-3.19-.37-4.8-.53-.12.52-.23,1.04-.35,1.57,14.88,4.44,31.14,6.11,42.1,20.16Zm-133.47-274.79c-.66,7.04-1.19,12.7-1.77,18.95,13.94-1.51,27.31-1.88,36.33,11.18,3.75-3.97.42-6-1.75-7.62-4.87-3.63-7.96-8.36-9.58-14.03-.82-2.87-.86-5.96-1.32-9.51-7.26,2.14-14.2,5.01-21.91,1.02Zm69.68,227.49c-.59-.49-1.17-.99-1.76-1.48-6.51,3.19-13.02,6.39-19.52,9.58.06.6.12,1.21.18,1.81,5.71,3.34,11.43,6.67,17.86,10.43,1.24-7.78,2.24-14.06,3.24-20.34Zm99.03-119.5c-1.01-.85-2.84-3.69-4.9-3.86-6.12-.52-11.24,3.66-11.35,8.19-.1,4.03,3.88,7.67,8.45,7.72,3.7.04,7.88-5.42,7.81-12.06Zm-216.28-60.93c.04.51-.38,2.46.39,3.63,2.76,4.19,9.51,5.51,13.59,2.71,1.13-.78,1.54-2.59,2.28-3.93-1.32-.45-2.61-1.13-3.96-1.3-3.63-.45-7.29-.67-12.31-1.11Zm66.59-271.33c-.78.29-2.14.43-2.9,1.17-1.51,1.49-2.69,3.31-4.01,4.99,2.35.89,4.65,2.26,7.07,2.49,1.63.15,3.48-1.19,5.11-2.08,1.18-.65,2.17-1.67,3.24-2.53-1.04-1.03-1.91-2.42-3.15-2.99-1.49-.69-3.29-.68-5.35-1.05Zm51.2,442.85c-8.66-3.24-28.21,5.59-29.48,13.51,8.66-7.1,18.23-12.13,29.48-13.51Zm127.58-252.62c.6,2.75,1.25,5.74,2.09,9.58,3.87-2.81,6.78-4.93,9.56-6.95-2.76-6.07-6.6-5.98-11.65-2.62Zm-65.98,92.24c1.83-4.82,3.37-8.86,5.39-14.2-5.52,2.59-9.53,4.47-13.84,6.49,2.77,2.52,5.21,4.75,8.45,7.71Zm-134.42-126.92c-.37.11-.74.22-1.12.33-.23,4.82-.47,9.63-.75,15.45,3.65-1.69,6.31-2.92,9.01-4.16-2.45-3.97-4.8-7.79-7.15-11.61Zm94.14,45.48c-.41.16-.81.31-1.22.47-.17,3.18-.34,6.37-.54,10.14,2.96-1.07,4.92-1.77,7.34-2.65-2.04-2.92-3.81-5.44-5.58-7.97Z"/><path class="cls-8" d="m468.62,710.87c-1.6.78-2.59,1.44-3.69,1.78-6.25,1.93-12.6,3.56-18.77,5.71-5.76,2.01-11.42,4.35-16.98,6.85-12.68,5.69-24.21,13.38-34.67,22.36-6.02,5.16-10.76,11.86-15.82,18.07-1.16,1.42-1.26,3.7-2.29,6.98,7.49-6.78,13.48-13.18,20.43-18.26,12.37-9.03,24.12-19.16,39.81-22.78,6.35-1.46,12.15-5.2,18.27-7.75,3.72-1.55,7.5-3.04,11.37-4.16,9.46-2.72,17.13,2.92,25.03,6.27,13.29,5.63,20.99,16.87,26.1,29.84,1.38,3.5,1.7,7.67,1.5,11.47-.62,11.68-.96,23.46-2.91,34.95-1.53,9-7.8,15.62-15.76,20.34-2.02,1.2-4.01,2.56-5.74,4.16-8.98,8.3-19.82,10.87-31.67,10.69-19.59-.29-39.18-.36-58.77-.73-8.11-.15-16.22-1.28-24.33-1.19-8.62.09-17.09-.32-25.86,2.22-9.61,2.79-19.22,5.38-27.91,10.18-6.79,3.75-12.82,8.86-19.22,13.33-.79.55-1.77.84-3.54,1.66.31-6.3.11-12.01.94-17.57,3.54-23.7,7.03-47.42,11.31-70.99,1.62-8.91,5.1-17.51,8.14-26.12,3.09-8.78,6.68-17.38,10.04-26.06,4.75-12.27,11.76-23.19,20.08-33.27,4.87-5.89,9.96-11.64,15.38-17.03,7.35-7.32,15.69-12.94,26.79-12.36.84.04,1.71-.08,2.54-.23,19.91-3.63,36.86,3.05,51.15,16.21,5.27,4.85,8.61,12.01,12.12,18.49,2.79,5.16,4.51,10.91,6.92,16.93Zm-121,115.16c.69-.66,1.39-1.31,2.08-1.97-1.22-2.29-2.22-4.74-3.73-6.83-1.87-2.59-4.38-4.72-6.22-7.33-5.68-8.06-6.96-17.42-7.83-26.93-.15-1.61-1.92-3.08-2.94-4.61-.91,1.39-2.52,2.73-2.61,4.16-.35,5.55-.68,11.17-.15,16.68.85,8.83,5.88,15.84,11.85,21.91,2.38,2.42,6.32,3.32,9.55,4.92Zm33.29-4.69c1.87-.45,5.25-.91,8.31-2.15,1.62-.66,3.39-2.54,3.74-4.17.28-1.27-1.2-3.37-2.46-4.45-5.42-4.69-11.19-2.24-16.6,0-1.44.6-3.15,3.69-2.72,4.97.73,2.21,2.89,4.07,4.77,5.7.67.59,2.28.09,4.96.09Zm-47.85-65.74c2.07,3.12,3.18,5.67,5.09,7.28.87.73,4.32.15,4.87-.82,2.28-4.01,4.59-8.25,5.56-12.69.88-4-3.95-6.94-7.03-4.33-3.29,2.79-5.55,6.79-8.49,10.56Z"/><path class="cls-8" d="m747.4,586.09c13.3,1.21,25.65,4.28,37.29,10.07,1.9.95,4.28,1.05,6.46,1.33,11.11,1.4,21.99,2.08,32.85-2.53,5.9-2.5,12.69-2.91,19.78-4.41-1.55,5.17-2.86,10.67-4.85,15.91-4.85,12.77-9.48,25.67-15.22,38.04-5.41,11.67-12.13,22.74-18.28,34.06-1.53,2.82-2.94,5.73-4.67,8.43-9.97,15.51-20.54,30.43-33.82,43.52-7.41,7.31-15.39,13.19-24.53,17.59-5.31,2.56-11.14,4.1-16.83,5.76-1.04.3-2.93-.67-3.78-1.63-9.41-10.59-21.54-16.28-34.9-19.96-3.92-1.08-7.72-2.59-11.52-4.04-.87-.33-2.02-1.11-2.2-1.88-1.38-5.91-3.16-11.83-3.48-17.82-.13-2.4,2.55-6.19,4.9-7.27,19.22-8.87,37.7-18.97,55.13-31,4.32-2.98,8.98-5.46,13.25-8.5,2.21-1.58,3.91-3.88,5.22-6.89-1.36.34-2.77.54-4.08,1.03-12.77,4.76-24.18,12.08-36.08,18.55-11.94,6.5-25.01,11.02-37.81,15.81-5.05,1.89-9.84.04-13.59-4.37-2.82-3.32-6.15-6.26-9.45-9.13-6.7-5.83-9.29-18.07-7.63-26.74,1.43-7.48.54-15.42.51-23.16,0-1.6-.75-3.2-1.25-5.22,3.67,0,6.85.18,10-.03,11.68-.78,18.53-7.06,21.99-19.32.59-2.08,2.52-4.07,4.33-5.46,3.84-2.94,8-5.46,12.63-8.56.6,7.11,1.03,13.94,1.85,20.72.24,2.03,1.14,4.32,2.49,5.81,3.52,3.91,7.11,7.92,11.3,11.05,10.6,7.94,22.4,7.3,33.93,2.68,11.02-4.42,14.77-14.22,14.97-25.15.08-4.54-2.31-9.14-3.62-13.7-.35-1.21-.84-2.38-1.28-3.58Zm66.19,47.34c-.12-11.41-13.53-26.83-23.47-27.97-.95-.11-2.45.53-2.88,1.28-.37.65.12,2.28.77,2.93,2.85,2.8,6.44,5.01,8.75,8.17,3.46,4.74,5.87,10.24,9.15,15.13.97,1.46,3.28,2.42,5.12,2.72.87.14,2.08-1.8,2.56-2.26Zm-15.44,7.95c-1.5,1.53-4.35,3.76-6.25,6.62-1.21,1.83-2.14,5.4-1.18,6.73,1.31,1.8,4.69,3.23,6.91,2.91,2.12-.31,4.2-2.82,5.72-4.81,1.05-1.38,1.17-3.49,1.61-5.3.99-4.13-.55-6.03-6.81-6.15Zm-33.55-33.68c-4.71.02-7.24,2.28-7.27,6.51-.03,4.36,2.62,5.75,10.38,5.7,4.22-.03,6.14-2.76,6.7-6.19.51-3.14-4.6-6.05-9.81-6.03Z"/><path class="cls-8" d="m676.57,812.8c-.39-1.28-.46-2.8-1.21-3.79-5.46-7.12-10.18-15.13-16.8-20.97-10.92-9.63-22.98-18-34.81-26.55-3.25-2.34-2.92-4.6-1.69-7.37,3.6-8.1,10.01-12.96,18.17-16.08,13.05-5,25.07.04,37.26,3.36,5.34,1.46,10.84,2.91,15.7,5.45,21.19,11.08,33.34,28.8,38.76,52.05,4.36,18.74,3.15,36.94-1.13,55.35-3.48,14.96-6.14,30.11-9.72,45.04-1.34,5.6-4.27,10.82-6.69,16.73-4.78-7.52-9.26-13.89-13.03-20.66-5.26-9.45-13.91-14.95-22.27-21.07-10.39-7.6-23.07-9.69-34.19-15.39-11.72-6.01-24.56-8.5-36.98-12.32-8.43-2.59-16.89-5.48-24.72-9.46-5.44-2.76-10.09-7.32-14.6-11.6-3.78-3.59-7.48-7.55-10.12-12-13.24-22.34,4.04-50.61,28.29-53.43,11.97-1.39,23.02,1.07,33.08,6.88,10.41,6.01,20.7,12.53,29.93,20.18,8.41,6.97,15.31,15.75,22.89,23.72.86.9,1.8,1.71,2.71,2.57.39-.22.79-.44,1.18-.65Zm44.14,36.78c-.66-1.08-1.77-3.44-2.08-3.34-1.77.59-3.73,1.42-4.94,2.78-3.68,4.13-6.79,8.79-10.65,12.73-2.14,2.19-5.49,3.16-7.95,5.11-1.03.82-1.16,2.77-1.7,4.21,1.53.41,3.27,1.49,4.55,1.09,3.66-1.16,7.38-2.52,10.63-4.52,6.53-4.02,9.57-10.63,12.13-18.06Zm-60.56-16.22c-.91.52-3.13,1.2-4.42,2.68-2.47,2.83-.63,8.15,3.68,12,3.19,2.85,6.58,2.52,9.73.21,1.04-.77,1.72-2.56,1.84-3.95.31-3.62-5.87-10.38-10.83-10.94Zm47.98-5.27c-.21,5.02,1.45,7.6,4.98,7.78,3.87.19,7.86-4.75,7.81-10.27-.03-3.54-.61-7.52-5.13-7.98-5.41-.54-7.33,2.38-7.66,10.47Z"/><path class="cls-3" d="m555.02,337.8c1.8,7.63,3.17,13.57,4.63,19.48.32,1.3.71,2.74,1.53,3.73,3.19,3.85,5.56,8.12,3.78,13.05-1.94,5.34-3.88,11.12-7.46,15.31-4.32,5.05-10.38,8.61-15.67,12.83-1.05.84-2.4,1.54-3,2.64-.82,1.49-1.74,3.51-1.33,4.92.31,1.06,2.8,2.34,4.07,2.11,11.05-1.94,18,5.16,24.62,11.73,5.95,5.9,11,12.83,15.71,19.81,8.63,12.81-2.24,23.28-12.54,23.31-5.94.02-12.53-4.12-17.67-7.94-6.57-4.9-11.82-11.55-17.98-17.06-1.37-1.22-4.86-1.84-6.14-.95-1.61,1.11-2.88,4.15-2.68,6.19,1.35,13.55-3.74,25.05-11.28,35.58-3.21,4.48-7.53,8.3-11.82,11.84-5.46,4.5-17.93,2.19-22.02-4.06-5.81-8.89-7.26-18.82-3.18-28.57,3.7-8.84,8.77-17.12,13.45-25.53,2.55-4.58,1.79-6.82-3.46-7.71-11.09-1.88-20.8-6.46-29.94-13.09-13.06-9.46-10.09-25.17,3.2-31.79,15.55-7.76,29.08-5.15,41.41,7.97,2.09,2.23,4.17,4.49,6.49,6.46,1,.85,2.66,1.51,3.87,1.31.72-.12,1.47-2.03,1.62-3.21.38-2.86.67-5.77.56-8.65-.51-12.84,5.42-22.31,15.24-29.83,8.44-6.47,16.9-12.92,25.99-19.87Zm-56,85.64c.33,10.1,5.02,13.27,14.64,13.96,7.8.56,17.06-7.22,16.55-13.57-.94-11.85-4.36-16.32-14.32-16.81-8.28-.41-16.87,8.16-16.87,16.41Z"/><path class="cls-5" d="m596.49,574.15c-9.77-.12-14.94-5.81-14.45-15.35.18-3.51.36-7.62-1.23-10.47-2.54-4.57-1.16-8.2.73-11.99,3.08-6.16,6.69-12.07,9.51-18.34.79-1.75-.02-4.55-.91-6.5-.24-.53-3.55-.04-5.26.56-3.14,1.1-6.05,2.83-9.19,3.92-7.83,2.73-15.76,5.19-23.61,7.87-3.39,1.15-16.84-3.32-18.57-6.51-.51-.94-.55-2.34-.35-3.44,1.93-10.52-.48-19.75-7.66-27.8-.79-.89-.77-3.21-.23-4.46,3.49-7.98,12.69-11.81,22.44-9.39,6.9,1.72,13.76,3.63,20.6,5.57,7.69,2.19,19.95-4.81,22.8-14.19,1.57-5.17,1.02-10.97,1.55-16.48.2-2.06.1-4.56,1.22-6.03,3.21-4.23,6.78-8.25,10.62-11.92,2.02-1.93,4.36-1.09,5.89,1.47,3.73,6.23,9.6,9.92,15.86,13.15,5.93,3.05,8.31,6.54,6.67,12.94-1.49,5.8-4.58,11.21-7.06,16.74-.62,1.38-1.91,2.53-2.27,3.94-.39,1.51-.05,3.22-.03,4.83,1.4-.05,2.82.04,4.19-.17,7.32-1.15,14.02-4.58,22.2-1.38,6.15,2.41,6.83,6.72,8.2,11.37.66,2.24.57,4.71.77,7.08.21,2.5,1.45,5.79.32,7.34-2.33,3.19-5.55,6.31-9.1,7.89-4.9,2.17-10.39,3.13-15.72,4.16-3.67.7-6.93-.09-9.07-4-.65-1.2-3.44-1.84-5.1-1.62-.76.1-1.66,2.89-1.66,4.47,0,13.35.49,26.71.21,40.06-.18,8.67-11.61,16.83-22.32,16.69Zm5.47-64.63c11.57.63,17.33-8.59,17.48-15.16.17-7.38-7.01-15.01-13.49-14.69-11.44.56-17.51,8.25-18.02,15.92-.48,7.28,6.54,13.89,14.03,13.93Z"/><path class="cls-4" d="m521.53,488.55c6.03,8.53,5.54,16.75,1.37,24.7-2.57,4.89-6.42,9.1-9.47,13.76-.97,1.48-2.21,4.08-1.59,4.99.96,1.42,3.48,2.67,5.2,2.51,8.73-.81,17.4-2.64,26.13-2.99,4.12-.16,8.67,1.58,12.42,3.58,4.12,2.19,8.07,5.2,11.2,8.66,10.96,12.13,7.44,15.74-2.5,24.63-9.86,8.83-22.57,11.29-35.24,10.24-5.75-.48-11.13-5.21-16.73-7.92-1.72-.83-4.29-2.38-5.22-1.75-1.45.97-2.29,3.47-2.57,5.44-1.9,13.16-4.97,25.87-15.39,35.12-11.16,9.91-24.64,6.72-27.62-7.76-2.3-11.19-3.94-22.97.44-34.25,1.38-3.56,3.52-6.9,5.74-10.04,2.32-3.27,1.47-5.88-1.72-6.91-6.06-1.96-12.34-3.34-18.6-4.59-3.63-.73-7.42-.68-11.12-1.09-8.22-.9-16.82-11.06-16.01-19.09.11-1.08,1.36-2.12,2.25-3.02,4.1-4.15,8.05-8.48,12.44-12.3,5.76-5,12.5-6.93,20.29-6.03,10.61,1.23,17.21,7.73,23.01,15.76.8,1.11,2.84,2.67,3.38,2.37,1.27-.71,2.79-2.43,2.77-3.73-.1-8.06,2.71-11.92,11.67-12.18,4.38-.13,8.85-4.39,12.88-7.33,4.33-3.16,8.18-6.95,12.62-10.8Zm-14.62,58.81c-.64-10.61-6.22-16.2-15.69-15.64-10.74.63-18.81,10.94-18.98,17.77-.18,7.32,10.66,15.08,19.55,14.41,9.38-.71,14.39-6.8,15.13-16.54Z"/><path class="cls-4" d="m658.19,404.33c1.09,13.8-8,27.42-19.13,30.59-8.82,2.51-18.36-2.03-21.1-11.02-3.96-13,2.53-31.07,13.48-37.14,2.34-1.3,4.74-2.68,6.68-4.48,1.67-1.55,2.72-3.76,4.05-5.68-2.32-1-4.55-2.46-6.96-2.91-5.75-1.09-11.66-1.37-17.37-2.63-3.29-.72-4.31-3.27-2.73-6.75,3.83-8.48,4.48-17.3,2.11-26.32-.17-.66-.21-1.35-.32-2.02-1.45-9,.84-11.91,9.85-10.33,11.21,1.96,22.09,4.96,29.08,15.55,4.09,6.2,9.74,5.64,12.84-1.03,5.1-10.96,12.27-19.21,24.65-21.95,7.15-1.59,15.83,1.07,20.08,6.82,3.88,5.26,6.26,16.6,2.16,22.58-5.35,7.81-11.89,13.65-20.13,18-1.69.9-4.18,3.58-3.83,4.42.98,2.36,2.85,5.23,5.06,6.07,17.06,6.42,22.46,17.77,17.56,35.78-1.86,6.83-4.2,12.86-10.03,17.03-3.54,2.53-7.33,3.07-11.55,1.24-3.05-1.33-6.62-1.56-9.55-3.06-9.73-4.97-13.11-14.21-15.33-24.07-.3-1.32-.08-3.12-.88-3.87-1.42-1.35-3.46-2.85-5.19-2.78-1.22.05-2.69,2.44-3.39,4.06-.56,1.3-.11,3.02-.11,3.92Zm2.97-25.07c9.79-.11,19.01-7.4,18.84-14.88-.18-7.54-7.56-13.73-16.22-13.62-7.99.11-17.05,8.66-17.02,16.08.02,6.31,7.2,12.5,14.41,12.42Z"/><path class="cls-5" d="m699.33,586.5c-.32-3.9-.52-7.82-.97-11.7-.62-5.37-3.47-6.67-7.8-3.65-8.71,6.07-17.31,12.31-26.13,18.21-5.87,3.93-24.65,3.57-29.26-6.11-1.15-2.41-1.71-6.05-.72-8.34,3.09-7.21,5.48-15.96,11.06-20.55,7.31-6,17.37-8.7,26.35-12.58,4.17-1.8,8.68-2.8,12.85-4.59,3.68-1.58,4.34-4.03.69-6.67-.69-.5-1.3-1.12-2.02-1.55-11.95-7.17-14.3-19.05-15.36-31.5-.58-6.84,7.12-13.11,15.7-10.73,22.13,6.15,25.96,23.53,25.01,39.86-.1,1.65.24,4.38,1.2,4.83,1.94.9,4.58,1.12,6.68.59,2-.51,3.75-2.22,5.45-3.59,10.7-8.65,23.12-10.76,36.3-9.05,6.08.79,10.42,5.3,11.18,10.89.51,3.73-1.52,8.84-4.16,11.76-7.74,8.58-17.54,13.68-29.47,14.24-4.35.21-8.7,1.24-12.96,2.27-1.19.29-2.86,1.9-2.88,2.93-.04,1.84.44,4.58,1.7,5.41,14.31,9.32,17.06,24.86,19.45,39.43,1.91,11.64-5.9,17.69-18,17.26-13.25-.48-22.27-10.4-23.28-23.8-.33-4.41-.7-8.81-1.05-13.22.15-.01.29-.02.44-.03Zm15.21-36.5c-.04-7.34-5.65-15.17-10.91-15.22-11.26-.11-19.5,6.14-19.65,14.91-.09,5.43,9.76,14.11,16.05,14.15,6.71.04,14.55-7.43,14.51-13.84Z"/><path class="cls-5" d="m477.16,438.81c-3.19,7.36-6.62,14.86-9.7,22.5-3.38,8.4-15.55,12.98-23.54,8.49-2.93-1.65-5.47-4.04-8.48-5.49-2.65-1.28-5.71-1.7-8.59-2.51-.28.5-.57.99-.85,1.49.54,1.34.87,2.84,1.67,4.01,7.53,11.13,6.65,22.99,2.43,34.74-5.02,13.98-23.68,19.76-35.56,8.57-6.57-6.18-6.11-13.99-4.56-21.86.92-4.65,2.35-9.2,3.52-13.8,1.32-5.18-.96-7.58-6.27-7.49-6.74.12-13.79.88-20.14-.79-6.5-1.72-13-5.19-18.27-9.43-6.78-5.46-6.36-12.71-.98-19.95,9.08-12.21,19.72-11.98,33.18-7.17,5.07,1.81,9.95,4.18,15.1,5.67,5,1.45,7.52-1.36,6.24-6.31-.76-2.97-1.45-5.96-2.4-8.87-3.03-9.26-.78-17.9,3.45-26.07,3.67-7.08,13.59-7.69,19.53-2.59,7.86,6.75,7.32,15.9,7.68,24.47.27,6.42-1.44,13.04-3.02,19.39-.75,3.02-.22,4.6,2.29,5.7,2.31,1.01,4.33,2.01,6.48-1.15,5.47-8.04,13.75-11.18,23.18-11.59.91-.04,1.91.64,2.78,1.16,5.06,3.01,10.09,6.06,14.82,8.92Zm-51.27,17.26c.43-6.75-6.89-15.75-13-15.98-11.11-.42-20.07,6.76-20.62,16.53-.46,8.16,5.29,13.05,16.48,14.01,6.66.57,16.72-7.97,17.14-14.56Z"/><path class="cls-5" d="m578.11,273.13c-.57,3.14-1.36,6.26-1.63,9.42-.15,1.83-.07,4.73.98,5.35,1.56.93,4.47,1.05,6.11.19,7.17-3.76,14.01-8.14,21.14-12,6.01-3.26,12.59-3.47,18.71-.78,6.91,3.04,7.16,16.76.63,21.71-8.49,6.44-17.92,10.3-28.8,9.9-1.18-.04-2.6-.14-3.5.43-1.61,1.02-3.47,2.31-4.11,3.93-.32.8,1.56,3.04,2.91,3.85,9.37,5.59,15.92,13.33,17.85,24.2.85,4.8.66,9.83.57,14.75-.13,7.15-5.31,10.58-11.03,12.51-13.32,4.47-18.73,2.55-23.45-8.99-3.13-7.64-4.94-15.82-7.31-23.77-.24-.8-.15-1.71-.38-2.51-2.54-8.74-3.77-8.94-10.45-3.41-4.76,3.95-9.8,7.93-15.37,10.45-9.53,4.31-19.16,1.19-28.14-2.5-6.35-2.61-6.65-11.81-1.46-16.87,10.76-10.48,24.5-14.74,38.29-19.1,2.68-.85,4.96-2.95,7.42-4.48-1.58-2.48-2.73-5.45-4.86-7.31-2.63-2.3-6.11-3.63-9.16-5.47-7.86-4.75-10.87-9.52-7.35-17.55,2.28-5.2,3.6-11.91,10.6-14.9,11.27-4.83,30.88,3.97,31.02,19.27.01,1.19.12,2.38.18,3.57.2.03.39.07.59.1Zm-8.08,44.39c1.1-.1,2.99.28,4.08-.48,2.92-2.03,6.95-4.1,7.84-6.99,1.11-3.6.96-9.15-1.18-11.88-5.38-6.87-18.45-4.73-22.81,2.91-5.01,8.77.29,16.25,12.07,16.45Z"/><path class="cls-4" d="m560.38,133.66c-.26,14.95-4.48,24.03-13.68,30.86-2.07,1.54-4.07,4.59-4.19,7.03-.19,4.06,4.03,3.7,6.84,4.5,7.69,2.18,15.57,3.87,23,6.73,4.74,1.83,8.19,11.29,6.84,16.81-1.47,6-4.45,10.22-11.34,12.2-6.83,1.96-11.59-.34-16.47-3.88-4.68-3.4-9.1-7.14-13.72-10.63-3.85-2.91-8.03-1.45-8.57,3.33-1.46,12.97-7.75,23.66-15.25,33.84-3.43,4.65-13.46,7.94-17.36,5.81-5.25-2.86-10.29-13.23-9.06-19.5,1.43-7.24,4.04-13.94,9.36-19.47,2.63-2.73,4.54-6.22,6.44-9.56.61-1.08.72-3.3.03-4.05-1.08-1.18-3.13-2.3-4.62-2.14-15.66,1.66-30.16-8.56-33.22-23.68-1.89-9.34,7.18-20.74,16.7-21.44,11-.81,18.76,4.41,25.16,12.58.73.93,1.31,2.08,2.22,2.76,1.56,1.15,3.34,2.01,5.02,2.99.92-1.69,2.2-3.27,2.69-5.08,3.79-14.08,11.18-25.04,25.86-29.36,9.97-2.93,17.32,2.82,17.32,9.35Zm-37.71,32.18c-8.28-.09-17.06,6.57-17.16,13.01-.13,8.35,6.8,14.6,16.29,14.71,6.88.08,12.4-6.13,12.44-14,.05-8.58-4.22-13.64-11.57-13.72Z"/><path class="cls-3" d="m589.38,272.66c-1.68-5.6-3-10.67-4.74-15.6-3.04-8.62-9.29-14.6-17.83-16.93-6.29-1.72-6.66-5.48-6.02-10.21.6-4.42,1.92-7.74,7.68-8.93,5.55-1.15,10.49-5.12,15.8-7.65,1.78-.85,3.94-1.68,5.79-1.44,6.35.82,10.94,4.54,15.12,9.33,1.65,1.9,5.21,2.58,7.98,2.79.89.07,2.58-3.03,2.96-4.87,1.16-5.59,1.12-11.51,2.87-16.88,4.4-13.49,25.42-18.99,37.38-10.13,13.36,9.89,15.64,23.94,8.56,35.71-3.31,5.49-9.57,9.23-14.62,13.62-1.36,1.18-3.32,1.67-4.69,2.84-1.22,1.04-1.99,2.59-2.96,3.92,1.64.97,3.24,2.68,4.93,2.77,9.41.51,17.37,3.65,22.3,12.03,3.95,6.71,5.42,14.3,5.25,21.98-.16,7-7.82,12.52-14.81,12.36-9.22-.22-14.51-6.64-20.57-11.92-.88-.76-1.11-2.42-1.36-3.72-2.21-11.4-10.22-17.61-21.89-17.88-10.15-.23-19.08,2.65-27.13,8.81Zm28.94-14.98c6.43.36,12.65-6.2,12.91-13.62.23-6.63-4.93-13.05-10.78-13.42-8.3-.52-15.38,4.72-16.01,11.54-.63,6.84,5.15,15.69,13.89,15.5Z"/><path class="cls-4" d="m503.89,379.92c-14.42-13.2-31.44-9.81-49.75-4.4,1.08-4.24,2.23-7.39,2.58-10.62.23-2.19,0-5.02-1.24-6.65-1.62-2.15-3.94-1.23-6.18.48-9.22,7.01-29.89,7.19-38.74.58-8.49-6.34-10.42-15.43-3.52-24.6,8.14-10.83,21.29-18.29,36.25-12.71,3.23,1.2,6.41,2.65,9.75,3.41,3.9.88,4.66-1.06,3.69-4.71-1.84-6.89-3.72-13.81-4.77-20.84-1.69-11.33,4.27-22.62,14.8-26.95,9.86-4.05,20.54-.52,21.17,14.33.28,6.51-1.58,13.11-2.46,19.66-.49,3.67-1.12,7.33-1.38,11.01-.3,4.21,2.04,4,4.86,2.52,3.55-1.86,7.08-3.75,11.55-4.79-.75,1.78-1.41,3.61-2.28,5.33-4.7,9.35-1.73,18.57,7.73,23.11,5.01,2.4,10.21,4.39,14.5,6.21-5.42,9.7-10.82,19.35-16.57,29.63Zm-20.53-39.24c.74-8.85-6.32-15.67-13.52-16.39-5.97-.59-13.63,8.74-13.55,16.06.08,7.6,5.99,14.12,12.71,14.01,10.02-.16,14.3-4.23,14.36-13.69Z"/><path class="cls-1" d="m551.25,617.3c9.74.58,18.38,1.09,26.96,1.6,0,4.14-1.01,9.89.22,15.11,2.16,9.14,4.01,19.06,9.01,26.67,9.41,14.31,27.69,16.31,41.8,6.52,3.98,6.11,7.95,12.22,12.31,18.91-5.61.83-11.17,1.43-16.62,2.52-8.31,1.66-16.6,3.43-24.79,5.59-6.5,1.71-13.01,3.62-19.16,6.26-4.86,2.09-9.49,5.02-13.65,8.31-5.64,4.47-10.19,10.52-16.25,14.15-3.47,2.08-9,.81-13.6.75-.38,0-1.21-2.36-1.03-3.49,1.71-10.83,3.81-21.61,5.39-32.46,2.83-19.46,5.4-38.96,8.03-58.44.59-4.34.99-8.7,1.36-12.01Z"/><path class="cls-3" d="m541.48,585.38c13.37.99,23.23-5.92,32.56-11.75,5.3,3.83,10.01,7.23,14.95,10.8-2.68,8.69-.81,15.33,5.86,19.08,6.65,3.74,14.04,3.24,18.17-1.23,8.38-9.06,8.84-14.6,2.07-24.22,3.63-4.43,7.26-8.85,11.53-14.06-1.24,4.96-2.36,9.07-3.27,13.21-1.56,7.12,2.79,14.58,9.26,18.05,8.04,4.31,16.16,7.01,25.35,5.13.76-.16,1.63.17,2.43.26-.36,6.47-5.32,11.36-12.05,11.43-4.56.05-9.15-.52-13.69-1.12-7.6-1-9.88,1.67-7.22,8.85,4.1,11.07,2.26,22.24-.65,32.98-.74,2.73-6.56,5.13-10.37,5.77-8.01,1.35-14.45-2.77-19.79-8.45-8.52-9.06-11.28-19.85-9.03-31.97.67-3.6,1.73-7.13,2.45-10.73.17-.86-.11-2.46-.6-2.66-1.05-.41-2.5-.47-3.56-.07-10.31,3.92-20.61,4.76-31.3,1.25-6.13-2.02-9.91-5.53-11.03-11.93-.45-2.61-1.22-5.16-2.06-8.63Z"/><path class="cls-5" d="m515.76,248.78c1.62,4.39,1.18,7.73-1.67,10.48-5.89,5.68-13.19,8.06-21.19,8.52-.65.04-1.61-.56-1.98-1.14-3.44-5.34-8.6-7.38-14.45-7.47-.32-.68-.57-.98-.59-1.28-.4-10.03-5.71-13.91-16.6-12.01-4.64.81-8.73,2.49-11.18,7.01-3.98,7.34-2.6,12.46,4.51,16.27-3.38,4.98-6.62,10.09-10.2,14.95-7.49,10.18-23.31,15.5-34.83,11.92-6.07-1.89-7.84-4.53-6.14-10.6,2.69-9.57,7.96-17.19,17.54-21.17,4.04-1.68,8.03-3.49,12.05-5.22,6.38-2.73,7.19-8.07,1.89-12.76-5.43-4.81-9.93-9.99-10.75-17.79-.62-5.84-.29-11.29,3.1-16.11,2.2-3.13,4.5-6.59,7.61-8.58,6.66-4.26,12.98-.44,18.42,3.02,11.25,7.14,16.57,18.16,17.29,31.24.26,4.65,2.12,6.19,6.27,5.49,4.5-.76,7.81-.08,11.77,3.23,8.56,7.17,18.5,9.12,29.12,2.03Z"/><path class="cls-3" d="m401.84,556.3c-1.91,3.3-3.76,5.96-5.08,8.87-4.78,10.54-14.45,15.46-23.92,20.21-2.45,1.23-6.82-.3-9.89-1.58-7.52-3.14-12.07-12.5-9.89-20.32,1.49-5.35,3.04-10.99,6.04-15.53,2.55-3.85,7.29-6.22,10.89-9.43,1.78-1.58,3.18-3.59,4.75-5.41-1.78-1.41-3.38-3.17-5.37-4.14-3.14-1.52-6.64-2.27-9.8-3.74-6.98-3.24-8.28-6.79-5.49-13.99,2.53-6.52,13.2-13.13,20.16-12.61,3.8.28,4.88,3,5.11,5.95.47,6.04,2.24,11.17,7.27,15.07.91.7.83,3.72.19,5.22-3.79,8.78.69,16.6,10.28,18.24,5.06.87,9.66,1.09,14.16-1.96.84-.57,3.38.03,4.15.93,6.74,7.96,15.89,11.42,25.57,13.52,3.79.82,5.21,2.29,4.28,5.73-1.78,6.63-8.29,16.96-15.94,16.57-10.63-.54-20.07-5.98-20.34-16.02-.13-4.85-3.99-4.13-7.12-5.58Z"/><path class="cls-3" d="m723.36,422.59c.93,11.91-5.22,22.63-14.64,27.07-1.23.58-2.64.99-3.61,1.87-.85.78-1.78,2.23-1.59,3.17.18.89,1.67,1.91,2.75,2.15,4.34.98,8.94,1.15,13.08,2.63,6.47,2.31,9.28,11.05,6.75,19.06-1.79,5.69-6.54,8.07-14.02,6.22-4.21-1.04-8.28-2.92-12.21-4.83-12.49-6.06-24.58-4.69-37.15,1.62-5.72-7.72-14.16-11.02-24.53-11.38,4.54-9.75,12.09-14.89,20.85-18.53,5.48-2.28,6.15-5.3,1.62-9.15-1.04-.88-2.19-1.62-3.23-2.5-3.03-2.57-3.44-5.17-.36-8.14,1.57-1.51,2.78-3.42,4.06-5.21,1.17-1.65,2.22-3.39,3.5-5.37,6.79,10.88,16.38,16.5,29.02,18.02,13.74,1.65,21.81-6.18,29.73-16.7Zm-32.47,33.25c-.05-6.83-3.72-11.62-8.79-11.47-6.68.2-12.14,5.87-12.18,12.62-.02,3.59,5.52,11.44,8.01,11.37,6.52-.19,12.99-6.46,12.95-12.52Z"/><path class="cls-1" d="m662.87,725.52c-11.22-2.55-21.16,1.19-31.23,5.72-6.68,3.01-10.4,8.45-14.75,13.56-1.54,1.81-2.79,3.86-4.28,5.71-2.12,2.63-4.62,3.6-8.07,2.28-2.95-1.13-6.14-2.22-9.24-2.27-4.83-.08-7.43-3.01-10.53-5.95-4.28-4.05-9.12-7.51-14.88-12.17,5.69-3.53,10.79-7.82,16.66-10.13,21.24-8.33,43.39-13.34,66.04-16.04,7.46-.89,7.89-.24,8.28,7.45.19,3.79,1.24,7.53,1.99,11.82Z"/><path class="cls-7" d="m508.16,834.05c-1.43,8.63-2.67,17.29-4.34,25.87-1.46,7.5-3.01,15.02-5.22,22.32-3.22,10.64-6.74,21.22-10.75,31.58-3.64,9.41-7.54,18.81-12.35,27.66-5.3,9.76-11.67,18.94-17.8,28.23-1.36,2.06-3.42,3.88-5.55,5.14-1.2.71-3.81.69-4.75-.15-2.07-1.86-4.39-4.27-4.9-6.8-.4-2.01,1.43-4.74,2.81-6.78,7.53-11.08,15.87-21.66,22.7-33.15,7.02-11.81,11.68-24.78,15.14-38.18,4.23-16.43,8.56-32.86,13.81-48.98,1.08-3.32,6.38-5.26,9.74-7.83.48.36.96.71,1.44,1.07Z"/><path class="cls-6" d="m537.74,210.59c5.09,2.8,11.1,6.11,16.57,9.12-.71,5.93-1.43,11.93-2.14,17.93l1.36.44c-.86.42-1.67,1.05-2.57,1.23-15.72,3.14-22.17,10.13-24.04,26.2-.1.84.01,1.72-.16,2.55-2.23,10.55.56,18.85,11.19,23.83-8.35,3.94-16.09,7.89-24.1,11.16-1.97.8-4.92-1.21-7.28-.88-4.25.6-8.39,1.99-12.54,3.05.73-8.89,1.49-18.23,2.27-27.81,7.89-.64,15.02-4.15,21.48-9.36,6.65-5.36,9.04-12.24,7.13-20.37-.93-3.93-.17-6.74,1.66-10.38,4.44-8.82,7.72-18.22,11.18-26.7Z"/><path class="cls-7" d="m523.59,744.3c-4.87-5.02-6.38-9.69-5.45-15.85,3.16-20.85,5.81-41.77,8.46-62.69.77-6.07.92-12.22,1.32-18.33.9-13.58,1.72-27.16,2.68-40.73.44-6.23,1.08-12.44,1.69-18.65.05-.52.59-.99,1.95-1.4.15,2.19-.17,4.55.54,6.55,1.47,4.1,2.94,8.4,5.42,11.91,3.62,5.13,1.98,10.5,1.95,15.79-.17,26.69-5.74,52.63-10.92,78.65-2.72,13.66-4.69,27.47-7,41.22-.16.93-.34,1.85-.65,3.53Z"/><path class="cls-6" d="m574.28,376.83c11.16,3.68,22.09,3.42,31.29-1.64,5.9,2.8,10.91,5.18,16.6,7.88-3.77,3.2-6.33,7.28-12,7.93-9.35,1.06-14.28,8.32-19.09,14.56-6.95-4.61-13.99-9.29-21.35-14.18,1.19-3.8,2.76-8.85,4.54-14.55Z"/><path class="cls-6" d="m628.75,527.14c6.62,0,12.59,1.02,17.99-.29,5.29-1.29,9.99-4.96,14.86-7.54,3.6,3.89,7.57,8.17,11.05,11.92-14.6,7.35-29.28,14.74-43.91,22.11v-26.2Z"/><path class="cls-4" d="m586.96,434.74c-7.6-12.25-18.03-23.1-32.55-29.95,6.14-4.25,13.1-4.55,18.14-1.22,5.92,3.91,12.1,7.45,14.39,15.05.79,2.63,3.33,2.74,5.08.27.97-1.36,1.82-2.89,2.32-4.48,2.82-8.97,4.74-10.95,14.17-14.11-.65,5.82-1.25,11.64-2.01,17.45-.11.88-.72,1.91-1.42,2.48-5.91,4.82-11.9,9.55-18.12,14.51Z"/><path class="cls-7" d="m575.99,753.14c-10.95-14.05-27.22-15.72-42.1-20.16.12-.52.23-1.04.35-1.57,1.61.16,3.33-.01,4.8.53,8.2,3.01,13.89-1.16,20.03-5.85,7.45-5.69,15.57-10.55,23.65-15.36,4.26-2.54,8.87-4.83,13.62-6.17,12.22-3.44,24.56-6.44,36.94-9.27,4.54-1.04,9.29-1.28,13.97-1.49,2.12-.09,4.28.78,6.42,1.22-.02.63-.04,1.26-.07,1.89-3.7.66-7.39,1.73-11.11,1.9-11.82.55-23.19,2.94-34.25,7.13-9.09,3.44-18.53,6.04-27.4,9.94-7.58,3.33-15.35,6.59-20.71,13.8-2.58,3.47-2.09,5.49.73,7.59,5.16,3.85,10.53,7.42,15.78,11.16,3.02,2.15,2.27,3.64-.64,4.72Z"/><path class="cls-6" d="m442.53,478.35c7.71,3.99,14.65,1.12,21.91-1.02.47,3.55.51,6.64,1.32,9.51,1.62,5.67,4.71,10.39,9.58,14.03,2.17,1.62,5.5,3.65,1.75,7.62-9.02-13.06-22.39-12.7-36.33-11.18.58-6.25,1.11-11.91,1.77-18.95Z"/><path class="cls-1" d="m512.21,705.84c-1,6.28-2,12.56-3.24,20.34-6.43-3.75-12.15-7.09-17.86-10.43-.06-.6-.12-1.21-.18-1.81,6.51-3.19,13.02-6.39,19.52-9.58.59.49,1.17.99,1.76,1.48Z"/><path class="cls-1" d="m611.24,586.34c.07,6.64-4.11,12.1-7.81,12.06-4.56-.05-8.55-3.69-8.45-7.72.11-4.53,5.23-8.71,11.35-8.19,2.06.17,3.89,3.01,4.9,3.86Z"/><path class="cls-1" d="m394.95,525.41c5.02.43,8.68.66,12.31,1.11,1.35.17,2.64.85,3.96,1.3-.74,1.34-1.16,3.16-2.28,3.93-4.08,2.8-10.83,1.48-13.59-2.71-.77-1.17-.35-3.12-.39-3.63Z"/><path class="cls-1" d="m461.54,254.08c2.05.36,3.86.36,5.35,1.05,1.25.58,2.12,1.96,3.15,2.99-1.07.86-2.05,1.88-3.24,2.53-1.63.9-3.48,2.24-5.11,2.08-2.41-.23-4.72-1.6-7.07-2.49,1.32-1.68,2.5-3.5,4.01-4.99.76-.75,2.12-.88,2.9-1.17Z"/><path class="cls-7" d="m512.74,696.93c-11.24,1.38-20.81,6.4-29.48,13.51,1.27-7.92,20.82-16.75,29.48-13.51Z"/><path class="cls-6" d="m640.32,444.31c5.05-3.36,8.89-3.44,11.65,2.62-2.78,2.02-5.69,4.14-9.56,6.95-.84-3.84-1.49-6.82-2.09-9.58Z"/><path class="cls-6" d="m574.34,536.56c-3.24-2.96-5.68-5.19-8.45-7.71,4.31-2.02,8.32-3.9,13.84-6.49-2.03,5.34-3.56,9.38-5.39,14.2Z"/><path class="cls-6" d="m439.92,409.64c2.35,3.82,4.7,7.64,7.15,11.61-2.7,1.25-5.37,2.48-9.01,4.16.28-5.82.52-10.63.75-15.45.37-.11.74-.22,1.12-.33Z"/><path class="cls-6" d="m534.06,455.12c1.77,2.53,3.54,5.06,5.58,7.97-2.42.87-4.38,1.58-7.34,2.65.2-3.78.37-6.96.54-10.14.41-.16.81-.31,1.22-.47Z"/><path d="m347.63,826.03c-3.23-1.59-7.16-2.49-9.55-4.92-5.97-6.07-11-13.08-11.85-21.91-.53-5.51-.2-11.14.15-16.68.09-1.44,1.7-2.78,2.61-4.16,1.02,1.53,2.79,3,2.94,4.61.87,9.52,2.15,18.88,7.83,26.93,1.84,2.61,4.35,4.74,6.22,7.33,1.51,2.09,2.51,4.54,3.73,6.83-.69.66-1.39,1.31-2.08,1.97Z"/><path d="m380.91,821.34c-2.67,0-4.28.49-4.96-.09-1.88-1.64-4.03-3.5-4.77-5.7-.42-1.28,1.28-4.37,2.72-4.97,5.41-2.25,11.18-4.7,16.6,0,1.26,1.09,2.73,3.18,2.46,4.45-.35,1.62-2.13,3.51-3.74,4.17-3.06,1.25-6.44,1.7-8.31,2.15Z"/><path d="m333.06,755.6c2.94-3.77,5.2-7.77,8.49-10.56,3.08-2.61,7.91.33,7.03,4.33-.97,4.44-3.28,8.68-5.56,12.69-.55.97-4,1.55-4.87.82-1.91-1.61-3.03-4.16-5.09-7.28Z"/><path d="m813.6,633.43c-.48.45-1.69,2.4-2.56,2.26-1.84-.3-4.15-1.26-5.12-2.72-3.28-4.89-5.69-10.39-9.15-15.13-2.31-3.16-5.9-5.37-8.75-8.17-.65-.64-1.14-2.27-.77-2.93.42-.75,1.93-1.39,2.88-1.28,9.93,1.14,23.34,16.56,23.47,27.97Z"/><path d="m798.15,641.38c6.26.12,7.8,2.03,6.81,6.15-.43,1.81-.56,3.92-1.61,5.3-1.52,1.99-3.59,4.5-5.72,4.81-2.22.32-5.61-1.11-6.91-2.91-.96-1.33-.03-4.9,1.18-6.73,1.9-2.86,4.75-5.09,6.25-6.62Z"/><path d="m764.61,607.7c5.2-.02,10.32,2.88,9.81,6.03-.56,3.42-2.48,6.16-6.7,6.19-7.75.05-10.41-1.34-10.38-5.7.03-4.23,2.56-6.49,7.27-6.51Z"/><path d="m720.72,849.59c-2.56,7.42-5.6,14.04-12.13,18.06-3.25,2-6.97,3.36-10.63,4.52-1.27.4-3.02-.68-4.55-1.09.54-1.44.67-3.39,1.7-4.21,2.46-1.95,5.81-2.92,7.95-5.11,3.85-3.94,6.96-8.6,10.65-12.73,1.21-1.36,3.16-2.19,4.94-2.78.3-.1,1.42,2.26,2.08,3.34Z"/><path d="m660.16,833.37c4.96.56,11.14,7.31,10.83,10.94-.12,1.39-.8,3.18-1.84,3.95-3.15,2.31-6.54,2.64-9.73-.21-4.32-3.85-6.15-9.17-3.68-12,1.29-1.48,3.52-2.16,4.42-2.68Z"/><path d="m708.14,828.11c.33-8.09,2.25-11.01,7.66-10.47,4.52.45,5.1,4.44,5.13,7.98.05,5.52-3.94,10.46-7.81,10.27-3.53-.17-5.18-2.76-4.98-7.78Z"/><path d="m499.02,423.44c0-8.26,8.59-16.82,16.87-16.41,9.96.49,13.38,4.95,14.32,16.81.5,6.35-8.75,14.13-16.55,13.57-9.62-.69-14.31-3.86-14.64-13.96Zm23.06-2.78c-.7-2.68-1.64-5.88-6.01-6.05-4.68-.18-9.84,3.76-10,7.63-.15,3.51,4.63,7.32,9.08,7.23,3.36-.07,6.89-4.19,6.93-8.81Z"/><path d="m601.96,509.53c-7.49-.04-14.51-6.65-14.03-13.93.51-7.67,6.57-15.36,18.02-15.92,6.48-.31,13.66,7.31,13.49,14.69-.15,6.57-5.91,15.79-17.48,15.16Zm1.98-22.03c-5.41-.09-7.75,1.76-7.9,6.25-.15,4.56,3,7.52,8.15,7.65,4.28.11,7.95-3.6,7.97-8.05.02-4.01-2.43-5.75-8.22-5.85Z"/><path d="m506.91,547.36c-.73,9.74-5.74,15.83-15.13,16.54-8.89.67-19.73-7.1-19.55-14.41.17-6.83,8.24-17.14,18.98-17.77,9.47-.56,15.05,5.03,15.69,15.64Zm-9.31-.01c.26-4.21-3.07-8.57-6.78-8.86-3.52-.27-8.24,4.36-8.25,8.37,0,4.08,2.46,6.22,6.31,6.67,3.68.43,8.52-3.16,8.71-6.19Z"/><path d="m661.15,379.26c-7.2.08-14.39-6.11-14.41-12.42-.02-7.42,9.03-15.97,17.02-16.08,8.66-.11,16.04,6.08,16.22,13.62.18,7.49-9.05,14.77-18.84,14.88Zm1.08-8.83c4.38-1.89,9.25-.25,10.01-5.55.48-3.33-3.62-6.16-8.62-5.74-3.44.29-6.66,2.23-6.12,5.98.29,2.04,3.21,3.7,4.73,5.31Z"/><path d="m714.54,550c.03,6.41-7.8,13.88-14.51,13.84-6.29-.04-16.14-8.73-16.05-14.15.15-8.77,8.4-15.02,19.65-14.91,5.26.05,10.87,7.88,10.91,15.22Zm-14.67-6.83c-4.17-.58-6.3,1.25-6.52,5.25-.2,3.71,2.93,7.06,6.48,7.11,3.28.05,6.15-3.09,5.78-6.86-.32-3.3-2.25-5.43-5.74-5.5Z"/><path d="m425.89,456.07c-.42,6.59-10.48,15.13-17.14,14.56-11.19-.96-16.94-5.84-16.48-14.01.55-9.77,9.5-16.95,20.62-16.53,6.11.23,13.43,9.23,13,15.98Zm-11.97-6.81c-7.51.11-11.71,2.52-11.22,5.64.69,4.34,4.09,5.53,7.88,5.66,4.16.14,7.74-2.77,6.97-6.18-.5-2.22-2.81-4.02-3.63-5.12Z"/><path d="m570.03,317.53c-11.78-.2-17.07-7.67-12.07-16.45,4.36-7.64,17.44-9.78,22.81-2.91,2.14,2.73,2.29,8.28,1.18,11.88-.89,2.89-4.92,4.96-7.84,6.99-1.09.76-2.98.38-4.08.48Zm.85-16.78c-2.55,2.27-4.14,3.68-5.72,5.1,1.7,1.48,3.23,3.73,5.16,4.16,1.26.28,4.32-2.01,4.39-3.28.1-1.61-2.02-3.35-3.83-5.97Z"/><path d="m522.67,165.83c7.34.08,11.62,5.15,11.57,13.72-.04,7.86-5.57,14.08-12.44,14-9.49-.11-16.42-6.36-16.29-14.71.1-6.44,8.89-13.1,17.16-13.01Zm-2.76,21.54c2.47-2.76,4.04-4.52,5.61-6.28-2.39-1.46-4.65-3.53-7.24-4.1-1.04-.23-4.27,3.34-3.94,4.26.75,2.08,3.09,3.58,5.56,6.12Z"/><path d="m618.33,257.68c-8.73.19-14.52-8.66-13.89-15.5.63-6.82,7.71-12.06,16.01-11.54,5.86.37,11.01,6.79,10.78,13.42-.26,7.42-6.48,13.98-12.91,13.62Zm5.91-11.15c.17-7.1-3.92-7.66-7.29-7.28-2.09.23-4.86,2.62-5.6,4.66-.95,2.62,4.93,7.52,8.15,6.6,2.2-.63,3.85-3.19,4.74-3.98Z"/><path d="m483.36,340.68c-.06,9.46-4.34,13.53-14.36,13.69-6.72.1-12.63-6.41-12.71-14.01-.08-7.32,7.58-16.65,13.55-16.06,7.2.71,14.26,7.54,13.52,16.39Zm-6.61-2.8c-.07-4-2.75-6.43-6.98-6.31-4.11.11-6.99,3.1-6.94,7.21.05,3.6,3.16,6.16,7.34,6.04,3.78-.11,6.64-3.13,6.58-6.94Z"/><path d="m690.89,455.84c.04,6.07-6.43,12.33-12.95,12.52-2.5.07-8.03-7.78-8.01-11.37.04-6.76,5.5-12.42,12.18-12.62,5.07-.15,8.74,4.64,8.79,11.47Zm-8.38,1.87c.27-.54.55-1.08.82-1.62-1.37-.8-2.73-1.6-4.1-2.4-.97,1.67-1.95,3.35-2.92,5.02.42.3.85.61,1.27.91,1.64-.64,3.29-1.27,4.93-1.91Z"/><path class="cls-1" d="m522.08,420.65c-.04,4.63-3.58,8.75-6.93,8.81-4.44.09-9.22-3.72-9.08-7.23.16-3.88,5.32-7.82,10-7.63,4.36.17,5.31,3.37,6.01,6.05Z"/><path class="cls-1" d="m603.94,487.5c5.79.1,8.23,1.84,8.22,5.85-.02,4.45-3.69,8.16-7.97,8.05-5.15-.13-8.3-3.09-8.15-7.65.15-4.49,2.49-6.34,7.9-6.25Z"/><path class="cls-1" d="m497.6,547.35c-.19,3.03-5.04,6.62-8.71,6.19-3.85-.45-6.32-2.59-6.31-6.67,0-4.01,4.73-8.65,8.25-8.37,3.7.29,7.04,4.65,6.78,8.86Z"/><path class="cls-1" d="m662.24,370.43c-1.52-1.61-4.44-3.27-4.73-5.31-.54-3.75,2.69-5.69,6.12-5.98,5-.42,9.1,2.41,8.62,5.74-.77,5.3-5.63,3.66-10.01,5.55Z"/><path class="cls-1" d="m699.87,543.17c3.49.07,5.42,2.2,5.74,5.5.37,3.77-2.5,6.91-5.78,6.86-3.55-.05-6.67-3.4-6.48-7.11.21-4,2.34-5.83,6.52-5.25Z"/><path class="cls-1" d="m413.92,449.26c.83,1.1,3.13,2.91,3.63,5.12.77,3.41-2.8,6.32-6.97,6.18-3.79-.13-7.19-1.32-7.88-5.66-.5-3.12,3.71-5.53,11.22-5.64Z"/><path class="cls-1" d="m570.88,300.74c1.81,2.63,3.93,4.37,3.83,5.97-.08,1.27-3.13,3.56-4.39,3.28-1.93-.43-3.46-2.68-5.16-4.16,1.59-1.41,3.17-2.82,5.72-5.1Z"/><path class="cls-1" d="m519.9,187.37c-2.48-2.54-4.82-4.05-5.56-6.12-.33-.92,2.9-4.49,3.94-4.26,2.59.57,4.85,2.64,7.24,4.1-1.57,1.76-3.14,3.52-5.61,6.28Z"/><path class="cls-1" d="m624.24,246.53c-.88.79-2.53,3.35-4.74,3.98-3.22.92-9.1-3.98-8.15-6.6.74-2.04,3.51-4.43,5.6-4.66,3.37-.38,7.46.18,7.29,7.28Z"/><path class="cls-1" d="m476.75,337.88c.06,3.81-2.8,6.83-6.58,6.94-4.18.12-7.29-2.45-7.34-6.04-.05-4.11,2.83-7.1,6.94-7.21,4.23-.11,6.91,2.31,6.98,6.31Z"/><path class="cls-1" d="m682.51,457.71c-1.64.64-3.29,1.27-4.93,1.91-.42-.3-.85-.61-1.27-.91.97-1.67,1.95-3.35,2.92-5.02,1.37.8,2.73,1.6,4.1,2.4-.27.54-.55,1.08-.82,1.62Z"/><path class="cls-1" d="m650.87,410.66c.73-5.61,1.31-11.24,1.94-16.86,0,0,0,0,0,0-.63,5.62-1.21,11.25-1.94,16.86Z"/></svg>