<?xml version="1.0" encoding="UTF-8"?><svg id="Layer_1" xmlns="http://www.w3.org/2000/svg" xmlns:xlink="http://www.w3.org/1999/xlink" viewBox="0 0 1150 1100"><defs><style>.cls-1{fill:#f6a72d;}.cls-2,.cls-3{fill:#fff;}.cls-4{fill:#ffd655;}.cls-5{fill:#a7b977;}.cls-3{filter:url(#drop-shadow-2);}</style><filter id="drop-shadow-2" filterUnits="userSpaceOnUse"><feOffset dx="15.67" dy="15.67"/><feGaussianBlur result="blur" stdDeviation="15.67"/><feFlood flood-color="#000" flood-opacity=".5"/><feComposite in2="blur" operator="in"/><feComposite in="SourceGraphic"/></filter></defs><path class="cls-3" d="m463.13,1024.43c-9.16,0-18.85-1.87-27.27-5.27-30.01-12.12-49.29-38.58-51.58-70.79-.82-11.46-1.77-26.65-1.86-42.48-.05-8.07.98-15.07,1.73-20.19.26-1.79.56-3.83.63-4.79.36-4.92.62-9.97.9-15.33.42-8.15.86-16.59,1.68-25.39.88-9.42,2.17-18.31,3.41-26.9.56-3.9,1.1-7.59,1.58-11.24.31-2.33.58-4.81.85-7.37,0-2.68.15-5.84.7-9.36-1.48-4.37-2.82-8.6-4.11-12.68-1.86-5.88-3.62-11.44-5.48-16.37-3.5-9.28-7.3-18.54-11.31-28.33-.75-1.82-1.5-3.65-2.24-5.47-11.52,4.16-24.84,7.46-39.78,7.46-7.16,0-14.32-.77-21.28-2.29-15.74-3.44-30.74-8.15-42.05-11.87-9.31-3.06-21.54-7.57-33.51-15.31-2.49-1.61-5.14-3.26-7.95-5-12.59-7.82-28.25-17.55-42.1-32.33-19.65-20.97-22.91-42.67-22.18-57.19.75-15.05,6.56-37.29,29.97-57.75,4.56-3.98,9.05-7.74,13.4-11.38,11.35-9.49,22.07-18.46,29.45-27.84,11.53-14.65,23.98-27.79,35.71-39.81,6.47-6.62,13.75-11.19,20.92-14.32,10.14-17.02,24.6-30.14,42.59-38.45,7.56-3.49,14.79-6.13,21.18-8.45,1.56-.57,3.11-1.13,4.66-1.71,6.74-2.51,17.11-5.84,29.33-5.84,15.02,0,29.14,4.99,40.84,14.44,9.52,7.68,15.53,16.82,19.23,23.02.83,1.39,1.66,2.77,2.49,4.16,5.64,9.42,11.47,19.16,16.85,30.15,5.44,11.13,9.94,22.54,13.48,34.17,1.95-3.1,3.96-6.24,6.04-9.43,2.83-4.33,5.71-9.35,8.76-14.67,5.02-8.76,10.72-18.68,17.93-28.5,10.41-14.19,21.33-27.45,31.91-40.28-.65-1.46-1.3-2.93-1.95-4.41-12.45-28.59-16.36-58.19-11.61-87.98,2.81-17.67,6.26-38.22,11.57-58.56,5.05-19.33,11.44-37.5,17.63-55.07l1.13-3.2c3.97-11.29,8.85-21.39,13.16-30.3l.66-1.36c5.03-10.41,10.66-21.46,17.21-33.78,10.71-20.13,25.62-34.09,38.81-45.1,20.71-17.28,43.44-17.78,55.66-18.05h.5c1.49-.04,2.96-.06,4.43-.06,29.92,0,54.46,7.62,74.86,23.26.47.18.95.36,1.38.51,1.12.42,2.24.83,3.34,1.25,5.19,2,10.52,3.93,16.17,5.97,7.69,2.78,15.64,5.66,23.77,8.92,16.07,6.45,29.08,16.3,38.7,29.3,22.16,5.68,42.38,19.28,55.79,38.23,2.81,3.97,6.93,8.6,11.29,13.5,3.13,3.51,6.36,7.14,9.69,11.16,14.9,17.93,24.17,38.49,27.56,61.11.07.33.15.67.23,1,.3,1.31.68,2.96,1.05,4.89,7.37,8.39,12.05,17.41,15.99,26.08,9.87,21.7,14.63,45.29,14.57,72.15-.05,22.19-8.05,43.58-23.14,61.87-12.04,14.59-27.27,31.11-49.01,43.05-8.37,4.6-16.98,8.83-25.59,12.57-2.88,1.25-5.75,2.51-8.63,3.77-13.51,5.92-27.49,12.05-42.39,17.43-14.95,5.4-29.97,8.59-42.7,11-8.34,1.58-16.24,2.67-23.88,3.73-7.55,1.04-14.67,2.02-21.06,3.34-8.96,1.85-18.24,2.79-27.57,2.79-16.06,0-32.82-2.76-51.23-8.43-8.75-2.7-17.57-6.35-27.2-11.29-3.88,6.04-7.78,11.98-11.59,17.81-2.77,4.23-5.54,8.46-8.29,12.7l-.47.72c-3.49,6.98-7.03,13.99-10.47,20.77-9.37,18.51-18.22,35.99-26.44,53.86-3.38,7.34-6.35,16.04-9.5,25.24-1.97,5.75-4.01,11.7-6.31,17.84-1.76,4.7-3.7,8.7-5.11,11.62-.41.84-.93,1.93-1.22,2.57-5.18,17.3-10.83,37.65-13.95,58.08-1.94,12.74-4.34,25.09-6.65,37.03-2.1,10.84-4.08,21.07-5.68,31.21-.32,2.03-.35,6.13-.39,10.1-.04,5.05-.09,10.78-.64,17.14-1.11,12.84-2.59,25.47-4.02,37.68-.38,3.28-.77,6.57-1.14,9.85-1.71,14.9-3.15,30.49-.66,43.45,1.15,3.4,3.14,9.65,3.7,17.53,1.46,20.46-3.86,50.07-37.52,74.98-10.2,7.55-22.76,11.55-36.32,11.55Z"/><path d="m631.41,443.14c-10.5,7.46-15.92,19.3-22.7,30.21-8.75,14.08-17.99,27.86-27.01,41.77-.9,1.39-1.86,2.76-2.6,4.24-12.9,25.86-26.34,51.46-38.41,77.7-6.9,14.99-11.45,31.06-17.26,46.56-2.13,5.67-5.48,10.93-7.21,16.69-6.51,21.7-12.37,43.53-15.8,66.03-3.48,22.77-8.72,45.26-12.3,68.02-1.59,10.11-.57,20.59-1.46,30.84-1.33,15.39-3.26,30.74-5.01,46.1-2.38,20.76-4.02,41.5.54,62.19.63,2.85,2.09,5.6,2.29,8.46.95,13.28-6.93,22.2-16.49,29.28-2.82,2.09-9.11,1.38-12.95-.18-11.44-4.62-18.15-13.58-19.04-26.06-.93-13.01-1.65-26.05-1.73-39.09-.04-6.95,1.72-13.89,2.22-20.86.96-13.2,1.25-26.46,2.49-39.63,1.14-12.1,3.17-24.11,4.77-36.17.5-3.82.9-7.65,1.29-11.47.17-1.65-.26-3.48.33-4.93,3.35-8.23.41-15.73-2.19-23.38-3.55-10.4-6.51-21.02-10.39-31.3-5.59-14.8-11.79-29.37-17.7-44.05-2.19-5.45-3.67-11.3-6.56-16.34-4.78-8.33-10.44-16.16-15.83-24.36-7.87,4.5-14.95,9.2-22.57,12.75-15.69,7.31-31.7,14.72-49.67,10.79-12.47-2.72-24.75-6.47-36.88-10.46-7.42-2.44-14.95-5.34-21.46-9.55-13.92-9-28.77-16.88-40.3-29.18-13.46-14.36-8.96-28.53,4.04-39.89,17.01-14.87,35.34-28.22,49.53-46.26,9.86-12.53,20.88-24.2,32.04-35.62,2.89-2.96,8.09-4.47,12.44-5.01,7.88-.98,8.72-1.85,11.33-9.09,4.41-12.26,12.2-22.15,24.29-27.75,7.17-3.32,14.71-5.86,22.13-8.62,13.4-4.98,18.85-3.13,26.31,9.39,5.98,10.04,12.16,20.03,17.28,30.52,9.61,19.66,15.51,40.53,17.28,62.39,1.94,24.04-2.84,46.9-13.67,68.39-2.7,5.35-2.94,9.09.62,14.82,10.14,16.35,18.87,33.58,28.19,50.45,1.13,2.05,2.5,3.96,4.43,7,2.53-7.64,4.56-14.28,6.93-20.8,9.82-27.01,19.89-53.93,29.6-80.97,9.09-25.3,22.13-48.47,36.8-70.89,8.75-13.37,15.66-28.02,25.08-40.86,13.82-18.82,29.15-36.53,43.82-54.73,2.54-3.15,5.04-6.33,7.18-9.02-5.23-11.16-10.52-21.81-15.26-32.7-8.2-18.84-11.15-38.63-7.92-58.91,2.86-17.97,5.94-35.99,10.53-53.57,4.79-18.32,11.2-36.25,17.49-54.14,3.17-9,7.42-17.65,11.58-26.27,5.2-10.77,10.68-21.42,16.29-31.98,6.33-11.91,15.99-21.03,26.16-29.52,6.79-5.67,15.41-5.74,23.83-5.93,17.53-.39,34.01,2.13,48.2,13.91,4.38,3.63,10.38,5.47,15.86,7.58,13.04,5.03,26.32,9.43,39.29,14.63,14.02,5.63,21.89,16.13,22.68,31.43.41.19.77.52,1,.44,16.99-5.52,37,2.34,47.6,17.33,6.99,9.88,15.69,18.54,23.45,27.88,8.66,10.42,14.17,22.31,16.13,35.8.55,3.82,1.89,7.57,2.07,11.39.36,7.91,3.75,13.6,9.67,18.96,4.29,3.88,7.12,9.74,9.6,15.17,7.26,15.96,9.92,32.95,9.88,50.39-.03,10.97-4.37,20.48-11.19,28.75-9.76,11.82-20.22,23.02-33.87,30.52-6.91,3.8-14.02,7.3-21.25,10.44-15.88,6.9-31.68,14.1-47.94,19.98-11.17,4.03-22.98,6.59-34.69,8.81-15.17,2.88-30.67,4.11-45.78,7.24-18.21,3.76-35.69.88-52.85-4.4-9.01-2.77-17.69-7.08-25.93-11.74-10.47-5.92-20.34-12.89-30.65-19.53Zm95.51,26.64c6.85-.37,12.51.04,17.84-1.08,20.17-4.24,40.31-8.66,60.32-13.6,26.44-6.52,50.88-18.37,74.99-30.57,10.52-5.33,20.11-13.05,28.97-20.96,11.17-9.98,13.53-24.21-.33-35.53-6.63-5.42-13.6-10.43-20.51-15.49-3.48-2.55-6.12-2.12-9.38,1.45-5.18,5.67-10.84,11.26-17.28,15.35-11.79,7.49-24.09,14.24-36.54,20.58-10.93,5.56-21.41,12-33.4,15.57-15.17,4.51-30.43,1.71-45.65,2.03-1.02.02-2.08-1.53-3.12-2.34.86-1.06,1.53-2.64,2.63-3.05,1.66-.61,3.64-.26,5.45-.57,11.76-2,23.82-3.02,35.16-6.41,12.07-3.61,23.28-9.97,35.18-14.27,20.87-7.54,38.33-19.92,53.92-35.44,6.86-6.83,8.34-13.23,2.52-20.91-4.97-6.56-10.4-12.89-16.37-18.53-6.09-5.75-13.03-10.6-19.7-15.71-3.02-2.31-6.39-4.17-9.41-6.48-6.54-5.01-13.63-9.54-19.28-15.44-9.07-9.48-16.42-20.67-27.23-28.4-4.26-3.04-9.09-7.31-15.02-3.7-6.54,3.98-12.13,9-14.7,16.65-2.87,8.54-5.74,17.09-8.96,25.49-1.24,3.23-.91,9.3-6.17,8.09-6.69-1.54-3.28-7.21-2.12-10.99,4.3-14.09,9.05-28.04,13.56-42.06.56-1.73.98-3.57,1.03-5.38.52-17.27-8.01-30.02-21.23-39.69-12.97-9.49-21.8-22.25-30.13-35.45-4.34-6.88-19.25-13.16-26.17-9.09-6.23,3.66-12.82,7.86-17.08,13.47-7.26,9.55-13.74,19.95-18.88,30.79-8.98,18.93-17.21,38.27-24.78,57.81-6.17,15.92-11.5,32.22-16.13,48.66-5.35,18.98-4.16,38.7-4.16,58.17,0,5.93,1.44,12.06,3.3,17.75,3,9.19,6.57,18.23,10.53,27.06,3.13,6.98,6.24,14.35,11.08,20.1,7.28,8.65,15.55,16.66,24.32,23.81,13.74,11.2,29.03,20.59,46.29,24.76,12.22,2.95,25.24,2.58,36.64,3.59Zm-368.13,189.39c8.4-4.43,17.36-8.05,25.07-13.46,13.01-9.13,25.48-19.21,35.4-31.78,6.7-8.49,9.03-19.27,9.37-29.55.48-14.62-.58-29.45-2.68-43.95-1.32-9.16-2.71-18.77-7.81-27.08-2.76-4.5-5.46-9.06-7.79-13.79-2.88-5.83-5.18-11.95-8.05-17.79-1.92-3.91-4.3-7.61-6.67-11.28-2.63-4.08-5.87-6.94-11.4-5.93-9.63,1.76-19.12,3.67-27.27,9.68-9.65,7.12-18.17,14.84-16.13,28.44.32,2.13,1.4,4.42,2.79,6.07,11.86,14.06,24.84,27.29,35.49,42.19,7.32,10.23,11.56,22.68,16.88,34.27.44.96-1.39,2.97-2.16,4.49-1.59-.98-3.61-1.63-4.65-3.02-1.13-1.5-1.07-3.84-2.03-5.53-5.21-9.28-10.07-18.82-16.03-27.6-5.74-8.44-12.25-16.46-19.23-23.91-4.94-5.27-10.85-9.86-16.96-13.75-11.98-7.63-24.14-7.32-31.79,7.57-1.93,3.76-3.89,7.66-6.6,10.84-8.49,9.95-17.24,19.67-26.09,29.3-4.98,5.41-9.56,11.82-15.7,15.4-11.88,6.93-20.6,16.56-28.34,27.42-2.78,3.91-3.01,7.62.48,12.01,5.17,6.5,11.41,11.34,17.76,16.57,14.65,12.07,32.41,17.48,48.85,25.56,12.51,6.14,26.68,4.18,40.27,3.83,1.38-.04,2.79-.87,4.09-1.51,15.73-7.69,28.02-18.88,35.63-34.9,1.18-2.49,3.23-4.61-.13-7.15-.69-.52.02-2.89.09-4.41,1.49.07,3.04-.11,4.46.25,3.28.82,6.55,1.74,9.7,2.93,1.8.68,3.38,1.97,5.05,2.98-1.41,1.1-2.72,2.35-4.24,3.25-2.27,1.36-5.4,1.9-6.93,3.79-7.71,9.57-15.01,19.46-22.7,29.56Zm54.21-18.57c-8.81,1.96-10.43,6-6.04,13.34,7.27,12.18,14.3,24.51,21.1,36.96,1.88,3.44,2.52,7.56,3.79,11.34,5.02,14.97,10.02,29.94,15.11,44.88,2.29,6.71,4.89,13.31,7.11,20.04,1.44,4.37,3.74,8.99,3.4,13.32-1.02,13.31-3.06,26.55-4.83,39.79-1.51,11.27-3.72,22.48-4.69,33.79-2.03,23.66-3.56,47.36-5.01,71.06-.3,4.87.25,9.9,1.15,14.72,1.1,5.88,2.12,12.05,4.76,17.3,3.46,6.89,12.49,8.31,17.24,2.5,4.75-5.82,8.31-12.68,6.72-21.22-1.79-9.66-3.55-19.53-3.49-29.29.1-15.59,1.62-31.18,2.7-46.75,1.09-15.57,1.72-31.21,3.75-46.66,2.89-21.89,6.63-43.68,10.47-65.43,3.81-21.56,7.68-43.14,12.53-64.48,3.41-15.03,8.32-29.74,12.93-44.47,2.25-7.19,5.4-14.09,8.05-21.15,4.73-12.59,8.42-25.68,14.29-37.71,10.66-21.83,22.28-43.22,34.11-64.45,7.58-13.62,16.75-26.36,24.27-40.01,7.96-14.44,18.83-26.62,28.47-39.76.88-1.19,1.39-3.76.71-4.72-.99-1.4-3.76-3.09-4.82-2.6-4.07,1.88-8.59,3.87-11.45,7.12-7.62,8.68-14.93,17.71-21.52,27.19-15.6,22.47-31.17,44.98-45.83,68.06-8.51,13.39-15.63,27.72-22.64,41.99-8.41,17.11-16.48,34.43-23.85,52.01-4.16,9.92-6.27,20.68-9.89,30.85-7.97,22.35-15.54,44.77-18.88,68.4-.23,1.6-2.38,4.39-2.94,4.23-1.96-.56-4.3-1.8-5.24-3.49-1.74-3.13-2.46-6.82-3.85-10.16-4.36-10.44-9.13-20.73-13.19-31.28-6.23-16.16-14.34-31.24-24.49-45.25Zm510.94-270.91c.54-.18,1.08-.36,1.62-.53-.19-3.76.27-7.7-.68-11.26-3.47-13.13-6.7-26.38-14.92-37.7-3.41-4.69-6.24-9.81-9.23-14.8-.74-1.24-1.23-2.69-1.55-4.1-1.85-8.06-4.01-16.07-5.3-24.21-1.93-12.17-6.48-22.85-15.04-31.85-6.2-6.51-12.45-13.03-18.02-20.06-6.54-8.25-14.09-15.33-23.76-19.13-5.79-2.28-12.76-4.26-18.29,2.02-1.68,1.91-3.8,3.46-5.87,4.97-2.98,2.19-5.46,1.09-5.92-2.29-.99-7.25-1.86-14.53-3.28-21.69-1.48-7.43-15.28-18.68-22.24-20.61-13.37-3.71-26.75-7.76-39.55-13.06-9.24-3.82-17.42-10.11-26.32-14.85-4.06-2.17-8.71-3.25-13.09-4.82-.32.46-.63.92-.95,1.39,1.07,1.58,1.99,3.29,3.22,4.72,7.36,8.51,14.7,17.05,22.25,25.39,3.53,3.9,7.38,7.54,11.31,11.05,14.78,13.21,30.04,26.12,25.57,49.4.55-.04,1.21.11,1.59-.15,8.68-5.98,17.59-4.94,25.17,1.09,8.28,6.59,16.18,13.97,22.85,22.16,6.03,7.4,12.66,13.65,20.33,19.2,15.94,11.54,32.75,22.08,45.41,37.58,6.41,7.84,12.23,15.96,10.93,26.94-.29,2.47-.74,4.93-1.03,6.87,16.72,3.83,26.09,15.66,34.8,28.34Z"/><path class="cls-1" d="m726.91,469.78c-11.4-1-24.42-.64-36.64-3.59-17.26-4.17-32.55-13.56-46.29-24.76-8.77-7.15-17.04-15.16-24.32-23.81-4.84-5.75-7.95-13.12-11.08-20.1-3.96-8.82-7.53-17.87-10.53-27.06-1.86-5.69-3.3-11.82-3.3-17.75,0-19.47-1.18-39.19,4.16-58.17,4.63-16.44,9.97-32.74,16.13-48.66,7.57-19.54,15.8-38.88,24.78-57.81,5.14-10.84,11.62-21.24,18.88-30.79,4.26-5.61,10.85-9.81,17.08-13.47,6.92-4.06,21.83,2.22,26.17,9.09,8.33,13.2,17.15,25.96,30.13,35.45,13.22,9.67,21.75,22.42,21.23,39.69-.05,1.8-.48,3.65-1.03,5.38-4.51,14.02-9.26,27.97-13.56,42.06-1.16,3.78-4.57,9.45,2.12,10.99,5.25,1.21,4.93-4.86,6.17-8.09,3.23-8.41,6.09-16.95,8.96-25.49,2.57-7.65,8.16-12.67,14.7-16.65,5.93-3.6,10.77.66,15.02,3.7,10.81,7.73,18.16,18.92,27.23,28.4,5.64,5.9,12.73,10.43,19.28,15.44,3.02,2.31,6.39,4.17,9.41,6.48,6.67,5.11,13.62,9.96,19.7,15.71,5.97,5.64,11.41,11.97,16.37,18.53,5.82,7.68,4.34,14.09-2.52,20.91-15.6,15.51-33.05,27.89-53.92,35.44-11.9,4.3-23.11,10.66-35.18,14.27-11.35,3.39-23.41,4.41-35.16,6.41-1.8.31-3.79-.05-5.45.57-1.1.41-1.77,1.99-2.63,3.05,1.04.82,2.09,2.36,3.12,2.34,15.22-.31,30.48,2.49,45.65-2.03,11.99-3.57,22.47-10.01,33.4-15.57,12.45-6.34,24.76-13.09,36.54-20.58,6.43-4.09,12.1-9.67,17.28-15.35,3.26-3.57,5.9-4,9.38-1.45,6.91,5.06,13.88,10.08,20.51,15.49,13.86,11.32,11.5,25.55.33,35.53-8.86,7.92-18.45,15.64-28.97,20.96-24.11,12.2-48.54,24.05-74.99,30.57-20.01,4.93-40.15,9.36-60.32,13.6-5.33,1.12-10.99.71-17.84,1.08Zm-32.07-26.38c3.4-.97,5.78-1.36,7.87-2.35,1.15-.54,2.39-2.03,2.51-3.2.07-.74-1.73-2.2-2.89-2.46-15.2-3.36-25.31-14.09-35.95-24.23-5.68-5.41-9.64-11.52-12.05-18.97-.68-2.09-3.74-5.14-5.26-4.9-3.68.58-4.63,4.13-3.02,7.35,2.48,4.98,4.84,10.27,8.42,14.41,8.5,9.83,17.3,19.47,26.8,28.32,3.58,3.33,9.4,4.25,13.57,6.01Zm-45.43-84.48c0,4.82,3.24,8.74,7.22,8.71,4.34-.04,10.1-5.04,10.01-8.69-.1-3.8-5.36-8.41-9.52-8.32-4.15.08-7.7,3.9-7.7,8.3Zm80.48,75.06c5.07.37,8.51-1.97,8.91-6.03.48-4.92-3.38-9.57-8.25-9.96-4.09-.32-8.04,3.71-8.4,8.59-.29,3.88,3.03,7.06,7.73,7.39Z"/><path class="cls-1" d="m358.79,659.17c7.69-10.1,15-19.99,22.7-29.56,1.52-1.89,4.65-2.43,6.93-3.79,1.52-.91,2.83-2.16,4.24-3.25-1.68-1.01-3.25-2.3-5.05-2.98-3.16-1.19-6.43-2.11-9.7-2.93-1.42-.36-2.97-.18-4.46-.25-.07,1.52-.78,3.89-.09,4.41,3.36,2.54,1.32,4.66.13,7.15-7.61,16.01-19.9,27.21-35.63,34.9-1.31.64-2.72,1.48-4.09,1.51-13.59.35-27.76,2.31-40.27-3.83-16.44-8.08-34.2-13.49-48.85-25.56-6.35-5.23-12.59-10.07-17.76-16.57-3.49-4.39-3.27-8.11-.48-12.01,7.74-10.86,16.46-20.5,28.34-27.42,6.14-3.58,10.73-9.99,15.7-15.4,8.85-9.63,17.6-19.35,26.09-29.3,2.71-3.18,4.67-7.08,6.6-10.84,7.65-14.88,19.81-15.2,31.79-7.57,6.11,3.89,12.03,8.48,16.96,13.75,6.98,7.45,13.5,15.47,19.23,23.91,5.97,8.78,10.82,18.32,16.03,27.6.95,1.7.9,4.04,2.03,5.53,1.05,1.39,3.06,2.04,4.65,3.02.78-1.52,2.61-3.52,2.16-4.49-5.32-11.59-9.56-24.05-16.88-34.27-10.66-14.9-23.64-28.13-35.49-42.19-1.39-1.65-2.48-3.94-2.79-6.07-2.03-13.61,6.49-21.32,16.13-28.44,8.14-6.01,17.63-7.91,27.27-9.68,5.53-1.01,8.77,1.85,11.4,5.93,2.37,3.67,4.75,7.37,6.67,11.28,2.87,5.84,5.17,11.96,8.05,17.79,2.33,4.73,5.04,9.29,7.79,13.79,5.1,8.32,6.49,17.92,7.81,27.08,2.09,14.5,3.16,29.32,2.68,43.95-.34,10.27-2.67,21.05-9.37,29.55-9.92,12.58-22.39,22.65-35.4,31.78-7.71,5.41-16.67,9.03-25.07,13.46Zm-51.57-15.59c.09,4.58,4.15,9.21,7.97,9.08,3.48-.12,8.53-6.21,8.59-10.37.04-2.82-5.09-6.65-8.99-6.7-3.67-.05-7.65,4.15-7.57,8Zm38.91-30.83c-.03,5.29,2.27,7.8,7.1,7.76,4.73-.04,9.43-3.88,7.97-7.67-1.39-3.61-4.77-7.24-8.23-9.02-2.81-1.45-6.82,4.23-6.85,8.93Z"/><path class="cls-5" d="m412.99,640.61c10.16,14,18.26,29.08,24.49,45.24,4.07,10.55,8.84,20.84,13.19,31.28,1.4,3.35,2.11,7.03,3.85,10.16.94,1.69,3.28,2.93,5.24,3.49.57.16,2.72-2.62,2.94-4.23,3.33-23.63,10.91-46.05,18.88-68.4,3.63-10.17,5.74-20.93,9.89-30.85,7.37-17.58,15.44-34.9,23.85-52.01,7.01-14.27,14.14-28.6,22.64-41.99,14.66-23.08,30.23-45.6,45.83-68.06,6.58-9.48,13.9-18.51,21.52-27.19,2.86-3.26,7.37-5.24,11.45-7.12,1.06-.49,3.83,1.21,4.82,2.6.68.97.17,3.53-.71,4.72-9.65,13.13-20.52,25.31-28.47,39.76-7.52,13.65-16.69,26.39-24.27,40.01-11.82,21.24-23.45,42.62-34.11,64.45-5.87,12.03-9.57,25.12-14.29,37.71-2.65,7.06-5.8,13.97-8.05,21.15-4.61,14.74-9.52,29.44-12.93,44.47-4.85,21.34-8.71,42.92-12.53,64.48-3.85,21.75-7.59,43.54-10.47,65.43-2.04,15.45-2.67,31.09-3.75,46.66-1.09,15.58-2.61,31.16-2.7,46.75-.06,9.76,1.7,19.63,3.49,29.29,1.58,8.55-1.97,15.41-6.72,21.22-4.75,5.81-13.78,4.39-17.24-2.5-2.64-5.25-3.66-11.42-4.76-17.3-.9-4.82-1.45-9.85-1.15-14.72,1.45-23.7,2.98-47.41,5.01-71.06.97-11.31,3.19-22.52,4.69-33.79,1.77-13.25,3.81-26.48,4.83-39.79.33-4.33-1.96-8.95-3.4-13.32-2.22-6.73-4.83-13.33-7.11-20.04-5.09-14.94-10.09-29.91-15.11-44.88-1.27-3.79-1.91-7.9-3.79-11.34-6.79-12.45-13.83-24.78-21.1-36.96-4.38-7.34-2.77-11.38,6.04-13.34Z"/><path class="cls-4" d="m923.94,369.69c-8.71-12.67-18.08-24.51-34.8-28.34.29-1.94.74-4.4,1.03-6.87,1.3-10.97-4.52-19.1-10.93-26.94-12.67-15.5-29.48-26.05-45.41-37.58-7.67-5.55-14.3-11.8-20.33-19.2-6.66-8.18-14.57-15.57-22.85-22.16-7.58-6.03-16.49-7.07-25.17-1.09-.38.26-1.04.11-1.59.15,4.47-23.28-10.79-36.18-25.57-49.4-3.93-3.51-7.78-7.15-11.31-11.05-7.55-8.35-14.89-16.88-22.25-25.39-1.24-1.43-2.16-3.14-3.22-4.72.32-.46.63-.92.95-1.39,4.38,1.57,9.02,2.65,13.09,4.82,8.9,4.74,17.08,11.03,26.32,14.85,12.8,5.3,26.18,9.34,39.55,13.06,6.96,1.93,20.76,13.18,22.24,20.61,1.43,7.17,2.29,14.45,3.28,21.69.46,3.38,2.94,4.47,5.92,2.29,2.07-1.52,4.19-3.07,5.87-4.97,5.53-6.28,12.5-4.29,18.29-2.02,9.67,3.8,17.23,10.88,23.76,19.13,5.57,7.03,11.82,13.55,18.02,20.06,8.56,9,13.11,19.68,15.04,31.85,1.29,8.15,3.46,16.16,5.3,24.21.32,1.42.81,2.86,1.55,4.1,2.99,4.99,5.82,10.1,9.23,14.8,8.23,11.32,11.45,24.57,14.92,37.7.94,3.56.49,7.5.68,11.26-.54.18-1.08.36-1.62.53Z"/><path d="m694.85,443.41c-4.17-1.76-9.99-2.68-13.57-6.01-9.49-8.85-18.3-18.49-26.8-28.32-3.58-4.14-5.93-9.43-8.42-14.41-1.61-3.23-.66-6.77,3.02-7.35,1.52-.24,4.58,2.8,5.26,4.9,2.41,7.45,6.37,13.56,12.05,18.97,10.65,10.14,20.75,20.87,35.95,24.23,1.16.26,2.96,1.71,2.89,2.46-.11,1.17-1.36,2.66-2.51,3.2-2.1.99-4.47,1.38-7.87,2.35Z"/><path d="m649.42,358.92c0-4.4,3.55-8.22,7.7-8.3,4.16-.08,9.42,4.52,9.52,8.32.09,3.65-5.67,8.65-10.01,8.69-3.97.04-7.22-3.88-7.22-8.71Z"/><path d="m729.9,433.99c-4.7-.34-8.02-3.51-7.73-7.39.36-4.88,4.31-8.92,8.4-8.59,4.87.38,8.72,5.04,8.25,9.96-.4,4.07-3.84,6.4-8.91,6.03Z"/><path d="m307.22,643.58c-.08-3.84,3.91-8.05,7.57-8,3.9.06,9.03,3.88,8.99,6.7-.06,4.17-5.11,10.26-8.59,10.37-3.82.13-7.88-4.5-7.97-9.08Z"/><path d="m346.13,612.75c.03-4.7,4.04-10.38,6.85-8.93,3.46,1.78,6.84,5.41,8.23,9.02,1.45,3.79-3.24,7.62-7.97,7.67-4.83.04-7.13-2.47-7.1-7.76Z"/><path class="cls-2" d="m444.81,666.24c-5.61-13.31-12.62-25.83-21.12-37.55-2.11.47-3.78,1.06-5.05,1.8,1.27-.74,2.94-1.33,5.05-1.8,8.5,11.73,15.51,24.25,21.12,37.56Z"/></svg>