<?xml version="1.0" encoding="UTF-8"?><svg id="Layer_1" xmlns="http://www.w3.org/2000/svg" xmlns:xlink="http://www.w3.org/1999/xlink" viewBox="0 0 1150 1100"><defs><style>.cls-1,.cls-2{fill:#fff;}.cls-3{fill:#ffe8ff;}.cls-4{fill:#eb9cb7;}.cls-5{fill:#f0bedf;}.cls-6{fill:#7f9879;}.cls-7{fill:#3a6a32;}.cls-2{filter:url(#drop-shadow-2);}</style><filter id="drop-shadow-2" filterUnits="userSpaceOnUse"><feOffset dx="14.47" dy="14.47"/><feGaussianBlur result="blur" stdDeviation="14.47"/><feFlood flood-color="#000" flood-opacity=".5"/><feComposite in2="blur" operator="in"/><feComposite in="SourceGraphic"/></filter></defs><path class="cls-2" d="m557.45,1027.11c-13.4,0-26.91-2.41-41.29-7.37-17.99-6.21-31.1-20.14-35.96-38.21-2.87-10.67-1.98-19.8-1.54-24.19l.06-.62c.25-2.8.48-5.6.71-8.4,1.14-13.85,2.44-29.55,6.07-45.54.92-4.04.4-9.41-1.84-19.05-.38-1-1.38-3.18-2.14-4.8-1.12-2.43-2.4-5.18-3.68-8.31-1.19-2.9-2.13-5.52-2.97-7.83-.5-1.39-1.17-3.25-1.55-4.13-2.7-4.45-5.4-8.34-8.04-11.6-21.49,16.67-46.91,25.43-74.02,25.43-8.08,0-16.42-.77-24.79-2.3l-.21-.04c-3.03-.55-9.94-1.81-17.64-5.86-2.04.04-5.37.62-9.9,1.72-4.19,1.02-8.74,2.39-14.09,4.27-1.62,1.13-3.67,2.49-6.12,3.87-4.87,2.75-9.09,4.29-11.62,5.2-.21.08-.41.15-.62.23l-50.09,20.1-13.78-50.3c-2.27-5.77-7.31-20.18-1.48-37.38l.71-2.1c2.95-8.75,6.62-19.64,13.06-30.59l1.31-2.22c7.85-13.37,16.75-28.52,28.85-42.52,14.2-16.44,36.75-39.99,68.39-54.66,14.35-6.65,27.92-10.63,41.18-12.05-.54-4.78-.79-9.51-.75-14.2-1.71,1.1-3.36,2.14-4.92,3.14-2.38,1.5-4.62,2.93-6.69,4.3-.45.33-.88.67-1.32,1.02-3.25,2.51-8.68,6.72-15.97,10.15-10.89,5.13-20.7,5.48-25.42,5.64h-.29s-47.66,5.27-47.66,5.27l-4.7-47.07c-.94-4.86-2.95-16.46,1.63-29.78,2.35-6.84,5.17-12.52,7.43-17.08.52-1.05,1.04-2.09,1.54-3.15,1.04-2.18,2.07-4.37,3.09-6.56,3.01-6.41,6.12-13.03,9.73-19.89,12.83-24.35,33.31-43.66,59.24-55.87,1.97-.93,3.94-1.79,5.89-2.6-6.65-13.67-11.28-27.54-13.98-41.85-3.12-2.52-6.64-5.14-10.29-7.86-5.14-3.83-10.97-8.16-16.75-13.03-15.84-13.35-52.93-44.6-50.08-96.98,1.32-24.27,4.47-50.34,18.44-76.51,8.39-15.71,18.92-29.82,32.2-43.15,8.93-8.96,19.16-13.36,27.74-15.78,4.52-8.28,9.86-15.35,14.94-21.39,1.38-2.3,3.62-5.85,6.85-9.61,5.31-6.19,20.54-23.94,45.93-32.24,12.87-19.49,29.99-35.46,50.13-46.66,17.95-9.98,37.98-15.25,57.94-15.25,9.1,0,18.17,1.09,27,3.23.35-.16.8-.37,1.36-.66,13.41-6.99,27.08-10.53,40.62-10.53s31.46,3.35,49.5,17.9c19.13,2.1,37.31,8.61,54.17,19.44,7.81,5.01,18.36,8.91,28.13,12.1,7.15.42,21.68,1.37,36.15,10.87,4.78,3.14,19.31,12.67,26.75,30.31,3.71,8.8,5.89,18.01,6.56,27.79,14.57,12.52,24.45,27.88,29.51,45.91,3.86,13.79,4.21,27.06,4.47,36.75l.02.62c.34,13.09.73,27.94-.72,43.22-2.36,24.82-15.99,41.82-24.14,51.98-1.13,1.41-2.2,2.74-3.08,3.9-3.99,5.22-8.01,10.27-11.89,15.14-6.28,7.88-12.26,15.4-17.47,22.82-.03.15-.05.29-.08.43-.23,1.25-.49,2.64-.8,4.14.55.03,1.1.06,1.65.1,29.56,2.09,55.19,14.12,76.18,35.77,1.87,1.93,3.76,3.86,5.65,5.78,7.92,8.08,16.11,16.44,24.09,25.95,7.96,9.48,11.93,19.29,14.55,25.79.39.96.77,1.92,1.18,2.86,5.59,12.81,5.45,27.86-.41,41.25-5.78,13.22-16.24,23.02-29.44,27.6-5.46,1.89-11.16,2.84-16.98,2.84h0c-11.04,0-20.06-3.43-25.68-6.31-3.17-1.62-6.06-3.25-8.65-4.71,2.71,8.63,4.27,17.7,4.58,26.72.49,14.22-.42,27.72-1.3,39.25-.96,12.5-6.11,21.7-10.16,27.36,7.25,8,11.96,17.62,13.95,26.6,3.29,14.84-.25,30.05-9.96,42.83-4.23,5.57-9.48,10.47-15.18,14.18-5.35,3.49-10.55,6.59-15.57,9.6-7.22,4.32-14.07,8.42-19.41,12.52-.86,1.3-2.17,3.5-3.18,5.19-1.89,3.18-4.03,6.78-6.65,10.62-.53.78-1.06,1.56-1.59,2.35,6.24,2.41,12.78,5.24,19.39,8.86,12.74,6.97,51.52,28.17,57.19,76.4,1.13,9.62,1.98,19.43,2.51,29.15.8,14.55-4.56,29.05-14.71,39.78-10.5,11.09-25.26,17.46-40.5,17.46-9.09,0-18.07-2.29-25.98-6.62-5.91-3.24-15.16-4.09-28.13-4.39-1.34.13-4.56.81-6.94,1.32-3.12.66-6.66,1.41-10.58,2.04-5.85.94-11.73,1.42-17.46,1.42-21.85,0-41.88-6.66-58.99-19.45-1.4,11.59-3.64,23.52-7.35,35.58-.35,1.13-.75,2.61-1.17,4.19-.88,3.25-1.97,7.29-3.5,11.66-5.37,15.34-17.59,27.74-32.69,33.17-11.42,4.11-23.42,6.2-35.68,6.2Z"/><path d="m450.85,530.92c-7.62-11.21-14.66-21.51-21.65-31.84-11.3-16.71-19.26-34.56-21.89-54.93-.78-6.04-5.3-12.66-10.01-16.91-10.15-9.16-21.85-16.58-32.33-25.4-17.9-15.09-34.39-31.8-33-57.47,1.05-19.3,3.25-38.47,12.83-56.4,6.44-12.06,14.42-22.39,23.82-31.82,2.49-2.5,6.86-3.59,10.56-4.32,4.6-.91,9.41-.98,14.13-1.04,3.76-.04,5.69-1.47,6.08-5.29,1.24-12.5,8.19-22.07,16.08-31.19,1.98-2.29,3.15-5.29,5.12-7.59,7.47-8.71,15.86-15.97,27.56-18.71,4.73-1.11,9.19-3.53,13.59-5.73,1.41-.71,2.5-2.45,3.29-3.96,8.97-16.99,22.13-30.68,38.44-39.74,15.35-8.53,33.31-11.6,50.85-7.12,12.63,3.23,23.49.7,34.32-4.94,16.11-8.4,29.99-6.47,42.33,6.61,3.64,3.86,7.01,5.42,12.58,5.47,14.71.16,28.04,4.21,41.01,12.54,12.9,8.28,27.91,13.78,42.64,18.47,6.6,2.1,14.79.02,21.23,4.24,3.42,2.24,7.27,5.18,8.76,8.72,3.81,9.05,3.47,18.9,1.65,28.35-.88,4.56.48,6.17,4.05,8.05,13.32,7,24.2,16.73,28.36,31.57,2.23,7.97,2.47,16.62,2.69,24.99.33,12.67.69,25.44-.5,38.01-1.19,12.56-10.23,21.59-17.53,31.15-11.34,14.84-23.63,29.04-33.95,44.55-4.3,6.47-4.15,15.76-6.75,23.52-4.04,12.04-7.88,24.27-13.33,35.69-5.87,12.29-13.5,23.75-20.45,35.73.09.02.92.45,1.43.21,14.57-6.84,30.18-10.04,45.73-13.73,11.15-2.65,21.7-6.75,33.67-5.91,17.98,1.27,32.64,8.54,44.93,21.22,9.29,9.58,18.86,18.96,27.43,29.17,3.94,4.7,5.93,11.1,8.45,16.88.44,1.02-.55,3.72-1.44,4.03-1.37.48-3.41-.09-4.85-.83-7.25-3.71-14.13-8.33-21.66-11.29-9.11-3.58-18.58-7.25-28.18-8.3-13.3-1.45-27.04-1.9-40.25-.18-12.65,1.65-24.86,6.63-39.01,10.64,5.45,1.53,9.24,2.75,13.11,3.65,8.66,2.01,14.66,7.53,18.63,15.01,6.63,12.49,13.11,25.1,18.79,38.04,2.58,5.87,4.08,12.62,4.3,19.03.39,11.28-.32,22.62-1.19,33.89-.19,2.47-2.96,4.75-4.55,7.11-2.2-1.54-5.1-2.61-6.48-4.7-6.2-9.36-11.94-18.86-20.31-26.74-6.19-5.84-10.81-13.38-15.96-20.29-6.47-8.67-15.27-14.15-25.11-17.83-3.63-1.36-8.06-.76-12.12-.78-14.35-.07-28.69-.03-43.89-.03,4.11,9.57,8,18.74,11.97,27.87,6.32,14.52,7.65,29.27,2.11,44.31-3.03,8.22-6.2,16.38-9.44,24.52-.5,1.25-1.47,2.77-2.6,3.23-2.68,1.09-5.59,1.63-8.41,2.39-.68-2.84-1.24-5.72-2.05-8.52-1.74-6-2.91-12.29-5.55-17.88-9.24-19.49-20.79-37.27-39.77-48.91-.83-.51-1.8-.79-2.73-1.19-3.32,11.21-6.75,22.09-9.76,33.08-3.95,14.39-7.65,28.84-11.32,43.3-6.08,23.95-9.4,48.32-11.32,72.95-.63,8.11-3.32,16.05-4.18,24.17-1.17,11.02-1.88,22.11-2.07,33.19-.24,13.55,8.03,23.87,14.53,34.75,2.7,4.52,6.02,8.67,9.74,13.96,1.44-2.32,2.28-3.79,3.23-5.18,7.87-11.42,15.67-22.9,23.71-34.2,2-2.81,3.42-5.03,3.41-9.02-.05-17.8.48-35.14,7.53-52.55,9.44-23.32,23.34-41.53,45.03-53.79,7.08-4,14.39-8.92,22.11-10.14,10.3-1.63,21.25-1.05,31.67.39,11.87,1.64,23.27,5.28,35.7,4.4,8.6-.61,17.53,1.73,26.12,3.65,2.34.52,4.99,4.03,5.56,6.6.37,1.68-2.31,4.8-4.36,6.14-13.54,8.81-28.17,16.2-40.61,26.32-7.6,6.19-11.95,16.4-17.71,24.83-8.43,12.34-16.35,25.66-29.33,33.39-15.4,9.17-31.32,18-49.74,20.45-2.8.37-5.92,2.48-7.8,4.71-4.3,5.08-7.93,10.73-11.82,16.13,18.92-2.33,37.33-5.26,55.34-10.95,12.4-3.92,25.4-3.89,38,1.27,13.23,5.42,27.41,8.96,39.84,15.75,15.7,8.58,30.07,19.68,32.43,39.71,1.02,8.69,1.77,17.42,2.25,26.16.24,4.45-5.82,7.85-9.84,5.65-15.82-8.67-33.28-9.94-50.64-10.32-8.59-.19-17.24,2.58-25.86,3.98-20.36,3.28-37.24-3.51-50.27-18.92-4.89-5.78-7.61-13.39-11.37-20.14-4.24-7.61-4.04-7.04-11.84-3.73-6.91,2.92-14.69,3.79-21.57,6.76-5.88,2.54-11.39,6.34-16.3,10.48-2.04,1.72-2.84,5.77-2.93,8.8-.71,22.83-1.16,45.65-7.96,67.76-1.44,4.68-2.49,9.49-4.1,14.1-.52,1.49-2.04,3.18-3.49,3.71-15.11,5.44-30.08,3.72-44.88-1.39-6.68-2.3-5.55-8.37-5.13-13.12,1.42-15.91,2.26-32.06,5.78-47.56,3.26-14.34,1.14-27.76-2.04-41.27-1.62-6.87-5.31-13.25-8.02-19.86-2.46-6.02-4.17-12.48-7.47-17.98-4.67-7.77-9.95-15.34-15.99-22.07-7.1-7.91-15.06-15.09-23.12-22.04-3.11-2.68-7.43-4.12-11.4-5.54-1.17-.42-3.38.83-4.57,1.91-6.8,6.24-13.26,12.87-20.17,18.98-18.63,16.47-40.4,21.55-64.63,17.13-1.41-.26-2.91-.5-4.13-1.18-14.17-7.87-28.94-5.99-43.66-2.42-7.92,1.92-15.72,4.5-23.38,7.32-3.32,1.22-6.06,3.94-9.2,5.72-1.97,1.11-4.21,1.75-6.33,2.6-.67-2.44-2.48-5.27-1.81-7.26,2.74-8.09,5.38-16.44,9.67-23.74,7.65-13,15.29-26.33,25.08-37.67,14.76-17.08,31.42-32.81,52.19-42.44,15.14-7.02,31.48-11.24,48.33-5.4,11.04,3.83,19.15,11.9,26.5,20.58,4.37,5.15,7.96,10.95,12.13,16.27,1.17,1.5,3.11,3.22,4.81,3.34,13.08.99,21.36,9.7,29.79,18.11,3.75,3.74,7.1,7.88,11.79,13.14,7.41-67,18.58-131.8,36.95-196.7-3.31,1.79-5.81,2.64-7.68,4.24-17.18,14.68-32.41,31.25-46.22,49.1-4.61,5.96-8.42,12.55-12.69,18.78-4.85,7.07-9.82,14.07-14.73,21.1-.47.67-.92,1.37-1.39,2.04-1.27,1.83-2.55,3.65-3.83,5.47-2.75-1.94-6.9-3.3-8.01-5.93-5.38-12.81-8.57-26.46-6.97-40.27.94-8.14,5.7-15.76,7.85-23.85,4.34-16.36,14.99-27.92,27.53-38.24.92-.76,2.15-1.14,3.24-1.7-.35-.58-.7-1.16-1.04-1.75-5.29,0-10.67-.62-15.86.12-13.97,1.98-27.91,4.26-41.77,6.92-17.47,3.35-33.79,9.67-48.5,19.93-6.06,4.22-12.43,7.98-18.58,12.08-3.71,2.47-7,5.71-10.97,7.58-2.79,1.32-6.4.9-9.65,1.26-.26-2.64-1.4-5.57-.61-7.85,1.8-5.22,4.5-10.13,6.89-15.14,3.95-8.27,7.7-16.64,11.97-24.75,8.33-15.81,21.42-27.33,37.1-34.7,12.26-5.77,26.03-8.42,39.23-12.07,7.07-1.96,14.36-3.1,22.05-4.72Zm110.62-49.5c8.61-15.45,16.76-30.09,25.66-46.05-3.2,1.03-5.08,1.54-6.89,2.23-11.45,4.4-22.69,3.15-33.37-2.11-5.33-2.63-9.92-6.5-15.88-1.6-.76.62-2.48.54-3.57.19-1.96-.64-3.77-1.73-5.64-2.63,1.12-1.95,1.76-4.66,3.44-5.7,5.87-3.62,9.91-8.48,12.34-14.85.55-1.44,1.52-2.72,2.49-4.39,4.19,3.08,9.86,4.35,6.86,11.33-2.64,6.15-1.61,8.29,5.23,8.38,9.39.12,18.93-.2,28.16-1.74,5.18-.87,10.81-3.61,14.61-7.22,7.99-7.57,14.42-16.79,22.4-24.38,8.59-8.17,17.69-16.04,27.54-22.59,10.47-6.96,22.11-12.15,33.1-18.36.99-.56,1.71-3.25,1.25-4.45-4.19-10.88-8.49-21.72-17.58-29.77-9.63-8.54-19.97-15.35-33.61-13.78-6.51.75-12.95,2.17-19.42,3.32-11.28,2.01-22.5,5.28-33.84,5.76-15.73.67-31.54-.99-47.33-1.17-11.43-.13-22.9,0-34.28.97-8.12.69-16.09,4.18-24.15,4.23-15.25.1-30.27-2.46-44.24-9.31-2.7-1.32-5.58-2.28-10.14-4.12,0,9.11.35,17.07-.07,24.99-.92,17.3-.72,34.47,2.85,51.53,2.89,13.82,9.91,25.64,17.7,36.98,6.51,9.47,13.48,18.7,20.98,27.41,7.62,8.85,19.05,6.86,29.12,8.91,12.97,2.65,26.12,5.31,38.45,9.93,13.38,5.01,25.91,12.28,37.82,18.07Zm-105.96,194.07c12.3-16.9,24.1-32.84,35.59-48.99,16.25-22.85,37.96-38.82,63.16-50.33,4.98-2.28,10.46-2.81,16.05-.68,8.2,3.13,16.99,4.97,24.82,8.8,8.9,4.35,18.58,8.83,25.16,15.85,13.03,13.9,26.22,28.16,32.87,47.13,1.74-5.54,3.05-11.03,3.87-16.6,1.81-12.36,1.92-24.49-4.28-36.02-3.95-7.35-7.29-15.05-10.72-22.67-3.65-8.11-1.54-11.19,7.49-11.3,10.04-.11,20.09-.32,30.13-.3,7.75.02,15.55-.22,23.22.64,11.58,1.29,22.75,4.29,30.87,13.55,10.26,11.71,20.35,23.58,30.44,35.43,3.12,3.66,6.01,7.51,9.01,11.27.94-9.55,1.75-18.69-2.77-27.19-7.78-14.65-14.05-30.4-23.69-43.7-10.1-13.93-26.2-17.15-43.16-15.1-5.55.67-11.57,3.3-17.53-2.65,3.51-1.44,6.25-2.61,9.02-3.7,4.37-1.72,8.77-3.38,13.15-5.09,9.71-3.8,19.19-8.4,29.16-11.25,15.14-4.32,30.68-7.21,45.94-11.13,11.63-2.99,22.65-2.49,33.49,3.02,7.87,4,16,7.48,25.59,11.92-1.32-2.2-1.6-2.87-2.05-3.4-8.85-10.25-19.1-18.7-30.03-26.82-18.96-14.1-38.2-15.47-59.62-7.48-14.39,5.37-29.47,8.89-43.91,14.14-8.7,3.17-18.11,6.56-24.87,12.5-17.04,15.01-34.04,29.82-55.41,38.24-13.05,5.14-26.43,9.61-39.93,13.43-9.94,2.81-20.31,5.64-30.5,5.71-25.77.19-51.02-4.01-75.42-12.83-11.09-4.01-21.31-10.95-34.5-7.4-10.35,2.79-21.68,2.1-31.92,5.15-16.07,4.79-32.55,10.57-43.26,24.29-9.01,11.56-15.73,24.91-23.41,37.51-.76,1.24-1.1,2.74-1.83,4.63,16.74-9.3,32.77-18.22,48.81-27.12,3.03-1.68,5.94-4.1,9.2-4.77,12.44-2.58,24.95-5.05,37.54-6.68,18.96-2.46,37.69-5.44,55.39-13.21,1.75-.77,5.18.12,6.69,1.49,2.31,2.09,2.13,4.81-.57,7.44-4.54,4.43-8.41,9.55-12.9,14.03-15.99,15.92-27.84,34.29-34.53,55.98-3.49,11.3-4.35,22.36.13,34.24Zm102.05,293.25c.05-.28.09-.57.14-.85,2.26-.11,4.52-.36,6.78-.3,3.64.1,4.99-1.95,5.65-5.17,1.93-9.41,4.78-18.71,5.84-28.21,1.43-12.79,3.82-26.13,1.62-38.49-2.66-14.93-9.52-29.15-14.86-43.57-4.35-11.73-10.66-22.97-13.3-35.03-2.45-11.18-2.2-23.24-1.3-34.77,1.26-16.07,5.14-31.94,6.27-48.01,1.78-25.36,8.14-49.73,14.04-74.23,5.03-20.92,10.45-41.74,15.63-62.62,1.3-5.26-.53-8.81-6.1-10.09-3.8-.87-7.66-1.64-11.3-2.99-5.92-2.21-9.99.04-10.96,6.46-.36,2.43-.65,4.89-1.23,7.26-3.08,12.52-6.73,24.92-9.27,37.55-3.42,17.05-5.84,34.3-9,51.4-2.83,15.32-6.56,30.49-9,45.87-2.76,17.41-4.54,34.97-6.7,52.47-.5,4.08-.61,8.21-1.2,12.27-2.69,18.34,4.74,34.2,12.17,50.04,10.17,21.66,14.33,44.23,12.98,68.26-.85,15.06-2.6,29.72-6.66,44.21-.44,1.57,1.11,5.15,2.34,5.47,5.68,1.47,11.58,2.13,17.4,3.07Zm45.41-537.67c6.4-2.51,11.04-4.39,15.72-6.14,8.84-3.32,17.51-7.4,26.62-9.61,9.49-2.29,19.39-3.3,29.17-3.89,22.02-1.31,39.53-11.18,53.99-27.16,11.69-12.91,23.36-25.84,34.65-39.09,9.1-10.68,16.75-22.24,19.31-36.53,2.72-15.22,1.64-30.26-.61-45.42-1.28-8.6-4.93-15.52-11.31-21.02-6.46-5.57-13.26-10.75-19.84-16.04-6.97,4.18-10.78,9.91-12.02,17.09-2.31,13.35-4.67,26.71-6.2,40.16-1.26,11.09-1.37,22.3-1.98,33.46.53.3,1.05.6,1.58.9,2.03-3.28,3.88-6.69,6.16-9.78,1.04-1.41,2.93-2.19,4.44-3.25,1.03,1.78,2.41,3.46,2.95,5.37.33,1.17-.43,2.79-1.01,4.07-6.39,14.09-16.68,25.02-29.78,32.66-11.83,6.9-24.84,11.74-36.94,18.2-9.02,4.82-17.7,10.39-26.04,16.32-11.17,7.94-22.17,16.2-32.67,25.01-7.15,6-12.18,13.9-16.19,24.67Zm122.31-25.45c-2.18,1.47-3.4,2.16-4.47,3.03-12.57,10.23-26.75,15.81-43.16,15.01-1.22-.06-2.5-.03-3.67.27-14.24,3.65-28.65,6.77-42.62,11.25-10.43,3.34-20.69,7.73-30.31,12.97-15.29,8.34-22.46,23.14-28.09,38.98,17.73,12.92,28.91,29.19,25.52,52.34,31.75-1.34,107.56-53.4,126.81-133.86Zm-306.49,43.32c2.04,6.36,3.7,12.88,6.19,19.05,7.94,19.66,21.49,35.66,35.05,51.48,14.07,16.42,32.19,25.9,53.82,28.07,12.05,1.21,24.15,2.64,36.24,2.68,10.16.04,20.35-1.59,30.47-2.97,1.94-.26,4.88-2.56,5.16-4.28,2.97-18.22,1.39-33.07-16.72-43.66-12.88-7.53-26.02-14.66-39.31-21.44-6.16-3.14-12.77-5.85-19.49-7.34-19.57-4.34-39.3-7.94-58.96-11.9-10.95-2.2-23.09-.61-32.45-9.69Zm35.51-252.5c-5.01,1.56-9.77,2.07-13.41,4.36-14.03,8.81-23.76,21.32-29.38,36.95-7.66,21.33-1.46,39.95,13.27,55.37,5.71,5.98,14.91,10.68,23.08,11.78,11.24,1.52,23.14,3.38,34.62-.68,3.45-1.22,7.2-2.01,10.84-2.16,25.67-1.08,51.36-1.61,77.01-3,11.84-.65,23.67-2.4,35.36-4.49,10.67-1.91,21.15-4.94,31.62-7.45-1.83-5.43-10.35-13.05-17.13-14.31-17.62-3.27-35.28-.86-52.77.62-25.22,2.14-50.45,4.2-75.03-2.62-10.93-3.03-22.03-8.44-30.79-15.55-11.46-9.31-14.63-23.3-12.04-38.02,1.12-6.36,2.85-12.61,4.74-20.79Zm-13.24,248.95c-5.89-8.78-11.62-17.09-17.08-25.57-2.87-4.46-6.34-8.96-7.64-13.93-4.73-18.18-9.92-36.39-12.53-54.93-2.36-16.78-2.46-34.03,2.53-50.77.63-2.12.5-5.12-.56-6.99-4.79-8.41-7.03-17.46-7.73-26.95-.28-3.73-2.29-5.8-5.5-4.43-8.3,3.53-17.72,6.21-24.08,12.06-6.77,6.22-11.89,15.18-15.31,23.89-4.38,11.14-6.75,23.15-9.17,34.95-1.34,6.54-2.47,13.73-1.15,20.09,3.19,15.39,13.13,27.14,24.67,37.15,8.33,7.22,18.1,12.77,26.58,19.83,9.19,7.66,17.63,16.22,26.42,24.37,5.86,5.43,11.79,10.76,20.56,11.23Zm10.04,320.97c-2.03-3.05-3.44-5.03-4.72-7.09-13.69-22.11-34.84-29.68-59.09-27.18-9,.92-18.34,7.23-25.74,13.28-13.92,11.38-27.36,23.6-39.39,36.92-7.26,8.05-11.48,18.85-17.07,28.41,2.65.91,3.83.73,4.96.38,7.02-2.17,13.89-5.08,21.07-6.42,16.58-3.11,32.56.24,48.58,4.96,6.74,1.99,15.18,2.84,21.53.56,11.45-4.12,22.14-10.59,32.68-16.88,4.98-2.97,8.86-7.8,13.24-11.79-26.19,1.57-51.08,3.89-74.67-8.27,2.27-5.75,5.79-6.49,10.01-5.23,20.21,6.01,40.64,4.42,61.07,1.69,2.45-.33,4.71-2.04,7.57-3.34Zm252.72-48.22c-5.77,5.21-11.55,9-15.38,14.21-7.61,10.36-14.12,21.53-21.14,32.33-7.2,11.09-14.47,22.13-21.72,33.19-.71,1.08-1.49,2.1-2.23,3.15.31.53.62,1.05.93,1.58,11.65-4.74,23.71-8.67,34.83-14.41,13.92-7.19,22.78-19.69,30.29-33.18,8.34-14.97,20.2-26.77,34.27-36.4,5.23-3.58,10.59-6.98,16.86-11.1-7.39-1.51-13.36-2.95-19.4-3.91-12.76-2.02-25.64-5.76-38.33-5.24-28.01,1.15-49.11,15.77-63.78,39.26-8.51,13.63-14.17,28.65-16.62,44.61-1.06,6.91-1.87,14.15,2.37,21.08,13.26-10.03,22.81-22.63,29.55-36.91,8.41-17.81,19.32-33.29,35.08-45.2,3.78-2.86,7.79-5.08,14.42-3.08Zm-157.54-454.74c16.56-1.3,31.84-2.35,47.08-3.75,19.81-1.82,38.1,1.74,53.33,15.26,4.16,3.69,7.02,8.84,10.49,13.33q4.27-13.81,15.04-25.52c1.19-1.3,2.29-3.16,2.45-4.84,1.45-16.13,2.86-32.27,3.88-48.44.34-5.34-4.42-10.34-9.55-10.02-11.97.74-23.42,3.78-33.59,10.41-6.33,4.13-12.09,9.22-18.66,12.9-6.52,3.65-13.64,6.31-20.65,8.97-9.74,3.7-20,6.23-29.34,10.72-8.32,4-16.55,9.12-20.48,20.98Zm144.15-16.27c10.93-7.85,22.55-15.77,33.68-24.32,7.42-5.71,14.65-11.85,21.04-18.67,5.76-6.16,5.21-10.89-.99-16.46-2.18-1.96-5.84-2.48-8.93-3.21-9.48-2.26-19.27-3.54-28.47-6.61-12.99-4.33-25.7-9.34-36.62-18.35-4.98-4.1-11.66-7.34-17.99-8.38-22.79-3.75-38.91,6.99-50.65,25.72,5.49,7.97,13.32,12.15,22.41,15.04,8.42,2.68,16.28,5.14,24.2-1.09,1.87-1.47,4.44-2.14,6.77-2.9,19.58-6.35,32.55,2.56,35.24,22.18,1.7,12.38.32,25.18.32,37.06Zm-30.35,593.77c.24.81.49,1.62.73,2.42,9.34,5.92,20.21,6.05,30.62,7.77,15.14,2.51,30.36,4.53,45.46,7.25,3.46.62,6.89,2.82,9.73,5.05,1.67,1.32,2.14,4.15,3.16,6.3-2.39.22-4.9,1.01-7.16.55-9.62-1.97-19.07-5.56-28.75-6.25-19.9-1.41-38.89-5.67-57.16-13.55-1.38-.6-4.28-.62-4.7.1-.84,1.47-1.11,3.9-.48,5.48,2.04,5.15,4.41,10.2,6.97,15.11,8.82,16.92,23.06,27.84,45.26,23.95,9.06-1.59,18.41-2.59,27.57-2.25,12.08.46,24.11,2.45,36.14,3.89,4.98.59,9.93,1.43,15.01,2.17-1.13-23.2-12.44-39.14-30.76-47.14-4.13-1.8-8.55-3.03-12.48-5.17-19.79-10.75-40.75-15.26-63.06-11.53-5.53.92-10.74,3.83-16.09,5.83Zm-40.06-698.14c-5.81-9.04-18.97-9.77-29.29-4.44-17.22,8.87-34.01,6.63-51.34,2.22-2.36-.6-5.12-1.46-7.25-.79-13.02,4.14-26.18,7.85-37.39,16.4-9.96,7.6-14.55,18.46-19.5,29.22-1.63,3.54-3.2,7.11-4.79,10.67,2.71-.48,4.29-1.67,5.86-2.86,14.64-11.09,33.01-11.67,48.57-1.98,4.45,2.77,9.55,4.5,14.36,6.69,5.59,2.55,8.65.77,9.84-5.29.41-2.08,1.91-4.11,3.35-5.79,10.15-11.81,23.42-15.6,36.11-14.91,11.09-10.26,21.04-19.47,31.49-29.14Zm-100.39,119.19c3.2,0,6.56.4,9.75-.16,1.71-.3,4.09-1.98,4.52-3.5,2.93-10.5,8.93-18.43,18.7-23.2,5.87-2.86,11.92-5.45,18.1-7.58,7.01-2.42,7.37-3.46,2.77-9.01-4.66-5.63-11.11-6.54-17.54-7.21-9.65-1.01-18.69-3.72-27.82-7.01-9.31-3.36-19.24-6.26-29.03-6.7-14.2-.64-22.7,3.94-27.2,18.83-1.66,5.48-3.57,10.93-4.52,16.54-.55,3.24-.39,7.29,1.12,10.06,4.75,8.7,12.47,14.32,22.21,15.97,9.5,1.6,19.19,2.02,28.93,2.97Zm174.46,82.08c7.2-4.65,14.16-8.93,20.83-13.62,1.52-1.07,2.92-3.61,2.88-5.43-.63-23.7,4.08-46.85,7.06-70.17.15-1.2.77-2.33,1.17-3.5,1.82-5.41,3.64-10.82,5.45-16.22-9.2,4.64-17.74,9.27-25.01,15.39-12.55,10.57-28.3,18.13-34.98,34.61-3.04,7.51-7.18,15.1,1.18,22.33,2.53,2.19,3.98,5.69,5.71,8.72,5.16,9.01,10.2,18.09,15.71,27.89Zm-71.63-141.43c-1.68-.78-2.69-1.54-3.8-1.72-8.53-1.4-15.57-5.62-22.34-10.79-6.05-4.63-11.86-9.76-20.97-6.51-8.13,2.9-14,7.89-19.87,14.3,1.55.69,2.07,1,2.64,1.16,11.88,3.4,25.23,4.53,29.55,19.53.23.8,2.41,1.63,3.56,1.48,12.49-1.58,22.2-8.18,31.22-17.44Zm4.1,613.17c-8.12,1.44-39.01,49.23-37.18,57.11,1.55-1.39,2.72-2.71,4.15-3.66,5.94-3.93,11.56-8.74,18.05-11.36,9.82-3.96,20.29-6.28,30.42-9.5,1.45-.46,2.54-2.03,3.8-3.08-1.75-.42-3.75-1.62-5.2-1.15-9.66,3.13-19.16,6.78-28.83,9.88-2.21.71-4.9-.07-7.37-.16.57-2.14.68-4.57,1.8-6.37,6.52-10.45,13.29-20.76,20.36-31.72Zm-141.36-34.25c.32-.57.63-1.14.95-1.71-6.2-4.3-12.39-8.59-18.59-12.89-.59.87-1.17,1.75-1.76,2.62,5.61,5.27,13.4,7.28,19.4,11.98Z"/><path class="cls-5" d="m561.47,481.41c-11.9-5.8-24.44-13.06-37.82-18.07-12.34-4.62-25.48-7.29-38.45-9.93-10.07-2.06-21.51-.06-29.12-8.91-7.49-8.71-14.47-17.93-20.98-27.41-7.79-11.34-14.81-23.16-17.7-36.98-3.56-17.06-3.76-34.23-2.85-51.53.42-7.92.07-15.88.07-24.99,4.56,1.84,7.44,2.8,10.14,4.12,13.97,6.85,28.99,9.41,44.24,9.31,8.05-.05,16.03-3.55,24.15-4.23,11.38-.96,22.85-1.1,34.28-.97,15.78.19,31.6,1.85,47.33,1.17,11.34-.48,22.56-3.76,33.84-5.76,6.47-1.15,12.9-2.57,19.42-3.32,13.64-1.57,23.98,5.24,33.61,13.78,9.09,8.05,13.39,18.89,17.58,29.77.46,1.2-.26,3.9-1.25,4.45-10.99,6.21-22.63,11.4-33.1,18.36-9.85,6.55-18.95,14.42-27.54,22.59-7.98,7.59-14.41,16.8-22.4,24.38-3.8,3.61-9.43,6.35-14.61,7.22-9.24,1.54-18.77,1.86-28.16,1.74-6.84-.09-7.87-2.23-5.23-8.38,3-6.98-2.67-8.25-6.86-11.33-.96,1.67-1.93,2.95-2.49,4.39-2.44,6.37-6.47,11.23-12.34,14.85-1.68,1.03-2.32,3.75-3.44,5.7,1.87.9,3.68,1.99,5.64,2.63,1.08.35,2.81.43,3.57-.19,5.95-4.9,10.54-1.03,15.88,1.6,10.67,5.26,21.91,6.51,33.37,2.11,1.8-.69,3.68-1.2,6.89-2.23-8.9,15.97-17.05,30.6-25.66,46.05Zm-20.46-105.28c.93-6.7-4.82-10.17-10.62-13.4-5.23-2.91-11.4-.09-12.05,5.76-.42,3.79-.1,7.87.84,11.57,1.77,6.97,8.46,11.09,15.74,9.5,6.39-1.39,5.66-7.08,6.09-13.43Zm27.6-15.71c2.61,5.1,4.57,9.03,6.62,12.92,2.12,4.04,4.92,5.19,9.61,3.52,4.88-1.73,6.75-5.03,5.86-9.33-.88-4.29-2.81-8.51-5.02-12.33-1.9-3.29-5.48-6.08-9.25-3.72-3.08,1.93-5.05,5.65-7.82,8.94Z"/><path class="cls-6" d="m455.51,675.48c-4.48-11.88-3.62-22.94-.13-34.24,6.69-21.69,18.54-40.06,34.53-55.98,4.5-4.48,8.36-9.6,12.9-14.03,2.7-2.63,2.87-5.35.57-7.44-1.51-1.37-4.94-2.26-6.69-1.49-17.69,7.77-36.43,10.75-55.39,13.21-12.59,1.63-25.1,4.11-37.54,6.68-3.26.67-6.17,3.09-9.2,4.77-16.04,8.9-32.07,17.82-48.81,27.12.73-1.89,1.07-3.39,1.83-4.63,7.68-12.6,14.39-25.95,23.41-37.51,10.7-13.72,27.19-19.5,43.26-24.29,10.24-3.05,21.57-2.36,31.92-5.15,13.2-3.56,23.41,3.39,34.5,7.4,24.39,8.82,49.65,13.02,75.42,12.83,10.2-.08,20.56-2.9,30.5-5.71,13.5-3.82,26.88-8.29,39.93-13.43,21.37-8.41,38.37-23.23,55.41-38.24,6.75-5.95,16.16-9.34,24.87-12.5,14.44-5.25,29.52-8.77,43.91-14.14,21.42-7.99,40.65-6.62,59.62,7.48,10.93,8.13,21.18,16.58,30.03,26.82.45.53.74,1.2,2.05,3.4-9.59-4.44-17.72-7.92-25.59-11.92-10.84-5.51-21.86-6-33.49-3.02-15.26,3.92-30.8,6.8-45.94,11.13-9.98,2.85-19.46,7.45-29.16,11.25-4.38,1.71-8.78,3.37-13.15,5.09-2.77,1.09-5.51,2.26-9.02,3.7,5.95,5.94,11.97,3.32,17.53,2.65,16.96-2.06,33.06,1.17,43.16,15.1,9.64,13.3,15.91,29.05,23.69,43.7,4.52,8.51,3.71,17.64,2.77,27.19-3-3.76-5.89-7.61-9.01-11.27-10.09-11.86-20.17-23.73-30.44-35.43-8.12-9.26-19.29-12.26-30.87-13.55-7.67-.85-15.48-.62-23.22-.64-10.04-.02-20.09.18-30.13.3-9.03.1-11.14,3.18-7.49,11.3,3.43,7.62,6.77,15.32,10.72,22.67,6.2,11.53,6.09,23.66,4.28,36.02-.82,5.56-2.13,11.05-3.87,16.6-6.65-18.97-19.84-33.23-32.87-47.13-6.58-7.02-16.26-11.5-25.16-15.85-7.83-3.83-16.61-5.67-24.82-8.8-5.59-2.13-11.07-1.6-16.05.68-25.19,11.51-46.9,27.47-63.16,50.33-11.49,16.16-23.3,32.09-35.59,48.99Z"/><path class="cls-7" d="m557.56,968.73c-5.82-.95-11.72-1.6-17.4-3.07-1.23-.32-2.77-3.9-2.34-5.47,4.05-14.48,5.81-29.15,6.66-44.21,1.35-24.04-2.81-46.6-12.98-68.26-7.43-15.84-14.86-31.7-12.17-50.04.6-4.06.7-8.19,1.2-12.27,2.15-17.5,3.94-35.06,6.7-52.47,2.44-15.38,6.17-30.55,9-45.87,3.16-17.11,5.58-34.35,9-51.4,2.53-12.63,6.18-25.03,9.27-37.55.59-2.38.87-4.84,1.23-7.26.96-6.42,5.04-8.67,10.96-6.46,3.63,1.36,7.5,2.12,11.3,2.99,5.57,1.28,7.4,4.83,6.1,10.09-5.17,20.88-10.59,41.71-15.63,62.62-5.89,24.5-12.25,48.87-14.04,74.23-1.13,16.07-5.01,31.94-6.27,48.01-.9,11.53-1.15,23.6,1.3,34.77,2.64,12.07,8.95,23.3,13.3,35.03,5.34,14.41,12.21,28.63,14.86,43.57,2.2,12.36-.19,25.7-1.62,38.49-1.06,9.5-3.91,18.8-5.84,28.21-.66,3.21-2.01,5.27-5.65,5.17-2.26-.06-4.52.19-6.78.3-.05.28-.09.57-.14.85Z"/><path class="cls-3" d="m602.97,431.06c4-10.77,9.04-18.67,16.19-24.67,10.49-8.81,21.5-17.06,32.67-25.01,8.34-5.93,17.02-11.51,26.04-16.32,12.11-6.46,25.11-11.3,36.94-18.2,13.1-7.64,23.38-18.56,29.78-32.66.58-1.28,1.35-2.9,1.01-4.07-.54-1.92-1.92-3.6-2.95-5.37-1.51,1.06-3.4,1.84-4.44,3.25-2.28,3.09-4.14,6.5-6.16,9.78-.53-.3-1.05-.6-1.58-.9.62-11.16.72-22.38,1.98-33.46,1.53-13.45,3.89-26.81,6.2-40.16,1.24-7.18,5.05-12.91,12.02-17.09,6.58,5.29,13.38,10.47,19.84,16.04,6.38,5.5,10.04,12.42,11.31,21.02,2.25,15.16,3.33,30.21.61,45.42-2.56,14.29-10.21,25.85-19.31,36.53-11.29,13.25-22.97,26.18-34.65,39.09-14.46,15.98-31.97,25.85-53.99,27.16-9.78.58-19.68,1.59-29.17,3.89-9.12,2.2-17.78,6.29-26.62,9.61-4.68,1.76-9.31,3.63-15.72,6.14Z"/><path class="cls-4" d="m725.28,405.61c-19.25,80.46-95.06,132.52-126.81,133.86,3.39-23.15-7.79-39.42-25.52-52.34,5.62-15.84,12.8-30.64,28.09-38.98,9.62-5.24,19.88-9.63,30.31-12.97,13.97-4.48,28.39-7.6,42.62-11.25,1.17-.3,2.45-.33,3.67-.27,16.41.81,30.59-4.77,43.16-15.01,1.07-.87,2.29-1.56,4.47-3.03Z"/><path class="cls-4" d="m418.79,448.93c9.35,9.09,21.5,7.49,32.45,9.69,19.66,3.96,39.39,7.55,58.96,11.9,6.72,1.49,13.33,4.2,19.49,7.34,13.29,6.78,26.43,13.91,39.31,21.44,18.11,10.59,19.69,25.44,16.72,43.66-.28,1.72-3.21,4.02-5.16,4.28-10.11,1.38-20.31,3-30.47,2.97-12.08-.04-24.18-1.47-36.24-2.68-21.63-2.17-39.75-11.65-53.82-28.07-13.56-15.82-27.11-31.82-35.05-51.48-2.5-6.18-4.15-12.69-6.19-19.05Z"/><path class="cls-3" d="m454.3,196.43c-1.89,8.17-3.62,14.42-4.74,20.79-2.59,14.72.57,28.71,12.04,38.02,8.76,7.12,19.86,12.52,30.79,15.55,24.58,6.82,49.82,4.76,75.03,2.62,17.49-1.48,35.15-3.89,52.77-.62,6.78,1.26,15.3,8.88,17.13,14.31-10.48,2.52-20.95,5.55-31.62,7.45-11.69,2.09-23.52,3.84-35.36,4.49-25.65,1.4-51.34,1.93-77.01,3-3.65.15-7.4.94-10.84,2.16-11.48,4.06-23.38,2.2-34.62.68-8.17-1.1-17.37-5.79-23.08-11.78-14.72-15.42-20.93-34.04-13.27-55.37,5.61-15.62,15.35-28.13,29.38-36.95,3.64-2.29,8.4-2.8,13.41-4.36Z"/><path class="cls-3" d="m441.06,445.37c-8.77-.47-14.7-5.79-20.56-11.23-8.78-8.15-17.22-16.71-26.42-24.37-8.48-7.07-18.25-12.61-26.58-19.83-11.54-10.01-21.48-21.75-24.67-37.15-1.32-6.37-.19-13.55,1.15-20.09,2.42-11.8,4.79-23.81,9.17-34.95,3.42-8.71,8.54-17.67,15.31-23.89,6.37-5.85,15.78-8.53,24.08-12.06,3.22-1.37,5.23.71,5.5,4.43.7,9.5,2.94,18.55,7.73,26.95,1.06,1.86,1.2,4.87.56,6.99-4.99,16.74-4.89,33.99-2.53,50.77,2.61,18.54,7.8,36.75,12.53,54.93,1.3,4.98,4.77,9.47,7.64,13.93,5.45,8.49,11.19,16.79,17.08,25.57Z"/><path class="cls-6" d="m451.1,766.34c-2.85,1.3-5.12,3.01-7.57,3.34-20.43,2.73-40.86,4.32-61.07-1.69-4.22-1.25-7.74-.52-10.01,5.23,23.59,12.15,48.48,9.84,74.67,8.27-4.38,3.99-8.25,8.81-13.24,11.79-10.53,6.29-21.23,12.76-32.68,16.88-6.35,2.28-14.78,1.43-21.53-.56-16.01-4.72-31.99-8.07-48.58-4.96-7.17,1.34-14.05,4.26-21.07,6.42-1.13.35-2.31.53-4.96-.38,5.59-9.56,9.81-20.36,17.07-28.41,12.03-13.33,25.47-25.55,39.39-36.92,7.4-6.04,16.73-12.35,25.74-13.28,24.26-2.49,45.4,5.08,59.09,27.18,1.28,2.06,2.69,4.05,4.72,7.09Z"/><path class="cls-6" d="m703.82,718.11c-6.63-2.01-10.64.22-14.42,3.08-15.76,11.91-26.66,27.38-35.08,45.2-6.75,14.28-16.29,26.88-29.55,36.91-4.24-6.93-3.43-14.17-2.37-21.08,2.45-15.96,8.1-30.98,16.62-44.61,14.67-23.49,35.78-38.11,63.78-39.26,12.69-.52,25.57,3.22,38.33,5.24,6.04.96,12.01,2.4,19.4,3.91-6.27,4.12-11.63,7.52-16.86,11.1-14.07,9.63-25.93,21.43-34.27,36.4-7.52,13.49-16.37,25.99-30.29,33.18-11.13,5.74-23.19,9.68-34.83,14.41-.31-.53-.62-1.05-.93-1.58.75-1.05,1.53-2.08,2.23-3.15,7.25-11.06,14.51-22.1,21.72-33.19,7.02-10.8,13.53-21.97,21.14-32.33,3.83-5.22,9.62-9,15.38-14.21Z"/><path class="cls-3" d="m546.27,263.37c3.93-11.86,12.15-16.98,20.48-20.98,9.34-4.49,19.6-7.01,29.34-10.72,7.02-2.67,14.14-5.32,20.65-8.97,6.57-3.68,12.33-8.77,18.66-12.9,10.17-6.64,21.62-9.67,33.59-10.41,5.13-.32,9.88,4.67,9.55,10.02-1.01,16.16-2.43,32.31-3.88,48.44-.15,1.69-1.26,3.55-2.45,4.84q-10.73,11.74-15.04,25.52c-3.47-4.49-6.33-9.64-10.49-13.33-15.23-13.52-33.52-17.08-53.33-15.26-15.24,1.4-30.52,2.44-47.08,3.75Z"/><path class="cls-3" d="m690.43,247.1c0-11.88,1.38-24.68-.32-37.06-2.7-19.63-15.67-28.53-35.24-22.18-2.34.76-4.91,1.43-6.77,2.9-7.92,6.23-15.78,3.77-24.2,1.09-9.09-2.89-16.92-7.08-22.41-15.04,11.74-18.72,27.86-29.46,50.65-25.72,6.33,1.04,13.02,4.28,17.99,8.38,10.92,9.01,23.64,14.02,36.62,18.35,9.2,3.07,18.99,4.35,28.47,6.61,3.09.74,6.74,1.25,8.93,3.21,6.2,5.57,6.75,10.31.99,16.46-6.38,6.82-13.61,12.96-21.04,18.67-11.13,8.56-22.75,16.48-33.68,24.32Z"/><path class="cls-6" d="m660.07,840.88c5.36-2,10.56-4.91,16.09-5.83,22.31-3.73,43.27.78,63.06,11.53,3.94,2.14,8.36,3.37,12.48,5.17,18.32,8,29.63,23.93,30.76,47.14-5.08-.74-10.03-1.58-15.01-2.17-12.04-1.43-24.06-3.43-36.14-3.89-9.16-.35-18.51.66-27.57,2.25-22.2,3.9-36.44-7.03-45.26-23.95-2.56-4.92-4.93-9.96-6.97-15.11-.63-1.58-.36-4.01.48-5.48.42-.73,3.31-.7,4.7-.1,18.27,7.88,37.26,12.14,57.16,13.55,9.68.69,19.13,4.28,28.75,6.25,2.25.46,4.77-.33,7.16-.55-1.01-2.15-1.49-4.98-3.16-6.3-2.84-2.24-6.26-4.43-9.73-5.05-15.1-2.72-30.32-4.74-45.46-7.25-10.41-1.73-21.29-1.85-30.62-7.77-.24-.81-.49-1.62-.73-2.42Z"/><path class="cls-3" d="m620.01,142.73c-10.45,9.67-20.4,18.88-31.49,29.14-12.69-.68-25.96,3.1-36.11,14.91-1.44,1.68-2.94,3.71-3.35,5.79-1.19,6.06-4.25,7.83-9.84,5.29-4.81-2.19-9.91-3.92-14.36-6.69-15.56-9.69-33.93-9.11-48.57,1.98-1.57,1.19-3.15,2.38-5.86,2.86,1.6-3.56,3.16-7.13,4.79-10.67,4.95-10.76,9.54-21.62,19.5-29.22,11.2-8.55,24.37-12.26,37.39-16.4,2.13-.68,4.89.19,7.25.79,17.34,4.41,34.13,6.65,51.34-2.22,10.33-5.32,23.48-4.6,29.29,4.44Z"/><path class="cls-4" d="m519.62,261.92c-9.74-.95-19.43-1.37-28.93-2.97-9.75-1.64-17.46-7.27-22.21-15.97-1.51-2.77-1.68-6.82-1.12-10.06.95-5.61,2.87-11.06,4.52-16.54,4.5-14.89,13-19.47,27.2-18.83,9.78.44,19.72,3.35,29.03,6.7,9.13,3.29,18.16,6,27.82,7.01,6.43.67,12.88,1.58,17.54,7.21,4.59,5.55,4.24,6.59-2.77,9.01-6.17,2.13-12.23,4.72-18.1,7.58-9.78,4.77-15.77,12.7-18.7,23.2-.42,1.52-2.81,3.2-4.52,3.5-3.19.56-6.55.16-9.75.16Z"/><path class="cls-4" d="m694.08,344c-5.51-9.8-10.56-18.88-15.71-27.89-1.73-3.02-3.18-6.53-5.71-8.72-8.35-7.23-4.22-14.82-1.18-22.33,6.67-16.48,22.42-24.04,34.98-34.61,7.28-6.13,15.81-10.76,25.01-15.39-1.82,5.41-3.63,10.82-5.45,16.22-.39,1.17-1.01,2.3-1.17,3.5-2.98,23.32-7.69,46.47-7.06,70.17.05,1.82-1.35,4.36-2.88,5.43-6.67,4.69-13.63,8.97-20.83,13.62Z"/><path class="cls-4" d="m622.45,202.57c-9.02,9.26-18.73,15.86-31.22,17.44-1.15.15-3.33-.68-3.56-1.48-4.32-14.99-17.67-16.12-29.55-19.53-.57-.16-1.09-.47-2.64-1.16,5.86-6.41,11.74-11.4,19.87-14.3,9.11-3.25,14.92,1.89,20.97,6.51,6.76,5.18,13.81,9.4,22.34,10.79,1.11.18,2.13.94,3.8,1.72Z"/><path class="cls-7" d="m626.54,815.74c-7.07,10.96-13.83,21.26-20.36,31.72-1.12,1.8-1.22,4.23-1.8,6.37,2.47.09,5.16.87,7.37.16,9.67-3.1,19.17-6.75,28.83-9.88,1.46-.47,3.46.72,5.2,1.15-1.26,1.06-2.35,2.62-3.8,3.08-10.13,3.22-20.6,5.54-30.42,9.5-6.49,2.62-12.1,7.43-18.05,11.36-1.42.94-2.6,2.27-4.15,3.66-1.83-7.87,29.05-55.66,37.18-57.11Z"/><path class="cls-7" d="m485.18,781.49c-6-4.69-13.79-6.7-19.4-11.98.59-.87,1.17-1.75,1.76-2.62,6.2,4.3,12.39,8.59,18.59,12.89-.32.57-.63,1.14-.95,1.71Z"/><path d="m541.01,376.14c-.43,6.35.3,12.04-6.09,13.43-7.29,1.59-13.97-2.53-15.74-9.5-.94-3.71-1.26-7.78-.84-11.57.65-5.85,6.82-8.67,12.05-5.76,5.81,3.23,11.55,6.7,10.62,13.4Z"/><path d="m568.61,360.42c2.77-3.29,4.74-7.01,7.82-8.94,3.76-2.35,7.34.44,9.25,3.72,2.21,3.82,4.14,8.04,5.02,12.33.88,4.3-.98,7.6-5.86,9.33-4.69,1.66-7.48.51-9.61-3.52-2.05-3.89-4.01-7.82-6.62-12.92Z"/><path class="cls-1" d="m750.14,869.37h0c-.6.05-1.2.15-1.81.24.61-.1,1.21-.19,1.81-.24Z"/><path class="cls-1" d="m688.44,123.97c-1.2.35-2.37.75-3.52,1.21-10.92,4.28-19.75,12.88-26.97,24.4h0c7.22-11.52,16.05-20.13,26.97-24.4,1.15-.45,2.32-.85,3.52-1.21Z"/></svg>