<?xml version="1.0" encoding="UTF-8"?><svg id="Layer_1" xmlns="http://www.w3.org/2000/svg" xmlns:xlink="http://www.w3.org/1999/xlink" viewBox="0 0 1150 1100"><defs><style>.cls-1{fill:#e6e6e6;}.cls-2{fill:#b3b3b3;}.cls-3{fill:#333;}.cls-4{fill:#c0514c;}.cls-5{fill:#ccc;}.cls-6{fill:#a87565;}.cls-7{fill:gray;}.cls-8{fill:#7c6c52;}.cls-9{font-family:MyriadPro-Regular, 'Myriad Pro';font-size:13.7px;}.cls-10{fill:#fff;filter:url(#drop-shadow-2);}</style><filter id="drop-shadow-2" filterUnits="userSpaceOnUse"><feOffset dx="15" dy="15"/><feGaussianBlur result="blur" stdDeviation="15"/><feFlood flood-color="#000" flood-opacity=".5"/><feComposite in2="blur" operator="in"/><feComposite in="SourceGraphic"/></filter></defs><path class="cls-10" d="m500.82,1031.65c-4.38,0-8.79-.45-13.14-1.34-.2-.04-.4-.07-.59-.11-3.71.67-7.57,1.1-11.55,1.28-.93.04-1.84.06-2.75.06-20.29,0-37.87-10.01-47.99-25.78-11.24,8.16-25.12,12.64-39.22,12.64-11.84,0-23.27-3.09-33.26-8.72-23.34-1.49-42.05-15.22-50.95-36.75-9.38-11.5-14.72-25.98-14.8-41.06-.11-20.72,9.9-40.34,26.76-52.48,6.21-4.47,12.5-8.05,18.32-11.05-5.42-2.63-10.84-5.42-16.24-8.34-9.97-5.39-16.68-12.3-20.69-16.42-.56-.58-1.33-1.37-1.62-1.64-15.71-14.27-27.62-28.89-36.33-44.62-14.03-25.34-27.77-53.23-33.33-85.52-1.71-9.95-2.13-19.08-2.47-27.18-13.12-12.5-26.66-25.16-40.38-37.77-28.63-26.29-44.46-59.18-45.78-95.1-.69-18.68,4.95-36.53,15.92-51.64-3.01-5.76-5.64-12.03-7.65-18.85-4.38-14.87-14.62-49.7,6.36-84,4.94-8.08,9.81-13.02,36.16-34.57-2.85-13.38-3.26-27.5-1.21-42.18l.32-2.31c1.83-13.48,4.9-36.03,21.21-55.33.85-1,2.07-2.63,3.37-4.36,6.78-9.05,17.82-23.77,37.48-32.74,1.05-.72,2.34-1.58,3.84-2.48.48-.29.95-.59,1.43-.89,3.79-2.39,9.95-6.26,18.17-9.12,1.33-5.74,3.12-11.3,5.39-16.73,6.88-16.48,17.69-26.87,24.15-33.08.75-.73,1.51-1.45,2.25-2.19,10.7-10.64,22.95-14.26,28.19-15.81.05-.01.09-.03.14-.04,17.14-6.97,33.38-10.36,49.62-10.36,7.11,0,14.17.68,21.11,2.02,3.47-5.91,7.12-10.96,10.36-15.15,12.11-15.67,34.44-34.92,72.04-37.66,1.95-.14,3.93-.21,5.89-.21,9.67,0,18.84,1.69,27.27,5.02,14.19,5.61,26.56,12.63,37.07,21.03,13.03-16.89,33.94-35.32,66.43-40.57,4.96-.8,9.92-1.21,14.76-1.21,22.24,0,42.36,8.54,56.65,24.06l1.89,2.05c9.87,10.68,22.15,23.97,31.06,40.95,3.96,7.54,6.8,15.17,8.94,22.57,16.29-6.94,34.46-10.62,54.82-11.16,1.2-.03,2.39-.05,3.58-.05,27.5,0,50.57,8.96,68.57,26.62,18.55,18.21,28.69,40.98,29.34,65.86.02.62.12,1.95.21,3.12.31,4.09.73,9.69.31,16.25-.22,3.42-.51,6.8-.88,10.14,8.83.31,17.46,1.53,25.7,3.63,19.13,4.88,35.07,15.47,46.1,30.62.72.99,1.81,2.29,3.22,3.84,15.41,16.99,22.03,39.24,18.64,62.64-1.46,10.08-3.88,22.01-9.5,34.16,15.28,9.97,27.34,24.19,33.58,37.94,8.92,19.65,10.59,40.58,4.84,60.51-4.3,14.87-12.73,29.05-25.06,42.15-3.15,3.35-6.38,6.52-9.62,9.52,1.81,4.19,3.39,8.87,4.66,14.1,1.92,7.88,4.61,23.42,1.14,38.87-7.46,33.23-29.17,53.45-47.25,67.34-3.23,2.49-6.48,5.05-9.91,7.76-7.65,6.05-15.57,12.31-24.29,18.41-6.76,4.72-13.45,8.69-19.35,12.19-4.36,2.59-8.48,5.03-11.95,7.37l-1.35.91c-6.9,4.65-13.41,9.05-17.39,12.97-15.27,15.07-32.06,23.46-46.68,28.5-5.25,8.04-12.28,15.02-20.85,20.56-3.21,2.08-6.18,3.79-8.8,5.31-1.48.86-3.42,1.97-4.49,2.66-9.62,9.82-19.55,16.32-27.59,21.59l-2.12,1.39c-9.48,6.24-20.88,13.53-33.47,20.22-10.7,5.68-21.14,10.28-31.24,14.72l-4.19,1.85c-6.58,2.91-12.84,5.33-18.89,7.66-1.48.57-2.97,1.15-4.45,1.73-2.24.87-4.64,1.87-7.18,2.92-7.55,3.13-16.12,6.67-25.96,9.39-3.92,1.08-7.8,2.05-11.62,2.94,5.49,18.61,3.07,39-7.83,57.87-1.67,2.89-3.35,5.78-5.03,8.67-6.85,11.77-13.32,22.9-18.98,34.05-.2.47-.63,1.56-.95,2.37-2.97,7.57-8.49,21.65-22.28,33.5-7.57,6.51-23.32,20.04-48.09,20.04Z"/><text class="cls-9" transform="translate(600.95 549.34)"><tspan x="0" y="0">1000</tspan></text><path d="m498.81,837.07c-14.83,1.2-28.16,2.16-41.45,3.5-1.51.15-3.79,2.24-4.05,3.72-2.47,14.07-4.65,27.94,7.56,39.56,7.56,7.2,6.42,16.55-2.92,26.92-7.04,7.82-14.58,15.29-22.54,22.16-13.03,11.26-26.32,22.26-40.04,32.67-7.12,5.4-18.64,4.2-24.39-4.04-.91-1.31-3.2-2.09-4.94-2.29-2.03-.23-4.17.45-6.25.75-8.62,1.24-12.21-1.56-13.83-10.26-.33-1.79-1.48-3.92-2.92-4.94-8.41-5.92-9.34-18.22-.8-24.37,6.71-4.83,14.38-8.41,21.87-12.04,10.81-5.24,21.8-10.1,32.8-14.96,11.74-5.19,17.19-14.48,17.95-26.89.23-3.8.43-7.66.09-11.44-.83-9.07-5.95-12.93-15.12-14.58-8.95-1.61-17.88-4.21-26.31-7.62-11.82-4.79-23.39-10.33-34.61-16.4-4.74-2.57-8.3-7.3-12.42-11.04-10.3-9.36-19.6-19.85-26.27-31.89-12.18-22-23.48-44.67-27.79-69.77-2-11.61-1.53-23.62-2.65-35.4-.3-3.15-1.53-6.97-3.71-9.06-17.11-16.48-34.44-32.76-51.94-48.83-17.71-16.26-28.75-35.88-29.64-60.12-.47-12.91,6.44-23.11,16.67-30.44,5.74-4.11,12.61-1.98,19.04-.56,3.49.77,7.02,1.38,10.53,2.06.29-.49.59-.98.88-1.47-3.38-3.2-6.94-6.22-10.09-9.62-12.04-12.99-25.68-25.46-30.76-42.72-4.14-14.06-7.79-29.35,1.05-43.8,2.88-4.71,50.2-41.92,51.94-43.89.79-.89-1.4-4.47-2.31-6.8-1.5-3.84-3.1-7.64-4.58-11.49-4.22-10.94-4.79-22.59-3.24-33.74,1.55-11.12,2.72-23.44,10.19-32.27,7.49-8.85,13.17-20.02,25.1-24.6,2.62-1.01,4.85-3.01,7.29-4.49,5.68-3.44,11.05-7.75,18.47-6.12.92.2,2.18-.56,3.13-1.13,6.56-3.94,13.08-7.95,19.59-11.92-.91-10.68-.25-20.81,4.04-31.08,3.44-8.25,9.75-13.35,15.51-19.08,2.61-2.6,7.29-3.08,10.99-4.62,16.73-6.97,33.83-9.77,51.43-3.8,10.1,3.42,17.58,10.5,23.7,19.02,3.89,5.42,7.53,11.02,11.85,17.37.31-1.91.59-2.93.62-3.95.41-12.62.18-25.3,1.34-37.85,1.06-11.48,6.7-21.22,13.79-30.4,9.29-12.02,21.58-17.31,36.1-18.37,3.68-.27,7.76.1,11.16,1.44,20.94,8.27,37.56,21,44.89,43.59,2.04,6.29,6.48,11.76,8.92,17.96,4.32,10.99,7.96,22.24,11.39,31.99,1.4-6.78,3.2-15.33,4.92-23.88,3.17-15.75,6.51-31.65,13.68-45.97,9.71-19.38,22.49-36.56,46.04-40.36,9.69-1.56,19.75-.13,26.66,7.37,9.31,10.1,19.18,20.4,25.46,32.37,5.71,10.88,7.88,23.95,9.98,36.33,4.12,24.24,2.13,48.59-.81,72.86-.13,1.11-.14,2.24.84,3.89,2.57-4.2,5.01-8.48,7.74-12.58,10.4-15.67,21.18-31.04,35.75-43.26,16.16-13.56,35-18.54,55.86-19.1,13.89-.37,25.9,2.56,35.79,12.27,8.74,8.57,14.05,18.92,14.38,31.47.13,4.97.92,9.97.6,14.9-1.14,17.85-4.89,35.22-12.56,51.4-6.29,13.27-13.61,26.05-20.44,39.07-.57,1.08-.83,2.31-1.65,4.67,6.78-4.48,12.34-8.41,18.13-11.94,13.44-8.2,27-15.68,43.06-18.34,12.18-2.02,23.97-2.49,35.83.54,7.2,1.84,13.5,5.38,18.04,11.6,2.03,2.79,4.28,5.44,6.6,8,5.71,6.3,7.39,13.63,6.2,21.89-1.63,11.27-4.13,21.71-12.29,30.84-10.97,12.26-20.17,26.08-30.58,38.87-4.17,5.12-9.53,9.27-15.23,14.69,2.41-.31,4.12-.13,5.43-.76,10.73-5.16,22.29-5.1,33.77-5.46,4.99-.16,10.05.46,14.98-.12,12.22-1.42,27.51,12.09,31.96,21.88,8.55,18.84,1.35,34.49-11.1,47.71-10.67,11.34-23.42,20.74-35.39,30.83-7.85,6.61-15.95,12.93-25.19,20.38,4.24,0,7.15.12,10.05-.02,9.63-.48,18.46,2.5,26.93,6.5,5.54,2.61,9.21,20.05,7.4,28.12-3.9,17.36-15.69,28.47-28.94,38.66-10.78,8.29-21.23,17.05-32.37,24.83-9.85,6.89-20.68,12.37-30.64,19.1-8.99,6.07-18.21,12.17-25.87,19.73-11.65,11.5-25.89,17.08-41.11,20.52-6.17,1.4-9.02,4.35-9.88,9.84-.88,5.63-4.02,9.37-8.58,12.32-7.2,4.66-15.5,8.29-21.24,14.33-6.6,6.95-14.38,11.76-22.09,16.83-9.57,6.3-19.31,12.45-29.42,17.81-10.45,5.55-21.38,10.22-32.22,15.01-6.99,3.09-14.17,5.76-21.3,8.54-9.38,3.66-18.58,8.02-28.25,10.69-12.64,3.49-25.63,5.76-38.52,8.25-5.81,1.12-11.85,1.11-17.59,2.46-2.27.53-5.61,3.29-5.7,5.17-.46,9.14-.58,18.4.46,27.48.39,3.43,3.68,7.07,6.55,9.57,10.09,8.79,12.03,19.5,5.35,31.07-8.66,15-17.59,29.88-25.41,45.32-3.51,6.92-4.85,14.97-11.12,20.36-5.43,4.67-10.91,9.37-18.94,7.57-1.09-.24-2.72-.32-3.12-1.02-3.13-5.63-6.45-2.9-10.44-.98-3.16,1.53-6.99,2.11-10.56,2.28-4.03.18-7.06-1.89-7.54-6.32-.29-2.66-.57-5.37-.34-8.02.33-3.79-.13-6.29-4.44-7.92-4.06-1.54-5.35-5.34-4.43-10.06,2.47-12.68,10.94-21.35,19.56-29.82,8.03-7.9,15.39-16.3,19.35-26.86,2.85-7.58,5.47-15.67,5.87-23.65.52-10.3-1.28-20.71-2.18-32.31Zm215.72-78.6c-11.07-.75-20.72-1.72-30.38-1.96-6.78-.17-12.86-2.02-18.82-4.97-3.72-1.84-7.57-3.44-11.48-4.83-10.77-3.83-21.72-7.17-32.38-11.28-26.13-10.07-46.21-28.98-66.87-46.86-11.46-9.92-22.1-20.79-33.03-31.32-11.45-11.03-21.16-23.44-28.17-37.73-6.36-12.97-12.49-26.07-18.16-39.35-4.52-10.58-10.69-20.65-11.31-32.66-.06-1.13-2.08-2.48-3.47-3.16-6.58-3.2-13.62-5.6-19.83-9.37-20.74-12.58-26.24-33.79-29.27-55.59-1.99-14.34.46-28.62,3.7-42.91,5.31-23.42,10.02-47.09,12.86-70.91,1.36-11.41,6.63-22.47,3.08-34.79-2.84-9.86-2.02-20.73-4.55-30.71-2.74-10.77-8.19-20.57-16.76-28.27-16.89-15.16-37.52-20.92-59.18-19.79-21.53,1.12-41.02,9.13-57.17,24.92-13.7,13.41-19.5,30.79-27.43,47.19-.69,1.43-.09,3.49-.09,6.4,12.01-8.01,23.72-13.16,37.77-11.42,13.93,1.73,32.94,9.34,37.16,26.83,1.61,6.65,2.49,13.72,2.2,20.53-1.21,29.07-.88,58.34-7.41,86.92-2.62,11.48-3.36,23.78-10.76,33.67-4.19,5.6-4.58,11.81-4.01,18.07,1.22,13.28-1.43,26.01-5.7,38.26-4.59,13.18-10.92,25.75-15.77,38.85-4.31,11.65-8.68,23.46-11.13,35.58-2.94,14.56-3.4,29.61-5.78,44.3-3.04,18.76,1.01,36.88,6.12,54.29,6.82,23.21,19.96,43.41,35.29,62.37,25.04,30.97,65.23,47.2,104.11,50.33,52.98,4.26,116.19-1.78,167.59-15.24,15.47-4.05,30.54-10.01,45.3-16.27,17.49-7.42,34.64-15.7,51.57-24.32,7.58-3.86,14.27-9.46,22.14-14.8Zm-154.74-254c17.95-2.94,34.86-6.13,51.89-8.34,11.44-1.48,11.48-2.29,14.08-13,4.08-16.88,7.63-33.9,11.46-50.84,2.19-9.69,4.5-19.35,6.78-29.02,4.82-20.47,9.45-41,14.55-61.4,5.98-23.91,12.32-47.73,18.64-71.55,4.95-18.66,5.11-37.82,6.1-56.89.14-2.65.05-5.42-.59-7.97-2.11-8.48-4.79-16.83-6.75-25.34-3.45-14.97-9.88-28.57-19.57-40.29-10.73-12.98-24.95-15.89-39.42-5.02-10.05,7.55-18.25,16.47-24.7,27.42-8.69,14.74-13.61,30.74-16.45,47.22-2.26,13.11-1.72,26.67-2.95,39.99-1.62,17.48-3.77,34.91-5.68,52.37-.48,4.37-1.2,8.73-1.29,13.11-.2,9.34.21,18.7-.14,28.03-.6,15.78-1.74,31.54-2.4,47.31-.56,13.39-.59,26.8-1.19,40.18-.55,12.16-1.88,24.3-2.28,36.46-.4,12.5-.09,25.03-.09,37.57Zm-57,14.46c10.99-2.61,21.33-4.66,31.43-7.54,17.01-4.85,15.06-.28,16.82-20,1.19-13.33.84-26.78,1.55-40.16.55-10.31,2.02-20.57,2.43-30.87.34-8.58-.65-17.2-.39-25.78.46-15.32,1.48-30.62,2.16-45.94.78-17.57,1.32-35.15,2.21-52.72.33-6.49,2.57-13.1,1.83-19.4-1.94-16.46-3.85-33.1-8.02-49.08-3.84-14.7-9.9-28.95-16.24-42.82-9.18-20.07-22.81-35.36-46.8-37.44-12.81-1.11-23.57,3.79-30.42,13.72-11.86,17.18-16.48,36.93-14.78,57.86.67,8.26,2.14,16.45,3.26,24.67,1.18,8.7,2.28,17.4,3.6,26.08,2.31,15.25,4.65,30.49,7.18,45.7,2.19,13.17,4.39,26.36,7.11,39.43,2.4,11.52,5.59,22.88,8.29,34.34.91,3.84,1.27,7.81,2.12,11.67.86,3.89,2.33,7.67,2.99,11.59,2.26,13.38,3.78,26.91,6.55,40.17,2.38,11.37,6.24,22.42,9.17,33.69,2.82,10.84,5.28,21.76,7.95,32.85Zm134.06-24.87c21.61-.42,41.77-1.76,61.63,2.95,4.48,1.06,6.04-2.22,7.41-5.55,1.24-3,2.08-6.27,3.82-8.95,15.44-23.79,31.02-47.49,46.61-71.18,2.84-4.31,6.22-8.27,8.84-12.7,5.15-8.68,9.76-17.68,14.94-26.35,6.76-11.32,14.87-21.95,20.58-33.76,8.06-16.67,15.38-33.84,21.28-51.37,5.57-16.58,9.71-33.93,3.8-51.55-2.45-7.3-4.25-15.31-11.64-19.65-25.71-15.12-52.94-7.41-72.82,5.13-10.17,6.42-17.4,16.21-23.61,26.4-6.98,11.45-13.29,23.31-19.8,35.05-6.87,12.39-14.37,24.51-20.2,37.38-4.22,9.3-6.31,19.59-9.07,29.52-5.48,19.68-10.76,39.41-16.12,59.12-1.85,6.8-4.01,13.53-5.43,20.41-2.5,12.15-4.76,24.36-6.71,36.61-1.47,9.21-2.3,18.52-3.51,28.49Zm75.23,4.77c1.81.73,2.99,1.46,4.26,1.69,15.34,2.7,29.05,9.57,42.34,17.16,11.97,6.84,11.74,7.24,22.18-2.08.43-.38.94-.67,1.37-1.04,11.17-9.56,22.44-19.02,33.47-28.74,4.87-4.3,8.62-10.15,13.98-13.56,16.23-10.29,28.51-24.85,42.09-37.92,11.92-11.47,22.67-24.24,33.27-36.98,5.96-7.16,11.65-14.93,15.55-23.31,5.89-12.67-.17-29.22-11.93-37.47-7.93-5.56-16.36-8.66-26.22-7.05-10.06,1.64-21.22.8-29.99,5.02-15.37,7.38-29.63,17.29-43.71,27.07-10.84,7.52-20.45,16.5-27.49,28.17-12.04,19.98-24.8,39.54-37.4,59.17-7.54,11.75-15.46,23.26-23.05,34.97-3.07,4.74-5.72,9.75-8.72,14.91Zm-159.49,173.78c3.12,3.83,6.21,9.17,10.67,12.84,15.83,13.02,32.1,25.51,48.26,38.13,4.04,3.16,8.53,4.4,13.88,3.86,9.85-1,17.96-5.11,26.15-10.58,12.7-8.48,19.76-18.79,17.13-35.48,5.14-.34,10.58-.5,15.97-1.09,13.34-1.47,25.82-5.13,35.62-15.04,7.41-7.5,19.94-18.3,19.94-35.42-3.42-22.83-16.59-26.13-34.79-35.48,1.17-.97,1.93-1.75,2.83-2.32,14.81-9.53,22.13-23.17,21.29-40.67-.2-4.25-2.47-8.67-4.67-12.51-7.07-12.32-18.75-20.18-29.59-28.62-4.81-3.74-10.98-7.04-16.89-7.81-17.07-2.23-34.29-2.37-51.4.62-4.04.71-8.19.79-12.3,1.16-.09.56-.17,1.11-.26,1.67,13.24,4.83,28.45,7.8,33.45,23.08,4.73,14.44,3.65,28.5-11.23,38.36,14.99,14.83,14.77,33,8.06,49.76-7.31,18.26-24.68,24.12-44.41,24.78,3.35,14.01-5.83,21.93-15.55,28.4-10.37,6.91-22.4,4.66-32.16,2.38Zm86.02-127.41c.91-9.6-1.71-16.7-10.34-21.1-6.39-3.26-12.61-6.93-18.65-10.82-6.62-4.27-13.33-7.24-21.47-5.34-4.77,1.12-9.7,1.58-14.47,2.7-10.76,2.51-21.52,5.06-32.18,7.94-6.09,1.64-11.91,4.3-18.01,5.88-14.2,3.69-28.5,6.95-42.74,10.49-6,1.49-9.32,6.25-8.6,12.47.37,3.21,1.02,6.47,2.07,9.52,7.75,22.42,17.02,44.05,29.36,64.51,6.78,11.25,15.54,20.07,25.05,28.56,2.27,2.03,4.38,4.52,7.05,5.76,7.8,3.62,15.66,7.26,23.83,9.89,9.9,3.19,19.59,3.1,27.4-5.56,7.32-8.12,7.3-16.57-.08-24.69-.77-.85-1.13-3.22-.55-3.9.87-1.02,2.84-1.74,4.21-1.56,2.17.3,4.25,2.17,6.31,2.09,5.57-.21,11.13-1.02,16.67-1.73,13.53-1.73,24.8-15.76,24-29.31-.78-13.15-3.12-25.49-14.12-34.43-.82-.66-.88-2.26-1.3-3.42,1.12-.32,2.23-.66,3.36-.96,2.26-.62,4.94-.65,6.7-1.94,5.16-3.8,7.44-9.13,6.51-15.05Zm2.64,188.36c-.02.56-.04,1.11-.07,1.67,10.14,2.97,20.15,6.6,30.46,8.72,11.52,2.37,23.31,3.56,35.02,4.93,16.87,1.98,31.71-2.21,43.94-14.66,4.76-4.84,6.51-10.71,5.54-16.72-.84-5.22,1.67-4.97,4.88-5.11,22.29-1.01,41.29-8.26,54.13-27.8,5.22-7.95,5.05-22.62.3-30.86-5.67-9.84-15.2-14.86-23.85-20.99-3.24-2.3-2.98-3.8-.19-5.33,6.49-3.55,9.77-9.93,9.99-16.17.37-10.36-.51-21.06-2.84-31.15-3.05-13.2-12.41-22.77-21.74-32.37-17.4-17.92-38.17-29.77-61.73-37.26-2.83-.9-5.57-2.1-8.34-3.16-.47.61-.93,1.21-1.4,1.82,1.04.45,2.21.72,3.09,1.38,5.96,4.5,12.24,8.68,17.71,13.72,12.05,11.12,18.7,24.52,15.58,41.52-1.98,10.79-6.49,20.23-14.74,28.43,1.79,1.44,3.4,2.71,4.99,4.01,6.64,5.46,13.68,10.75,16.79,19.11,5.53,14.88.99,28.61-7.49,40.58-8.61,12.17-20.21,21.61-34.78,26.24-7.77,2.47-15.8,4.5-23.86,5.6-5.49.75-7.21,3.01-7.15,8.08.03,2.18-.55,4.57-1.52,6.53-5.01,10.08-13.22,17.11-22.55,23-3.36,2.12-6.78,4.16-10.17,6.23ZM325.63,243.51c11.5-1.34,22.21-3.56,32.92-3.59,15.14-.04,29.38,4.28,42.09,13.04,13.98,9.63,26.15,20.75,31.9,37.33,1.57,4.52,3.19,9.14,3.85,13.84,1.89,13.44,5.83,27.23,4.39,40.38-3.29,30.06-8.56,59.98-14.51,89.65-2.96,14.78-4.94,29.24-4.54,44.35.57,21.25,7.39,38.33,26.97,48.71,5.85,3.1,11.54,5.32,18.44,2.25,6.95-3.09,14.36-5.14,21.59-7.59,1.92-.65,3.91-1.12,4.94-1.4-2.28-9.17-4.61-17.76-6.53-26.43-3.08-13.91-5.78-27.9-8.85-41.81-4.66-21.07-9.79-42.03-14.19-63.15-3.59-17.23-6.11-34.68-9.67-51.92-3.78-18.33-8.35-36.5-12.34-54.79-1.63-7.49-2.51-15.13-3.98-22.66-3.18-16.34-12.06-30.19-20.14-44.27-10.53-18.35-28.49-24.7-49.92-20.3-12.51,2.57-22.3,9.79-32.17,17.17-10.98,8.21-11.55,19.45-10.24,31.18Zm456.4,287.26c7.04,10.31,14.68,19.79,20.39,30.33,5.76,10.62,9.61,22.28,14.51,34.01,1.35-.7,3.1-1.38,4.6-2.42,8.89-6.21,17.55-12.78,26.62-18.71,11.14-7.27,22.69-13.92,33.91-21.07,5.62-3.58,10.87-7.75,16.35-11.56,10.42-7.25,21.06-14.21,31.25-21.77,4.23-3.14,8.04-7.17,11.12-11.45,3.44-4.78,6.2-10.16,8.57-15.57,3.2-7.32,3.33-15.01-.63-22.11-2.65-4.75-5.3-11.01-9.61-13.01-7.6-3.52-16.41-5.33-24.84-5.93-7.41-.52-15,1.56-22.5,2.57-12.29,1.67-24.12,4.96-35.27,10.49-2.35,1.17-4.87,2.25-6.81,3.94-4.9,4.29-9.46,8.98-14.26,13.39-17.86,16.4-35.77,32.75-53.39,48.87Zm-470.01-30.34c-1.74.44-3.12.54-4.26,1.12-8.74,4.43-17.47-1.77-21.17-8.52-4.69-8.54-7.78-17.74-6.74-27.99,1.34-13.14,2.33-26.33,2.78-39.52.12-3.42-1.41-8.82-3.81-10-4.55-2.25-10.4-3.25-15.49-2.71-10.03,1.08-19.9,3.67-29.87,5.45-9.02,1.61-18.13,2.78-27.11,4.58-1.87.38-3.7,2.45-4.91,4.19-1.37,1.96-2,4.42-3,6.65-4.57,10.12-5.61,20.52,0,30.34,4.49,7.88,9.44,15.82,15.65,22.33,13.65,14.32,28.23,27.75,42.42,41.54,7.61,7.4,15.2,14.81,22.83,22.19,4.6,4.45,9.26,8.84,13.93,13.28,7.66-9.11,18.24-44.94,18.74-62.93Zm517.82,176.74c1.34-.56,3.05-.93,4.36-1.87,8.98-6.44,17.94-12.92,26.79-19.55,11.63-8.71,22.89-17.93,34.78-26.26,11.77-8.24,21.24-18.19,26.38-31.68,4.97-13.03.9-23.31-13.1-25.06-3.55-.44-7.28.33-10.77-.29-13.36-2.37-25.85.38-37.48,6.65-11.63,6.28-22.92,13.21-34.18,20.14-6.41,3.94-12.71,8.23-11.91,17.36.12,1.39-.66,3.07-1.49,4.3-3.62,5.41-3.13,9.39,3.51,11.72.8.28,1.58,1.22,1.94,2.05,2.31,5.42,5.16,10.73,6.57,16.4,2.05,8.27,3.02,16.8,4.61,26.09Zm-558.08-27.08c4.14-27.54,6.88-53.94,18.7-77.96-1.95-.81-3.97-1.2-5.39-2.33-12.12-9.63-24.21-19.31-36.16-29.15-8.66-7.13-18.35-11-29.59-12.38-8.58-1.05-19.61,9.22-21.12,16.27-2.62,12.21.15,23.68,4.42,34.75,5.34,13.83,15.87,24.23,26.14,34.35,11.01,10.84,23.15,20.53,34.87,30.65,2.13,1.84,4.58,3.29,8.13,5.8Zm16.67-245.87c1.3,7.52,3.11,13.74,3.28,20.01.22,8.01-1.37,16.07-1.27,24.1.13,10.68.88,21.37,1.91,32,.39,4,2.42,7.92,7.33,8.3,7.99.63,13.11-3.66,17.64-10.26,5.02-7.32,5.53-15.7,7.96-23.58,5.2-16.88,6.37-34.44,7.34-51.98.13-2.28-.02-4.64.48-6.84,3.43-14.98,3.75-30.08.73-45.05-1.54-7.65-6.21-13.52-14-16.65-9.13-3.67-18.23-4.42-28.04-3.27-10.22,1.2-17.69,6.28-23.58,13.75-2.99,3.79-5.67,8.7-3.52,14.54,2.72-2.27,4.78-4.87,6.76-7.53,3.64-4.89,13.25-7.82,18.03-5.08,3.75,2.14,7.38,4.61,10.68,7.39,10.3,8.65,17.56,18.85,17.44,33.2-.05,5.8-2.66,7.73-7.72,9.19-7.75,2.25-15.23,5.44-21.45,7.73Zm155.95,436.43c-7.23.39-13.5.6-19.73,1.22-.96.1-2.71,2.42-2.46,3.17,3.16,9.37.72,18.65-.14,27.95-1.39,14.97-9.19,25.23-22.89,31.13-6.51,2.8-13.03,5.58-19.62,8.18-3.7,1.46-7.48,3.01-11.36,3.67-9.36,1.6-16.67,6.41-22.53,13.56-2.51,3.06-.9,6.51,3.03,6.25,3.75-.25,7.4-1.81,11.14-2.51,2.99-.57,6.06-.72,9.1-1.06.3.63.61,1.26.91,1.88-4.93,5.52-9.87,11.04-14.8,16.56.42.61.84,1.21,1.26,1.82,1.36-.14,2.92.1,4.05-.48,5.09-2.64,9.94-5.78,15.13-8.17,2.33-1.07,5.27-.81,7.93-1.15-.85,2.18-1.69,4.36-2.55,6.54-.07.17-.32.31-.32.47-.1,2.9-.62,5.92.07,8.63.17.67,4.37.77,6.56.34,2.36-.46,4.81-1.47,6.74-2.89,22.39-16.34,41.87-35.74,59.75-56.83,2.62-3.09,1.75-6-.49-8.17-6.61-6.4-8.14-14.68-8.68-23.11-.55-8.54-.12-17.14-.12-27Zm29.21,130.91c.67.51,1.33,1.02,2,1.53,5.76-4.6,11.43-9.32,17.35-13.7,1.64-1.22,4.04-1.42,6.09-2.09-.06,2.07.01,4.16-.22,6.21-.1.89-1.21,1.72-1.19,2.56.05,1.96.51,3.9.8,5.85,1.89-.5,4.24-.48,5.58-1.63,2.29-1.96,4.33-4.45,5.81-7.08,5.16-9.14,9.98-18.48,15.03-27.68,2.84-5.17,5.73-10.32,8.88-15.29,5.14-8.1,10.77-15.88,11.98-25.84.5-4.12-.8-6.91-4.24-9.13-1.94-1.25-4.41-2.85-5-4.79-1.99-6.52-3.95-13.2-4.61-19.94-.78-7.87-.18-15.88-.18-24.53-9.24.55-17.08,1.02-25.39,1.52,1.07,7.4,2.15,13.81,2.89,20.26.8,7.03,2.96,14.45,1.58,21.09-4.08,19.65-14.78,35.89-29.37,49.62-4.46,4.2-8.93,8.45-12.89,13.1-1.76,2.06-2.27,5.17-3.87,9.07,3.72-.38,5.72-.59,7.71-.8,1.95-.2,3.89-.41,5.84-.61-.23,2.28,0,4.75-.8,6.8-1.98,5.07-4.76,9.88-3.77,15.51ZM226.32,410.68c4.56-.6,9.46-.97,14.23-1.93,7.94-1.61,15.84-3.48,23.69-5.48,4.8-1.22,9.54-2.74,14.21-4.4,8.61-3.06,17.25-6.1,25.68-9.6,3.66-1.52,5.09-5.02,2.73-8.6-4.09-6.2-8.1-12.58-13.06-18.05-6.41-7.08-12.54-6.66-19.7.16-.97.93-1.79,2.02-2.78,2.92-5.89,5.42-12.05,10.58-17.68,16.27-9.36,9.47-18.39,19.28-27.33,28.71Zm24.81-42.66c.96-8.14,2.84-15.14,2.35-21.96-.77-10.7-.04-21,3.61-31,2.15-5.89,4.75-11.66,7.7-17.19,3.69-6.9,7.94-13.5,12.55-21.22-32.16,18.83-45.8,60.27-26.2,91.36Z"/><path class="cls-2" d="m714.52,758.47c-7.87,5.34-14.56,10.94-22.14,14.8-16.93,8.62-34.08,16.9-51.57,24.32-14.76,6.26-29.83,12.22-45.3,16.27-15.41,4.04-31.17,9.37-47.06,11.13-17.68,1.96-27.92,3.06-45.66,4.57-18.52,1.57-44.81,3.03-63.34,1.57-19.98-1.57-34.4-2.08-50.8-8.42-9.9-3.83-20.02-8.54-29.09-14.05-13.34-8.11-25.64-17.37-35.76-29.88-15.32-18.96-28.47-39.16-35.29-62.37-5.11-17.41-9.16-35.52-6.12-54.29,2.38-14.7,2.84-29.74,5.78-44.3,2.44-12.12,6.81-23.93,11.13-35.58,4.85-13.1,11.18-25.67,15.77-38.85,4.27-12.26,6.92-24.98,5.7-38.26-.57-6.26-.19-12.47,4.01-18.07,7.4-9.88,8.14-22.19,10.76-33.67,6.54-28.58,6.21-57.85,7.41-86.92.28-6.82-.6-13.88-2.2-20.53-4.22-17.49-23.23-25.1-37.16-26.83-14.05-1.75-25.75,3.41-37.77,11.42,0-2.91-.6-4.97.09-6.4,7.94-16.4,13.73-33.79,27.43-47.19,16.15-15.8,35.64-23.8,57.17-24.92,21.65-1.13,42.29,4.63,59.18,19.79,8.57,7.7,14.03,17.49,16.76,28.27,2.54,9.98,1.72,20.86,4.55,30.71,3.54,12.32-1.72,23.38-3.08,34.79-2.84,23.82-7.55,47.49-12.86,70.91-3.24,14.29-5.69,28.57-3.7,42.91,3.03,21.8,8.53,43,29.27,55.59,6.22,3.77,13.25,6.17,19.83,9.37,1.39.68,3.41,2.03,3.47,3.16.63,12.01,6.79,22.08,11.31,32.66,5.67,13.28,11.8,26.38,18.16,39.35,7.01,14.3,16.72,26.71,28.17,37.73,10.93,10.53,21.57,21.4,33.03,31.32,20.66,17.88,40.74,36.79,66.87,46.86,10.66,4.11,21.61,7.45,32.38,11.28,3.91,1.39,7.77,2.99,11.48,4.83,5.96,2.95,12.04,4.8,18.82,4.97,9.66.24,19.31,1.21,30.38,1.96Zm-316.91-434.89c-.61-10.09-4.55-15.01-11.57-14.47-6.27.48-11.61,8.42-11.07,16.45.36,5.32,7.18,10.13,13.67,9.65,5.95-.44,9.37-4.89,8.96-11.63Z"/><path class="cls-8" d="m559.78,504.47c0-12.55-.31-25.07.09-37.57.39-12.17,1.73-24.3,2.28-36.46.6-13.38.63-26.79,1.19-40.18.66-15.78,1.8-31.53,2.4-47.31.36-9.33-.06-18.69.14-28.03.1-4.38.81-8.74,1.29-13.11,1.91-17.45,4.06-34.89,5.68-52.37,1.23-13.31.69-26.88,2.95-39.99,2.84-16.48,7.76-32.48,16.45-47.22,6.46-10.95,14.66-19.87,24.7-27.42,14.47-10.87,28.7-7.96,39.42,5.02,9.69,11.72,16.12,25.33,19.57,40.29,1.96,8.51,4.64,16.86,6.75,25.34.63,2.55.72,5.32.59,7.97-.99,19.07-1.16,38.22-6.1,56.89-6.31,23.82-12.65,47.64-18.64,71.55-5.11,20.4-9.73,40.93-14.55,61.4-2.28,9.67-4.59,19.33-6.78,29.02-3.84,16.94-7.38,33.95-11.46,50.84-2.59,10.72-2.64,11.52-14.08,13-17.04,2.21-33.94,5.4-51.89,8.34Z"/><path class="cls-8" d="m502.78,518.93c-2.67-11.08-5.13-22.01-7.95-32.85-2.93-11.27-6.8-22.32-9.17-33.69-2.77-13.27-4.29-26.79-6.55-40.17-.66-3.92-2.13-7.69-2.99-11.59-.85-3.86-1.22-7.83-2.12-11.67-2.71-11.46-5.89-22.82-8.29-34.34-2.72-13.07-4.92-26.26-7.11-39.43-2.53-15.21-4.87-30.45-7.18-45.7-1.31-8.68-2.41-17.38-3.6-26.08-1.12-8.22-2.59-16.41-3.26-24.67-1.7-20.93,2.92-40.68,14.78-57.86,6.85-9.93,17.61-14.83,30.42-13.72,23.99,2.07,37.62,17.37,46.8,37.44,6.34,13.87,12.4,28.12,16.24,42.82,4.17,15.98,6.09,32.62,8.02,49.08.74,6.3-1.5,12.91-1.83,19.4-.89,17.57-1.43,35.15-2.21,52.72-.68,15.32-1.69,30.62-2.16,45.94-.26,8.58.73,17.21.39,25.78-.41,10.31-1.88,20.57-2.43,30.87-.71,13.38-.35,26.84-1.55,40.16-1.77,19.73.19,15.15-16.82,20-10.11,2.88-20.45,4.94-31.43,7.54Z"/><path class="cls-8" d="m636.85,494.06c1.2-9.97,2.04-19.28,3.51-28.49,1.95-12.25,4.21-24.46,6.71-36.61,1.42-6.88,3.58-13.62,5.43-20.41,5.36-19.71,10.64-39.44,16.12-59.12,2.76-9.93,4.86-20.22,9.07-29.52,5.83-12.87,13.33-24.99,20.2-37.38,6.51-11.73,12.82-23.6,19.8-35.05,6.21-10.19,13.44-19.98,23.61-26.4,19.87-12.54,47.11-20.25,72.82-5.13,7.38,4.34,9.19,12.35,11.64,19.65,5.91,17.62,1.77,34.97-3.8,51.55-5.9,17.54-13.22,34.7-21.28,51.37-5.71,11.81-13.81,22.44-20.58,33.76-5.18,8.66-9.79,17.67-14.94,26.35-2.62,4.42-6.01,8.39-8.84,12.7-15.59,23.69-31.17,47.39-46.61,71.18-1.74,2.68-2.58,5.95-3.82,8.95-1.37,3.33-2.92,6.62-7.41,5.55-19.86-4.72-40.02-3.38-61.63-2.95Z"/><path class="cls-8" d="m712.08,498.83c3-5.16,5.65-10.17,8.72-14.91,7.59-11.72,15.51-23.23,23.05-34.97,12.61-19.63,25.36-39.19,37.4-59.17,7.04-11.68,16.65-20.65,27.49-28.17,14.08-9.78,28.33-19.7,43.71-27.07,8.78-4.21,19.94-3.38,29.99-5.02,9.86-1.61,18.29,1.49,26.22,7.05,11.76,8.25,17.82,24.8,11.93,37.47-3.9,8.38-9.59,16.15-15.55,23.31-10.61,12.74-21.35,25.5-33.27,36.98-13.58,13.07-25.86,27.63-42.09,37.92-5.37,3.4-9.11,9.26-13.98,13.56-11.03,9.73-22.3,19.18-33.47,28.74-.44.37-.95.66-1.37,1.04-10.44,9.31-10.21,8.92-22.18,2.08-13.29-7.59-27-14.46-42.34-17.16-1.27-.22-2.45-.95-4.26-1.69Z"/><path class="cls-7" d="m552.58,672.61c9.76,2.28,21.79,4.53,32.16-2.38,9.72-6.48,18.89-14.39,15.55-28.4,19.73-.66,37.1-6.52,44.41-24.78,6.71-16.76,6.93-34.93-8.06-49.76,14.88-9.86,15.96-23.91,11.23-38.36-5-15.28-20.21-18.25-33.45-23.08.09-.56.17-1.11.26-1.67,4.1-.37,8.25-.46,12.3-1.16,17.11-2.98,34.34-2.84,51.4-.62,5.91.77,12.09,4.07,16.89,7.81,10.84,8.44,22.52,16.29,29.59,28.62,2.2,3.84,4.47,8.26,4.67,12.51.83,17.5-6.48,31.14-21.29,40.67-.9.58-1.66,1.36-2.83,2.32,18.2,9.35,29.08,10.37,35.93,33.19,0,19.4-13.68,30.21-21.08,37.71-9.8,9.91-22.28,13.57-35.62,15.04-5.39.6-10.83.75-15.97,1.09,2.63,16.69-4.43,27-17.13,35.48-8.19,5.47-16.3,9.58-26.15,10.58-5.34.54-9.84-.7-13.88-3.86-16.16-12.62-32.43-25.11-48.26-38.13-4.46-3.67-7.55-9.01-10.67-12.84Z"/><path class="cls-5" d="m638.61,545.19c.93,5.93-1.35,11.25-6.51,15.05-1.76,1.29-4.44,1.32-6.7,1.94-1.12.31-2.24.64-3.36.96.41,1.16.48,2.75,1.3,3.42,11,8.93,13.35,21.28,14.12,34.43.8,13.55-10.47,27.57-24,29.31-5.54.71-11.1,1.52-16.67,1.73-2.07.08-4.15-1.79-6.31-2.09-1.36-.19-3.33.54-4.21,1.56-.59.69-.23,3.05.55,3.9,7.39,8.11,7.41,16.57.08,24.69-7.81,8.66-17.51,8.75-27.4,5.56-8.16-2.63-16.03-6.27-23.83-9.89-2.67-1.24-4.78-3.73-7.05-5.76-9.5-8.5-18.26-17.31-25.05-28.56-12.33-20.46-21.6-42.09-29.36-64.51-1.06-3.05-1.7-6.31-2.07-9.52-.72-6.22,2.6-10.98,8.6-12.47,14.24-3.53,28.54-6.8,42.74-10.49,6.1-1.58,11.92-4.24,18.01-5.88,10.67-2.87,21.42-5.43,32.18-7.94,4.77-1.11,9.7-1.58,14.47-2.7,8.14-1.91,14.85,1.07,21.47,5.34,6.03,3.89,12.25,7.56,18.65,10.82,8.63,4.4,11.25,11.5,10.34,21.1Z"/><path class="cls-3" d="m641.25,733.55c3.39-2.07,6.81-4.11,10.17-6.23,9.33-5.89,17.54-12.92,22.55-23,.97-1.96,1.55-4.35,1.52-6.53-.06-5.07,1.66-7.32,7.15-8.08,8.07-1.1,16.09-3.13,23.86-5.6,14.57-4.63,26.17-14.07,34.78-26.24,8.47-11.97,13.02-25.71,7.49-40.58-3.11-8.36-10.14-13.65-16.79-19.11-1.58-1.3-3.19-2.57-4.99-4.01,8.25-8.21,12.75-17.65,14.74-28.43,3.13-17-3.52-30.39-15.58-41.52-5.47-5.05-11.75-9.22-17.71-13.72-.88-.66-2.05-.93-3.09-1.38.47-.61.93-1.21,1.4-1.82,2.78,1.06,5.51,2.26,8.34,3.16,23.56,7.49,44.32,19.34,61.73,37.26,9.32,9.6,18.69,19.17,21.74,32.37,2.33,10.1,3.21,20.79,2.84,31.15-.22,6.24-3.5,12.63-9.99,16.17-2.79,1.52-3.05,3.03.19,5.33,8.65,6.13,18.19,11.15,23.85,20.99,4.75,8.24,4.92,22.92-.3,30.86-12.85,19.54-31.84,26.8-54.13,27.8-3.21.14-5.72-.1-4.88,5.11.97,6.01-.78,11.88-5.54,16.72-12.23,12.44-27.07,16.63-43.94,14.66-11.71-1.37-23.49-2.56-35.02-4.93-10.32-2.12-20.32-5.76-30.46-8.72.02-.56.04-1.11.07-1.67Z"/><path class="cls-8" d="m325.63,243.51c-1.31-11.73-.74-22.96,10.24-31.18,9.87-7.38,19.65-14.6,32.17-17.17,21.43-4.41,39.39,1.94,49.92,20.3,8.08,14.08,16.96,27.93,20.14,44.27,1.47,7.53,2.35,15.17,3.98,22.66,3.99,18.29,8.55,36.46,12.34,54.79,3.56,17.24,6.08,34.69,9.67,51.92,4.4,21.12,9.53,42.09,14.19,63.15,3.08,13.91,5.77,27.9,8.85,41.81,1.92,8.68,4.25,17.26,6.53,26.43-1.03.29-3.01.75-4.94,1.4-7.23,2.45-14.64,4.5-21.59,7.59-6.9,3.07-12.58.85-18.44-2.25-19.58-10.39-26.4-27.46-26.97-48.71-.41-15.11,1.57-29.56,4.54-44.35,5.95-29.68,11.23-59.59,14.51-89.65,1.44-13.15-2.5-26.94-4.39-40.38-.66-4.71-2.28-9.32-3.85-13.84-5.75-16.58-17.92-27.69-31.9-37.33-12.71-8.76-26.95-13.08-42.09-13.04-10.71.03-21.41,2.25-32.92,3.59Z"/><path class="cls-8" d="m782.03,530.76c17.62-16.13,35.53-32.47,53.39-48.87,4.8-4.41,9.36-9.09,14.26-13.39,1.94-1.7,4.46-2.78,6.81-3.94,11.15-5.53,22.97-8.82,35.27-10.49,7.5-1.02,15.1-3.1,22.5-2.57,8.44.59,17.24,2.4,24.84,5.93,4.31,2,6.96,8.26,9.61,13.01,3.96,7.09,3.84,14.78.63,22.11-2.37,5.42-5.14,10.79-8.57,15.57-3.08,4.29-6.89,8.31-11.12,11.45-10.19,7.56-20.83,14.52-31.25,21.77-5.48,3.81-10.73,7.98-16.35,11.56-11.22,7.15-22.77,13.8-33.91,21.07-9.08,5.93-17.73,12.5-26.62,18.71-1.49,1.04-3.25,1.72-4.6,2.42-4.91-11.74-8.76-23.39-14.51-34.01-5.71-10.53-13.35-20.02-20.39-30.33Z"/><path class="cls-8" d="m312.02,500.42c-.5,17.99-11.08,53.82-18.74,62.93-4.67-4.45-9.33-8.83-13.93-13.28-7.63-7.38-15.22-14.79-22.83-22.19-14.2-13.79-28.78-27.22-42.42-41.54-6.21-6.51-11.16-14.46-15.65-22.33-5.6-9.82-4.56-20.22,0-30.34,1-2.22,1.63-4.69,3-6.65,1.22-1.73,3.04-3.81,4.91-4.19,8.98-1.81,18.09-2.97,27.11-4.58,9.97-1.78,19.83-4.37,29.87-5.45,5.09-.55,10.94.46,15.49,2.71,2.4,1.19,3.93,6.58,3.81,10-.45,13.19-1.44,26.38-2.78,39.52-1.04,10.25,2.05,19.45,6.74,27.99,3.7,6.75,12.43,12.95,21.17,8.52,1.14-.58,2.51-.67,4.26-1.12Z"/><path class="cls-8" d="m829.84,677.16c-1.58-9.3-2.56-17.83-4.61-26.09-1.4-5.66-4.26-10.97-6.57-16.4-.35-.82-1.14-1.77-1.94-2.05-6.64-2.32-7.13-6.3-3.51-11.72.83-1.23,1.61-2.91,1.49-4.3-.8-9.13,5.5-13.42,11.91-17.36,11.26-6.93,22.55-13.86,34.18-20.14,11.63-6.28,24.12-9.02,37.48-6.65,3.5.62,7.22-.15,10.77.29,14,1.75,18.06,12.03,13.1,25.06-5.14,13.49-14.6,23.43-26.38,31.68-11.89,8.33-23.16,17.55-34.78,26.26-8.85,6.63-17.81,13.11-26.79,19.55-1.31.94-3.02,1.31-4.36,1.87Z"/><path class="cls-8" d="m271.76,650.07c-3.54-2.51-6-3.96-8.13-5.8-11.72-10.12-23.86-19.81-34.87-30.65-10.28-10.12-20.81-20.52-26.14-34.35-4.27-11.07-7.03-22.54-4.42-34.75,1.51-7.05,12.55-17.33,21.12-16.27,11.24,1.38,20.93,5.25,29.59,12.38,11.96,9.84,24.04,19.52,36.16,29.15,1.42,1.13,3.45,1.51,5.39,2.33-11.82,24.02-14.57,50.42-18.7,77.96Z"/><path class="cls-4" d="m288.43,404.21c6.22-2.29,13.7-5.48,21.45-7.73,5.06-1.47,7.67-3.4,7.72-9.19.12-14.35-7.14-24.55-17.44-33.2-3.3-2.77-6.93-5.24-10.68-7.39-4.78-2.74-14.39.19-18.03,5.08-1.98,2.66-4.04,5.26-6.76,7.53-2.16-5.84.53-10.75,3.52-14.54,5.89-7.47,13.36-12.55,23.58-13.75,9.81-1.15,18.91-.4,28.04,3.27,7.79,3.13,12.45,8.99,14,16.65,3.02,14.97,2.7,30.07-.73,45.05-.5,2.2-.35,4.55-.48,6.84-.97,17.54-2.14,35.1-7.34,51.98-2.43,7.88-2.94,16.26-7.96,23.58-4.53,6.6-9.65,10.89-17.64,10.26-4.91-.38-6.94-4.3-7.33-8.3-1.02-10.63-1.77-21.33-1.91-32-.1-8.03,1.49-16.09,1.27-24.1-.18-6.27-1.98-12.5-3.28-20.01Z"/><path class="cls-6" d="m444.38,840.64c0,9.86-.43,18.46.12,27,.54,8.43,2.07,16.7,8.68,23.11,2.24,2.17,3.12,5.07.49,8.17-17.88,21.09-37.37,40.49-59.75,56.83-1.94,1.41-4.39,2.43-6.74,2.89-2.19.43-6.4.33-6.56-.34-.69-2.71-.17-5.73-.07-8.63,0-.16.25-.29.32-.47.86-2.18,1.7-4.36,2.55-6.54-2.66.34-5.6.08-7.93,1.15-5.2,2.39-10.04,5.54-15.13,8.17-1.13.59-2.69.34-4.05.48-.42-.61-.84-1.21-1.26-1.82,4.93-5.52,9.87-11.04,14.8-16.56-.3-.63-.61-1.26-.91-1.88-3.04.34-6.11.49-9.1,1.06-3.74.71-7.39,2.26-11.14,2.51-3.92.26-5.53-3.19-3.03-6.25,5.86-7.15,13.16-11.96,22.53-13.56,3.89-.66,7.66-2.21,11.36-3.67,6.59-2.6,13.11-5.37,19.62-8.18,13.7-5.9,21.5-16.16,22.89-31.13.86-9.3,3.3-18.57.14-27.95-.25-.75,1.49-3.07,2.46-3.17,6.23-.62,12.5-.83,19.73-1.22Z"/><path class="cls-6" d="m473.59,971.55c-1-5.63,1.79-10.44,3.77-15.51.8-2.06.56-4.52.8-6.8-1.95.2-3.89.41-5.84.61-1.99.21-3.99.41-7.71.8,1.6-3.9,2.12-7.01,3.87-9.07,3.97-4.65,8.43-8.91,12.89-13.1,14.59-13.72,25.29-29.96,29.37-49.62,1.38-6.64-.78-14.05-1.58-21.09-.74-6.45-1.82-12.87-2.89-20.26,8.31-.5,16.15-.97,25.39-1.52,0,8.65-.59,16.65.18,24.53.66,6.75,2.62,13.42,4.61,19.94.59,1.94,3.07,3.54,5,4.79,3.45,2.23,4.74,5.01,4.24,9.13-1.21,9.96-6.84,17.74-11.98,25.84-3.16,4.97-6.04,10.13-8.88,15.29-5.06,9.2-9.88,18.53-15.03,27.68-1.49,2.64-3.52,5.12-5.81,7.08-1.34,1.15-3.69,1.12-5.58,1.63-.29-1.95-.75-3.9-.8-5.85-.02-.84,1.09-1.67,1.19-2.56.23-2.05.17-4.14.22-6.21-2.05.67-4.44.87-6.09,2.09-5.92,4.38-11.59,9.11-17.35,13.7-.67-.51-1.33-1.02-2-1.53Z"/><path class="cls-1" d="m226.32,410.68c8.94-9.43,17.97-19.24,27.33-28.71,5.62-5.69,11.78-10.84,17.68-16.27.99-.91,1.81-2,2.78-2.92,7.16-6.82,13.29-7.24,19.7-.16,4.96,5.47,8.97,11.85,13.06,18.05,2.35,3.58.93,7.08-2.73,8.6-8.44,3.5-17.07,6.54-25.68,9.6-4.67,1.66-9.41,3.18-14.21,4.4-7.85,2-15.75,3.87-23.69,5.48-4.78.97-9.67,1.33-14.23,1.93Z"/><path class="cls-8" d="m251.13,368.02c-19.6-31.09-5.96-72.53,26.2-91.36-4.6,7.72-8.86,14.31-12.55,21.22-2.95,5.53-5.55,11.3-7.7,17.19-3.65,9.99-4.38,20.3-3.61,31,.49,6.82-1.39,13.82-2.35,21.96Z"/><path d="m397.62,323.59c.41,6.74-3.02,11.19-8.96,11.63-6.49.48-13.31-4.33-13.67-9.65-.54-8.04,4.8-15.97,11.07-16.45,7.02-.54,10.95,4.38,11.57,14.47Z"/><text class="cls-9" transform="translate(601.26 548.86)"><tspan x="0" y="0">1000</tspan></text></svg>