<?xml version="1.0" encoding="UTF-8"?><svg id="Layer_1" xmlns="http://www.w3.org/2000/svg" xmlns:xlink="http://www.w3.org/1999/xlink" viewBox="0 0 1150 1100"><defs><style>.cls-1{fill:#696239;}.cls-2{fill:#937d3f;}.cls-3{fill:#909d60;}.cls-4{fill:#cfb55c;}.cls-5{fill:#42402c;}.cls-6{fill:#fff;filter:url(#drop-shadow-2);}</style><filter id="drop-shadow-2" filterUnits="userSpaceOnUse"><feOffset dx="15" dy="15"/><feGaussianBlur result="blur" stdDeviation="15"/><feFlood flood-color="#000" flood-opacity=".5"/><feComposite in2="blur" operator="in"/><feComposite in="SourceGraphic"/></filter></defs><path class="cls-6" d="m222.52,857.64c-4.04,0-8.19-.27-12.34-.8-18.25-2.34-32.77-9.27-43.37-14.33-2.88-1.37-5.6-2.67-7.94-3.66l-2.1-.89c-8.43-3.55-18.91-7.97-29.27-14.68-34.45-22.31-46.32-62.14-31-98.59-29.96-15-52-40.92-63.17-74.85-4.94-15.01-4.48-28.65-4.15-38.61.08-2.35.15-4.56.12-6.12-.28-14.13,5.38-28.25,15.54-38.72,9.72-10.02,22.62-15.62,36.31-15.76h.54c12.35,0,24.26,4.32,34.22,12.29,4.33-4.38,9.37-8.7,15.21-12.89l.71-.51c3.32-2.38,7.47-5.37,12.5-8.31,1.69-7.85,3.52-15.82,5.66-23.88,5.59-21.12,14.53-41.88,26.56-61.71l1.17-1.92c7.99-13.17,16.25-26.8,26.69-40.24,7.79-10.02,15.82-18.98,23.58-27.64,4.67-5.2,9.07-10.12,13.2-15.01,17.41-20.63,38.91-44.13,66.44-61.9,2.35-1.52,4.7-3.05,7.05-4.59,18.89-12.35,40.29-26.34,67.02-34.58,5.74-1.77,11.82-3.98,18.26-6.32,11.71-4.25,24.99-9.08,39.45-12.3,17.61-3.93,35.04-5.34,50.41-6.58,3.87-.31,7.73-.62,11.58-.98,8.76-.8,17.74-1.21,26.67-1.21,3.19,0,6.43.05,9.63.16,9.14.29,17.75,1.27,25.34,2.14,2.48.28,4.95.56,7.43.82,1.73.18,3.46.35,5.2.52,6.94.68,14.12,1.38,21.81,2.56,10.54,1.62,19.2,4.08,27.25,7.74,2.52,1.14,5.04,2.28,7.56,3.43,17.16,7.77,34.9,15.79,52.47,24.98,13.18,6.89,25.71,15.9,37.23,26.76,12.93,12.2,27.59,26.02,40.03,43.46,11.19,15.7,21.11,33.72,30.31,55.09,8.85,20.55,15.62,41.16,22.17,61.09l1,3.03c.4,1.22.8,2.43,1.19,3.65,8.56-25.06,18.47-50.85,31.82-75.92,9.74-18.29,23-35.87,40.55-53.75,13.4-13.66,28.15-20.51,38.92-25.52l1.29-.6c20.59-9.59,41.5-14.46,62.16-14.46,3.53,0,7.1.15,10.59.43,47.25,3.89,83.63,28.57,102.42,69.49,15.81,34.42,20.33,68.48,13.44,101.25-8.38,39.84-32.05,71.41-68.45,91.3-11.47,6.27-22.28,10.03-31.82,13.36-5.18,1.8-10.08,3.51-13.85,5.24-10.9,5.01-21.29,9.97-28.6,15.42-5.98,4.45-12.09,11.75-18.68,22.31-8.79,14.07-16.83,26.76-26.12,39.46-5.98,8.17-12.08,15.8-17.97,23.18-5.53,6.93-10.76,13.48-15.53,20-1.96,2.68-3.98,5.19-6.04,7.53,2.86,8,4.71,16.37,5.45,24.72,1.59,18.11-3.45,35.34-14.56,49.83-7.64,9.97-16.71,16.69-23.76,21.44l-1.09.73c-10.07,6.78-20.48,13.79-32.29,20.24-14.03,7.66-27.14,13.74-40.06,18.57-6.37,2.38-13.15,3.59-20.15,3.59h0c-16.52,0-29.92-6.71-36.43-10.71-23.35-14.33-32.24-36.1-37.54-49.11l-.38-.92c-.65-1.59-1.29-3.18-1.93-4.77-7.56,1.4-15.03,2.67-22.34,3.91l-1.41.24c-4.92.83-9.45,1.28-13.09,1.63-1.62.16-3.15.31-4.43.46-4.52.55-9.08.83-13.56.83-8.29,0-16.44-.93-24.42-2.78-6.95,2.13-14.2,3.21-21.8,3.25-3.17.02-7.6.54-12.3,1.09-7.08.83-15.11,1.78-24.14,1.78-.45,0-2.16-.01-2.16-.01-1.97,0-4.26.07-6.68.14-2.9.08-6.2.18-9.66.18-6.63,0-15.63-.33-25.69-2.48-5.16,1.26-10.63,1.89-16.38,1.89-1.51,0-3.07-.04-4.63-.13-7.43-.42-14.78-.95-21.89-1.46-10.37-.75-20.16-1.45-29.82-1.81-14.78-.56-27.96-3.31-39.85-8.35-2.65.21-5.56.37-8.72.37-1.41,0-2.82-.03-4.19-.1l-2.48-.11c-16.54-.76-33.65-1.55-51.16-3.5-4.07-.45-8.07-1.1-11.98-1.94-.84,1.55-1.68,3.11-2.54,4.67-2.9,5.27-5.94,9.26-7.96,11.9-.26.34-.53.68-.78,1.03-.8,1.32-1.76,3.07-2.78,4.92-3.42,6.2-7.67,13.92-14.25,21.8-16.23,19.42-39.12,30.11-64.46,30.11Z"/><path d="m145.03,636.95c-1.06-3.73-1.93-6.33-2.54-8.99-3.67-15.93,3.69-27.32,18.22-37.74,6.9-4.95,13.65-9.99,22.5-11.07,4.09-.5,5.44-3.59,6.24-7.51,2.85-14.03,5.65-28.1,9.31-41.94,4.55-17.18,11.76-33.39,20.97-48.57,7.75-12.77,15.47-25.68,24.6-37.44,11.09-14.28,23.84-27.24,35.51-41.08,16.47-19.53,33.94-38.32,55.35-52.14,19.58-12.64,38.84-26.36,61.67-33.39,18.06-5.57,35.52-13.51,53.87-17.6,18.14-4.05,37.04-4.87,55.66-6.57,9.99-.91,20.1-1.19,30.13-.87,9.78.31,19.53,1.73,29.29,2.72,8.17.84,16.38,1.51,24.49,2.76,4.82.74,9.76,1.84,14.17,3.84,19.32,8.77,38.76,17.37,57.55,27.2,9.43,4.93,18.34,11.52,26.1,18.83,11.96,11.28,24.14,22.82,33.62,36.11,10.06,14.11,18.23,29.88,25.1,45.84,8.39,19.48,14.95,39.78,21.58,59.96,5.51,16.77,10.12,33.85,14.85,50.87,1.42,5.1,1.71,10.5,2.98,15.65.32,1.28,2.62,3.18,3.7,3,17.91-3.06,32.16,1.59,40.88,18.6.27.52.62,1.01,1.02,1.44.25.27.66.39,1.89,1.08,2.85-6.23,6.17-12.23,8.39-18.62,5.3-15.25,10.09-30.68,15.07-46.04,10.02-30.89,20.57-61.66,35.86-90.36,8.31-15.61,19.57-29.46,32.1-42.22,7.4-7.54,16.43-11.53,25.65-15.82,15.16-7.06,31.3-10.85,47.53-9.51,27.19,2.24,49.09,14.41,61.08,40.52,10.28,22.38,15.05,45.81,9.95,70.09-5.4,25.68-19.78,44.75-43.5,57.72-13.75,7.51-28.74,10.67-42.59,17.05-12.99,5.98-26.21,12.27-37.59,20.76-12.73,9.49-22.67,22.25-31.21,35.91-7.71,12.33-15.47,24.68-24.06,36.4-10.77,14.7-22.76,28.5-33.52,43.21-7.37,10.07-17.42,16.7-27.04,23.98-2.64,2-2.38,3.46-.69,5.8,4.36,6.05,9.23,11.88,12.56,18.47,2.76,5.45,4.6,11.78,5.13,17.87,1.08,12.3-7.4,19.36-16.43,25.44-9.62,6.48-19.26,13.02-29.42,18.57-10.84,5.92-22.07,11.31-33.61,15.63-3.51,1.31-9.26-.66-12.91-2.9-9.71-5.96-13.72-16.36-17.8-26.34-5.44-13.31-10.37-26.83-15.66-40.2-1.44-3.62-3.41-7.03-5.46-11.21-2.99,3.06-5.12,6.31-8.12,8.07-4.2,2.45-8.9,4.45-13.65,5.46-12.4,2.65-24.91,4.75-37.42,6.87-5.03.85-10.15,1.14-15.22,1.76-12.5,1.52-24.31-.73-35.48-6.62-5.44,4.58-10.91,7.51-18.52,7.55-12.33.07-24.66,3-36.97,2.87-13.14-.14-26.56,1.92-39.5-2.97-4.05-1.53-8.6-1.85-13.01,1.09-2.34,1.56-6.03,1.73-9.05,1.56-17.56-.99-35.09-2.66-52.66-3.32-11.1-.42-21.31-2.59-30.5-9.02-1.02-.71-2.9-.34-4.37-.24-5.82.39-11.67,1.47-17.46,1.2-16.82-.78-33.69-1.5-50.41-3.36-13.59-1.52-26.05-6.73-37.11-17.13-2.75,3.55-5.93,6.76-8.06,10.57-6.43,11.52-12.34,23.33-18.7,34.89-1.98,3.59-4.92,6.65-7.1,10.15-4.46,7.16-7.89,15.14-13.23,21.53-8.14,9.74-18.79,13.48-32.08,11.78-14.1-1.81-25.65-9.14-38.16-14.43-8.08-3.42-16.38-6.76-23.69-11.5-16.19-10.48-18.77-27.25-9.11-43,11.71-19.09,24.65-37.42,37.05-56.09.3-.46.48-1,1.18-2.5-2.36.59-4.18.59-5.46,1.42-14.53,9.38-30.52,8.62-45.72,4.19-25.97-7.58-43.42-25.71-51.78-51.12-3.03-9.21-1.33-20.01-1.53-30.09-.02-1.22,1.54-3.48,2.38-3.49,1.36-.01,2.99,1.2,4.07,2.32,7.12,7.35,13.76,15.21,21.26,22.14,8.31,7.68,18.66,11.56,29.91,12.77,2.26.24,4.59-.25,7.69-.45Zm381.13,1.7c0-8.29.27-15.54-.08-22.75-.34-7.07-1.98-14.11-1.9-21.15.19-16.47,1.02-32.94,1.71-49.41.11-2.73,1.09-5.42,1.25-8.15.81-14.02,9.1-24.2,22.86-26.61,17.65-3.09,35.47-5.25,53.11-8.42,9.05-1.62,17.91-4.36,26.76-6.93,11.32-3.28,22.38-8.02,34.58-5.72,2,.38,4.39.98,5.7,2.34,7.93,8.28,13.27,18.17,15.45,29.39,2.99,15.38,5.45,30.88,7.83,46.37,2.71,17.6,5.09,35.25,7.64,53.11,6.01-1.35,12.44-3.12,18.99-4.16,5.7-.91,6.99-4.23,6.41-9.18-.67-5.68-1.4-11.35-2.04-17.03-3.26-28.94-8.66-57.41-16.61-85.48-4.84-17.06-8.37-27.08,15.19-41.61,6.37-3.93,11.52-9.97,16.83-15.44,3.83-3.95-.67-7.21-2.09-10.54-.16-.38-3.94.33-5.73,1.19-4.96,2.38-9.63,5.4-14.64,7.66-15.79,7.12-28.8,3.56-38.6-10.59-4.25-6.13-7.7-12.82-12.08-18.85-13.19-18.15-26.97-35.83-36.27-56.57-3.21-7.15-2.25-12.89,1.11-18.91,2.26-4.04,5.1-7.76,8.02-12.12-13.85-8.14-27.88-13.92-44.21-15.6,1.84,8.95-.43,15.98-7.16,20.08-7.6,4.63-15.7,8.98-24.17,11.49-19.47,5.79-39.37,9.81-59.79,10.8-11.63.57-23.24,2.35-34.84,2.17-14.8-.24-29.22-3.85-43.37-8.16-5.51-1.68-9.8-5.18-11.78-10.79-1.35-3.81-2.24-7.79-3.49-12.25-16.32,3.38-29.69,12.79-44.79,20.76,2.98,2.32,4.78,4.25,7,5.36,8.59,4.27,17.22,8.51,26.03,12.31,6.73,2.9,11.07,9.89,8.68,15.94-1.95,4.92-3.85,10.1-6.94,14.3-15.12,20.56-30.41,41.01-46.12,61.12-6.26,8.01-14.78,15.03-24.91,15.47-22.84,1.01-43.08-6.01-57.96-24.72-1.8-2.27-4.18-4.08-6.24-6.15-2.35-2.37-4.53-2.1-6.48.42-3.96,5.11-7.85,10.27-12.06,15.78,1.31.69,2.34,1.17,3.31,1.76,9.83,5.97,19.03,13.68,29.64,17.47,10.98,3.92,14.3,11.69,14.28,20.72-.03,16.24-1.48,32.54-3.39,48.69-1.63,13.77-4.85,27.35-7.13,41.05-1.83,11.01-3.3,22.08-5.06,33.97,4.71.77,9.47,1.68,14.27,2.28,3.45.43,4.83-1.49,5.16-4.89.94-9.79,2.01-19.57,3.25-29.33,2.28-17.98,4.41-35.98,7.22-53.88,1.27-8.06,3.99-15.9,6.1-23.82,2.96-11.07,10.89-14.93,21.44-13.83,20.09,2.09,40.1,4.87,60.19,6.9,17.16,1.73,34.39,2.93,51.6,4.11,9.8.67,19.79-.08,29.42,1.45,12.66,2.02,15.13,3.25,19.25,17.2,6.48,21.97,4.66,44.46,4.48,66.81-.1,12.19-1.07,24.38-1.94,36.55-.37,5.2,1.76,7.83,6.72,7.98,6.64.2,13.3.05,20.36.05Zm534.01-176.54c-15.22,5.95-29.56,11.81-44.08,17.16-12.04,4.43-24.4,8.47-37.42,6.69-2.97-.41-5.56-4.65-7.95-7.44-.61-.71-.1-3.67.45-3.84,2.97-.92,6.1-1.71,9.19-1.77,5.45-.11,11.16,1.47,16.33.34,20.54-4.47,39.47-13.24,57.76-23.45,3.56-1.99,5.06-4.79,3.87-8.86-1.65-5.67-3.55-11.29-4.78-17.05-3.5-16.46-10.02-30.62-24.4-40.97-13.55-9.75-28.14-13.67-44.35-12.31-4.84.41-9.49,2.84-14.34,3.4-15.14,1.74-26.97,10.07-39.01,18.35-11.49,7.9-17.76,19.83-24.9,31.01-4.83,7.55-8.84,15.73-12.36,23.99-6.95,16.35-13.48,32.88-19.85,49.46-4.08,10.63-7.68,21.45-11.31,32.25-3.87,11.53-6.8,23.43-11.41,34.65-6.76,16.47-15.31,32.21-21.82,48.77-5.15,13.1-13.66,22.77-24.63,30.87-3.88,2.87-7.66,5.88-12,9.21,7.22,11.07,14.2,21.54,20.91,32.17,4.65,7.38,5.46,7.78,13.27,3.84.7-.35,1.26-.96,1.95-1.33,13.98-7.4,22.92-20.41,32.59-31.88,13.21-15.68,23.32-33.95,35.2-50.8,9.16-12.98,18.47-25.93,28.72-38.04,7.17-8.47,15.37-16.43,24.3-22.99,15.24-11.19,34.13-14.65,51.25-21.91,9.94-4.22,20.26-7.84,29.57-13.19,17.48-10.04,21.94-28.82,29.24-46.32Zm-874.14,126c-6.71,2.93-12.97,4.88-18.41,8.2-17.25,10.51-20.23,33.63-1.04,43.99,14.82,8,30.86,14.45,47.1,18.92,19.83,5.46,40.37,8.48,60.71,11.9,19.41,3.26,38.92,6.09,58.47,8.32,14.84,1.69,29.81,2.35,44.74,3.09,10.71.53,21.45.35,32.17.65,14.39.4,28.77,1.13,43.15,1.4,23.82.45,47.66.36,71.48,1.06,18.67.55,37.31,2.42,55.98,2.82,13.09.28,26.24-.59,39.31-1.57,10.76-.81,21.51-2.22,32.16-3.95,18.24-2.96,36.45-6.16,54.59-9.66,16.41-3.16,33.1-5.63,48.95-10.65,17.47-5.53,33.09-15.55,46.34-28.31,9.93-9.57,18.62-20.45,21.26-34.72,1.95-10.54,1.6-20.69-8-27.68-7.87-5.73-16.86-2.63-26.11-2.65.62,3.68,1.1,6.54,1.58,9.41,2.33,13.98-1.94,22.92-15.04,28.58-13.32,5.76-26.8,11.41-40.67,15.6-16.7,5.05-33.68,9.82-50.89,12.35-30.75,4.52-61.7,8.15-92.69,10.5-26.24,1.99-52.66,1.9-79.01,2.2-12.96.15-25.93-1.02-38.9-1.37-4.31-.12-8.65.85-12.94.65-9.75-.45-19.48-1.57-29.24-1.96-22.21-.87-44.48-.83-66.65-2.35-19.14-1.31-38.15-4.34-57.24-6.44-13.31-1.46-26.91-1.44-39.93-4.2-22.03-4.66-43.44-11.68-64.41-20.2-10.79-4.38-15.75-11.52-16.83-23.93Zm124.45,36.36c9.24.62,18.46.89,27.59,1.94,19.23,2.21,38.4,4.88,57.62,7.22,3.5.42,7.09.14,10.64.14,3.48,0,7.03-.55,10.43-.04,21.5,3.22,43.1,3.73,64.78,3.02,3.88-.13,5.81-1.2,5.75-5.43-.05-3.72.7-7.44.91-11.18,1.32-22.97,5.23-45.86,2.46-68.94-.59-4.92-1.81-10.02-3.97-14.44-3.56-7.31-8.11-14.5-17.41-15.1-11.37-.73-22.79-.55-34.18-1.1-14.71-.71-29.42-1.68-44.11-2.7-5.1-.35-10.19-1.08-15.24-1.86-6.18-.96-12.3-2.41-18.5-3.19-6.56-.82-13.3-2.05-19.76-1.33-6.5.73-11.4,4.86-12.17,12.32-.22,2.12-.98,4.23-1.8,6.22-6.96,16.99-7.46,35.29-10.35,53.05-2.16,13.25-1.85,26.91-2.7,41.39Zm227.46-64.9c.54.05,1.08.1,1.63.14-.5,8.99-1.62,17.99-1.36,26.96.43,14.74,2.26,29.45,2.46,44.19.08,6.14,1.91,7.32,7.34,6.91,20.01-1.52,40.04-2.72,60.05-4.12,11.55-.8,23.13-1.34,34.62-2.72,13.46-1.61,26.81-4.08,40.24-6,3.43-.49,4.95-2.06,4.67-5.44-.51-6.09-.87-12.2-1.6-18.27-3.55-29.49-6-59.17-18.54-86.81-4-8.81-5.6-10.57-17.44-9.42-8.84.86-17.38,4.41-26.21,5.88-22.5,3.73-45.05,7.1-67.63,10.34-9.6,1.38-13.55,3.73-15.55,13.29-1.71,8.18-1.85,16.7-2.69,25.06Zm-239.4,126.91c-11.52-1.85-22.66-3.73-33.83-5.39-5.93-.88-11.99-1.02-17.87-2.13-9.45-1.8-18.79-4.19-28.2-6.21-9.17-1.96-16.99-1.1-22.56,8.18-4.13,6.87-9.9,12.75-14.76,19.2-10.79,14.32-21.88,28.46-27.08,46.09-2.15,7.28-3.39,14.35,2.91,20.2,2.23,2.07,5.1,3.46,7.73,5.08,15.28,9.4,31.33,17.05,48.64,22.06,7.7,2.23,14.92,2.25,21.23-2.92,3.45-2.83,6.62-6.32,8.98-10.09,5.95-9.49,11.38-19.3,17.01-28.99,12.59-21.66,25.17-43.33,37.79-65.07Zm475.56,101.06c4-1.58,12.05-4.16,19.54-7.86,8.43-4.17,16.39-9.3,24.51-14.09,3.88-2.3,7.82-4.56,11.43-7.26,6.02-4.5,7.78-12.5,3.96-19-7.86-13.39-16.01-26.61-24.08-39.88-7.5-12.34-15.13-24.6-22.5-37.02-2.13-3.59-3.91-2.83-7.13-1.31-10.58,5.01-21.23,10-32.23,13.97-9.22,3.32-18.98,5.12-28.46,7.75-7.97,2.21-9.34,4.96-5.91,12.6,4.25,9.46,8.92,18.74,13.26,28.16,7.72,16.76,15.37,33.55,22.97,50.36,4,8.84,10.11,14.47,24.62,13.59ZM241.05,467.51c-1.7,2.3-3.29,4.02-4.39,6.01-13.92,24.97-27.41,50.16-34.65,78.07-2.67,10.32-5.32,20.75-6.52,31.3-.7,6.18.95,12.98,7.4,16.75,18.81,10.97,39.97,14.73,60.8,19.37,1.12.25,3.77-1.86,4.08-3.25,1.26-5.55,1.71-11.28,2.78-16.89,4.14-21.82,9.02-43.53,12.34-65.47,1.61-10.64,1.37-21.85-.04-32.53-.66-5.03-5.04-11.51-9.52-13.72-11.21-5.53-23.27-9.28-32.29-19.63Zm28.45-36.65c2.66,2.28,4.78,4.29,7.1,6.05,7.04,5.33,13.67,11.45,21.34,15.67,23.08,12.7,32.69,10.92,49.28-5.07,9.84-9.48,18.28-20.57,26.44-31.6,7.8-10.54,14.63-21.81,21.47-33.02,3.26-5.34,2.28-6.96-3.27-8.49-3.22-.89-6.87-1.08-9.58-2.78-9.06-5.66-17.77-11.86-27.47-18.43-34.48,17.08-59.3,47.23-85.31,77.67Zm478.95,30.14c-5.74,3.38-11.02,5.98-15.7,9.39-5.17,3.76-10.16,7.92-14.47,12.61-1.74,1.89-2.47,5.83-1.95,8.5,3.21,16.41,7.24,32.66,10.37,49.08,2.75,14.45,4.72,29.04,6.97,43.58,1.37,8.89,2.62,17.79,4.12,28,11.9-4.62,23.23-8.87,34.39-13.53,1.59-.67,3.36-3.32,3.35-5.05-.08-11.69.53-23.57-1.32-35.02-2.23-13.83-6.54-27.35-10.18-40.94-4.99-18.59-10.2-37.13-15.58-56.62Zm-264.62-154.58c-4.19.56-8.74.79-13.11,1.83-13.24,3.15-26.41,6.63-39.61,9.94-6.35,1.59-8.9,7.01-5.45,12.69,1.46,2.4,3.68,4.82,6.15,6.07,16.75,8.48,34.45,11.79,53.16,9,1.55-.23,3.14-.12,4.72-.2,11.06-.55,22.21-.39,33.15-1.86,10.18-1.36,20.43-3.62,30.11-7.02,9.36-3.29,18.3-8.08,26.82-13.22,2.28-1.38,3.3-6.51,3.06-9.78-.14-1.99-3.64-5.07-5.91-5.34-13.42-1.61-26.9-3.31-40.39-3.51-17.44-.26-34.91.86-52.69,1.4Zm164.94,27.39c-3.12,5.96-5.75,10.49-7.85,15.24-.7,1.58-.71,4.1.09,5.59,4.28,7.96,8.47,16.03,13.52,23.51,11.23,16.61,22.93,32.91,34.49,49.29,4.48,6.34,10.7,11.17,18.41,9.4,7.44-1.71,14.39-5.85,21.27-9.45,1.2-.63,1.97-4.25,1.34-5.87-7.89-20.38-20.37-37.79-36.74-52.05-13.99-12.2-28.97-23.26-44.54-35.65Zm-227.31,359.45c-4.04-.97-6.61,2.82-7.25,9.09-.2,1.93-1.13,3.77-1.42,5.7-1.18,7.95-3.37,16.52,4.06,22.43,4.39,3.5,10.02,6.83,15.41,7.43,16.31,1.8,32.68,3.37,49.25,1.53,10.64-1.18,17.81-5.76,19.79-16.29,1.27-6.76,1.82-13.65,2.72-20.48.6-4.54-1.06-6.2-5.89-6.15-12.79.13-25.6-.06-38.38-.6-11.77-.49-23.52-1.6-38.28-2.65Zm90.59,5.37c-.73,9.62-1.39,19.21-2.2,28.78-.67,7.93,2.59,11.83,10.8,12.13,10.2.38,20.42.78,30.62.67,10.18-.1,20.44-.09,30.49-1.48,8.45-1.17,17.86-7.18,18.12-14.44.22-5.9.8-11.79.9-17.69.1-6.16-2.36-8.18-8.65-8.13-14.94.12-29.89.13-44.83.15-11.73.02-23.46,0-35.25,0Zm97.01-.65c0,1.45-.05,3.13,0,4.82.26,7.98.45,15.97.91,23.94.06,1.1,1.25,2.65,2.3,3.09,4.34,1.8,8.81,4.57,13.25,4.58,12.11.03,24.33-.41,36.3-2.09,11.2-1.57,22.21-4.72,33.15-7.73,3.65-1,7.55-3.07,9.99-5.84,1.91-2.17,2.82-6.37,2.25-9.31-.71-3.69-3.42-6.99-5.18-10.5-4.19-8.38-7.41-10.1-16.71-8.63-5.62.89-11.18,2.25-16.83,2.76-19.76,1.78-39.54,3.28-59.45,4.9Zm-202.51-3.94c-6.42-.81-11.63-1.87-16.88-2.05-10.61-.38-21.26.07-31.85-.47-13.95-.71-27.87-2.1-41.81-3.03-1.52-.1-3.85.39-4.54,1.44-3.42,5.23-6.6,10.64-9.43,16.22-.67,1.32-.33,4.3.69,5.14,4.32,3.59,8.67,8.51,13.73,9.6,15.64,3.39,31.55,6.3,47.49,7.33,10.4.67,21.05-2.1,31.52-3.72,1.56-.24,3.25-2.38,4.06-4.04,1.09-2.24,1.39-4.86,2.03-7.32,1.61-6.19,3.22-12.37,4.98-19.11Zm-315.85-69.92c-.58.39-1.17.78-1.75,1.18,3.12,20.16,18.75,30.79,34.62,38.98,18.94,9.78,39.42,11.37,58.43-2.31-6.46-2.92-13.43-5.03-19.17-8.93-6.92-4.7-13.82-4.69-21.64-4.34-16.58.73-32.8-.76-43.9-15.82-2.17-2.94-4.39-5.84-6.59-8.75Z"/><path class="cls-1" d="m526.16,638.65c-7.06,0-13.71.15-20.36-.05-4.96-.15-7.1-2.78-6.72-7.98.88-12.17,1.85-24.36,1.94-36.55.18-22.36,2-44.85-4.48-66.81-4.11-13.95-6.59-15.17-19.25-17.2-9.64-1.54-19.62-.78-29.42-1.45-17.21-1.18-34.44-2.38-51.6-4.11-20.09-2.02-40.11-4.8-60.19-6.9-10.55-1.1-18.48,2.77-21.44,13.83-2.12,7.92-4.84,15.76-6.1,23.82-2.81,17.9-4.94,35.9-7.22,53.88-1.24,9.76-2.31,19.54-3.25,29.33-.33,3.39-1.71,5.31-5.16,4.89-4.8-.59-9.56-1.51-14.27-2.28,1.76-11.89,3.23-22.96,5.06-33.97,2.28-13.7,5.51-27.28,7.13-41.05,1.91-16.15,3.36-32.45,3.39-48.69.02-9.03-3.3-16.81-14.28-20.72-10.61-3.78-19.81-11.49-29.64-17.47-.96-.59-1.99-1.06-3.31-1.76,4.21-5.51,8.1-10.67,12.06-15.78,1.95-2.52,4.13-2.79,6.48-.42,2.06,2.07,4.43,3.88,6.24,6.15,14.88,18.71,35.12,25.73,57.96,24.72,10.14-.45,18.66-7.46,24.91-15.47,15.71-20.12,31-40.56,46.12-61.12,3.09-4.2,4.99-9.37,6.94-14.3,2.39-6.05-1.95-13.03-8.68-15.94-8.81-3.8-17.44-8.04-26.03-12.31-2.22-1.1-4.02-3.04-7-5.36,15.1-7.97,28.47-17.38,44.79-20.76,1.25,4.46,2.14,8.44,3.49,12.25,1.98,5.61,6.27,9.11,11.78,10.79,14.15,4.31,28.57,7.92,43.37,8.16,11.6.19,23.22-1.6,34.84-2.17,20.41-1,40.32-5.01,59.79-10.8,8.47-2.52,16.58-6.87,24.17-11.49,6.73-4.1,9-11.13,7.16-20.08,16.33,1.67,30.35,7.46,44.21,15.6-2.92,4.36-5.76,8.08-8.02,12.12-3.37,6.02-4.32,11.76-1.11,18.91,9.31,20.74,23.08,38.41,36.27,56.57,4.38,6.03,7.84,12.72,12.08,18.85,9.8,14.15,22.8,17.71,38.6,10.59,5.01-2.26,9.68-5.27,14.64-7.66,1.79-.86,5.57-1.57,5.73-1.19,1.42,3.33,5.92,6.59,2.09,10.54-5.31,5.46-10.46,11.51-16.83,15.44-23.56,14.53-20.02,24.55-15.19,41.61,7.96,28.07,13.35,56.54,16.61,85.48.64,5.68,1.37,11.35,2.04,17.03.58,4.94-.71,8.27-6.41,9.18-6.55,1.05-12.99,2.82-18.99,4.16-2.55-17.86-4.93-35.51-7.64-53.11-2.39-15.49-4.85-30.99-7.83-46.37-2.18-11.21-7.52-21.1-15.45-29.39-1.31-1.36-3.7-1.96-5.7-2.34-12.2-2.31-23.26,2.44-34.58,5.72-8.85,2.56-17.72,5.3-26.76,6.93-17.64,3.16-35.45,5.33-53.11,8.42-13.76,2.4-22.05,12.59-22.86,26.61-.16,2.73-1.13,5.42-1.25,8.15-.69,16.46-1.52,32.93-1.71,49.41-.08,7.04,1.55,14.08,1.9,21.15.35,7.21.08,14.45.08,22.75Zm7.81-196.16l-1.54.15c1.23,7.73,2.63,15.45,3.66,23.21,2.57,19.32,15.86,21.87,29.75,20.78,25.73-2.03,49.81-11.38,74.47-18.05,3.93-1.06,7.58-6.12,9.72-10.2,5.12-9.73,3.59-20.36-.06-29.91-5.46-14.32-11.93-28.33-19.03-41.92-10.56-20.22-18.48-24.56-41.01-21.15-15.13,2.29-30,6.58-44.81,10.63-8.03,2.19-11.21,7.15-11.18,13.91.06,17.52.02,35.03.02,52.55Zm-44.72,44.36c.01-.1.02-.2.03-.3,1.97,0,3.95-.13,5.9.02,12.4.93,17.27-1.78,20.29-13.8,6-23.9,8.08-48.13,3.33-72.6-1.89-9.72-5.97-18.03-16.5-20.06-9.16-1.76-18.58-2.22-27.91-2.99-9.17-.76-18.39-.94-27.54-1.82-10.79-1.03-22.44,1.16-28.8,11.35-10.24,16.41-15.81,34.64-23.51,52.04-3.11,7.03-4.4,14.16-4.31,21.78.16,13.17,7.84,20.75,20.9,21.08,15.06.38,30.11,1.18,45.14,2.18,11.01.73,21.98,2.06,32.96,3.12Z"/><path class="cls-3" d="m1060.17,462.1c-7.31,17.5-11.76,36.28-29.24,46.32-9.31,5.35-19.63,8.97-29.57,13.19-17.12,7.26-36.02,10.72-51.25,21.91-8.93,6.56-17.13,14.52-24.3,22.99-10.25,12.11-19.56,25.05-28.72,38.04-11.88,16.85-21.98,35.12-35.2,50.8-9.67,11.47-18.61,24.48-32.59,31.88-.69.37-1.25.98-1.95,1.33-7.81,3.94-8.61,3.54-13.27-3.84-6.71-10.64-13.69-21.1-20.91-32.17,4.33-3.33,8.11-6.34,12-9.21,10.97-8.1,19.48-17.77,24.63-30.87,6.51-16.56,15.06-32.3,21.82-48.77,4.6-11.22,7.54-23.11,11.41-34.65,3.62-10.8,7.22-21.62,11.31-32.25,6.37-16.58,12.9-33.12,19.85-49.46,3.52-8.26,7.53-16.44,12.36-23.99,7.14-11.18,13.41-23.11,24.9-31.01,12.04-8.29,23.87-16.61,39.01-18.35,4.85-.56,9.5-2.99,14.34-3.4,16.21-1.36,30.8,2.57,44.35,12.31,14.38,10.35,20.89,24.51,24.4,40.97,1.23,5.76,3.13,11.38,4.78,17.05,1.18,4.06-.32,6.87-3.87,8.86-18.29,10.21-37.22,18.98-57.76,23.45-5.17,1.12-10.88-.45-16.33-.34-3.09.06-6.22.85-9.19,1.77-.54.17-1.05,3.13-.45,3.84,2.39,2.8,4.98,7.04,7.95,7.44,13.02,1.78,25.38-2.26,37.42-6.69,14.52-5.35,28.86-11.21,44.08-17.16Zm-92.47-26.84c5.28.27,9.5-3.89,9.77-9.63.27-5.64-5.13-11.16-11.3-11.54-4.32-.27-9.98,5.51-10.31,10.52-.37,5.55,4.91,10.3,11.84,10.65Z"/><path class="cls-5" d="m186.04,588.1c1.08,12.41,6.04,19.55,16.83,23.93,20.97,8.52,42.38,15.53,64.41,20.2,13.02,2.76,26.62,2.74,39.93,4.2,19.09,2.1,38.1,5.13,57.24,6.44,22.17,1.52,44.43,1.48,66.65,2.35,9.76.38,19.48,1.51,29.24,1.96,4.29.2,8.64-.77,12.94-.65,12.97.35,25.94,1.52,38.9,1.37,26.35-.3,52.76-.22,79.01-2.2,30.99-2.35,61.94-5.98,92.69-10.5,17.21-2.53,34.19-7.31,50.89-12.35,13.87-4.19,27.34-9.84,40.67-15.6,13.1-5.66,17.37-14.59,15.04-28.58-.48-2.87-.96-5.73-1.58-9.41,9.25.02,18.24-3.08,26.11,2.65,9.6,6.99,9.95,17.14,8,27.68-2.64,14.27-11.33,25.15-21.26,34.72-13.25,12.76-28.87,22.79-46.34,28.31-15.86,5.02-32.55,7.49-48.95,10.65-18.14,3.5-36.35,6.7-54.59,9.66-10.66,1.73-21.4,3.14-32.16,3.95-13.07.99-26.22,1.85-39.31,1.57-18.67-.4-37.3-2.27-55.98-2.82-23.82-.7-47.65-.61-71.48-1.06-14.39-.27-28.77-1-43.15-1.4-10.72-.3-21.46-.12-32.17-.65-14.93-.74-29.9-1.4-44.74-3.09-19.55-2.23-39.06-5.06-58.47-8.32-20.34-3.42-40.88-6.44-60.71-11.9-16.23-4.47-32.28-10.92-47.1-18.92-19.2-10.36-16.21-33.47,1.04-43.99,5.44-3.31,11.7-5.26,18.41-8.2Z"/><path class="cls-2" d="m310.49,624.46c.85-14.48.54-28.14,2.7-41.39,2.89-17.76,3.39-36.06,10.35-53.05.82-1.99,1.58-4.11,1.8-6.22.77-7.46,5.66-11.59,12.17-12.32,6.46-.72,13.2.51,19.76,1.33,6.2.77,12.32,2.23,18.5,3.19,5.06.79,10.14,1.51,15.24,1.86,14.7,1.02,29.4,1.99,44.11,2.7,11.38.55,22.81.37,34.18,1.1,9.3.6,13.84,7.79,17.41,15.1,2.16,4.42,3.38,9.52,3.97,14.44,2.76,23.08-1.15,45.97-2.46,68.94-.21,3.73-.96,7.46-.91,11.18.06,4.22-1.86,5.3-5.75,5.43-21.68.71-43.28.2-64.78-3.02-3.4-.51-6.95.03-10.43.04-3.55,0-7.14.29-10.64-.14-19.22-2.33-38.39-5.01-57.62-7.22-9.13-1.05-18.35-1.31-27.59-1.94Z"/><path class="cls-2" d="m537.95,559.56c.83-8.37.97-16.88,2.69-25.06,2-9.56,5.95-11.91,15.55-13.29,22.57-3.24,45.13-6.61,67.63-10.34,8.82-1.46,17.37-5.02,26.21-5.88,11.84-1.15,13.44.61,17.44,9.42,12.54,27.65,14.99,57.32,18.54,86.81.73,6.06,1.08,12.17,1.6,18.27.28,3.38-1.24,4.95-4.67,5.44-13.42,1.92-26.78,4.39-40.24,6-11.48,1.37-23.07,1.91-34.62,2.72-20.02,1.39-40.05,2.6-60.05,4.12-5.43.41-7.26-.77-7.34-6.91-.2-14.74-2.03-29.45-2.46-44.19-.26-8.97.86-17.97,1.36-26.96-.54-.05-1.08-.1-1.63-.14Z"/><path class="cls-3" d="m298.55,686.47c-12.63,21.74-25.21,43.41-37.79,65.07-5.63,9.69-11.06,19.5-17.01,28.99-2.37,3.77-5.53,7.26-8.98,10.09-6.31,5.17-13.53,5.15-21.23,2.92-17.31-5.01-33.36-12.65-48.64-22.06-2.63-1.62-5.51-3.01-7.73-5.08-6.3-5.85-5.05-12.92-2.91-20.2,5.2-17.64,16.3-31.77,27.08-46.09,4.86-6.45,10.63-12.33,14.76-19.2,5.58-9.28,13.39-10.15,22.56-8.18,9.41,2.02,18.75,4.41,28.2,6.21,5.88,1.12,11.94,1.25,17.87,2.13,11.17,1.66,22.31,3.54,33.83,5.39Z"/><path class="cls-3" d="m774.11,787.53c-14.51.88-20.62-4.75-24.62-13.59-7.61-16.81-15.25-33.61-22.97-50.36-4.34-9.42-9.01-18.7-13.26-28.16-3.43-7.63-2.06-10.39,5.91-12.6,9.48-2.63,19.24-4.42,28.46-7.75,11-3.97,21.65-8.95,32.23-13.97,3.21-1.52,5-2.28,7.13,1.31,7.37,12.42,15,24.68,22.5,37.02,8.06,13.27,16.21,26.49,24.08,39.88,3.82,6.5,2.06,14.5-3.96,19-3.6,2.69-7.54,4.96-11.43,7.26-8.11,4.8-16.07,9.93-24.51,14.09-7.49,3.7-15.54,6.29-19.54,7.86Z"/><path class="cls-2" d="m241.05,467.51c9.02,10.35,21.08,14.1,32.29,19.63,4.48,2.21,8.85,8.69,9.52,13.72,1.41,10.68,1.65,21.89.04,32.53-3.32,21.94-8.2,43.65-12.34,65.47-1.06,5.61-1.51,11.34-2.78,16.89-.31,1.38-2.96,3.5-4.08,3.25-20.83-4.64-41.99-8.39-60.8-19.37-6.46-3.77-8.1-10.56-7.4-16.75,1.2-10.55,3.84-20.98,6.52-31.3,7.23-27.91,20.73-53.1,34.65-78.07,1.11-1.99,2.69-3.7,4.39-6.01Z"/><path class="cls-2" d="m269.5,430.86c26.01-30.43,50.83-60.59,85.31-77.67,9.69,6.57,18.41,12.77,27.47,18.43,2.71,1.7,6.36,1.89,9.58,2.78,5.55,1.53,6.52,3.15,3.27,8.49-6.84,11.21-13.67,22.48-21.47,33.02-8.16,11.03-16.6,22.12-26.44,31.6-16.59,15.99-26.2,17.77-49.28,5.07-7.67-4.22-14.3-10.34-21.34-15.67-2.32-1.76-4.45-3.78-7.1-6.05Z"/><path class="cls-2" d="m748.45,461c5.37,19.49,10.59,38.03,15.58,56.62,3.65,13.59,7.95,27.1,10.18,40.94,1.85,11.46,1.23,23.33,1.32,35.02.01,1.72-1.75,4.38-3.35,5.05-11.16,4.66-22.49,8.91-34.39,13.53-1.5-10.21-2.74-19.12-4.12-28-2.25-14.54-4.22-29.14-6.97-43.58-3.13-16.42-7.15-32.67-10.37-49.08-.52-2.67.21-6.61,1.95-8.5,4.31-4.69,9.31-8.85,14.47-12.61,4.69-3.41,9.96-6.01,15.7-9.39Z"/><path class="cls-2" d="m483.83,306.42c17.78-.54,35.25-1.66,52.69-1.4,13.48.2,26.97,1.9,40.39,3.51,2.27.27,5.77,3.35,5.91,5.34.24,3.27-.78,8.4-3.06,9.78-8.52,5.14-17.46,9.93-26.82,13.22-9.68,3.4-19.93,5.66-30.11,7.02-10.94,1.47-22.09,1.31-33.15,1.86-1.57.08-3.17-.03-4.72.2-18.71,2.78-36.41-.53-53.16-9-2.46-1.25-4.68-3.66-6.15-6.07-3.45-5.68-.9-11.1,5.45-12.69,13.21-3.3,26.37-6.79,39.61-9.94,4.36-1.04,8.92-1.27,13.11-1.83Z"/><path class="cls-2" d="m648.77,333.81c15.57,12.38,30.55,23.45,44.54,35.65,16.36,14.26,28.84,31.67,36.74,52.05.63,1.62-.14,5.24-1.34,5.87-6.89,3.6-13.83,7.74-21.27,9.45-7.71,1.77-13.93-3.06-18.41-9.4-11.57-16.38-23.26-32.68-34.49-49.29-5.05-7.47-9.24-15.54-13.52-23.51-.8-1.49-.79-4.01-.09-5.59,2.1-4.76,4.73-9.29,7.85-15.24Z"/><path class="cls-4" d="m421.46,693.26c14.76,1.05,26.51,2.16,38.28,2.65,12.78.54,25.59.73,38.38.6,4.83-.05,6.49,1.62,5.89,6.15-.9,6.83-1.45,13.72-2.72,20.48-1.98,10.53-9.15,15.11-19.79,16.29-16.57,1.84-32.93.27-49.25-1.53-5.39-.6-11.02-3.93-15.41-7.43-7.43-5.91-5.24-14.48-4.06-22.43.29-1.93,1.22-3.77,1.42-5.7.64-6.27,3.21-10.06,7.25-9.09Z"/><path class="cls-4" d="m512.05,698.63c11.79,0,23.52.02,35.25,0,14.94-.03,29.89-.03,44.83-.15,6.29-.05,8.75,1.97,8.65,8.13-.1,5.9-.68,11.79-.9,17.69-.26,7.26-9.67,13.27-18.12,14.44-10.04,1.39-20.31,1.38-30.49,1.48-10.2.1-20.42-.29-30.62-.67-8.21-.31-11.47-4.2-10.8-12.13.8-9.57,1.47-19.15,2.2-28.78Z"/><path class="cls-4" d="m609.06,697.98c19.9-1.62,39.69-3.12,59.45-4.9,5.65-.51,11.21-1.87,16.83-2.76,9.3-1.47,12.52.25,16.71,8.63,1.76,3.51,4.47,6.8,5.18,10.5.56,2.93-.34,7.13-2.25,9.31-2.44,2.77-6.34,4.84-9.99,5.84-10.94,3.01-21.95,6.15-33.15,7.73-11.97,1.68-24.19,2.12-36.3,2.09-4.43-.01-8.91-2.78-13.25-4.58-1.05-.43-2.24-1.99-2.3-3.09-.46-7.97-.66-15.96-.91-23.94-.05-1.69,0-3.37,0-4.82Z"/><path class="cls-4" d="m406.54,694.04c-1.75,6.74-3.37,12.92-4.98,19.11-.64,2.46-.94,5.09-2.03,7.32-.81,1.66-2.5,3.8-4.06,4.04-10.48,1.62-21.13,4.39-31.52,3.72-15.94-1.03-31.84-3.95-47.49-7.33-5.06-1.1-9.41-6.01-13.73-9.6-1.02-.85-1.36-3.82-.69-5.14,2.83-5.57,6.01-10.99,9.43-16.22.69-1.05,3.02-1.54,4.54-1.44,13.94.93,27.86,2.32,41.81,3.03,10.6.54,21.24.09,31.85.47,5.25.19,10.46,1.24,16.88,2.05Z"/><path class="cls-3" d="m90.69,624.11c2.2,2.92,4.42,5.81,6.59,8.75,11.09,15.06,27.32,16.55,43.9,15.82,7.82-.35,14.72-.36,21.64,4.34,5.74,3.9,12.71,6.01,19.17,8.93-19.01,13.68-39.48,12.1-58.43,2.31-15.87-8.19-31.5-18.82-34.62-38.98.58-.39,1.17-.78,1.75-1.18Z"/><path d="m533.97,442.49c0-17.52.04-35.03-.02-52.55-.02-6.76,3.15-11.72,11.18-13.91,14.81-4.04,29.68-8.33,44.81-10.63,22.52-3.41,30.44.92,41.01,21.15,7.1,13.59,13.56,27.61,19.03,41.92,3.65,9.56,5.18,20.18.06,29.91-2.14,4.07-5.8,9.14-9.72,10.2-24.66,6.67-48.74,16.02-74.47,18.05-13.88,1.1-27.17-1.46-29.75-20.78-1.03-7.76-2.43-15.47-3.66-23.21l1.54-.15Zm9.29-16.22c-.56.1-1.12.19-1.69.29,2.26,13.11,3.9,26.36,6.98,39.27,2.39,10.03,7.83,13.25,18.1,10.75,22.49-5.47,45.83-7.9,67.01-18.27,6.17-3.02,11.41-11.08,8.88-17.38-6.05-15.06-12.92-29.78-19.64-44.56-1.62-3.56-4.18-6.69-5.81-10.25-2.92-6.35-8.52-10.24-15.28-9.21-15.15,2.31-30.26,4.88-45.35,7.54-5.9,1.04-10.61,6.81-11.1,13.03-.75,9.59-1.41,19.19-2.11,28.79Z"/><path d="m489.25,486.85c-10.99-1.06-21.95-2.4-32.96-3.12-15.03-.99-30.08-1.79-45.14-2.18-13.07-.33-20.74-7.91-20.9-21.08-.09-7.62,1.2-14.75,4.31-21.78,7.69-17.4,13.27-35.64,23.51-52.04,6.36-10.2,18.01-12.39,28.8-11.35,9.15.88,18.37,1.06,27.54,1.82,9.33.77,18.75,1.23,27.91,2.99,10.53,2.03,14.61,10.34,16.5,20.06,4.75,24.48,2.66,48.7-3.33,72.6-3.02,12.02-7.89,14.73-20.29,13.8-1.96-.15-3.93-.02-5.9-.02-.01.1-.02.2-.03.3Zm-1.83-9.54c.01-.18.02-.37.03-.55,1.57-.12,3.15-.25,4.73-.35,11.46-.74,13.62-2.56,15.28-14.22,1.22-8.53,1.57-17.2,2.92-25.71,1.7-10.69,1.59-21.12-1.55-31.57-3.17-10.52-10.89-15.89-22.14-15.48-7.25.26-14.56.14-21.79-.47-8.2-.68-16.31-2.53-24.51-3.05-7.46-.47-13.27,2.77-17.93,9.15-10.06,13.74-12.85,30.38-19.24,45.57-1.73,4.11-2.53,8.69-3.2,13.15-1.86,12.39,1.48,16.79,13.83,18.12,9.02.97,18.08,1.53,27.13,2.18,15.47,1.12,30.95,2.16,46.42,3.23Z"/><path d="m967.71,435.26c-6.93-.35-12.21-5.1-11.84-10.65.33-5.01,6-10.79,10.31-10.52,6.17.38,11.57,5.9,11.3,11.54-.28,5.75-4.49,9.9-9.77,9.63Z"/><path class="cls-2" d="m543.26,426.27c.7-9.6,1.36-19.2,2.11-28.79.49-6.22,5.2-11.99,11.1-13.03,15.09-2.66,30.2-5.23,45.35-7.54,6.76-1.03,12.36,2.85,15.28,9.21,1.63,3.56,4.19,6.69,5.81,10.25,6.71,14.78,13.59,29.51,19.64,44.56,2.53,6.3-2.71,14.35-8.88,17.38-21.19,10.37-44.52,12.81-67.01,18.27-10.27,2.5-15.71-.72-18.1-10.75-3.08-12.91-4.72-26.16-6.98-39.27.56-.1,1.12-.19,1.69-.29Z"/><path class="cls-2" d="m487.42,477.3c-15.47-1.07-30.95-2.12-46.42-3.23-9.05-.65-18.12-1.21-27.13-2.18-12.36-1.33-15.69-5.74-13.83-18.12.67-4.45,1.47-9.04,3.2-13.15,6.38-15.19,9.18-31.83,19.24-45.57,4.67-6.37,10.47-9.61,17.93-9.15,8.2.52,16.31,2.37,24.51,3.05,7.23.6,14.54.73,21.79.47,11.25-.4,18.97,4.96,22.14,15.48,3.14,10.45,3.25,20.88,1.55,31.57-1.35,8.51-1.7,17.17-2.92,25.71-1.67,11.66-3.83,13.48-15.28,14.22-1.58.1-3.15.23-4.73.35-.01.18-.02.37-.03.55Z"/></svg>