<?xml version="1.0" encoding="UTF-8"?><svg id="Layer_1" xmlns="http://www.w3.org/2000/svg" xmlns:xlink="http://www.w3.org/1999/xlink" viewBox="0 0 1150 1100"><defs><style>.cls-1{fill:#ffe07a;}.cls-2{fill:#fff9f4;}.cls-3{fill:#999;}.cls-4{fill:#628679;}.cls-5{fill:#5f5647;}.cls-6{fill:#fff;filter:url(#drop-shadow-2);}</style><filter id="drop-shadow-2" filterUnits="userSpaceOnUse"><feOffset dx="15" dy="15"/><feGaussianBlur result="blur" stdDeviation="15"/><feFlood flood-color="#000" flood-opacity=".5"/><feComposite in2="blur" operator="in"/><feComposite in="SourceGraphic"/></filter></defs><path class="cls-6" d="m409.59,1024.7c-13.33,0-38.33-2.74-56.03-21.09-.08-.08-.16-.16-.22-.22-21.36-3.58-39.48-15.68-50.16-33.68-11.84-19.95-13.46-45.18-4.34-67.5,9.85-24.09,22.12-43.61,37.53-59.67,1.32-1.37,2.64-2.74,3.96-4.11-4.81-2.16-9.41-4.39-13.83-6.57-2.6-1.28-5.2-2.55-7.79-3.82-12.83-6.28-26.1-12.77-39.42-20.63-16.62-9.81-30.65-19.63-42.91-30.02-18.93-16.05-34.01-34.38-44.8-54.48-1.45-2.7-2.92-5.4-4.39-8.1-6.76-12.4-13.75-25.23-19.72-39.68-7.17-17.36-11.79-35.26-15.5-49.64-.47-1.84-.9-3.65-1.29-5.45-9.01-3.45-17.47-7.64-25.51-12.62-19.74-12.24-36-29.27-49.7-52.06-11.54-19.18-18.58-45.14-18.83-69.45l-.92-86.83,45.8,25.94c3.9-11.73,9.3-23.39,16.18-34.91l10.97-18.36,22.74-5.17,37.66-8.5,17.76,34.28c.52,1,1.05,1.99,1.58,2.98,1.63,3.05,3.47,6.5,5.32,10.52,1.81,3.94,3.33,7.67,4.67,10.97,1.49,3.67,3.19,7.84,4.23,9.5,4.72,7.53,9.58,14.36,14.5,20.38,11.41-1.79,22.55-3.06,33.37-4.3,3.48-.4,6.96-.8,10.43-1.21,4.64-.55,9.27-1.13,13.91-1.7,14.76-1.83,30.03-3.71,45.58-5.02,16.37-1.37,32.13-1.39,46.04-1.4h1.62c17.96,0,36.02.29,53.49.58l7.86.13c6.45.1,12.86.28,19.06.45,9.37.26,18.22.5,26.98.5,1.08,0,2.16,0,3.24-.01.54,0,1.07,0,1.6,0,18.72,0,35.77,2.44,52.12,7.46,3.53,1.08,7.06,2.16,10.59,3.23,10.72,3.26,21.81,6.63,32.93,10.32,6.51,2.16,12.65,4.43,18.6,6.62,5.62,2.07,10.95,4.04,16.07,5.73.79.08,1.92.19,2.82.26,1.6.14,3.19.29,4.78.46,2.6.28,5.09.61,7.29.89,3.49.45,7.1.92,9,.92h.19c7.72-.27,11.36-2.72,14.73-6.58,2.02-2.31,4.06-4.61,6.1-6.91,5.74-6.45,11.16-12.55,15.23-18.25,5.67-7.95,6.64-14.53,3.58-24.27-3.71-11.82-4.97-23-5.93-32.12-.31-.66-1.01-2-2.52-4.52-9.66-16.06-16.2-32.48-22.6-49.29-9.71-25.5-6.59-49.15-4.31-66.42l.31-2.38c1.82-13.94,5.99-27.74,12.74-42.18,7.26-15.51,16.98-33.42,34.08-48.56,2.19-1.94,4.28-3.72,6.3-5.45,3.77-3.22,7.33-6.26,9.56-8.68,3.48-3.77,7.11-8.22,10.95-12.92,4.1-5.02,8.34-10.21,13.15-15.55,1.05-1.16,2.09-2.33,3.13-3.51,7.31-8.21,16.41-18.44,28.32-27.17,18.37-13.46,40.13-20.58,62.95-20.58,5.08,0,10.26.35,15.4,1.05,20.25,2.75,40.11,9.69,59.05,20.63,12.85,7.42,21.07,17.39,26.51,23.98,1.04,1.26,2.02,2.44,2.74,3.25,12.94,14.56,18.31,30.62,21.86,41.25.52,1.57,1.05,3.14,1.6,4.7,2.68,7.53,6.35,19.17,7.21,33.33.34,5.6.73,10.96,1.17,16.14,9.2,7.45,18.19,14.62,27.38,21.56,5.5,4.16,11.4,8.25,17.64,12.59,6.51,4.52,13.23,9.2,20.04,14.31,10.36,7.78,20.75,16.34,31.77,26.18,11.55,10.31,19.11,25.49,20.74,41.64,1.09,10.86.98,21.26-.33,30.93-1.93,14.13-8.97,28.18-19.33,38.58-8.64,8.67-18.14,17.89-29.02,26.59-7.34,5.87-14.72,10.27-20.65,13.81-2.09,1.25-4.07,2.43-5.77,3.51-19.33,12.26-41.22,18.47-65.06,18.47h0c-9.75,0-19.63-1-30.21-3.07-19.16-3.74-33.99-12.99-46.13-22.83-1.47,5.89-2.53,12.86-3.69,20.51-.36,2.37-.72,4.74-1.09,7.1-2.39,15.05-2.45,31.55-.21,55.19,1.95,20.59,3.16,41.15,4.32,61.02l.08,1.31c.88,15,1.25,29.59,1.51,41.88.6,28.85-6.09,56.96-19.88,83.55-10.03,19.33-24.02,44.4-43.45,66.87-9.14,10.58-18.99,18.6-27.68,25.68-1.27,1.04-2.54,2.07-3.8,3.11-6.45,5.31-12.8,10.1-18.94,14.74-3.77,2.85-7.34,5.54-10.77,8.23-13.21,10.36-27.12,17.78-40.1,23.34,6.77,18.12,5.39,36.94-4.05,53.56-1.38,2.43-3.03,5.7-3.1,7.52-.66,17.95-8.23,43.07-40.48,60.88-.45.31-1.81,1.47-3.25,3.42-10.12,13.72-28.81,30.69-60.43,33.59-3.05.28-6.13.42-9.16.42-22.5,0-43.81-7.7-61.62-22.26-4.2-3.43-7.64-7.09-10.47-10.58-8.03,7.98-18.11,14.39-29.77,18.79-9.03,3.4-17.82,5.41-26.72,6.09-.54.42-1.21.94-2.02,1.6-13.76,11.1-32.47,17.21-52.67,17.21Z"/><path d="m544.14,827.96c.17,8.43,6.29,16.44,13.99,18.13,20.25,4.45,40.45,8.64,61.52,6.51,11.92-1.2,24-.56,34.69,6.46,4.69,3.08,9.23,6.15,11.71,11.46,2.05,4.38,2.54,8.62.02,13.06-5.35,9.42-9.17,19.16-9.58,30.36-.34,9.25-6.53,14.47-14.76,19-7.43,4.09-14.17,10.59-19.25,17.48-6.47,8.77-14.49,12.52-24.74,13.46-13.06,1.2-24.71-2.7-34.57-10.76-4.53-3.7-7.3-9.59-10.73-14.58-4.4-6.38-8.72-12.83-13-19.3-2.86-4.33-5.18-9.07-8.43-13.06-5.19-6.37-11.29-12.01-16.37-18.46-3.92-4.97-7-10.64-10.15-16.17-.59-1.04.11-2.91.43-4.35,2.08-9.38,4.44-18.72,6.24-28.15.61-3.21.68-7-.5-9.92-.94-2.32-3.98-4.94-6.41-5.32-17.51-2.68-35.09-4.82-52.86-7.15-2.96,12.34-3.86,24.18,1.43,35.94,2.2,4.9,2.97,10.48,5.42,15.21,2.92,5.63,7.32,10.48,10.44,16.03,7.26,12.93,14.92,25.72,20.94,39.22,5.88,13.2-.95,24.5-15.97,30.16-5.08,1.92-10.12,3.08-15.54,3.13-10.78.11-19.15,6.13-26.94,12.42-11.1,8.96-34.64,7.26-41.32.34-3.35-3.48-7.26-6.68-11.48-9-4.62-2.54-9.76-5.03-14.88-5.61-19.54-2.19-23.24-20.52-18.07-33.17,6.6-16.16,15.12-31.24,27.32-43.96,7.8-8.13,15.67-16.21,23.47-24.33,3.82-3.98,8.36-7.56,11.13-12.19,2.4-4,3.26-9.15,3.88-13.92.44-3.39-.43-7.02-1.08-10.48-.97-5.21-2.15-9.62-9.1-10.75-9.07-1.48-18.04-4.18-26.72-7.28-8.69-3.11-17.11-7.09-25.4-11.18-14.78-7.29-29.75-14.31-43.92-22.67-12.58-7.43-24.88-15.68-36-25.11-13.26-11.24-24.75-24.49-33.08-39.99-7.65-14.24-15.8-28.33-21.96-43.22-5.71-13.82-9.55-28.5-13.3-43.04-2.3-8.94-3.09-18.29-4.17-27.5-.46-3.96-1.63-5.35-5.95-6.15-13.66-2.55-26.66-6.92-38.74-14.42-14.39-8.92-24.7-21.19-33.21-35.34-7-11.63-11.52-28.76-11.68-44.21,2.06,1.17,3.8,1.78,5.06,2.92,6.98,6.33,13.26,13.63,20.92,18.97,6.86,4.78,15.19,7.46,23.28,10.48-18.43-35.54-14.86-69.2,4.73-101.99.6-.14,1.2-.27,1.8-.41,1.96,3.79,4.07,7.5,5.85,11.37,4.01,8.73,6.93,18.11,11.98,26.17,7.05,11.24,14.94,22.14,23.77,32.04,9.82,11.02,22.87,14.13,37.63,11.69,14.97-2.48,30.11-3.98,45.19-5.78,19.23-2.3,38.44-4.92,57.73-6.54,13.91-1.17,27.94-1.21,41.91-1.23,20.71-.02,41.42.37,62.13.7,16.82.27,33.64,1.07,50.45.95,13.21-.1,26.07,1.38,38.67,5.25,14.16,4.35,28.38,8.54,42.43,13.2,12.29,4.08,24.3,9.04,36.62,12.99,5.06,1.62,10.63,1.76,15.99,2.34,7.87.85,15.79,2.35,23.63,2.08,20.08-.7,37.3-8.35,50.66-23.67,8.3-9.51,17.05-18.75,24.36-28.99,14.83-20.79,18.31-43.63,10.58-68.28-2.36-7.51-3.2-15.57-4.03-23.46-.94-8.96-4.61-16.2-9.29-23.98-7.75-12.88-13.35-27.19-18.73-41.32-5.52-14.49-3.1-29.57-1.14-44.53,1.27-9.71,4.33-18.66,8.45-27.46,5.61-11.98,11.88-23.41,21.95-32.32,6.55-5.81,13.53-11.23,19.45-17.64,8.56-9.27,16.05-19.52,24.5-28.9,7.53-8.35,14.9-17.25,23.87-23.82,12.2-8.94,26.56-12.41,42.06-10.31,14.64,1.99,28.27,7.16,40.76,14.38,6.71,3.87,11.54,11.14,16.9,17.16,7.5,8.44,10.06,19.2,13.74,29.52,2.3,6.45,3.98,12.74,4.4,19.57.71,11.75,1.68,23.5,3.02,35.19.27,2.37,2.19,5.06,4.13,6.64,13.59,11.08,27.18,22.18,41.16,32.74,12.35,9.32,25.41,17.7,37.79,26.99,9.84,7.39,19.32,15.31,28.51,23.5,2.37,2.12,3.95,6.07,4.28,9.35.64,6.34.73,12.88-.13,19.18-.48,3.55-2.63,7.45-5.2,10.02-7.94,7.96-16.06,15.82-24.83,22.83-6.77,5.41-14.61,9.48-21.98,14.15-18.35,11.64-38.47,12.55-58.9,8.55-12.01-2.35-21.61-9.98-30.6-18.05-5.71-5.12-10.6-10.76-12.71-18.47-.31-1.14-3.06-2.37-4.62-2.29-24.35,1.16-40.63,14.22-50.42,35.7-7.07,15.52-8.91,32.47-11.55,49.15-3.58,22.57-2.75,45.1-.6,67.74,1.91,20.13,3.08,40.34,4.26,60.53.78,13.32,1.16,26.66,1.44,40,.44,21.05-4.6,40.84-14.28,59.5-10.5,20.24-21.98,39.94-36.89,57.2-7.4,8.57-16.64,15.64-25.44,22.89-9.35,7.7-19.24,14.74-28.78,22.22-14.6,11.46-31.38,18.4-48.82,24.1-4.95,1.62-9.64,4.29-14.69,5.33-10.01,2.06-20.14,3.74-30.3,4.8-13.68,1.43-27.43,2.66-41.17,2.98-12.09.29-24.21-.8-36.32-1.25-2.34-.09-4.69-.01-7.4-.01ZM161.76,434.2c-9.89,32.35-13.91,62.87,10.37,91.23-20.86,1.57-37.19-4.35-51.19-17.88.38,2.62.91,5.19,2.03,7.46,1.86,3.78,4.13,7.35,6.18,11.04,14.97,26.99,37.8,41.28,68.7,42.5,6.28.25,7.29,1.26,7.12,7.19-.03.99.31,1.98.46,2.98.96,6.49,1.78,13.01,2.92,19.47,1.63,9.28,2.64,18.77,5.41,27.71,6.34,20.46,14.15,40.46,25.15,58.91,5.66,9.5,11.97,18.94,19.59,26.87,10.25,10.67,21.8,20.14,33.27,29.55,7.12,5.84,14.7,11.4,22.8,15.71,16.04,8.53,32.39,16.55,48.98,23.95,13.57,6.05,27.44,11.64,41.63,16,11.91,3.66,24.4,5.55,36.73,7.69,16.27,2.82,32.6,5.34,48.95,7.58,12.5,1.71,25.06,3,37.63,4.07,12.04,1.03,24.12,1.73,36.19,2.21,11.46.45,23.05,1.46,34.39.34,15.39-1.52,30.62-4.72,45.87-7.42,8.89-1.57,17.89-2.94,26.49-5.56,6.5-1.98,12.48-5.72,18.61-8.82,8.67-4.39,17.9-8.02,25.77-13.57,14.15-9.99,27.72-20.85,41.03-31.94,10.21-8.52,20.41-17.29,27.1-29.15,7.47-13.23,16.4-25.67,21.31-40.28,3.58-10.64,8.93-20.86,11.1-31.74,2.18-10.93,1.93-22.47,1.76-33.72-.18-11.3-1.69-22.57-2.43-33.87-.68-10.45-1-20.93-1.64-31.39-.87-14.3-1.98-28.59-2.81-42.9-.29-5.05-.05-10.14-.05-15.53-13.19,3.35-24.28,1.24-35.33-4.23-10.67-5.27-21.63-9.86-29.48-17.56-9.98,10.86-19.38,21.9-29.68,32.03-8.21,8.08-16.71,15.97-27.65,20.77-18.64,8.19-38.13,9.37-57.85,7.19-9.25-1.02-18.45-3.67-27.34-6.59-13.29-4.37-26.45-9.23-39.36-14.62-11.4-4.76-22.7-9.59-35.17-10.49-12.59-.91-25.19-1.6-37.79-2.28-24.85-1.35-49.7-2.67-74.56-3.9-7.24-.36-14.53-.83-21.75-.42-10.87.61-21.68,2.23-32.55,2.92-16.81,1.08-33.67,1.37-50.46,2.68-13.75,1.07-27.42,3.08-41.12,4.78-11.36,1.42-22.86,2.3-34.02,4.69-13.32,2.85-24.04-1.16-33.84-9.61-12.08-10.43-20.55-23.5-27.7-37.56-4.33-8.52-8.8-16.95-13.75-26.46Zm721.27-70.91c-1.04-2.4-2.09-5.81-3.87-8.79-7.8-13.05-19.79-22.03-31.65-30.83-5.98-4.43-8.26-9.29-7.58-16.21.49-5.04.66-10.12,1.47-15.11,1.59-9.81,2.48-19.9,5.61-29.23,2.79-8.33,6.22-17.56,16.48-20.22,5.86-1.52,11.85-3.14,17.84-3.43,11.4-.54,22.85-.16,35.06-.16,0-6.91-.48-12.83.1-18.65,1.18-11.91-1.58-23.11-5.47-34.08-1.39-3.91-4.2-7.29-6.08-11.06-6.49-13-17.06-21.84-29.81-27.82-10.92-5.12-23.07-6.11-34.95-6.46-11.86-.35-23.04,3.07-32.22,11.08-7.85,6.85-16.34,13.28-22.88,21.27-10.84,13.22-22.06,25.92-34.77,37.37-5.45,4.91-10.46,10.44-14.98,16.23-11.65,14.93-15.87,32.92-17.56,51.04-1.04,11.18,1.32,22.86,3.32,34.11,3.41,19.13,15.01,33.7,28.7,46.59,4.99,4.7,11.15,8.16,16.84,12.09,2.33,1.61,4.18,3.56,2.11,6.2-1.82,2.32-4.16,4.63-7.74,2.44-3.96-2.42-8.01-4.68-13.66-7.96,2.49,13.5,4.7,25.64,6.99,37.78.81,4.28,2.18,8.5,2.59,12.81.34,3.62,1.97,3.69,4.97,3.79,3.49.11,7.4.62,10.32,2.33,6.49,3.81,12.42,8.57,18.69,12.78,7.26,4.87,14.74,9.28,24.1,8.12,1.24-7.33,1.82-14.61,3.77-21.5,3.45-12.2,9.02-23.5,16.48-33.86,6.15-8.54,13.33-16.25,22.41-21.23,7.6-4.17,16.38-6.18,25.39-9.42Zm4.9-112.24c-4.29.56-10.14,1.75-16.01,1.98-9.32.36-14.28,5.82-16.24,13.9-3.06,12.6-5.51,25.37-7.59,38.16-.39,2.37,1.47,6.4,3.52,7.65,10.74,6.52,18.52,16.14,27.58,24.45,11.82,10.83,17.55,24.98,24.67,38.55,2.69,5.14,5.67,10.76,10.05,14.24,7.05,5.6,15.3,9.71,23.17,14.24,6.92,3.98,14.39,3.47,21.66,1.37,5.59-1.61,10.86-4.36,16.42-6.11,11.37-3.57,21.29-9.85,31.25-16.1,3.52-2.21,7.06-4.4,10.41-6.85,2.64-1.93,5.38-3.92,7.39-6.44,3.37-4.2,7.41-8.45,8.99-13.37,3.29-10.28-2.41-17.57-10.44-23.31-4.79-3.43-9.76-6.62-14.44-10.2-11.69-8.95-23.4-17.89-34.84-27.16-13.91-11.28-27.36-23.13-41.39-34.26-6.38-5.06-12.9-10.61-21.84-10.72-6.9-.08-13.81-.02-22.32-.02Zm-467.08,558.98c.35,2.77.64,4.6.8,6.44,1.26,15.02-1.65,28.6-13.44,39.17-4.64,4.16-9.45,8.2-13.67,12.76-7.81,8.43-15.49,17-22.78,25.89-8.29,10.11-15.45,21.07-18.11,34.13-2.03,9.94.84,13.15,10.9,13.13,7.8-.02,14.58,2.4,20.54,7.34,2.2,1.83,4.15,4.08,6.6,5.45,8.77,4.9,17.58,11.06,28.28,7.07,5.55-2.07,10.44-5.92,15.61-9.01,3.28-1.96,6.28-4.93,9.81-5.81,6.33-1.58,13-1.73,19.47-2.83,9.81-1.67,17.59-8.24,14.67-17.13-2.66-8.11-6.41-16.07-10.93-23.31-9.28-14.87-19.61-29.09-29.09-43.84-4.43-6.89-7.08-14.65-6.24-23.11.63-6.38,1.67-12.73,2.06-19.12.1-1.62-1.25-4.38-2.56-4.83-3.58-1.25-7.49-1.55-11.92-2.34Zm100.62,17.16c0,5.33.55,10.05-.13,14.59-.99,6.67-2.8,13.23-4.37,19.81-1.46,6.15.53,11.36,4.47,15.88,3.1,3.56,6.95,6.51,9.84,10.21,8.58,11.01,16.97,22.16,25.17,33.44,3.74,5.15,6.57,10.97,10.36,16.08,5.1,6.88,12.9,9.92,20.46,13.33,10.28,4.63,17.67,3.45,25.25-5,2.47-2.75,4.81-5.71,6.71-8.88,4.21-7.01,9.37-12.37,17.78-14.42,5.25-1.28,8.15-6.73,8.13-12.42,0-1.45.09-2.99.58-4.33,2.59-7.1,5.81-14.01,7.88-21.25,3.01-10.53,1.37-13.85-7-16.27-6.85-1.98-14.03-3.34-21.15-3.83-22.73-1.59-45.68-1.27-67.79-7.8-6.91-2.04-14.97-3.09-18.67-10.53-2.03-4.08-2.46-8.93-3.99-13.29-.68-1.94-2.01-4.68-3.56-5.08-3.11-.8-6.57-.24-9.97-.24Zm293.31-363.94c-2.68-.59-4.65-1.08-6.63-1.45-8.36-1.56-16.25-3.87-21.91-11-5.72-7.2-13.08-12.15-22.23-13.83-6.45-1.18-7.01-.45-7.97,6.15-.49,3.33-1.03,6.74-2.22,9.85-1.79,4.67.39,7.83,3.36,10.7,15.77,15.28,34.75,19.76,56.14,17.19.52-6.24.98-11.75,1.47-17.61Z"/><path class="cls-5" d="m161.76,434.2c4.95,9.5,9.42,17.94,13.75,26.46,7.15,14.07,15.61,27.14,27.7,37.56,9.8,8.45,20.52,12.46,33.84,9.61,11.16-2.39,22.66-3.27,34.02-4.69,13.69-1.71,27.37-3.71,41.12-4.78,16.79-1.31,33.65-1.61,50.46-2.68,10.87-.69,21.68-2.31,32.55-2.92,7.22-.41,14.51.07,21.75.42,24.86,1.23,49.71,2.55,74.56,3.9,12.6.68,25.21,1.37,37.79,2.28,12.47.91,23.77,5.73,35.17,10.49,12.91,5.39,26.07,10.25,39.36,14.62,8.89,2.92,18.09,5.56,27.34,6.59,19.72,2.18,39.2,1,57.85-7.19,10.94-4.8,19.44-12.69,27.65-20.77,10.29-10.13,19.69-21.17,29.68-32.03,7.85,7.7,18.81,12.29,29.48,17.56,11.06,5.47,22.15,7.58,35.33,4.23,0,5.4-.25,10.48.05,15.53.83,14.31,1.94,28.6,2.81,42.9.64,10.46.97,20.93,1.64,31.39.73,11.3,2.25,22.57,2.43,33.87.18,11.25.42,22.79-1.76,33.72-2.17,10.88-7.52,21.1-11.1,31.74-4.92,14.62-13.85,27.05-21.31,40.28-6.69,11.86-16.89,20.63-27.1,29.15-13.31,11.1-26.88,21.96-41.03,31.94-7.86,5.55-17.1,9.19-25.77,13.57-6.13,3.1-12.11,6.84-18.61,8.82-8.6,2.62-17.6,3.99-26.49,5.56-15.26,2.7-30.49,5.9-45.87,7.42-11.34,1.12-22.93.11-34.39-.34-12.08-.47-24.15-1.18-36.19-2.21-12.57-1.07-25.13-2.36-37.63-4.07-16.36-2.24-32.69-4.76-48.95-7.58-12.33-2.14-24.82-4.03-36.73-7.69-14.18-4.36-28.06-9.96-41.63-16-16.59-7.39-32.94-15.41-48.98-23.95-8.1-4.31-15.68-9.87-22.8-15.71-11.46-9.41-23.02-18.88-33.27-29.55-7.62-7.93-13.92-17.37-19.59-26.87-11-18.45-18.8-38.45-25.15-58.91-2.77-8.94-3.79-18.44-5.41-27.71-1.13-6.46-1.95-12.98-2.92-19.47-.15-1-.49-1.99-.46-2.98.17-5.93-.84-6.94-7.12-7.19-30.9-1.22-53.73-15.5-68.7-42.5-2.05-3.69-4.32-7.26-6.18-11.04-1.12-2.27-1.65-4.83-2.03-7.46,14,13.53,30.33,19.45,51.19,17.88-24.28-28.36-20.26-58.89-10.37-91.23Zm141.6,192c-.21.37-.42.75-.64,1.12,2.96,6.15,5.63,12.47,8.97,18.4,2.21,3.92,5.34,7.34,8.13,10.93,8.28,10.65,15.88,21.95,25.07,31.76,14.64,15.64,30.15,30.49,45.67,45.28,8.65,8.24,17.93,15.85,27.15,23.46,12.1,9.97,25.22,18.27,40.06,23.7,5.02,1.84,9.65,5.7,14.72,6.28,13.69,1.55,27.72,3.59,41.27,2.19,19.51-2.02,37.75-9.78,55.93-17.29,10.45-4.32,20.11-9.28,28.27-17.04,10.18-9.7,22.69-16.98,30.38-29.28,1.59-2.53,3.32-4.99,5.14-7.36,6.56-8.54,13.93-16.57,19.63-25.64,10.72-17.08,21.09-34.45,30.47-52.3,7.58-14.43,13.19-29.88,20.31-44.57,3-6.18,1-6.79-3.74-8.39-8.62-2.91-17.1-6.22-25.6-9.49-8.02-3.08-15.8-6.92-24.01-9.36-11.45-3.41-23.18-5.84-34.8-8.67-10.62-2.59-21.13-5.81-31.89-7.56-12.98-2.11-26.17-2.99-39.27-4.34-3.65-.37-7.34-.37-10.98-.79-3.93-.45-7.88-1.91-11.73-1.66-9.7.64-19.39,1.77-29.02,3.11-14.85,2.07-29.58,4.51-44.02,9.04-14.22,4.47-28.85,7.84-43.47,10.79-10.52,2.12-21.31,3.31-32.04,3.9-7.46.41-15.15-2.03-22.5-1.17-11.14,1.3-21.36-1.92-31.63-4.54-8.8-2.24-17.09-6.46-25.61-9.8l-1.05,1.48c22.02,36.31,54.38,61.52,90.72,83.07-2.52.76-4.98,1.14-7.27.69-11.3-2.21-22.56-4.61-33.81-7.03-4.11-.89-8.75-1.11-12.14-3.24-8.47-5.32-18.17-1.82-26.66-5.7Z"/><path class="cls-4" d="m883.03,363.3c-9.01,3.24-17.79,5.25-25.39,9.42-9.09,4.99-16.27,12.7-22.41,21.23-7.46,10.36-13.03,21.66-16.48,33.86-1.95,6.89-2.53,14.16-3.77,21.5-9.36,1.16-16.83-3.25-24.1-8.12-6.27-4.2-12.2-8.97-18.69-12.78-2.92-1.71-6.83-2.22-10.32-2.33-2.99-.1-4.62-.17-4.97-3.79-.41-4.31-1.78-8.52-2.59-12.81-2.29-12.13-4.5-24.28-6.99-37.78,5.65,3.28,9.7,5.55,13.66,7.96,3.59,2.19,5.92-.12,7.74-2.44,2.07-2.64.22-4.59-2.11-6.2-5.69-3.94-11.85-7.4-16.84-12.09-13.69-12.89-25.3-27.46-28.7-46.59-2-11.25-4.36-22.92-3.32-34.11,1.69-18.12,5.91-36.11,17.56-51.04,4.52-5.79,9.53-11.32,14.98-16.23,12.71-11.45,23.94-24.15,34.77-37.37,6.54-7.98,15.03-14.41,22.88-21.27,9.18-8.01,20.36-11.43,32.22-11.08,11.88.35,24.03,1.34,34.95,6.46,12.76,5.98,23.32,14.82,29.81,27.82,1.88,3.76,4.69,7.14,6.08,11.06,3.89,10.98,6.65,22.18,5.47,34.08-.58,5.82-.1,11.75-.1,18.65-12.21,0-23.65-.38-35.06.16-5.99.28-11.98,1.91-17.84,3.43-10.26,2.67-13.69,11.9-16.48,20.22-3.13,9.32-4.02,19.42-5.61,29.23-.81,4.98-.97,10.07-1.47,15.11-.68,6.92,1.61,11.78,7.58,16.21,11.86,8.8,23.86,17.78,31.65,30.83,1.78,2.97,2.83,6.38,3.87,8.79Zm-98.87-101.79c6.87-.13,12.13-5.23,12.03-11.66-.1-6.33-5.27-12.09-10.67-11.88-5.51.22-11.87,9.05-11.72,16.28.09,4.42,4.31,7.38,10.36,7.26Z"/><path class="cls-1" d="m887.93,251.06c8.51,0,15.42-.07,22.32.02,8.94.11,15.46,5.66,21.84,10.72,14.03,11.13,27.48,22.98,41.39,34.26,11.44,9.27,23.15,18.21,34.84,27.16,4.67,3.58,9.64,6.77,14.44,10.2,8.03,5.74,13.73,13.03,10.44,23.31-1.58,4.93-5.62,9.17-8.99,13.37-2.01,2.51-4.76,4.51-7.39,6.44-3.35,2.45-6.89,4.64-10.41,6.85-9.96,6.25-19.88,12.53-31.25,16.1-5.56,1.75-10.82,4.49-16.42,6.11-7.27,2.1-14.74,2.61-21.66-1.37-7.87-4.52-16.12-8.64-23.17-14.24-4.38-3.48-7.35-9.1-10.05-14.24-7.12-13.57-12.85-27.71-24.67-38.55-9.06-8.31-16.84-17.93-27.58-24.45-2.05-1.24-3.91-5.28-3.52-7.65,2.08-12.8,4.53-25.57,7.59-38.16,1.96-8.08,6.92-13.54,16.24-13.9,5.88-.23,11.72-1.42,16.01-1.98Z"/><path class="cls-1" d="m420.85,810.04c4.43.79,8.34,1.09,11.92,2.34,1.3.45,2.65,3.21,2.56,4.83-.39,6.39-1.42,12.74-2.06,19.12-.84,8.47,1.81,16.22,6.24,23.11,9.48,14.75,19.81,28.97,29.09,43.84,4.52,7.24,8.27,15.2,10.93,23.31,2.92,8.89-4.86,15.46-14.67,17.13-6.47,1.1-13.14,1.25-19.47,2.83-3.53.88-6.53,3.85-9.81,5.81-5.16,3.09-10.05,6.94-15.61,9.01-10.7,3.99-19.51-2.16-28.28-7.07-2.45-1.37-4.4-3.63-6.6-5.45-5.95-4.94-12.74-7.36-20.54-7.34-10.07.03-12.93-3.18-10.9-13.13,2.67-13.06,9.82-24.01,18.11-34.13,7.28-8.88,14.97-17.46,22.78-25.89,4.23-4.56,9.03-8.6,13.67-12.76,11.79-10.57,14.7-24.15,13.44-39.17-.15-1.84-.45-3.67-.8-6.44Z"/><path class="cls-1" d="m521.47,827.2c3.39,0,6.86-.56,9.97.24,1.55.4,2.88,3.14,3.56,5.08,1.53,4.37,1.96,9.22,3.99,13.29,3.71,7.44,11.76,8.49,18.67,10.53,22.11,6.53,45.06,6.21,67.79,7.8,7.11.5,14.29,1.85,21.15,3.83,8.38,2.42,10.01,5.74,7,16.27-2.07,7.24-5.29,14.15-7.88,21.25-.49,1.34-.59,2.88-.58,4.33.02,5.7-2.88,11.14-8.13,12.42-8.41,2.05-13.57,7.41-17.78,14.42-1.9,3.16-4.24,6.12-6.71,8.88-7.58,8.45-14.97,9.63-25.25,5-7.56-3.41-15.36-6.44-20.46-13.33-3.79-5.11-6.62-10.93-10.36-16.08-8.2-11.29-16.6-22.44-25.17-33.44-2.89-3.71-6.74-6.65-9.84-10.21-3.93-4.52-5.93-9.73-4.47-15.88,1.56-6.58,3.37-13.14,4.37-19.81.68-4.54.13-9.25.13-14.59Z"/><path class="cls-2" d="m814.78,463.26c-.49,5.86-.95,11.37-1.47,17.61-21.39,2.57-40.37-1.91-56.14-17.19-2.97-2.87-5.14-6.03-3.36-10.7,1.19-3.11,1.73-6.52,2.22-9.85.96-6.59,1.52-7.33,7.97-6.15,9.15,1.68,16.51,6.63,22.23,13.83,5.66,7.13,13.55,9.44,21.91,11,1.99.37,3.95.86,6.63,1.45Z"/><path d="m303.36,626.21c8.49,3.88,18.19.39,26.66,5.7,3.39,2.13,8.02,2.35,12.14,3.24,11.25,2.42,22.51,4.82,33.81,7.03,2.29.45,4.74.06,7.27-.69-36.33-21.56-68.7-46.76-90.72-83.07l1.05-1.48c8.52,3.34,16.81,7.55,25.61,9.8,10.27,2.62,20.49,5.85,31.63,4.54,7.35-.86,15.04,1.58,22.5,1.17,10.73-.59,21.52-1.78,32.04-3.9,14.63-2.95,29.25-6.32,43.47-10.79,14.44-4.53,29.17-6.97,44.02-9.04,9.63-1.34,19.32-2.47,29.02-3.11,3.86-.25,7.8,1.21,11.73,1.66,3.64.42,7.33.41,10.98.79,13.1,1.34,26.29,2.23,39.27,4.34,10.76,1.75,21.27,4.97,31.89,7.56,11.62,2.83,23.35,5.26,34.8,8.67,8.2,2.44,15.99,6.28,24.01,9.36,8.49,3.27,16.98,6.58,25.6,9.49,4.74,1.6,6.74,2.2,3.74,8.39-7.12,14.69-12.73,30.14-20.31,44.57-9.38,17.85-19.75,35.21-30.47,52.3-5.7,9.08-13.07,17.1-19.63,25.64-1.82,2.37-3.55,4.83-5.14,7.36-7.69,12.29-20.2,19.58-30.38,29.28-8.15,7.77-17.82,12.72-28.27,17.04-18.18,7.52-36.42,15.28-55.93,17.29-13.56,1.4-27.58-.64-41.27-2.19-5.07-.57-9.7-4.44-14.72-6.28-14.84-5.43-27.96-13.73-40.06-23.7-9.23-7.61-18.51-15.21-27.15-23.46-15.52-14.79-31.03-29.64-45.67-45.28-9.18-9.81-16.78-21.11-25.07-31.76-2.79-3.59-5.92-7-8.13-10.93-3.34-5.94-6.01-12.25-8.97-18.4.21-.37.42-.75.64-1.12Zm23.2,18.06c-.32.42-.65.84-.97,1.26,6.51,9.13,12.36,18.85,19.72,27.23,8.18,9.32,18.31,16.9,26.57,26.16,17.19,19.27,37.04,35.41,58.5,49.32,14.8,9.59,29.39,20.29,47.05,24.55,6.18,1.49,12.58,2.26,18.93,2.75,9.22.71,18.64,2.07,27.68.92,8.13-1.04,16.14-4.52,23.74-7.96,13.02-5.9,26.54-11.33,38.24-19.32,11.71-8,22.78-17.81,31.75-28.78,15.11-18.48,29.1-38,42.11-58.04,11.6-17.88,20.11-37.56,27.22-57.74,1.68-4.76,1.14-5.8-3.78-6.8-2.31-.47-4.7-.93-6.83-1.88-15.09-6.76-30.33-13.23-45.11-20.61-12.53-6.26-25.51-11.2-39.26-12.97-27.28-3.5-54.77-4.89-82.26-3.41-20.17,1.09-40.5,2.49-59.55,9.83-18,6.93-37.04,8.53-55.61,12.51-15.5,3.32-31.12,3.49-46.84.51-9.01-1.71-18.26-2.16-28.68-3.31,5.13,5.39,9.37,10.74,14.5,15.04,6.82,5.7,14.3,10.62,21.54,15.81,17.69,12.65,35.39,25.29,57.39,29.66,4.31.86,5.29,3.96,4.97,7.19-4.69.82-9.1.75-12.73,2.4-6.79,3.09-13.61,3.26-20.75,2.55-4.03-.4-8.28-.93-12.14-.08-7.84,1.71-14.81-1.81-22.18-2.74-7.78-.98-15.48-2.66-23.22-4.04Z"/><path d="m784.17,261.5c-6.05.12-10.26-2.84-10.36-7.26-.15-7.23,6.2-16.06,11.72-16.28,5.4-.21,10.57,5.54,10.67,11.88.1,6.43-5.16,11.53-12.03,11.66Z"/><path class="cls-3" d="m326.56,644.26c7.74,1.37,15.43,3.05,23.22,4.04,7.37.93,14.34,4.45,22.18,2.74,3.86-.84,8.11-.31,12.14.08,7.14.71,13.95.54,20.75-2.55,3.63-1.65,8.03-1.58,12.73-2.4.32-3.22-.66-6.33-4.97-7.19-22-4.37-39.7-17-57.39-29.66-7.25-5.18-14.73-10.1-21.54-15.81-5.13-4.29-9.38-9.64-14.5-15.04,10.42,1.16,19.67,1.6,28.68,3.31,15.72,2.98,31.34,2.81,46.84-.51,18.57-3.98,37.61-5.58,55.61-12.51,19.06-7.34,39.39-8.75,59.55-9.83,27.5-1.48,54.98-.09,82.26,3.41,13.75,1.76,26.72,6.71,39.26,12.97,14.78,7.38,30.02,13.85,45.11,20.61,2.13.95,4.52,1.41,6.83,1.88,4.92,1,5.46,2.04,3.78,6.8-7.11,20.18-15.62,39.86-27.22,57.74-13,20.03-27,39.55-42.11,58.04-8.96,10.97-20.03,20.78-31.75,28.78-11.7,7.99-25.22,13.42-38.24,19.32-7.6,3.44-15.61,6.92-23.74,7.96-9.05,1.16-18.46-.2-27.68-.92-6.35-.49-12.75-1.26-18.93-2.75-17.66-4.26-32.25-14.97-47.05-24.55-21.47-13.9-41.31-30.05-58.5-49.32-8.26-9.25-18.39-16.84-26.57-26.16-7.36-8.39-13.2-18.1-19.72-27.23.32-.42.65-.84.97-1.26Z"/></svg>