<?xml version="1.0" encoding="UTF-8"?><svg id="Layer_1" xmlns="http://www.w3.org/2000/svg" xmlns:xlink="http://www.w3.org/1999/xlink" viewBox="0 0 1150 1100"><defs><style>.cls-1,.cls-2{fill:#fff;}.cls-3{fill:#6c915a;}.cls-4{fill:#5a3930;}.cls-5{fill:#3a6a32;}.cls-2{filter:url(#drop-shadow-2);}</style><filter id="drop-shadow-2" filterUnits="userSpaceOnUse"><feOffset dx="13.95" dy="13.95"/><feGaussianBlur result="blur" stdDeviation="13.95"/><feFlood flood-color="#000" flood-opacity=".5"/><feComposite in2="blur" operator="in"/><feComposite in="SourceGraphic"/></filter></defs><path class="cls-2" d="m435.05,1057.84c-4.26,0-8.23-.4-12.13-1.23-17.91-3.81-32-15.99-37.7-32.57-5.7-16.59-2.08-34.86,9.7-48.88,2.15-2.55,6.86-8.16,14.2-13.05.95-1.62,2.29-4.29,3.33-6.37,1.2-2.38,2.55-5.08,4.09-7.9,4.48-8.2,7.08-15.75,7.73-22.46,1.5-15.45,3.2-30.59,4.81-44.64.44-3.83,1-7.33,1.49-10.43.45-2.8.87-5.45,1.04-7.37,1.96-22.46,3.61-42.85,5.03-62.32.5-6.91.87-13.86,1.26-21.21.36-6.76.73-13.75,1.22-20.8.46-6.66,1.02-13.25,1.56-19.62.7-8.27,1.36-16.08,1.81-23.83.13-2.18,0-5.41-.13-8.82-.12-3.12-.26-6.66-.25-10.44,0-1.97,0-3.94-.02-5.92-.04-8.01-.08-17.09.62-26.49.78-10.61,1.78-21.14,2.74-31.32.01-.14.03-.29.04-.43-8.24,10.09-19.07,17.61-31.8,21.98-5.88,2.02-11.85,3.05-17.72,3.05s-11.31-.96-16.62-2.85c-10.03-3.56-40.56-14.42-52.04-48.59-4.43-13.18-2.73-24.74-1.92-30.3.51-3.47,1.28-6.91,2.3-10.26-.84-9.26.59-18.58,4.2-27.17-1.42-11.41,1.22-22.92,6.95-32.55.58-3.23,1.31-6.67,2.27-10.24,5.31-19.81,19.32-34.62,38-41.06-8.29-17.51-9.05-36.58-2.28-54.12-.74-8.04.25-16.31,3.15-24.31.07-.19.14-.39.21-.58-2.88-6.17-4.84-12.89-5.72-20.01-1.56-12.64,1.57-23.79,5.82-32.57l-.04-.11c-.19-.5-.41-1-.62-1.51-1.83-4.37-4.9-11.69-6.01-21.12-1.81-15.37,1.29-30.2,9.21-44.27-.74-6.82-1.39-14.87-.68-23.8,2.03-25.57,16.86-47.56,40.7-60.34,2.57-1.38,5.8-3.11,9.64-4.86,1.14-2.98,2.28-5.52,3.2-7.56.32-.72.65-1.43.95-2.14,4.55-10.74,11.21-17.97,15.19-22.29l.22-.24c5.46-5.93,11.89-10.64,19.01-14.01,1.01-1.66,2.1-3.32,3.27-4.99,10.6-15.07,26.05-21.12,34.31-23.38,2.2-.6,5.04-1.38,8.36-2.07,2.3-3.37,4.92-6.89,7.89-10.36,9.86-11.55,22.25-21.3,36.83-29,9.88-5.21,20.95-7.97,32.02-7.97,36.43,0,66.66,28.79,68.82,65.53.05.86.09,1.7.13,2.53,2.95,4.65,5.25,9.74,6.84,15.2,11.31,8.75,19.34,20.69,23.42,34.94.49,1.71.92,3.42,1.3,5.13.05.03,1.28.75,1.28.75,6.71,3.94,15.07,8.84,23.16,15.45,14.1,11.51,30.86,32.72,31.2,68.63,23.85,1.87,46.24,17.31,55.58,38.82,5.15,11.86,7.1,24.37,5.92,36.67,8.75,11.71,13.77,25.89,14.21,40.34.49,15.87-4.29,31.14-13.8,44.16-5.52,7.56-12.05,12.41-17.37,15.57-.94,2.3-2,4.52-3.19,6.66,11.23,11.5,17.64,27.14,18.34,45.85,1.29,34.34-20.14,55.12-28.21,62.94-.07.07-.14.13-.21.2-1.17,12.18-4.59,23.76-10.23,34.62-12.67,24.38-33.09,41.64-59.05,49.91-8.77,2.79-16.57,3.12-21.68,3.12-1.44,0-2.88-.03-4.33-.07-.34,0-.69-.02-1.03-.03-9.43,5.69-20.22,8.65-31.76,8.65-1.77,0-3.53-.07-5.31-.21-.73,15.18-1.27,28.76-1.52,42.33-.13,6.66.13,13.75.4,21.27.17,4.72.35,9.59.44,14.6.07,3.93-.15,7.37-.31,9.88-.05.84-.13,2-.13,2.4.01,1.43.12,3.41.23,5.51.13,2.44.28,5.2.34,8.2.1,5.05.15,10.07.2,14.93.09,8.5.17,16.52.49,24.43.32,8.07.83,16.17,1.38,24.74.41,6.56.84,13.34,1.18,20.18.23,4.7.25,9.11.26,13.01,0,3.13.02,6.08.14,8.57.29,5.88.67,11.76,1.07,17.99.38,5.8.76,11.79,1.08,17.84.3,5.86-.36,10.62-.78,13.38-.3,11.12.44,18.21,2.4,23.51,1.52,4.08,2.43,7.7,3.03,10.09.1.39.19.79.3,1.18,1.02,2.72,3.56,6.1,7.94,10.59,7.98,8.19,14.86,16.78,20.92,24.36,1.22,1.53,2.44,3.05,3.67,4.57,8.7,10.77,13.15,25.87,11.61,39.42-1.44,12.7-7.72,24-17.68,31.83-5.43,4.26-18.1,14.2-36.77,14.52-.52,0-1.04.01-1.56.01-6.58,0-12.32-.7-16.92-1.26-2.11-.26-4.1-.5-5.36-.57-4.33-.23-8.65-.48-12.98-.73-15.41-.88-29.97-1.72-44.36-1.8h-.35c-4.89,0-10.82.61-17.1,1.27-5.78.6-11.76,1.22-18.27,1.55-8.38.42-16.42.48-24.19.54-4.88.04-9.5.07-14.02.19-11.55.31-23.38.7-34.82,1.08-6.48.22-12.97.43-19.45.64h-.2c-1,.04-2.01.06-3.01.06Z"/><path d="m713.01,429.05c.77,6.08,1.4,11.05,2.06,16.24,1.46-.56,3.13-1,4.61-1.79,6.15-3.31,12.08-.89,17.42,1.56,2.12.97,3.15,5.37,3.7,8.39.56,3.1,1.13,4.59,4.76,5.46,12.1,2.89,17.05,8.34,17.54,21.25.47,12.48-6.31,20.24-14.11,27.81-3.78,3.67-8.58,6.27-12.48,9.84-1.37,1.25-2.2,4.03-1.95,5.93,1.42,10.87.23,21.13-4.9,31-6.98,13.44-17.68,22.51-31.89,27.04-4.7,1.5-10.15.69-15.26.84-6.8.19-13.57-.38-19.33,4.9-4.5,4.12-10.12,4.39-16.26,2.96-12.27-2.85-16.88-10.25-18.34-22.56-1.06-8.95-.22-16.57,4.16-23.98-5.23-3.32-6.1-3.24-9.25,1.4-5.31,7.84-10.61,15.7-15.62,23.73-1.45,2.32-2.49,5.21-2.71,7.92-1.24,14.91-2.39,29.83-3.16,44.77-.99,19.07-1.89,38.16-2.25,57.26-.24,12.52.62,25.05.84,37.58.07,3.9-.48,7.81-.45,11.71.04,4.79.48,9.57.58,14.35.26,13.43.18,26.88.72,40.3.6,15.13,1.83,30.24,2.58,45.37.36,7.17.04,14.37.39,21.54.59,11.99,1.54,23.96,2.15,35.95.13,2.61-.68,5.26-.77,7.9-.49,14.53.09,28.93,5.24,42.8,1.19,3.2,1.72,6.64,2.83,9.87,3.78,11.03,10.61,19.93,18.72,28.25,7.81,8.02,14.68,16.98,21.74,25.71,1.12,1.39,2,4.95,1.38,5.44-2.61,2.05-5.81,4.54-8.84,4.6-6.84.12-13.69-1.38-20.56-1.75-19.85-1.06-39.7-2.48-59.56-2.6-12.76-.07-25.52,2.23-38.31,2.87-12.35.62-24.75.35-37.12.68-18.16.48-36.32,1.16-54.49,1.73-1.41.04-2.86.11-4.22-.18-3.78-.8-4.57-3.06-2.06-6.05,1.4-1.67,2.93-3.42,4.78-4.51,11.77-6.92,16.13-19.59,22.05-30.43,6.73-12.31,11.81-25.83,13.21-40.26,1.42-14.63,3.05-29.24,4.72-43.85.73-6.36,2.1-12.66,2.65-19.03,1.84-20.99,3.55-41.99,5.08-63,1.02-14.04,1.52-28.12,2.5-42.17,1.02-14.67,2.55-29.3,3.4-43.98.42-7.27-.32-14.59-.31-21.89.01-9.68-.24-19.4.48-29.04,1.41-19.14,3.57-38.22,5.06-57.35.5-6.34-.01-12.77-.23-19.16-.1-2.92-.58-5.82-.88-8.56-5.96.58-11.95,1.85-17.86,1.56-5.88-.28-11.69-2.12-18.63-3.49-1.75,2.68-5.21,5.91-10.53,4.88-4.4-.85-9.66,2.64-12.91-2.69-9.39,3.43-16.62,9.04-21.65,17.38-3.03,5.03-7.41,8.38-12.9,10.27-1.14.39-2.59.74-3.64.37-10.23-3.64-19.77-8.36-23.54-19.58-.88-2.63-.41-5.86.01-8.73.38-2.58,1.2-5.24,2.44-7.53,2.22-4.09,1.47-7.84.43-12.1-1.76-7.24,3.99-11.21,7.47-15.09-1.33-5.27-2.77-10.12-3.68-15.06-.25-1.35.66-3.8,1.74-4.33,3.37-1.65,3.32-4.48,3.73-7.45.62-4.48,1.31-9,2.48-13.36,1.69-6.29,6.08-9.43,12.52-10.05,12.56-1.2,22.69,3.11,30.48,13,.57.72,1.2,1.39,1.83,2.12,2.14-1.2,4.01-2.6,6.11-3.37,6.08-2.22,13.3,1.66,16.98,8.46,1.96,3.61,3.82,4.98,8.12,4.85,4.04-.12,8.26,1.43,12.19,2.83,2.58.91,4.03.75,6.08-1.26,2.87-2.8,6.12-5.74,9.77-7.12,8.76-3.31,10.49-9.97,11.44-18.23,1.23-10.64-1.94-19.76-7.35-28.4-5.03-8.04-10.39-15.87-15.53-23.84-.83-1.28-1.24-2.83-1.85-4.25-.96-2.2-1.93-4.39-2.36-5.37-2.55,1.87-4.97,3.47-7.19,5.31-10.22,8.49-21.25,8.17-32.51,2.72-4.65-2.25-9.87-3.42-12.83-8.84-4.29-7.83-4.3-15.2.03-22.7,1.79-3.1,4.11-5.89,6.41-9.14-4.55-2.95-6.27-8.04-4.69-12.42,2.25-6.22,6.89-11.17,13.77-11.18-.25-3.71-.84-7.31-.63-10.87.17-2.89-.6-4.33-3.43-5-7.9-1.88-11.92-8.06-12.78-15.07-.48-3.88,2.44-8.94,5.22-12.32,6.93-8.4,15.24-15.29,26.08-18.37.5-.14.88-.76,2.11-1.88-4.35.61-7.7,1.33-11.08,1.5-9.01.46-16.07-4.21-19.3-12.6-1.44-3.75-3.4-7.49-3.86-11.38-1.12-9.52,3.33-17.14,9.35-24.17,1.24-1.45,1.39-4.27,1.25-6.41-.58-9.48-2.64-19.03-1.9-28.38.81-10.18,6.89-17.98,16.31-23.03,8.22-4.41,16.37-8.4,26.06-7.35,2.66.29,3.61-1.18,3.41-3.74-.19-2.47-.04-4.96-.24-7.42-.57-6.98,2.86-12.87,5.41-18.89,1.45-3.42,4.23-6.38,6.81-9.19,3.62-3.93,8.44-5.31,13.69-5.05,2.58.13,3.65-.79,4.66-3.36,2.09-5.32,4.49-10.68,7.76-15.32,1.79-2.54,5.4-4.41,8.54-5.27,7.54-2.06,15.34-4.13,22.87,1.69,2.22-4.96,3.88-9.64,6.32-13.86,3.01-5.2,6.28-10.37,10.16-14.92,6.44-7.54,14.36-13.41,23.16-18.06,14.46-7.63,31.72,2.39,32.72,19.17.36,6.08.06,12.2.06,19.24,11.7,4.56,9.96,15.11,7.77,26.04,10.95,2.25,20.8,5.34,24.26,17.45,3.02,10.58,1.01,20.25-5,30.42,4.21-.93,7.11-1.81,10.07-2.18,6.33-.79,12.19,1.14,17.51,4.27,6.34,3.73,12.8,7.43,18.47,12.06,10.59,8.65,14.14,20.57,14.11,33.91-.03,10.85-.11,21.61-4.43,31.89-.68,1.62.16,3.88.3,5.84,1.74-.13,3.61.09,5.21-.46,9.11-3.16,16.75-.26,23.23,5.97,3.92,3.76,7.15,5.39,12.74,2.72,6.98-3.33,19.12,2.6,22.37,10.08,4.18,9.63,2.9,18.86-2.76,27.53-2.3,3.53-1.46,6.51,2.18,8.9,3.9,2.56,8.18,5.03,11.09,8.53,7.38,8.87,7.75,20.91.92,30.26-2,2.74-5.94,4.19-9.18,5.86-2.34,1.2-5.08,1.61-7.47,2.74-1.11.53-2.22,1.81-2.6,2.99-1.1,3.39-2.03,6.87-2.65,10.38-1.44,8.29-8.54,13.71-16.46,12.96-7.63-.72-13.21,1.08-17.71,7.27-1.4,1.92-3.91,3.03-5.16,3.95Zm-236.04-.67c3.03,5.08,5.6,9.16,7.93,13.37,7.49,13.5,15.16,26.9,22.2,40.63,2.98,5.81,4.75,12.1,2.2,19.05-1.46,3.98-1.92,8.66-1.48,12.89.28,2.76-.55,3.72-2.4,4.72-2.74,1.47-5.52,2.86-8.32,4.24-3.64,1.79-7.36,3.4-10.92,5.34-1.2.65-1.99,2.04-2.97,3.09,1.34.2,2.67.47,4.01.58,1.54.13,3.17-.17,4.63.21,12.35,3.21,18.54,15.64,12.92,27.14-3.79,7.76-4.19,15.95-3.42,23.87,1.5,15.44.27,30.67-1.26,45.94-.84,8.33-2.49,16.62-2.81,24.96-.59,15.19-.42,30.41-.63,45.61-.2,14.54-.39,29.09-.74,43.63-.22,9.08-.54,18.17-1.16,27.24-.96,14.06-2.18,28.09-3.34,42.14-.28,3.42-.68,6.84-1.18,10.23-1.19,8.02-2.82,16-3.64,24.06-1.57,15.24-2.39,30.56-4.09,45.78-1.77,15.83-2.97,31.87-6.7,47.27-3.77,15.57-10.15,30.52-15.75,45.61-2.55,6.86-7.11,12.44-13.46,16.37-.41.26-.55.96-1.09,1.97,5.02,0,9.55.41,13.98-.08,13.84-1.51,27.63-3.48,41.46-5.02,7.24-.8,14.54-.97,21.8-1.61,16.99-1.5,33.96-3.23,50.96-4.64,6.16-.51,12.4-.69,18.57-.39,5.75.28,11.44,1.48,17.17,2.13,3.83.43,7.77.22,11.53.94,7.5,1.44,14.91,3.32,22.36,5.01.18-.38.36-.76.54-1.14-2.25-2.35-4.34-4.87-6.76-7.02-9.26-8.23-18.05-17-23.92-27.95-4.37-8.16-7.06-17.22-10.93-25.67-4.02-8.77-4.92-18.08-5.35-27.44-.51-11.08-.42-22.18-.64-33.27-.24-11.57-.52-23.14-.83-34.71-.14-5.15-.26-10.31-.58-15.45-.56-8.87-1.55-17.72-1.87-26.6-.48-13.15-.36-26.32-.83-39.47-.34-9.39-1.27-18.75-1.84-28.14-.4-6.68-.66-13.36-.93-20.04-.13-3.28-.28-6.56-.22-9.83.3-16.29.5-32.58,1.06-48.87.32-9.23,1.28-18.45,1.89-27.67.29-4.35.45-8.71.61-13.07.09-2.49-.22-5.02.14-7.45,1.64-10.98,3.15-22,5.3-32.89,1.75-8.84,3.72-17.73,9.7-25.03,3.65-4.46,7.13-9.05,10.65-13.61.66-.85,1.47-1.74,1.72-2.74,1.33-5.3,2.65-10.61,3.63-15.98.3-1.65-.48-3.5-.77-5.26-1.41.45-2.85.81-4.22,1.36-1.31.52-2.56,1.2-3.8,1.87-8.32,4.5-15.71,9.8-17.65,19.99-.22,1.14-1.37,2.09-2.09,3.13-.72-1.22-2.08-2.45-2.07-3.66.12-11.75.57-23.49.69-35.23.03-3.26-.74-6.53-1.24-10.61-2.63,1.55-4.24,2.43-5.79,3.43-6.24,4.01-21.12,3.39-25.83-1.52-4.57-4.76-7.91-10.38-9.62-16.89-1.56-5.95-2.28-12.08-6.39-17.3-1.65-2.1-2.32-6.34-1.39-8.86,2.64-7.2,7.88-12.53,14.43-16.71,4.26-2.72,8.07-6.16,11.12-8.54-4.3-4.23-8.65-7.43-11.51-11.63-2.94-4.32-4.42-9.64-6.18-13.69-5.66,0-11.64-.11-17.62.07-1.61.05-3.54.61-4.72,1.63-2.7,2.36-5.06,5.11-7.48,7.77-1.1,1.2-2.8,2.51-2.9,3.87-.68,9.37-1.12,18.76-1.33,28.15-.04,1.62.96,3.64,2.14,4.83,3.52,3.56,3.95,7.5,2.5,12.28-1.06-.56-1.98-.85-2.65-1.43-8.42-7.23-17.34-13.99-25.04-21.92-5.61-5.78-11.29-3.15-17.5-3.35Zm270.79-94.96c6.91-3.08,9.57-8.42,8.06-16.01-1.77-8.89-6.46-12.26-15.43-10.69-3.2.56-6.39,1.61-9.37,2.91-2.74,1.19-3.72.4-4.14-2.27-.26-1.63-.38-3.59-1.36-4.74-5.54-6.54-13.04-7.75-20.69-3.65-3.7,1.98-7.4,1.23-9.8-2.2-2.2-3.14-4.22-6.42-6.43-9.82,5.04-8.85,5.32-18.8,5.52-28.67.4-20.16-10.08-34.34-26.67-43.81-12.54-7.16-25.81-3.75-38.63,1.02-2.39.89-5.21.62-7.83.88l-.19-1.45c.63-.44,1.27-.87,1.88-1.33,8-5.93,15.45-12.27,17.85-22.63,1.74-7.49-.22-14.21-5.34-19.55-5.46-5.69-11.77-10-20.49-6.4-1.84.76-4.19.31-6.3.41-.15-.48-.29-.96-.44-1.44,1.35-1.64,2.91-3.16,4.02-4.95,3.23-5.17,7.34-10.1,5.42-16.95-.95-3.41-2.76-5.38-6.69-5.18-5.28.27-6.15-1.35-4.77-6.38,1.18-4.32,2.26-8.82,2.39-13.27.45-15.38-12.28-24.05-25.35-17.6-14.09,6.95-22.78,18.8-29.21,32.52-2.2,4.71-4.58,9.54-3.69,15.26.23,1.48-1.73,3.41-2.95,4.92-.19.24-2.15-.38-2.68-1.08-3.7-4.8-9.1-5.99-14.52-6.62-15.03-1.76-20.66,10.3-16.64,19.72.39.93.43,2,.84,4-3.5-.48-6.42-.59-9.17-1.32-4.58-1.22-8.26-.16-11.56,3.18-10.17,10.26-12.89,22.49-9.98,36.33.43,2.03.41,4.16.63,6.56-3.19.2-5.7.64-8.16.47-11.7-.84-21.39,3.95-30.33,10.7-4.74,3.58-10.02,7.43-9.6,14.09.54,8.55,2.12,17.05,3.51,25.53.15.93,1.95,1.61,3.01,2.39,1.17.85,2.36,1.68,3.54,2.51-1.08,1.04-1.99,2.44-3.27,3.05-7.5,3.59-12.34,9.08-14.46,17.34-3.11,12.12,6.05,22.75,18.35,20.9,4.13-.62,8.36-.61,12.47-1.31,5.33-.9,10.6-2.18,15.87-3.38.53-.12,1.11-.71,1.36-1.23,2.59-5.3,7.52-6.29,12.61-6.81,7.28-.74,15.01.29,19.85,5.29,4.46,4.61,8.7,4.44,13.95,4.71,3.68.19,7.97,1.4,10.74,3.68,6.88,5.66,9.25,13.52,8.12,22.38-.31,2.43-.58,4.86-.92,7.81,8-.17,11,4.22,11.81,10.98.83,6.92-.61,13.25-3.32,19.66-1.96,4.63-5.22,6.53-9.53,7.25-5.26.89-5.42.9-3.93,7.61,5.22-1.19,10.73-1.71,15.63-3.73,10.15-4.19,10.9-3.67,10.61,7.48-.24,9.33,2.79,15.08,10.81,17.61,3.16,1,5.32.93,7.04-2.24,3.04-5.61,6.79-10.69,11.75-14.82,6.95-5.79,14.49-9.59,23.93-8.83,12.44,1,21.18,7.8,27.91,17.56,2.15,3.11,4.13,4.38,7.7,2.93,9.64-3.94,19.12-2.47,27.98,1.99,7.82,3.94,16.64,7.11,20.05,16.61.22.61,1.45,1.2,2.23,1.22,7.96.2,14.34-6.07,14.9-14.31.07-1.09.75-2.39,1.58-3.05.39-.31,1.84.59,2.75,1.05,2.59,1.3,5.06,3.55,7.73,3.82,9.64.96,17.74-9.5,15.52-19.71-.58-2.67-1.14-5.35,2.1-6.2,4.35-1.14,8.87-2.37,13.3-2.28,8.53.17,14.48-7.08,11.98-15.25-2.15-7.05-6.05-12.05-13.46-14.38-2.78-.88-6-3.2-7.16-5.72-1.78-3.85-1.95-8.44-2.87-13.06Zm-43.33,114.43s-.02,0-.03,0c.16-1.88.4-3.75.45-5.63.18-6.21-4.41-9.54-10.25-7.47-6.09,2.16-8.13.29-7.08-6.26.28-1.74.62-4.03-.22-5.32-7.66-11.75-23.58-15.79-35.64-9.87-7.06,3.46-8.73,3.27-12.49-3.53-3.64-6.56-8.2-12.27-16.14-12.98-5.68-.51-11.63-.39-17.19.76-14.6,3.04-20.37,10.62-20.53,25.52-.05,4.58-2.52,6.74-7.1,5.9-3.82-.7-6.42,1.3-7.5,4.25-1.15,3.12-3.02,3.65-5.81,4.19-7.45,1.44-11.44,6.35-11.42,13.82,0,1.4.73,3.33,1.78,4.08,2.84,2.01,3.01,4.37,2.32,7.42-1.64,7.21,4.05,17.85,13.19,19.29,7.24,1.14,13.91.3,20.28-3.62,1.91-1.18,4.78-1.72,6.9-1.23.97.22,1.63,3.63,1.7,5.62.23,6.37,2.76,11.36,7.04,12.73,5.94,1.9,11.89,3.75,17.88,5.49,5.89,1.72,8.9,6.32,7.79,12.36-.53,2.93-1.18,5.84-1.76,8.77-1.78,9.07-.28,11.3,8.82,13.15,4.33.88,5.79,3.08,4.36,6.47-1.5,3.57-2.8,7.24-4.45,10.74-3.63,7.75-2.47,15.31.89,22.68,1.8,3.96,5.35,6.9,9.57,6.44,3.73-.4,8.55-1.96,10.51-4.7,2.31-3.23,4.56-4.59,8.06-5.03,3.3-.41,6.61-1.4,9.87-1.23,5.61.29,11.34,2.48,16.73,1.73,12.86-1.78,21.27-10.3,26.38-21.68,3.99-8.88,2.99-18.41.71-27.68-1.74-7.1-1.58-7.49,4.98-10.83,9.45-4.81,16.74-11.86,21.44-21.47,5.5-11.24.94-19.35-11.71-20.75-2.91-.32-4.58-1.47-4.47-4.76.35-10.5-4.78-14-14.41-9.92-1.44.61-2.7,1.74-4.18,2.11-2.21.56-4.67,1.27-6.77.8-2.96-.67-3.19-3.44-2.83-6.14.18-1.4.2-2.82.3-4.23Zm-201.79-43.08c2.8-1.05,5.81-2.05,8.73-3.28,11.18-4.71,15.38-12.32,13.26-23.88-1.06-5.77.32-7.65,6.24-7.25,5.38.37,8.95-2.15,11.93-6.06,2.83-3.73,1.69-11.61-2.35-13.74-2.06-1.09-4.93-.53-7.23-1.32-1.52-.52-3.87-2.25-3.76-3.21.38-3.52,1.37-7.04,2.63-10.37,2.53-6.72-1.11-12.28-3.37-17.91-1.65-4.1-6.28-2.91-9.7-2.99-2.36-.06-4.82,1.1-7.13,2.01-2.4.95-4.16,1.3-4.89-1.96-1.93-8.67-10.71-10.3-18.49-8.8-3.59.69-5.9,2.77-6.49,6.47-.55,3.44-2.72,3.92-5.8,3.89-3.82-.04-7.73.21-11.42,1.09-1.43.34-3.42,2.79-3.34,4.17.21,3.73-2.03,4.3-4.64,5.29-9.27,3.53-18.28,7.6-24.52,15.78-1.07,1.41-1.77,3.67-1.56,5.39.95,7.52,5.05,11.12,12.72,11.76,5.52.46,6.81,2.44,4.39,7.28-1.82,3.63-2.88,6.76,2.05,8.76.78.32,1.27,1.34,1.9,2.04,3.16,3.56,2.38,6.04-2.16,7.23-3.9,1.02-7.91,1.86-11.59,3.45-5.43,2.34-6.3,4.38-4.29,9.99,1.62,4.53,1.37,8.14-1.79,12.11-4.7,5.92-5.51,14.83-2.56,18.95,3.97,5.55,16.01,10.4,22.26,8.23,8.37-2.91,15.15-7.88,18.49-16.69.51-1.35,2.84-2.98,4.2-2.87,7.95.63,10.23-1.41,9.46-9.23-.58-5.83,3.25-8.9,8.77-7.13,3.09.99,6.25,1.78,10.04,2.85Zm-25.29,170.24c.17-.31.33-.62.5-.92,2.28-.44,4.86-.34,6.77-1.43,6.59-3.74,11.64-9.11,13.78-16.53,1.88-6.51-1.78-12.25-8.27-13.27-2.56-.4-5.27-.04-7.89.19-2.77.24-4.38-.27-5.74-3.3-1.2-2.69-3.99-5-6.6-6.63-1.8-1.12-4.49-.85-6.8-1.11-3.87-.45-8.23.09-11.44-1.59-2-1.04-2.24-5.41-3.32-8.27-1.61-4.27-5.01-5.44-8.71-2.8-1.36.97-2.14,2.73-3.46,3.77-1.61,1.27-3.57,3.01-5.29,2.91-1.2-.07-2.33-2.84-3.3-4.51-.67-1.15-.96-2.53-1.52-3.75-3.21-6.94-9.55-9.35-16.24-11.48-10.66-3.4-19.98,4.01-19.04,15.23.12,1.42-.4,2.99-.93,4.36-2.16,5.55-4.94,10.99,1.46,15.88,1.51,1.15,2.47,3.27,3.19,5.13,1.15,2.93.37,5.17-3.06,6.04-9.08,2.31-10.01,5.1-3.86,12.21,2.31,2.67,2.17,4.42-.67,6.52-1.97,1.45-3.62,3.42-5.15,5.37-2.94,3.74-3.9,10.68-1.18,13.16,4.24,3.85,8.91,7.37,13.87,10.19,1.76,1,5.93.47,7.23-.96,3.35-3.68,5.57-8.36,8.52-12.44,1.2-1.65,2.91-3.53,4.73-4.03,5.52-1.51,10.22-3.45,11.86-9.72,1.14-4.36,2.51-4.61,6.2-1.85,1,.75,2.09,1.38,3.08,2.14,6.17,4.74,12.23,5.01,15.26-2.67,1.69-4.27,4.13-3.92,7.81-2.34,5.91,2.54,12.11,4.38,18.19,6.52Zm33.14-139.98c.83-8.51,1.55-15.83,2.35-23.94h-19.76c-2.45,6.28-1.73,9.05,3.6,13.3,2.69,2.14,5.14,4.59,7.82,6.75,1.59,1.28,3.43,2.25,5.99,3.89Zm101.56,72.76c-3.8-1.43-6.71-2.53-10.14-3.82-.22,3.75-.41,6.85-.67,11.25,4.02-2.76,7.11-4.89,10.81-7.42Z"/><path class="cls-4" d="m476.97,428.38c6.21.2,11.89-2.43,17.5,3.35,7.7,7.93,16.61,14.7,25.04,21.92.67.58,1.59.87,2.65,1.43,1.45-4.78,1.02-8.72-2.5-12.28-1.17-1.19-2.17-3.21-2.14-4.83.22-9.39.66-18.78,1.33-28.15.1-1.36,1.8-2.66,2.9-3.87,2.42-2.66,4.78-5.41,7.48-7.77,1.17-1.02,3.11-1.58,4.72-1.63,5.98-.19,11.96-.07,17.62-.07,1.76,4.06,3.25,9.37,6.18,13.69,2.86,4.21,7.21,7.4,11.51,11.63-3.06,2.38-6.86,5.82-11.12,8.54-6.55,4.18-11.79,9.51-14.43,16.71-.92,2.52-.26,6.76,1.39,8.86,4.11,5.22,4.83,11.35,6.39,17.3,1.7,6.5,5.05,12.12,9.62,16.89,4.71,4.91,19.59,5.53,25.83,1.52,1.54-.99,3.16-1.88,5.79-3.43.5,4.08,1.27,7.35,1.24,10.61-.12,11.75-.57,23.49-.69,35.23-.01,1.21,1.35,2.44,2.07,3.66.72-1.04,1.88-2,2.09-3.13,1.95-10.19,9.33-15.48,17.65-19.99,1.24-.67,2.49-1.35,3.8-1.87,1.37-.55,2.81-.91,4.22-1.36.29,1.76,1.07,3.61.77,5.26-.98,5.37-2.3,10.68-3.63,15.98-.25,1-1.06,1.89-1.72,2.74-3.53,4.56-7,9.15-10.65,13.61-5.98,7.3-7.95,16.19-9.7,25.03-2.15,10.89-3.66,21.91-5.3,32.89-.36,2.44-.05,4.97-.14,7.45-.16,4.36-.33,8.72-.61,13.07-.61,9.23-1.57,18.44-1.89,27.67-.56,16.28-.76,32.58-1.06,48.87-.06,3.28.09,6.56.22,9.83.27,6.68.53,13.37.93,20.04.57,9.38,1.5,18.75,1.84,28.14.47,13.15.35,26.32.83,39.47.32,8.88,1.31,17.73,1.87,26.6.33,5.14.45,10.3.58,15.45.3,11.57.59,23.14.83,34.71.23,11.09.14,22.2.64,33.27.43,9.36,1.33,18.67,5.35,27.44,3.87,8.46,6.55,17.51,10.93,25.67,5.86,10.95,14.66,19.72,23.92,27.95,2.42,2.15,4.52,4.67,6.76,7.02-.18.38-.36.76-.54,1.14-7.45-1.7-14.86-3.58-22.36-5.01-3.76-.72-7.7-.51-11.53-.94-5.73-.64-11.43-1.84-17.17-2.13-6.17-.3-12.41-.12-18.57.39-17,1.4-33.97,3.13-50.96,4.64-7.26.64-14.56.8-21.8,1.61-13.84,1.54-27.62,3.51-41.46,5.02-4.43.48-8.96.08-13.98.08.54-1.01.68-1.71,1.09-1.97,6.35-3.94,10.91-9.52,13.46-16.37,5.6-15.09,11.98-30.04,15.75-45.61,3.73-15.4,4.93-31.45,6.7-47.27,1.7-15.22,2.52-30.54,4.09-45.78.83-8.06,2.46-16.03,3.64-24.06.5-3.4.9-6.81,1.18-10.23,1.16-14.04,2.39-28.08,3.34-42.14.62-9.06.94-18.15,1.16-27.24.35-14.54.54-29.08.74-43.63.21-15.21.05-30.42.63-45.61.32-8.34,1.97-16.63,2.81-24.96,1.53-15.27,2.77-30.5,1.26-45.94-.77-7.92-.37-16.11,3.42-23.87,5.61-11.5-.58-23.93-12.92-27.14-1.46-.38-3.09-.08-4.63-.21-1.34-.11-2.67-.38-4.01-.58.98-1.05,1.77-2.44,2.97-3.09,3.56-1.93,7.28-3.55,10.92-5.34,2.79-1.37,5.57-2.77,8.32-4.24,1.85-.99,2.69-1.95,2.4-4.72-.43-4.23.02-8.91,1.48-12.89,2.55-6.95.78-13.24-2.2-19.05-7.05-13.73-14.71-27.13-22.2-40.63-2.34-4.21-4.91-8.29-7.93-13.37Zm31.02,328.09c-.34.97-.7,1.53-.72,2.1-.28,9.87-.45,19.74-.78,29.61-.52,15.61.43,31.38-4.58,46.52-1.31,3.97-4.37,7.6-4.77,11.57-.69,6.93-.14,14.01.28,21.01.69,11.4,2.75,22.74.21,34.18-1.66,7.45-2.91,15-4.45,22.48-.71,3.45.39,6.48,3.69,6.97,3.42.5,2.57-3.05,3-5.2.71-3.53,1.4-7.07,2.33-10.54,2.82-10.62,5.29-21.27,4.41-32.38-.63-7.93-2.45-15.98-1.66-23.76.89-8.72,3.89-17.28,6.42-25.78,3.32-11.16,3.1-22.61,3.34-34.01.25-11.88.13-23.76-.08-35.64-.07-3.74-2.08-6.46-6.63-7.13Zm67.42-62.99l1.31-.43c.4-1.13.93-2.24,1.18-3.4,2.45-11.25.2-22.36-.69-33.57-.54-6.89-.11-14.13,1.44-20.85,2.08-9.04,4.61-17.9,3.96-27.27-.12-1.79-1.07-3.53-1.63-5.29-1.44,1.3-3.03,2.46-4.25,3.94-.6.73-.57,2.02-.71,3.07-.45,3.25-.92,6.5-1.27,9.76-1.27,11.77-3.24,23.53-3.53,35.33-.28,11.5,1.09,23.04,1.94,34.55.11,1.44,1.47,2.79,2.25,4.17Zm1.06-105.38c.36.51,1.24,1.73,2.12,2.95.77-1.21,2.08-2.35,2.23-3.63.76-6.2,1.52-12.43,1.7-18.67.36-12.18.22-24.37.52-36.55.16-6.39.94-12.77,1.1-19.16.04-1.38-1.36-2.8-2.1-4.2-.87.46-2.31.74-2.53,1.42-1.21,3.67-2.78,7.41-2.99,11.19-.45,7.89-.13,15.81-.11,23.72.01,6.72.05,13.44.06,20.16.01,7.18,0,14.36,0,22.76Zm-65.26,141.14c-.27,0-.54.02-.81.03,0,2.35-.31,4.76.13,7.03.22,1.18,1.75,2.11,2.69,3.15.78-1.14,2.21-2.27,2.24-3.43.2-7.82.25-15.66.07-23.48-.36-15.33-1.48-30.67,1.44-45.91.23-1.19-.9-2.64-1.39-3.98-1.39,1.3-3.72,2.42-4,3.92-1.06,5.65-2.05,11.44-1.97,17.16.23,15.17,1.04,30.34,1.62,45.51Z"/><path class="cls-3" d="m747.76,333.42c.92,4.62,1.09,9.21,2.87,13.06,1.16,2.52,4.38,4.84,7.16,5.72,7.41,2.33,11.31,7.33,13.46,14.38,2.5,8.17-3.45,15.42-11.98,15.25-4.42-.09-8.95,1.14-13.3,2.28-3.25.85-2.68,3.53-2.1,6.2,2.22,10.2-5.87,20.67-15.52,19.71-2.68-.27-5.15-2.52-7.73-3.82-.91-.46-2.36-1.36-2.75-1.05-.83.66-1.5,1.97-1.58,3.05-.55,8.24-6.94,14.51-14.9,14.31-.78-.02-2.01-.61-2.23-1.22-3.42-9.5-12.23-12.67-20.05-16.61-8.86-4.47-18.35-5.93-27.98-1.99-3.57,1.46-5.55.18-7.7-2.93-6.74-9.75-15.47-16.56-27.91-17.56-9.44-.76-16.99,3.05-23.93,8.83-4.96,4.13-8.72,9.21-11.75,14.82-1.71,3.17-3.88,3.23-7.04,2.24-8.03-2.53-11.05-8.27-10.81-17.61.29-11.15-.45-11.66-10.61-7.48-4.89,2.02-10.41,2.54-15.63,3.73-1.49-6.71-1.33-6.72,3.93-7.61,4.31-.72,7.57-2.62,9.53-7.25,2.72-6.41,4.15-12.74,3.32-19.66-.81-6.75-3.81-11.15-11.81-10.98.35-2.95.61-5.38.92-7.81,1.13-8.86-1.24-16.72-8.12-22.38-2.77-2.28-7.06-3.49-10.74-3.68-5.26-.27-9.49-.1-13.95-4.71-4.84-5-12.56-6.03-19.85-5.29-5.09.52-10.02,1.51-12.61,6.81-.25.52-.84,1.11-1.36,1.23-5.28,1.2-10.54,2.48-15.87,3.38-4.11.69-8.34.69-12.47,1.31-12.3,1.84-21.46-8.79-18.35-20.9,2.12-8.27,6.96-13.75,14.46-17.34,1.28-.61,2.19-2.02,3.27-3.05-1.18-.84-2.37-1.66-3.54-2.51-1.05-.77-2.85-1.45-3.01-2.39-1.39-8.48-2.96-16.98-3.51-25.53-.42-6.65,4.86-10.51,9.6-14.09,8.94-6.75,18.64-11.54,30.33-10.7,2.46.18,4.96-.26,8.16-.47-.22-2.41-.2-4.53-.63-6.56-2.91-13.84-.19-26.07,9.98-36.33,3.31-3.34,6.98-4.4,11.56-3.18,2.75.73,5.67.84,9.17,1.32-.4-2-.44-3.08-.84-4-4.01-9.41,1.61-21.48,16.64-19.72,5.43.64,10.82,1.83,14.52,6.62.53.69,2.49,1.31,2.68,1.08,1.22-1.51,3.18-3.43,2.95-4.92-.89-5.72,1.49-10.55,3.69-15.26,6.42-13.73,15.12-25.57,29.21-32.52,13.07-6.44,25.8,2.22,25.35,17.6-.13,4.45-1.2,8.94-2.39,13.27-1.38,5.03-.52,6.65,4.77,6.38,3.92-.2,5.73,1.77,6.69,5.18,1.92,6.85-2.2,11.78-5.42,16.95-1.12,1.79-2.67,3.31-4.02,4.95.15.48.29.96.44,1.44,2.11-.11,4.46.35,6.3-.41,8.72-3.6,15.03.71,20.49,6.4,5.13,5.34,7.08,12.06,5.34,19.55-2.4,10.35-9.85,16.7-17.85,22.63-.62.46-1.26.89-1.88,1.33l.19,1.45c2.62-.26,5.44,0,7.83-.88,12.82-4.76,26.09-8.17,38.63-1.02,16.58,9.47,27.07,23.65,26.67,43.81-.2,9.87-.48,19.82-5.52,28.67,2.22,3.4,4.23,6.68,6.43,9.82,2.4,3.43,6.1,4.18,9.8,2.2,7.65-4.1,15.15-2.89,20.69,3.65.97,1.15,1.1,3.11,1.36,4.74.43,2.67,1.4,3.46,4.14,2.27,2.99-1.3,6.17-2.35,9.37-2.91,8.96-1.57,13.66,1.81,15.43,10.69,1.51,7.58-1.15,12.92-8.06,16.01Zm-105.91-2.5c1.68,1.59,2.93,2.75,4.15,3.95,7.08,6.96,15.26,10.42,24.38,4.91,4.26-2.57,7.14-7.4,10.72-11.14.94-.99,2.12-2.46,3.21-2.48,5.74-.07,8.77-3.66,11.16-8.08,3.14-5.8,1.18-11.26-4.98-13.67-1.4-.55-3.18-.12-4.79-.14.4,1.47.39,3.28,1.28,4.35,2.54,3.09,1.28,6.02-.82,7.97-1.66,1.53-5.25,2.98-6.86,2.18-4.54-2.25-5.87.21-7.41,3.42-4.09,8.51-13.12,11.17-20.75,5.74-2.58-1.84-4.5-4.73-6.38-7.39-3.11-4.42-3.9-4.21-7.28-.06-3.06,3.77-6.69,7.29-10.67,10.04-4.9,3.38-13.69,1.74-16.48-3.16-2.73-4.8-5.27-4.52-8.85-1.49-.83.7-1.92,1.8-2.74,1.68-2.9-.43-6.08-.76-8.44-2.26-1.06-.67-.51-4.02-.52-6.15,0-1.77.23-3.55.35-5.32-1.76.6-4.02.71-5.21,1.9-5.94,5.93-4.98,14.39,1.82,19.26,4.69,3.36,9.63,3.74,15.05,2.04,1.64-.51,4.4-.66,5.34.3,9.1,9.28,26.9,5.57,31.92-2.68.72-1.19,1.67-2.24,2.79-3.71Zm-121.68-110.9c.2-.35.53-.87.79-1.42,2.95-6.3,6.49-11.83,14.47-12.39.79-.05,2.17-2.06,2-2.89-.29-1.44-1.31-3.36-2.53-3.87-3.86-1.62-13.36,2.21-15.13,6.16-1.73,3.83-4.03,5.58-8.34,4.8-8.95-1.61-15.49,1.85-20.76,9.26-5.61,7.88-5.87,18.89.5,26.43-1.51,1.52-3.27,2.89-4.52,4.63-1.53,2.12-3.69,4.54-3.7,6.84-.03,5.44,1.84,10.61,6.79,13.72,3.84,2.41,10.58.98,14.75-2.94.94-.89,1.15-2.55,1.7-3.86-1.37-.25-2.93-1.05-4.08-.66-3.72,1.26-6.85,1.18-8.88-2.64-2.16-4.07-.1-6.67,3.13-9.09,6.14-4.59,5.89-4.55,1.02-10.62-2.99-3.72-6.21-7.55-4.2-13.15,2.06-5.75,6.31-8.59,11.97-8.96,4.77-.32,9.61.38,15.04.66Zm75.67,54.86c-.26.09-.52.19-.78.28,1.46,4.04,2.53,8.29,4.57,12.01.92,1.67,4.1,3.52,5.65,3.09,2.07-.57,4.13-2.99,5.16-5.12,2.89-5.98.8-11.69-2.48-16.79-1.06-1.65-4.05-3.57-5.48-3.13-2.33.71-4.36,3.04-5.98,5.1-.82,1.05-.47,3.01-.65,4.56Zm74.45,1.71c-1.65-3.73-2.84-7.76-5.07-11.11-2.19-3.3-7.3-2.5-8.7,1.17-2.09,5.48-2.34,11.28-.69,16.89.43,1.48,2.63,3.09,4.28,3.46,5.43,1.2,9.2-3.1,10.18-10.41Z"/><path class="cls-5" d="m704.43,447.85c-.09,1.41-.12,2.83-.3,4.23-.35,2.69-.13,5.47,2.83,6.14,2.1.47,4.56-.24,6.77-.8,1.48-.37,2.74-1.5,4.18-2.11,9.63-4.08,14.76-.58,14.41,9.92-.11,3.29,1.56,4.44,4.47,4.76,12.65,1.4,17.2,9.51,11.71,20.75-4.7,9.61-11.99,16.66-21.44,21.47-6.56,3.34-6.72,3.73-4.98,10.83,2.27,9.26,3.27,18.79-.71,27.68-5.11,11.38-13.52,19.9-26.38,21.68-5.39.75-11.12-1.45-16.73-1.73-3.26-.17-6.58.82-9.87,1.23-3.49.44-5.75,1.8-8.06,5.03-1.97,2.74-6.78,4.3-10.51,4.7-4.22.45-7.76-2.48-9.57-6.44-3.36-7.37-4.52-14.93-.89-22.68,1.64-3.51,2.95-7.17,4.45-10.74,1.43-3.39-.04-5.59-4.36-6.47-9.1-1.85-10.6-4.08-8.82-13.15.57-2.92,1.22-5.83,1.76-8.77,1.1-6.03-1.9-10.64-7.79-12.36-5.99-1.74-11.94-3.59-17.88-5.49-4.28-1.37-6.81-6.37-7.04-12.73-.07-1.99-.73-5.4-1.7-5.62-2.13-.49-4.99.06-6.9,1.23-6.37,3.92-13.04,4.77-20.28,3.62-9.14-1.44-14.83-12.08-13.19-19.29.69-3.05.52-5.41-2.32-7.42-1.06-.75-1.78-2.68-1.78-4.08-.02-7.47,3.96-12.38,11.42-13.82,2.79-.54,4.66-1.07,5.81-4.19,1.09-2.94,3.69-4.95,7.5-4.25,4.59.84,7.05-1.32,7.1-5.9.16-14.9,5.93-22.48,20.53-25.52,5.56-1.16,11.51-1.27,17.19-.76,7.94.71,12.5,6.42,16.14,12.98,3.77,6.79,5.43,6.99,12.49,3.53,12.07-5.92,27.98-1.88,35.64,9.87.84,1.29.5,3.57.22,5.32-1.05,6.54.99,8.41,7.08,6.26,5.84-2.07,10.43,1.26,10.25,7.47-.05,1.88-.3,3.76-.45,5.63.01,0,.02,0,.03,0Z"/><path class="cls-5" d="m502.64,404.76c-3.79-1.07-6.95-1.86-10.04-2.85-5.52-1.77-9.34,1.3-8.77,7.13.77,7.82-1.51,9.86-9.46,9.23-1.36-.11-3.69,1.52-4.2,2.87-3.34,8.81-10.13,13.78-18.49,16.69-6.25,2.17-18.29-2.68-22.26-8.23-2.95-4.12-2.13-13.03,2.56-18.95,3.15-3.97,3.41-7.58,1.79-12.11-2.01-5.61-1.14-7.65,4.29-9.99,3.68-1.58,7.69-2.42,11.59-3.45,4.53-1.19,5.32-3.67,2.16-7.23-.62-.7-1.12-1.72-1.9-2.04-4.93-1.99-3.87-5.13-2.05-8.76,2.42-4.84,1.13-6.82-4.39-7.28-7.67-.64-11.77-4.23-12.72-11.76-.22-1.73.48-3.99,1.56-5.39,6.24-8.18,15.25-12.25,24.52-15.78,2.61-.99,4.86-1.56,4.64-5.29-.08-1.38,1.91-3.83,3.34-4.17,3.69-.87,7.6-1.12,11.42-1.09,3.07.03,5.25-.45,5.8-3.89.59-3.7,2.9-5.77,6.49-6.47,7.78-1.5,16.56.13,18.49,8.8.73,3.26,2.49,2.91,4.89,1.96,2.3-.91,4.76-2.07,7.13-2.01,3.41.08,8.05-1.11,9.7,2.99,2.26,5.64,5.9,11.19,3.37,17.91-1.26,3.33-2.24,6.86-2.63,10.37-.11.96,2.25,2.69,3.76,3.21,2.3.79,5.17.23,7.23,1.32,4.04,2.13,5.18,10.01,2.35,13.74-2.97,3.92-6.55,6.43-11.93,6.06-5.92-.4-7.3,1.47-6.24,7.25,2.12,11.56-2.08,19.17-13.26,23.88-2.92,1.23-5.93,2.24-8.73,3.28Z"/><path class="cls-5" d="m477.35,575c-6.08-2.14-12.29-3.97-18.19-6.52-3.68-1.58-6.12-1.93-7.81,2.34-3.03,7.68-9.08,7.41-15.26,2.67-.99-.76-2.08-1.39-3.08-2.14-3.69-2.77-5.06-2.51-6.2,1.85-1.64,6.27-6.34,8.21-11.86,9.72-1.83.5-3.54,2.37-4.73,4.03-2.95,4.08-5.17,8.76-8.52,12.44-1.3,1.43-5.47,1.96-7.23.96-4.96-2.82-9.64-6.34-13.87-10.19-2.73-2.48-1.77-9.43,1.18-13.16,1.53-1.94,3.18-3.91,5.15-5.37,2.85-2.1,2.98-3.85.67-6.52-6.15-7.11-5.22-9.9,3.86-12.21,3.43-.87,4.21-3.11,3.06-6.04-.73-1.86-1.69-3.98-3.19-5.13-6.4-4.89-3.62-10.33-1.46-15.88.54-1.38,1.05-2.94.93-4.36-.94-11.22,8.38-18.63,19.04-15.23,6.69,2.13,13.03,4.54,16.24,11.48.57,1.22.85,2.6,1.52,3.75.97,1.67,2.1,4.44,3.3,4.51,1.71.1,3.68-1.64,5.29-2.91,1.32-1.04,2.1-2.8,3.46-3.77,3.69-2.63,7.09-1.46,8.71,2.8,1.08,2.86,1.32,7.23,3.32,8.27,3.21,1.68,7.57,1.14,11.44,1.59,2.3.27,5,0,6.8,1.11,2.61,1.63,5.4,3.94,6.6,6.63,1.36,3.03,2.96,3.55,5.74,3.3,2.62-.23,5.33-.59,7.89-.19,6.49,1.02,10.14,6.76,8.27,13.27-2.14,7.42-7.18,12.79-13.78,16.53-1.91,1.09-4.5.98-6.77,1.43-.17.31-.33.62-.5.92Z"/><path class="cls-1" d="m510.5,435.02c-2.55-1.64-4.39-2.61-5.99-3.89-2.68-2.15-5.13-4.6-7.82-6.75-5.33-4.25-6.05-7.02-3.6-13.3h19.76c-.79,8.11-1.51,15.43-2.35,23.94Z"/><path class="cls-1" d="m612.06,507.78c-3.7,2.54-6.79,4.66-10.81,7.42.26-4.4.45-7.5.67-11.25,3.44,1.29,6.34,2.39,10.14,3.82Z"/><path d="m507.99,756.47c4.55.67,6.56,3.38,6.63,7.13.21,11.88.34,23.77.08,35.64-.24,11.4-.02,22.85-3.34,34.01-2.53,8.5-5.52,17.05-6.42,25.78-.8,7.78,1.03,15.83,1.66,23.76.88,11.11-1.59,21.76-4.41,32.38-.92,3.47-1.62,7.01-2.33,10.54-.43,2.16.42,5.7-3,5.2-3.3-.48-4.4-3.51-3.69-6.97,1.53-7.48,2.79-15.02,4.45-22.48,2.54-11.44.48-22.79-.21-34.18-.42-6.99-.97-14.08-.28-21.01.39-3.97,3.45-7.61,4.77-11.57,5.02-15.14,4.06-30.92,4.58-46.52.33-9.87.5-19.74.78-29.61.02-.57.37-1.13.72-2.1Z"/><path d="m575.41,693.47c-.78-1.39-2.14-2.74-2.25-4.17-.85-11.51-2.23-23.06-1.94-34.55.29-11.8,2.26-23.56,3.53-35.33.35-3.26.82-6.51,1.27-9.76.15-1.05.11-2.34.71-3.07,1.22-1.48,2.81-2.65,4.25-3.94.56,1.76,1.51,3.5,1.63,5.29.65,9.37-1.89,18.24-3.96,27.27-1.55,6.72-1.98,13.96-1.44,20.85.88,11.21,3.14,22.32.69,33.57-.25,1.17-.78,2.27-1.18,3.4l-1.31.43Z"/><path d="m576.46,588.09c0-8.4,0-15.58,0-22.76,0-6.72-.04-13.44-.06-20.16-.01-7.91-.33-15.84.11-23.72.21-3.78,1.79-7.52,2.99-11.19.22-.68,1.66-.96,2.53-1.42.74,1.4,2.13,2.82,2.1,4.2-.17,6.39-.95,12.77-1.1,19.16-.3,12.18-.16,24.37-.52,36.55-.18,6.24-.94,12.47-1.7,18.67-.16,1.28-1.46,2.42-2.23,3.63-.88-1.22-1.76-2.45-2.12-2.95Z"/><path d="m511.2,729.23c-.58-15.17-1.39-30.33-1.62-45.51-.09-5.72.91-11.51,1.97-17.16.28-1.5,2.61-2.62,4-3.92.5,1.33,1.62,2.78,1.39,3.98-2.91,15.24-1.79,30.58-1.44,45.91.18,7.82.13,15.66-.07,23.48-.03,1.16-1.46,2.29-2.24,3.43-.94-1.04-2.46-1.97-2.69-3.15-.43-2.27-.13-4.68-.13-7.03.27,0,.54-.02.81-.03Z"/><path d="m641.85,330.92c-1.12,1.47-2.07,2.52-2.79,3.71-5.03,8.25-22.83,11.96-31.92,2.68-.94-.96-3.7-.81-5.34-.3-5.42,1.7-10.36,1.33-15.05-2.04-6.8-4.87-7.76-13.33-1.82-19.26,1.18-1.18,3.44-1.29,5.21-1.9-.13,1.77-.36,3.55-.35,5.32.01,2.13-.54,5.48.52,6.15,2.36,1.5,5.54,1.83,8.44,2.26.82.12,1.91-.98,2.74-1.68,3.57-3.04,6.11-3.31,8.85,1.49,2.79,4.9,11.59,6.53,16.48,3.16,3.99-2.75,7.61-6.27,10.67-10.04,3.38-4.15,4.17-4.35,7.28.06,1.87,2.66,3.8,5.56,6.38,7.39,7.63,5.44,16.66,2.78,20.75-5.74,1.54-3.21,2.88-5.67,7.41-3.42,1.6.8,5.2-.65,6.86-2.18,2.1-1.95,3.37-4.88.82-7.97-.88-1.07-.88-2.88-1.28-4.35,1.61.02,3.39-.41,4.79.14,6.17,2.41,8.12,7.88,4.98,13.67-2.4,4.43-5.42,8.01-11.16,8.08-1.09.01-2.26,1.49-3.21,2.48-3.57,3.74-6.46,8.57-10.72,11.14-9.12,5.51-17.31,2.05-24.38-4.91-1.22-1.2-2.47-2.36-4.15-3.95Z"/><path d="m520.18,220.03c-5.43-.28-10.27-.97-15.04-.66-5.66.37-9.91,3.21-11.97,8.96-2,5.6,1.21,9.43,4.2,13.15,4.88,6.07,5.12,6.03-1.02,10.62-3.23,2.42-5.29,5.01-3.13,9.09,2.03,3.82,5.15,3.9,8.88,2.64,1.15-.39,2.71.4,4.08.66-.55,1.31-.76,2.98-1.7,3.86-4.18,3.92-10.92,5.35-14.75,2.94-4.95-3.11-6.82-8.27-6.79-13.72.01-2.3,2.18-4.72,3.7-6.84,1.25-1.74,3.01-3.11,4.52-4.63-6.36-7.54-6.1-18.55-.5-26.43,5.27-7.41,11.81-10.87,20.76-9.26,4.31.77,6.62-.97,8.34-4.8,1.78-3.94,11.28-7.77,15.13-6.16,1.22.51,2.23,2.43,2.53,3.87.17.84-1.22,2.84-2,2.89-7.98.56-11.51,6.09-14.47,12.39-.26.55-.59,1.07-.79,1.42Z"/><path d="m595.85,274.89c.18-1.55-.17-3.52.65-4.56,1.62-2.07,3.66-4.39,5.98-5.1,1.43-.43,4.42,1.48,5.48,3.13,3.29,5.11,5.37,10.81,2.48,16.79-1.03,2.13-3.09,4.55-5.16,5.12-1.55.43-4.74-1.41-5.65-3.09-2.04-3.72-3.1-7.98-4.57-12.01.26-.09.52-.19.78-.28Z"/><path d="m670.3,276.59c-.98,7.31-4.74,11.61-10.18,10.41-1.65-.36-3.85-1.98-4.28-3.46-1.64-5.61-1.4-11.41.69-16.89,1.4-3.67,6.51-4.47,8.7-1.17,2.22,3.35,3.42,7.38,5.07,11.11Z"/><path class="cls-1" d="m590.83,490.13c-.38.12-.76.23-1.14.35.38-.11.76-.23,1.14-.35.08.47.19.95.31,1.43-.12-.48-.23-.96-.31-1.43Z"/><path class="cls-1" d="m561.06,597.34c-.1-.28-.21-.56-.32-.84.11.28.22.56.32.84Z"/><path class="cls-1" d="m561.45,596.44c-.36.32-.73.64-1.1.95.37-.31.74-.63,1.1-.95h0Z"/></svg>