<?xml version="1.0" encoding="UTF-8"?><svg id="Layer_1" xmlns="http://www.w3.org/2000/svg" xmlns:xlink="http://www.w3.org/1999/xlink" viewBox="0 0 1150 1100"><defs><style>.cls-1,.cls-2{fill:#fff;}.cls-3{fill:#ffda62;}.cls-2{filter:url(#drop-shadow-2);}</style><filter id="drop-shadow-2" filterUnits="userSpaceOnUse"><feOffset dx="15" dy="15"/><feGaussianBlur result="blur" stdDeviation="15"/><feFlood flood-color="#000" flood-opacity=".5"/><feComposite in2="blur" operator="in"/><feComposite in="SourceGraphic"/></filter></defs><path class="cls-2" d="m536.77,1041.39c-11.5,0-21.93-2.41-31.02-7.17-25.63-11-41.08-34.05-41.55-62.25-.48-28.73,3.98-55.65,8-79.46.02-.62.03-1.62.03-2.39.03-3.18.07-7.55.62-12.53.55-5,1.33-9.45,2.03-13.38.48-2.72,1.13-6.43,1.19-7.84-.29-7.09-1.44-13.9-3.31-19.71-1.46-4.53-4.17-10.23-7.04-16.26-2.2-4.62-4.69-9.85-7.02-15.41-4.19-9.99-10.89-19.38-21.09-29.58-1.56-1.56-2.75-2.69-3.66-3.51-3.03.84-4.34,1.43-4.82,1.67-11.48,9.87-17.37,17.25-19.64,24.64l-.68,2.2c-2.66,8.63-5.2,16.85-7.4,24.92.02,2.32-.02,5.32-.36,8.76-3.34,34.05-29.43,58.77-62.03,58.77-11.68,0-23.51-3.33-34.2-9.63-15.25-8.99-29.47-20.63-43.49-35.59-10.87-11.6-21.7-25.01-33.1-41-7.72-10.81-10.96-21.69-13.11-28.89-.38-1.25-.73-2.44-1-3.24l-.43-1.27c-2.21-6.6-4.96-14.82-6.46-24.57-2.53-16.48-4.82-41.52,4.52-68.59.48-1.4.99-2.75,1.54-4.06-.21-4.9.1-10.02.95-15.31,5.18-32.26,18.72-59.15,28.46-76.56,9.04-16.17,20.5-26.83,29.71-35.39,1.93-1.8,3.76-3.5,5.37-5.07.3-.3.62-.61.93-.93,3.11-3.1,8.32-8.28,15.63-12.85,2.31-1.44,4.62-2.92,6.92-4.4,9.14-5.86,19.49-12.5,31.4-18.07,12.59-5.89,25.22-8.87,37.54-8.87,4.11,0,8.17.34,12.16,1,7.43-3.68,15.66-6.08,24.38-7.04,6.56-.72,12.58-.8,17.41-.87,2.93-.04,5.7-.08,7.55-.25,3.12-.29,6.31-.43,9.48-.43,17.49,0,32.13,4.3,43.9,7.75.58.17,1.16.34,1.74.51,0-.03-.02-.07-.03-.1-.9-3.22-1.75-6.27-2.6-8.97-5.59-17.75-11.24-31.58-17.79-43.53-3.96-7.23-6.76-14.02-9.23-20-1.19-2.88-2.31-5.6-3.35-7.82l-1.53-3.28c-4.02-8.65-8.18-17.59-11.8-21.08-.96-.93-4.26-3.96-6.2-3.96-.34,0-.94.04-1.85.25-9.96,2.23-19.5,4.75-28.37,7.5-8.5,2.63-17.13,7.29-26.39,14.23-7.45,5.59-13.4,11.56-18.19,18.25-8.39,11.72-18.99,17.38-24.08,20.1-.28.15-.56.29-.83.45-7.52,4.22-16.09,6.45-24.77,6.45-11.46,0-22.42-3.76-32.56-11.18-15.16-11.08-33.31-32.19-33.68-69.78-.13-13.68.81-26.54,1.72-38.99.23-3.17.47-6.34.68-9.51.92-13.72,1.9-24.9,3.09-35.19.76-6.53,2.19-11.87,3.23-15.76.24-.9.57-2.12.67-2.6.48-2.6.95-5.2,1.42-7.8,3.88-21.49,8.28-45.85,17.88-69.9,5.16-12.92,12.39-25.45,21.49-37.24,9.92-12.84,20.47-24.33,31.37-34.14,18.66-16.81,39.09-28.94,60.73-36.07,6.87-2.26,14.11-3.41,21.52-3.41,1.71,0,3.41.06,5.1.17,18.62-15.92,38.82-20.5,54.38-22.71l4.06-.58c9.15-1.3,18.6-2.65,28.1-3.86,3.15-.4,6.33-.6,9.75-.6,2.68,0,5.03.12,6.75.21l.49.03c1.61.08,3.1.23,4.42.39,1.68-.1,3.36-.15,5.04-.15,14.93,0,27.17,3.79,36.11,6.55,1.7.53,3.3,1.02,4.69,1.42,18.96,5.4,38.49,13.35,59.68,24.33,17.31,8.96,31.55,21.35,42.32,36.81,7.01,10.06,13.29,20.12,19.37,29.84,3.78,6.05,7.36,11.76,11.01,17.34.41.54,1.47,1.82,2.26,2.75,3.05,3.63,7.23,8.61,11.11,15.13,6.51,10.92,12.37,22.15,17.41,33.36,5.11,11.37,7.46,24.77,6.61,37.74-.62,9.41-3.39,18.15-7.87,25.81,12.23.67,24.22,2.75,35.76,6.21,8.85,2.65,16.78,5.89,23.77,8.75l1.2.49c7.25,2.96,13.07,6.7,17.73,10.71,1.09-.05,2.18-.07,3.3-.08h.31c10.07,0,18.32,1.91,24.34,3.31,1.38.32,3.27.76,3.94.86,24.99,3.51,47.61,15.66,63.66,34.21,10.85,12.54,17.05,26.06,22.02,36.92.5,1.08.99,2.17,1.49,3.24,4.4,9.48,6.15,18.14,7.42,24.46.27,1.32.52,2.56.72,3.46.49,2.11,1,4.21,1.5,6.32,1.83,7.64,3.91,16.3,5.4,25.45,1.75,10.71,3.04,22.24,3.93,35.23.51,7.41.33,14.05.17,19.9-.05,1.92-.11,3.84-.12,5.76-.07,7.73-1.5,15.12-4.13,21.93,2.01,10.61,1.25,22.08-2.59,33.73-1.99,6.02-4.05,11.81-6.04,17.41-1.07,3-2.14,6-3.18,9.01-1.13,3.26-2.25,6.65-3.42,10.23-2.75,8.37-5.6,17.03-9.33,26.13-10.75,26.25-25.75,48.92-37.62,65.74-11.32,16.03-25.32,27.99-41.61,35.55-.53.25-1.05.53-1.57.79-3.9,2-10.41,5.34-18.82,7.44-4.31,1.07-8.76,1.62-13.23,1.62h0c-15.62,0-31.05-6.78-42.34-18.61-11.23-11.76-17.25-27.4-16.53-42.91.48-10.19.98-19.21,1.55-27.6.77-11.31-1.27-22.18-6.23-33.24-1.97-4.41-4.03-8.28-6.14-11.57-.43-.31-.88-.62-1.28-.9-.71-.5-1.42-1-2.11-1.5-.73-.4-2.22-1.12-3.34-1.67l-1.03-.5c-.63-.31-1.01-.47-2.28-.47s-3.45.18-7.15,1.05c-3.18.74-5.1,1.73-7.61,3.92-2.15,1.87-7.15,6.23-9.41,9.21-9.19,12.17-16.74,23.05-23.07,33.28-4.24,6.85-8.4,14.9-13.47,26.11-4.53,10.01-8.6,20.3-12.1,30.56-1.71,5.01-3.22,10.91-4.82,17.16-.95,3.72-1.94,7.58-3.05,11.58-.98,3.53-1.97,6.88-2.94,10.12-1.41,4.74-2.74,9.21-3.7,13.22l-1.5,6.24c-4.05,16.84-7.88,32.75-10.99,48.74-.93,4.76-1.44,10.79-1.99,17.18-.34,3.95-.68,8.03-1.16,12.34-.53,4.72-1.09,9.44-1.66,14.16-.95,7.89-1.84,15.33-2.52,22.69-1.74,18.74-3.33,37.94-4.87,56.5l-1.06,12.75c-.58,6.87-1.12,13.35-1.33,19.42-.84,24.45-14.5,40.69-19.64,46.8-16.97,20.18-42.48,22.36-52.65,22.36Zm28.24-690.97c.72,1.83,1.48,3.69,2.27,5.6.29-.25.59-.5.88-.74,1.32-1.11,2.64-2.23,3.95-3.35,14.95-12.72,30.71-21.83,45.12-29.71-2.88.42-5.83.91-8.88,1.45-2.34.42-6.35,1.44-12.11,3.93-16.19,7.01-25.8,14-31.15,22.68-.03.05-.06.1-.09.15Z"/><path d="m870.75,532.69c4.42,1.94,7.83,3.43,11.24,4.93,8.48,3.73,11.07,9.22,8.16,18.06-2.84,8.61-5.99,17.12-8.97,25.69-3.91,11.28-7.27,22.78-11.79,33.81-8.2,20.02-19.76,38.23-32.2,55.85-5.67,8.03-12.69,14.8-21.8,19.03-3.79,1.76-7.45,4.08-11.43,5.07-4.38,1.09-10.28-4.59-10.07-9.06.41-8.85.89-17.7,1.49-26.53,1.35-19.93-2.38-38.98-10.48-57.07-3.61-8.06-7.92-15.98-13.08-23.12-3.33-4.61-8.62-7.92-13.37-11.35-3.41-2.46-7.31-4.29-11.11-6.15-13.83-6.76-27.64-6.73-42.77-3.19-11.46,2.68-20.69,7.6-29.08,14.91-5.9,5.14-11.77,10.57-16.46,16.77-9.06,11.99-17.77,24.32-25.68,37.09-6.28,10.14-11.59,20.95-16.52,31.83-5.18,11.44-9.83,23.17-13.88,35.05-3.51,10.29-5.81,21-8.72,31.5-2.32,8.36-5.06,16.62-7.08,25.05-4.55,18.97-9.22,37.93-12.95,57.07-2.15,11.02-2.52,22.37-3.77,33.57-1.4,12.58-3.1,25.14-4.27,37.75-2.09,22.51-3.92,45.05-5.8,67.58-.67,7.99-1.37,15.99-1.65,24.01-.23,6.73-4.01,11.67-7.93,16.33-3.9,4.63-17.21,5.93-22.47,2.95-.75-.42-1.51-.84-2.31-1.14-8.45-3.25-12.05-8.69-12.2-17.52-.41-24.06,3.49-47.64,7.46-71.24.93-5.5.28-11.25.89-16.82,1.05-9.52,3.85-19.05,3.48-28.47-.44-11.17-2.26-22.62-5.68-33.25-3.96-12.3-10.53-23.73-15.56-35.71-7.35-17.52-18.54-32.29-31.84-45.59-7.04-7.04-14.43-13.62-24.13-16.96-7.82-2.69-15.48-2.52-23.53-.59-10.33,2.49-20.26,5.89-28.31,12.77-15.48,13.24-29.08,28.1-35.28,48.22-3.42,11.09-6.88,22.19-9.79,33.42-1.01,3.89-.22,8.22-.63,12.31-1.16,11.83-10.19,17.37-21.08,10.95-12.23-7.21-22.85-16.52-32.4-26.71-10.47-11.17-19.97-23.36-28.87-35.84-3.82-5.35-5.24-12.48-7.39-18.92-1.93-5.78-3.97-11.63-4.89-17.61-2.31-15-2.69-30.03,2.37-44.7,1.52-4.4,3.77-7.38,9.27-6.89,3.22.28,6.56-.83,9.84-1.32l.27-1.44c-2.18-1.07-4.32-2.23-6.55-3.18-7.98-3.4-9.57-6.61-8.24-14.92,3.47-21.61,12.12-41.11,22.73-60.1,6.67-11.94,17.04-19.95,26.41-29.13,2.56-2.51,5.08-5.22,8.08-7.1,10.85-6.78,21.47-14.18,33.01-19.58,11.73-5.48,24.16-6.83,34.68,3.92,1.85,1.89,4.12,3.35,6.18,4.99.99-4.08,1.09-8,2.85-10.93,3.15-5.28,8.81-7.85,14.65-8.49,7.98-.88,16.11-.29,24.12-1.03,14.56-1.35,27.98,3.72,41.49,7.46,7.37,2.04,14.35,6.55,20.65,11.12,10.77,7.8,21.1,16.25,31.14,24.98,4.59,3.99,8.64,8.93,11.82,14.12,2.9,4.73,1.53,10.1-.37,15.36-3.16,8.77-11.16,9.6-18.19,12.09-12.41,4.4-25.67,7.15-37.12,13.31-14.28,7.67-26.17,19.09-30.59,35.67-2.92,10.96-1.54,20.67,9.59,27.66,11.43,7.18,22.93,14.58,33.05,23.43,7.32,6.4,13.22,14.85,18.37,23.23,9.96,16.21,15.33,34.57,22.57,52.05.31.74.84,1.38,1.58,2.57,3.12-11.22,5.5-22.02,9.13-32.39,8.27-23.64,11.07-48.33,14.79-72.84.63-4.18.23-8.54.06-12.8-.66-16.76-1.15-33.54-2.21-50.28-.71-11.1-2.35-22.15-3.45-33.23-1.49-15.01-1.96-30.19-4.54-45-2.89-16.6-4.2-33.55-11.48-49.36-4.82-10.49-7.21-22.1-10.71-33.2-5.71-18.12-12.45-35.77-21.62-52.52-4.37-7.98-7.28-16.73-11.15-25-6.53-13.95-12.75-28.42-23.95-39.2-14.81-14.25-32.74-21.15-53.63-16.47-10.84,2.43-21.63,5.24-32.24,8.53-15.19,4.7-28.94,12.5-41.6,21.99-11,8.25-20.76,17.85-28.84,29.14-1.95,2.72-5.61,4.31-8.69,6.03-.66.37-2.37-.73-3.37-1.46-10.13-7.41-13.09-18.5-13.2-29.9-.15-14.89,1.3-29.8,2.29-44.69.73-10.93,1.61-21.87,2.87-32.75.59-5.06,2.46-9.95,3.39-14.99,4.25-23.09,7.84-46.4,16.58-68.3,3.57-8.95,8.73-17.58,14.63-25.22,7.6-9.83,16.03-19.24,25.25-27.55,12.52-11.27,26.68-20.39,42.92-25.74,8.9-2.93,21.11,1.59,26.33,9.84,5.42,8.57,10.81,17.16,16.45,26.11-.67-2.48-1.28-4.72-1.87-6.97-1.86-7.08-4.07-14.1-5.46-21.27-1.59-8.18,1.22-14.57,7.83-20.28,8.56-7.4,18.51-9.85,29.08-11.35,10.48-1.49,20.95-3,31.45-4.34,2.66-.34,5.41-.16,8.1-.02,2.22.11,4.51,1.04,6.63.72,11.51-1.76,21.87,2.62,32.52,5.65,17.57,5,34.18,12.25,50.39,20.64,9.88,5.12,18.12,12.15,24.28,20.98,10.45,15.01,19.67,30.88,29.71,46.19,3.65,5.56,8.74,10.21,12.13,15.9,5.44,9.12,10.4,18.58,14.75,28.26,1.89,4.2,2.62,9.36,2.32,13.98-.41,6.25-7.07,10.28-15.16,10.06-11.29-.32-22.6-1.63-33.84-1.1-12.57.58-25.16,2.19-37.56,4.4-7.93,1.41-15.8,4.06-23.22,7.27-21.6,9.35-41.17,21.78-53.84,42.32-4.3,6.98-7.64,15.14-8.96,23.17-.95,5.78,1.41,12.52,3.64,18.31,4.82,12.47,10.26,24.73,15.92,36.85,4.41,9.45,9.68,18.49,14.28,27.85,2.18,4.44,4.03,9.12,5.45,13.86,4.83,16.1,9.43,32.27,14.08,48.42,3.65,12.67,7.64,25.26,10.76,38.06,2.49,10.24,3.89,20.75,5.79,31.13,1.33,7.23,3.22,14.4,3.91,21.69,1.12,11.73,1.44,23.53,2.13,35.3.31,5.27.7,10.54,1.17,17.42,4.43-7.9,8.5-14.3,11.75-21.1,6.46-13.52,16.01-24.55,26.17-35.35,7.14-7.59,13.09-16.29,19.64-24.44,3.31-4.12,6.52-8.36,10.22-12.1,5.88-5.94,4.01-13.16,3.46-19.93-.54-6.62-2.31-13.14-3.67-19.68-.27-1.27-1.01-2.52-1.8-3.59-4.88-6.58-9.31-13.59-14.93-19.47-3.88-4.06-9.29-6.76-14.27-9.63-7.69-4.43-15.59-8.51-23.42-12.7-7.52-4.03-15.01-8.11-22.6-11.99-1.75-.89-4.02-.73-5.79-1.59-8.84-4.25-10.39-16.36-3.54-24.27,9.77-11.29,21.25-20.59,32.58-30.24,13.75-11.71,29.34-19.91,44.93-28.39,3.55-1.93,7.3-3.7,10.4-6.23,10.03-8.19,22.51-10.24,34.35-12.73,18.35-3.86,37.11-3.85,55.38,1.63,6.95,2.08,13.71,4.89,20.44,7.64,6.94,2.83,8.22,7.1,4.91,13.95-2.81,5.8-5.31,11.74-7.95,17.62.36.3.71.6,1.07.9,3.33-1.89,6.66-3.77,9.98-5.67,10.1-5.77,20.11-12.41,32.12-12.46,7.13-.03,14.24,2.67,21.42,3.68,13.11,1.84,24.57,7.89,32.81,17.42,6.99,8.08,11.38,18.6,15.97,28.49,2.6,5.6,3.38,12.08,4.8,18.2,2.2,9.48,4.69,18.92,6.26,28.51,1.66,10.11,2.69,20.36,3.4,30.59.5,7.23,0,14.54-.07,21.81-.05,5.99-3.45,9.4-8.72,11.45-4.53,1.76-9.03,3.63-14.88,5.99Zm-485.72-247.26c-.23.64-.45,1.28-.68,1.92-2.28-.36-4.62-.5-6.82-1.12-9.38-2.68-18.81-3.52-28.44-1.48-3,.64-6.15.6-9.19,1.09-9.86,1.58-19.7,3.44-27.39,10.49-1.56,1.43-2.66,3.91-2.97,6.05-1.87,12.83-3.18,25.75-5.19,38.56-1.6,10.15-4.67,20.12-2.03,30.53,1.38,5.42,2.6,10.89,4.19,16.24.54,1.81,1.99,3.35,3.02,5.02,1.6-1.1,3.55-1.91,4.75-3.35,5.01-6.04,9.61-12.42,14.71-18.39,7.82-9.14,18.05-15.03,28.65-20.32,7.79-3.9,15.36-8.33,23.4-11.62,8.84-3.62,18.02-6.51,27.22-9.11,4.72-1.33,10.07-2.6,14.69-1.67,12.32,2.48,25.47,1.68,36.77,8.62,6.09,3.74,13.63,6.06,18.26,11.1,11.08,12.07,20.23,25.78,26.72,41,3.89,9.12,7.2,18.49,11.26,27.53,5.52,12.28,11.84,24.2,17.18,36.56,3.51,8.13,6.05,16.69,8.76,25.14,4.71,14.67,9.83,29.25,13.64,44.15,4.02,15.73,6.66,31.8,10,47.71,4.68,22.3,4.26,44.98,5.14,67.55.53,13.63.4,27.29.85,40.92.06,1.87,1.32,4.65,2.8,5.34,4.48,2.07,3.69,4.75,2.44,8.39-2.06,5.97-3.91,12.05-5.26,18.21-2.08,9.51-3.17,19.25-5.54,28.67-4.67,18.61-9.85,37.1-14.99,55.6-2.75,9.9-5.79,19.73-8.94,29.51-.42,1.29-2.2,2.15-3.36,3.2-.97-1.18-2.99-2.69-2.74-3.5,1.57-5.17-1.23-9.18-2.98-13.47-4.14-10.14-8.7-20.13-12.39-30.43-4.63-12.93-12.37-23.93-19.64-35.36-7.28-11.44-16.28-20.53-28.22-26.8-4.23-2.22-8.82-3.94-12.64-6.72-4.61-3.34-10.2-6.79-12.49-11.57-4.66-9.75-4.72-21.12,0-30.54,7.39-14.77,18.32-27.25,31.68-37.34,10.18-7.68,21.82-11.36,34.28-12.64,11.84-1.22,17.83-15.75,10.52-23.33-7.45-7.71-15.64-14.7-23.33-22.19-3.35-3.27-6.09-2.06-9.5-.14-10.84,6.11-17.85,15.85-25.05,25.49-.96,1.29-2.98,1.8-4.5,2.67.17-1.81-.34-4.19.62-5.34,6.23-7.48,12.69-14.79,19.28-21.96,2.74-2.98,6-5.5,9.27-8.45-5.47-3.4-10.37-6.85-15.65-9.57-3.57-1.84-7.59-2.18-11.1.92-15.27,13.49-29.03,28.05-35.1,48.23-.29.97-.73,1.9-1.21,3.13-3.55-4.9-2.83-8.17-1.32-11.96,6.08-15.25,14.32-28.83,27.55-39,1.59-1.22,2.57-3.25,3.83-4.9-.21-.57-.41-1.15-.62-1.72-12.28-.38-24.55-.94-36.83-1.1-14.41-.19-15.75,1.47-15.93,15.95-.05,3.83-1.05,7.73-2.21,11.41-.31.99-3.31,2.18-4.24,1.69-1.96-1.04-3.74-2.9-4.95-4.82-3.88-6.16-9.81-9.17-16.15-12.12-6.92-3.21-13.13-2.81-19.42,1.07-.42.26-1.02.22-1.47.44-4.81,2.32-9.62,4.66-14.92,7.25,4.89,4.41,9.35,8.08,13.41,12.15,6.66,6.66,13.02,13.61,19.6,20.35,3.04,3.11,5.62,6.31,4.75,11.59-1.67-.94-3.4-1.46-4.49-2.59-9.23-9.56-18.28-19.31-27.55-28.84-2.73-2.81-5.83-5.38-9.13-7.47-1.6-1.01-4.84-1.64-6.04-.73-8.25,6.25-16.15,12.96-24.21,19.56,5.32,4.28,9.44,7.81,13.78,11.03,9.6,7.13,19.5,13.87,28.92,21.22,5.49,4.29,10.38,9.36,15.3,14.32.96.96.81,3.01,1.18,4.56-1.48-.31-3.3-.16-4.37-1-4.98-3.87-9.53-8.33-14.64-12.01-14.68-10.58-29.56-20.89-44.21-31.19-12.45,11.55-16.37,26.86-23.53,41.91,4.6,0,7.82-.24,11,.05,5.76.53,11.69.67,17.18,2.25,7.53,2.17,14.73,5.51,22.05,8.4,3.82,1.51,7.71,2.9,11.31,4.84,1.25.67,1.72,2.81,2.55,4.28-1.67.3-3.47,1.12-4.99.76-2.08-.5-3.91-1.99-5.92-2.9-13.04-5.92-26.86-9.05-40.93-11.12-11.13-1.64-15.96,1.8-18.4,12.71-2.22,9.89-2.19,9.84,6.54,15.46,3.89,2.5,7.87,4.96,11.36,7.95,1.45,1.24,2.28,3.82,2.33,5.82.02.82-2.66,2.06-4.27,2.5-1.94.53-4.09.25-6.1.61-14.99,2.68-16.69.99-17.95,17.47-.7,9.08-1.07,18.01,1.89,26.89,2.51,7.52,4.27,15.29,6.5,23.44,3.89-6.28,7.12-11.86,10.71-17.2,9.22-13.73,22.44-21.79,38.12-26.11,1.29-.36,2.95.6,4.43.95-.91,1.72-1.39,4.18-2.82,5.02-3.63,2.14-7.71,3.47-11.55,5.26-17.73,8.27-26.18,23.71-31.68,41.36-.22.71.02,1.78.43,2.45,5.32,8.65,10.71,17.26,16.09,25.88l1.61-.56c.72-3.81.94-7.81,2.27-11.39,2.68-7.2,6.42-14.02,8.87-21.28,2.32-6.88,7.75-10.07,13.32-13.32.92-.53,2.92-.25,3.73.45.55.47.27,2.59-.33,3.54-1.08,1.71-2.81,3-4.03,4.64-9.81,13.19-13.4,28.69-16.18,44.44-.2,1.15.24,3.02,1.07,3.67,7.94,6.19,15.8,12.51,24.15,18.1,4.63,3.1,7.96.92,8.94-4.63,1.77-10.08,4.11-20.09,5.27-30.24,1.67-14.51,9.87-25.85,17.72-37.08,5.56-7.96,13.87-13.95,20.21-21.43,9.2-10.86,21.14-17.52,33.99-22.23,6.09-2.23,13.36-1.86,20.07-1.67,12.01.36,20.97,7.22,29.79,14.69,14.5,12.27,27.7,25.52,36.19,42.77,7.49,15.21,15.53,30.2,21.92,45.86,5.61,13.75,9.17,28.39,8.86,43.46-.16,7.44-1.61,14.88-2.78,22.28-1.23,7.78-3.17,15.46-4.17,23.26-1.75,13.61-3.14,27.27-4.45,40.94-.74,7.68-1.35,15.41-1.42,23.12-.06,6.42,5.25,12.12,10.93,12.2,6.57.09,13.23-1.96,14.18-9.9.89-7.43,1.89-14.87,2.33-22.33.54-9.07.29-18.2.86-27.27.5-8.03,1.62-16.03,2.54-24.04,2.98-26.06,5.16-52.25,9.23-78.13,3.86-24.52,9.72-48.72,14.71-73.05,1.17-5.7,2.09-11.46,3.65-17.05,1.79-6.41,4.33-12.62,6.27-18.99,3.1-10.17,5.05-20.79,9.15-30.52,6.17-14.64,13.29-28.93,20.89-42.89,7.28-13.38,14.67-26.92,23.85-39,12.48-16.42,23.76-34.61,43.76-43.5,6.99-3.1,14.38-6.06,21.87-7.09,12.45-1.71,25.11-.41,37.15,3.17,7.55,2.25,15.43,5.21,21.6,9.9,16.26,12.36,27.03,29.5,34.44,48.09,6.52,16.37,7.07,34.18,6.17,51.81-.36,7.01-1.21,14.04-.92,21.02.2,4.8,3.56,6.08,7.37,3.12,4.44-3.45,9.08-6.95,12.51-11.31,6.34-8.05,11.87-16.74,17.7-25.18.47-.68,1.04-1.61.92-2.32-1.13-6.67-2.17-13.37-3.72-19.95-.89-3.8-3.03-7.31-3.99-11.1-4.34-17.13-15.62-29.74-27.28-42.05-2.52-2.66-3-4.23.33-6.28,22.76,15.04,37.05,35.99,44.59,62.47,5-11.53,9.13-23.06,12.93-34.69.46-1.4-.38-3.79-1.43-5.04-6.12-7.29-12.04-14.84-18.88-21.41-6.74-6.47-14.16-12.38-21.97-17.49-3.16-2.07-7.07-2.43-6.9-7.17,11.73.84,20.49,7.92,29.96,13.86,9.99,6.26,16.77,15.24,23.21,25.12,2.61-6.06,5.21-11.42,7.22-16.99,1.25-3.47,1.95-7.23,2.22-10.91.1-1.35-1.41-3.48-2.74-4.14-3.83-1.88-7.94-3.21-11.95-4.73-4.13-1.57-8.38-2.89-12.38-4.74-2.21-1.02-4.64-2.56-5.77-4.54-.56-.98,1.18-4.1,2.66-5.21,2.7-2.02,5.88-3.51,9.03-4.79,6.98-2.85,14.04-5.49,21.11-8.09,3.16-1.16,4.54-3,4.29-6.55-.91-13.13-1.52-26.29-2.37-39.43-.06-.94-.97-2.37-1.78-2.64-3.56-1.16-7.24-2.83-10.85-2.75-9.18.21-18.48.53-27.5,2.12-16.31,2.87-32.44,6.74-48.67,10.08-4.74.97-9.56,1.53-15.4,2.45,1.1-1.7,1.37-2.61,1.97-2.97,11.39-6.76,23.27-12.75,36.34-15.05,12.29-2.17,24.83-2.92,37.28-4.07,6.82-.63,13.69-.78,20.54-1.18,5.78-.34,6.77-1.57,5.33-7.47-2.71-11.12-5.47-22.23-8.5-33.27-1.89-6.91-4.93-9.07-9.95-7.13-16.44,6.35-33.06,12.34-49.1,19.59-18.23,8.25-35.91,17.62-50.36,32.09-3.14,3.14-8.04,4.52-12.13,6.71-.45-.55-.89-1.1-1.34-1.65,3.11-3.32,6.22-6.63,9.31-9.96,1.04-1.12,1.87-2.51,3.07-3.4,8.2-6.08,16.11-12.66,24.81-17.91,7.98-4.8,16.81-8.21,25.32-12.1,10.72-4.89,21.52-9.63,32.27-14.47,5.52-2.49,11-5.06,17.59-8.1-4.49-4.67-7.75-8.66-11.61-11.94-6.52-5.54-13.56-6.73-21.7-2.59-11.29,5.74-23,10.67-34.51,16-17.12,7.94-31.48,19.14-41.79,35.21-.86,1.34-2.67,2.08-4.03,3.09-.47-2.74-.63-5.14.47-6.57,4.46-5.79,8.72-11.97,14.16-16.73,7.78-6.8,15.54-13.79,25.12-18.35,9.51-4.53,18.66-9.82,28.06-14.59,3.58-1.82,7.43-3.11,12.02-4.99-9.16-3.96-17.57-6.42-26-2.02-8.31,4.34-16.11,9.64-24.19,14.42-4.57,2.7-9.09,5.63-13.97,7.64-3.02,1.24-6.67.96-10.04,1.35,1-3.51,1.6-7.2,3.08-10.51,3.5-7.87,7.51-15.5,11.11-23.33,1.38-3,.21-5.45-2.95-6.54-4.83-1.66-9.63-3.65-14.62-4.54-8.26-1.46-16.62-2.58-24.99-3.06-8.61-.49-17.27-.05-27.04,0,1.63,3.85,2.55,6.02,3.47,8.18,1.87,4.41,4.45,8.66,5.48,13.26,2.7,12.02,4.87,24.16,6.89,36.32.38,2.26-.88,4.79-1.38,7.19-.67-.03-1.33-.05-2-.08-.5-1.67-1.1-3.32-1.46-5.02-.53-2.49-.69-5.08-1.35-7.53-2.15-7.88-4.12-15.83-6.8-23.53-2.36-6.77-5.09-13.52-8.57-19.76-3.65-6.55-4.88-6.58-11.54-3.36-9.54,4.6-19.01,9.35-28.51,14.04-2.99,1.47-5.99,2.93-10.36,5.06,11.12,4.06,16.99,11.91,22.93,19.65,5.87,7.64,13.86,13.9,16.03,24.17-1.82-.08-3.23-.55-4.13-1.5-10.56-11.17-20.6-22.85-34.5-30.32-7.04-3.78-13.28-3.66-19.31,1.64-2.45,2.15-5.09,4.08-7.66,6.09-10.75,8.46-21.56,16.84-32.23,25.4-4.34,3.48-3.69,10.71,1.11,13.43,13.13,7.44,26.56,14.36,39.4,22.26,12.7,7.82,26.14,14.4,35.69,27.04,6.17,8.17,11.18,16.29,15.16,25.76,7.15,16.99,1.27,30.81-8.21,43.92-5.34,7.39-12.61,13.35-18.42,20.43-15.31,18.66-30.69,37.3-42.43,58.58-5.11,9.26-10.36,18.45-15.71,27.58-1.14,1.94-2.97,3.47-4.48,5.19-1.19-2.28-2.52-4.5-3.5-6.87-.43-1.04-.16-2.38-.21-3.58-.43-9.42-.44-18.89-1.38-28.26-1.79-17.87-3.81-35.73-6.28-53.51-2.01-14.42-4.29-28.85-7.44-43.05-3.02-13.62-7.35-26.95-11.03-40.42-2.39-8.76-3.91-17.84-7.11-26.29-5.82-15.38-12.49-30.43-19.01-45.53-3.23-7.49-7.16-14.69-10.34-22.2-2.93-6.91-4.75-14.32-7.98-21.07-8.59-17.98-6.34-35.6.99-53.1,4.89-11.68,13.94-20.33,23.04-28.59,15.46-14.05,35.36-19.17,54.67-24.97,10.94-3.29,22.37-5.04,33.64-7.14,4.67-.87,9.5-1.1,14.27-1.22,10.94-.27,21.9-.05,32.82-.52,6.74-.29,8.79-4.15,5.56-10.07-5.08-9.3-10.36-18.5-15.83-27.58-4.95-8.21-10.26-16.2-15.46-24.26-2.37-3.68-4.98-7.07-10.18-6.15-8.51,1.5-17.22,2.3-25.51,4.61-16.51,4.61-32.36,11.02-46.43,21.12-8.05,5.78-15.98,11.71-23.95,17.56-3.47-3.12-3.39-6.1.46-9.14,2-1.58,4.56-2.45,6.53-4.06,10.37-8.45,21.86-15.03,33.93-20.69,3.52-1.65,7.01-3.36,10.59-4.86,7.08-2.96,14.08-6.18,21.36-8.57,6.73-2.22,13.76-3.51,21.36-5.39-4.65-9.28-9.32-18.4-17.72-24.25-10.03-6.99-20.81-12.92-31.41-19.07-1.26-.73-3.77-.58-5.04.21-5.81,3.62-12.12,6.88-16.92,11.62-16.55,16.29-31.53,33.85-40.11,55.94-.76,1.95-2.55,3.5-3.86,5.23-.66-.33-1.32-.66-1.98-1,.48-3.29.19-6.95,1.58-9.8,3.81-7.82,8.12-15.42,12.62-22.88,3.42-5.67,6.81-11.57,11.32-16.33,9.33-9.83,19.39-18.96,28.97-28.21-2.23-1.2-4.9-2.98-7.82-4.12-7.58-2.98-15.09-6.4-22.96-8.28-7.09-1.7-14.61-1.74-21.96-2.18-1.75-.11-4.54.56-5.21,1.78-3.87,7.01-7.75,14.09-10.65,21.53-3.65,9.39-6.64,19.08-9.4,28.78-4,14.02-3.02,28.54-3.73,42.9-.11,2.22-1.22,4.39-1.97,6.93-5.4-4.76-7.46-34.44-2.74-50.74,4.81-16.64,11.24-32.81,17.12-49.64-2.89.29-6.3.32-9.56,1.04-8.12,1.78-16.2,3.78-24.24,5.89-3.12.82-6.32,1.81-9.11,3.39-6.06,3.43-11.41,8.07-10.34,15.75,1.36,9.8,3.93,19.43,5.75,29.18,1.26,6.74,2.34,13.53,3.05,20.34.13,1.24-1.65,3.35-3,3.85-.98.37-3.22-.88-4.02-2.02-9.33-13.3-18.27-26.87-27.8-40.02-4.51-6.22-10.42-10.14-19.06-7.68-11.24,3.2-20.2,9.98-29.75,16.91,3.12,1.67,5.93,2.68,8.15,4.45,7.1,5.64,14.13,11.39,20.91,17.4,14.6,12.93,29.89,25.15,42.49,40.19,1.88,2.24,3,5.11,4.48,7.69-.59.44-1.17.88-1.76,1.32-5.49-4.5-11.2-8.76-16.41-13.55-9.84-9.04-19-18.86-29.2-27.46-9.97-8.41-19.26-18.14-32.3-22.11-2.05-.62-5.38-1.11-6.53,0-6.26,6.03-13.06,11.91-17.69,19.12-6.45,10.02-11.17,21.16-16.59,31.83-.72,1.42-1.22,2.95-2.2,5.34,18.74-1.11,36.42-1.15,53.41,4.85,18.99,6.7,42.45,21.43,44.08,28.2-2.29-.69-4.44-.81-5.91-1.87-12.83-9.24-27.25-15.18-42.11-20.03-6.13-2-12.65-3-19.08-3.79-5.07-.62-10.26-.27-15.4-.25-4.61.02-9.22.16-13.83.26-3.21.07-4.96,1.73-5.65,4.87-1.62,7.34-3.73,14.59-4.99,21.99-1.18,7-1.52,14.14-2.3,22,4.93-2.21,9.31-4.41,13.86-6.18,16.62-6.45,33.4-4.54,50.1-.43,2.93.72,5.51,2.92,8.25,4.43Z"/><path class="cls-3" d="m385.03,285.44c-2.74-1.51-5.31-3.71-8.25-4.43-16.7-4.11-33.48-6.02-50.1.43-4.55,1.77-8.93,3.97-13.86,6.18.79-7.86,1.12-15,2.3-22,1.25-7.4,3.37-14.65,4.99-21.99.69-3.14,2.44-4.8,5.65-4.87,4.61-.1,9.22-.25,13.83-.26,5.14-.02,10.33-.37,15.4.25,6.43.79,12.95,1.79,19.08,3.79,14.86,4.85,29.28,10.79,42.11,20.03,1.47,1.06,3.62,1.18,5.91,1.87-1.63-6.78-25.09-21.5-44.08-28.2-16.99-5.99-34.68-5.95-53.41-4.85.97-2.39,1.48-3.92,2.2-5.34,5.42-10.68,10.14-21.81,16.59-31.83,4.64-7.2,11.44-13.08,17.69-19.12,1.15-1.1,4.47-.62,6.53,0,13.04,3.97,22.32,13.7,32.3,22.11,10.2,8.6,19.36,18.43,29.2,27.46,5.22,4.79,10.93,9.05,16.41,13.55.59-.44,1.17-.88,1.76-1.32-1.47-2.58-2.6-5.45-4.48-7.69-12.6-15.04-27.89-27.26-42.49-40.19-6.79-6.01-13.81-11.76-20.91-17.4-2.22-1.76-5.03-2.78-8.15-4.45,9.55-6.93,18.52-13.71,29.75-16.91,8.63-2.46,14.55,1.46,19.06,7.68,9.53,13.15,18.47,26.72,27.8,40.02.8,1.14,3.04,2.39,4.02,2.02,1.35-.5,3.13-2.61,3-3.85-.71-6.81-1.79-13.6-3.05-20.34-1.83-9.75-4.39-19.38-5.75-29.18-1.07-7.68,4.28-12.33,10.34-15.75,2.79-1.58,5.98-2.57,9.11-3.39,8.04-2.11,16.12-4.11,24.24-5.89,3.26-.72,6.67-.74,9.56-1.04-5.88,16.83-12.3,33-17.12,49.64-4.72,16.3-2.66,45.97,2.74,50.74.75-2.54,1.86-4.71,1.97-6.93.7-14.35-.27-28.88,3.73-42.9,2.77-9.7,5.75-19.39,9.4-28.78,2.89-7.44,6.78-14.52,10.65-21.53.67-1.22,3.46-1.88,5.21-1.78,7.35.44,14.87.49,21.96,2.18,7.87,1.88,15.38,5.3,22.96,8.28,2.92,1.15,5.59,2.93,7.82,4.12-9.59,9.25-19.65,18.38-28.97,28.21-4.51,4.75-7.9,10.66-11.32,16.33-4.5,7.45-8.81,15.06-12.62,22.88-1.39,2.85-1.1,6.51-1.58,9.8.66.33,1.32.66,1.98,1,1.31-1.73,3.1-3.28,3.86-5.23,8.59-22.09,23.57-39.65,40.11-55.94,4.81-4.73,11.11-7.99,16.92-11.62,1.27-.79,3.79-.94,5.04-.21,10.59,6.15,21.38,12.08,31.41,19.07,8.4,5.85,13.07,14.98,17.72,24.25-7.6,1.87-14.63,3.17-21.36,5.39-7.27,2.4-14.28,5.61-21.36,8.57-3.58,1.5-7.07,3.21-10.59,4.86-12.06,5.65-23.55,12.23-33.93,20.69-1.97,1.61-4.53,2.48-6.53,4.06-3.84,3.04-3.92,6.02-.46,9.14,7.96-5.85,15.9-11.78,23.95-17.56,14.07-10.1,29.92-16.51,46.43-21.12,8.29-2.31,17-3.11,25.51-4.61,5.2-.92,7.81,2.47,10.18,6.15,5.2,8.06,10.51,16.05,15.46,24.26,5.48,9.07,10.75,18.28,15.83,27.58,3.23,5.91,1.18,9.78-5.56,10.07-10.93.47-21.88.24-32.82.52-4.77.12-9.6.35-14.27,1.22-11.27,2.11-22.7,3.85-33.64,7.14-19.3,5.81-39.21,10.92-54.67,24.97-9.09,8.26-18.14,16.91-23.04,28.59-7.34,17.5-9.59,35.12-.99,53.1,3.23,6.75,5.05,14.16,7.98,21.07,3.18,7.51,7.11,14.71,10.34,22.2,6.52,15.1,13.19,30.16,19.01,45.53,3.2,8.45,4.72,17.53,7.11,26.29,3.68,13.48,8.01,26.8,11.03,40.42,3.15,14.21,5.44,28.63,7.44,43.05,2.48,17.78,4.5,35.64,6.28,53.51.94,9.37.95,18.83,1.38,28.26.05,1.2-.22,2.54.21,3.58.98,2.37,2.31,4.59,3.5,6.87,1.51-1.72,3.35-3.25,4.48-5.19,5.35-9.13,10.6-18.32,15.71-27.58,11.74-21.28,27.11-39.92,42.43-58.58,5.81-7.08,13.08-13.04,18.42-20.43,9.47-13.11,15.36-26.94,8.21-43.92-3.99-9.47-8.99-17.59-15.16-25.76-9.55-12.64-22.99-19.22-35.69-27.04-12.84-7.9-26.27-14.83-39.4-22.26-4.8-2.72-5.44-9.95-1.11-13.43,10.67-8.55,21.48-16.94,32.23-25.4,2.56-2.02,5.21-3.94,7.66-6.09,6.04-5.3,12.28-5.42,19.31-1.64,13.91,7.47,23.94,19.15,34.5,30.32.9.95,2.31,1.43,4.13,1.5-2.17-10.26-10.16-16.53-16.03-24.17-5.94-7.73-11.81-15.59-22.93-19.65,4.37-2.13,7.37-3.58,10.36-5.06,9.5-4.68,18.97-9.43,28.51-14.04,6.66-3.21,7.9-3.18,11.54,3.36,3.48,6.25,6.21,12.99,8.57,19.76,2.68,7.7,4.65,15.65,6.8,23.53.67,2.45.82,5.03,1.35,7.53.36,1.7.97,3.35,1.46,5.02.67.03,1.33.05,2,.08.5-2.4,1.76-4.94,1.38-7.19-2.03-12.15-4.19-24.3-6.89-36.32-1.03-4.6-3.61-8.85-5.48-13.26-.92-2.17-1.84-4.33-3.47-8.18,9.78-.04,18.44-.48,27.04,0,8.37.48,16.73,1.6,24.99,3.06,4.99.88,9.79,2.88,14.62,4.54,3.16,1.08,4.33,3.54,2.95,6.54-3.6,7.82-7.61,15.46-11.11,23.33-1.47,3.3-2.08,6.99-3.08,10.51,3.37-.4,7.02-.11,10.04-1.35,4.88-2.01,9.39-4.93,13.97-7.64,8.08-4.78,15.88-10.08,24.19-14.42,8.42-4.4,16.84-1.94,26,2.02-4.59,1.88-8.44,3.18-12.02,4.99-9.4,4.77-18.54,10.06-28.06,14.59-9.58,4.56-17.34,11.55-25.12,18.35-5.45,4.76-9.7,10.94-14.16,16.73-1.1,1.43-.95,3.83-.47,6.57,1.37-1.02,3.17-1.75,4.03-3.09,10.31-16.07,24.67-27.28,41.79-35.21,11.5-5.33,23.21-10.26,34.51-16,8.14-4.14,15.18-2.94,21.7,2.59,3.86,3.28,7.12,7.27,11.61,11.94-6.6,3.04-12.07,5.61-17.59,8.1-10.75,4.84-21.54,9.58-32.27,14.47-8.52,3.89-17.35,7.29-25.32,12.1-8.71,5.25-16.62,11.82-24.81,17.91-1.2.89-2.03,2.28-3.07,3.4-3.09,3.33-6.21,6.64-9.31,9.96.45.55.89,1.1,1.34,1.65,4.09-2.19,8.99-3.57,12.13-6.71,14.46-14.47,32.13-23.85,50.36-32.09,16.04-7.26,32.66-13.24,49.1-19.59,5.02-1.94,8.06.22,9.95,7.13,3.02,11.04,5.78,22.15,8.5,33.27,1.44,5.9.45,7.13-5.33,7.47-6.85.4-13.72.55-20.54,1.18-12.45,1.15-25,1.91-37.28,4.07-13.07,2.3-24.95,8.28-36.34,15.05-.6.36-.87,1.26-1.97,2.97,5.84-.92,10.66-1.48,15.4-2.45,16.23-3.33,32.36-7.21,48.67-10.08,9.02-1.59,18.31-1.91,27.5-2.12,3.6-.08,7.29,1.59,10.85,2.75.82.27,1.72,1.69,1.78,2.64.85,13.14,1.46,26.29,2.37,39.43.25,3.56-1.13,5.39-4.29,6.55-7.07,2.6-14.13,5.24-21.11,8.09-3.15,1.29-6.33,2.77-9.03,4.79-1.48,1.11-3.22,4.23-2.66,5.21,1.13,1.99,3.56,3.52,5.77,4.54,4,1.85,8.25,3.17,12.38,4.74,4.01,1.52,8.12,2.85,11.95,4.73,1.33.65,2.84,2.79,2.74,4.14-.27,3.68-.97,7.44-2.22,10.91-2.01,5.57-4.61,10.93-7.22,16.99-6.44-9.88-13.23-18.86-23.21-25.12-9.47-5.94-18.24-13.02-29.96-13.86-.17,4.74,3.74,5.1,6.9,7.17,7.81,5.11,15.23,11.02,21.97,17.49,6.85,6.57,12.76,14.12,18.88,21.41,1.05,1.25,1.89,3.63,1.43,5.04-3.8,11.63-7.93,23.16-12.93,34.69-7.54-26.48-21.83-47.44-44.59-62.47-3.34,2.05-2.86,3.62-.33,6.28,11.66,12.31,22.93,24.92,27.28,42.05.96,3.79,3.1,7.3,3.99,11.1,1.55,6.58,2.59,13.28,3.72,19.95.12.71-.45,1.64-.92,2.32-5.83,8.45-11.36,17.13-17.7,25.18-3.43,4.36-8.07,7.87-12.51,11.31-3.81,2.96-7.18,1.69-7.37-3.12-.29-6.98.56-14.01.92-21.02.9-17.63.35-35.44-6.17-51.81-7.41-18.59-18.18-35.73-34.44-48.09-6.17-4.69-14.05-7.65-21.6-9.9-12.04-3.59-24.7-4.89-37.15-3.17-7.48,1.03-14.88,3.98-21.87,7.09-20,8.89-31.27,27.08-43.76,43.5-9.18,12.07-16.57,25.62-23.85,39-7.6,13.96-14.73,28.25-20.89,42.89-4.1,9.73-6.06,20.35-9.15,30.52-1.94,6.38-4.47,12.58-6.27,18.99-1.56,5.59-2.48,11.35-3.65,17.05-4.99,24.34-10.85,48.54-14.71,73.05-4.08,25.89-6.25,52.08-9.23,78.13-.92,8.01-2.04,16-2.54,24.04-.57,9.07-.32,18.19-.86,27.27-.44,7.46-1.44,14.9-2.33,22.33-.95,7.94-7.61,9.99-14.18,9.9-5.67-.08-10.99-5.78-10.93-12.2.07-7.71.68-15.44,1.42-23.12,1.32-13.66,2.7-27.32,4.45-40.94,1-7.8,2.94-15.48,4.17-23.26,1.17-7.39,2.62-14.83,2.78-22.28.32-15.07-3.24-29.71-8.86-43.46-6.39-15.66-14.44-30.66-21.92-45.86-8.49-17.25-21.69-30.5-36.19-42.77-8.82-7.47-17.78-14.34-29.79-14.69-6.71-.2-13.97-.56-20.07,1.67-12.86,4.71-24.79,11.37-33.99,22.23-6.35,7.49-14.65,13.47-20.21,21.43-7.85,11.23-16.05,22.57-17.72,37.08-1.16,10.15-3.5,20.16-5.27,30.24-.97,5.54-4.31,7.72-8.94,4.63-8.35-5.59-16.21-11.91-24.15-18.1-.83-.65-1.27-2.51-1.07-3.67,2.78-15.76,6.37-31.25,16.18-44.44,1.22-1.64,2.95-2.93,4.03-4.64.6-.95.88-3.07.33-3.54-.81-.7-2.82-.98-3.73-.45-5.57,3.25-11,6.44-13.32,13.32-2.45,7.26-6.19,14.08-8.87,21.28-1.33,3.58-1.55,7.58-2.27,11.39l-1.61.56c-5.37-8.62-10.77-17.23-16.09-25.88-.41-.67-.66-1.73-.43-2.45,5.5-17.65,13.95-33.09,31.68-41.36,3.84-1.79,7.93-3.13,11.55-5.26,1.43-.84,1.91-3.3,2.82-5.02-1.49-.35-3.14-1.3-4.43-.95-15.68,4.32-28.9,12.38-38.12,26.11-3.59,5.34-6.81,10.92-10.71,17.2-2.23-8.15-3.99-15.92-6.5-23.44-2.96-8.88-2.58-17.8-1.89-26.89,1.27-16.48,2.96-14.78,17.95-17.47,2.01-.36,4.15-.08,6.1-.61,1.61-.44,4.29-1.67,4.27-2.5-.05-2-.88-4.57-2.33-5.82-3.5-2.99-7.47-5.45-11.36-7.95-8.73-5.62-8.76-5.57-6.54-15.46,2.44-10.91,7.28-14.35,18.4-12.71,14.08,2.07,27.9,5.2,40.93,11.12,2.01.91,3.84,2.4,5.92,2.9,1.52.36,3.32-.46,4.99-.76-.83-1.47-1.29-3.61-2.55-4.28-3.6-1.93-7.49-3.33-11.31-4.84-7.32-2.89-14.52-6.23-22.05-8.4-5.49-1.58-11.42-1.72-17.18-2.25-3.18-.29-6.4-.05-11-.05,7.16-15.04,11.08-30.36,23.53-41.91,14.65,10.3,29.52,20.61,44.21,31.19,5.11,3.68,9.66,8.13,14.64,12.01,1.07.83,2.89.69,4.37,1-.36-1.55-.22-3.6-1.18-4.56-4.92-4.96-9.82-10.03-15.3-14.32-9.42-7.36-19.32-14.1-28.92-21.22-4.34-3.22-8.45-6.75-13.78-11.03,8.06-6.6,15.96-13.31,24.21-19.56,1.2-.91,4.43-.28,6.04.73,3.31,2.08,6.4,4.66,9.13,7.47,9.27,9.53,18.32,19.27,27.55,28.84,1.09,1.13,2.82,1.66,4.49,2.59.87-5.28-1.71-8.47-4.75-11.59-6.58-6.74-12.94-13.69-19.6-20.35-4.07-4.07-8.52-7.74-13.41-12.15,5.31-2.58,10.11-4.93,14.92-7.25.46-.22,1.05-.18,1.47-.44,6.29-3.89,12.5-4.29,19.42-1.07,6.34,2.95,12.27,5.96,16.15,12.12,1.21,1.92,2.98,3.78,4.95,4.82.93.49,3.92-.71,4.24-1.69,1.16-3.68,2.16-7.58,2.21-11.41.19-14.49,1.52-16.14,15.93-15.95,12.28.16,24.56.72,36.83,1.1.21.57.41,1.15.62,1.72-1.26,1.65-2.24,3.68-3.83,4.9-13.23,10.17-21.47,23.76-27.55,39-1.51,3.79-2.23,7.06,1.32,11.96.48-1.23.92-2.16,1.21-3.13,6.07-20.18,19.84-34.75,35.1-48.23,3.51-3.1,7.53-2.76,11.1-.92,5.28,2.72,10.18,6.18,15.65,9.57-3.27,2.95-6.52,5.47-9.27,8.45-6.59,7.17-13.05,14.48-19.28,21.96-.96,1.15-.45,3.53-.62,5.34,1.53-.87,3.54-1.38,4.5-2.67,7.2-9.64,14.21-19.38,25.05-25.49,3.4-1.92,6.15-3.13,9.5.14,7.68,7.49,15.88,14.48,23.33,22.19,7.32,7.58,1.32,22.12-10.52,23.33-12.46,1.28-24.1,4.96-34.28,12.64-13.37,10.09-24.29,22.56-31.68,37.34-4.71,9.42-4.66,20.79,0,30.54,2.29,4.78,7.88,8.23,12.49,11.57,3.83,2.77,8.41,4.5,12.64,6.72,11.93,6.27,20.94,15.36,28.22,26.8,7.27,11.43,15.02,22.43,19.64,35.36,3.69,10.3,8.25,20.29,12.39,30.43,1.75,4.29,4.55,8.3,2.98,13.47-.25.81,1.77,2.32,2.74,3.5,1.15-1.06,2.94-1.91,3.36-3.2,3.14-9.79,6.18-19.61,8.94-29.51,5.14-18.49,10.32-36.98,14.99-55.6,2.37-9.43,3.46-19.16,5.54-28.67,1.34-6.16,3.2-12.24,5.26-18.21,1.26-3.64,2.04-6.32-2.44-8.39-1.48-.68-2.74-3.47-2.8-5.34-.45-13.63-.32-27.29-.85-40.92-.88-22.57-.45-45.26-5.14-67.55-3.34-15.9-5.98-31.98-10-47.71-3.81-14.91-8.93-29.48-13.64-44.15-2.71-8.45-5.25-17.02-8.76-25.14-5.34-12.35-11.66-24.28-17.18-36.56-4.06-9.04-7.37-18.41-11.26-27.53-6.49-15.22-15.63-28.93-26.72-41-4.62-5.04-12.16-7.35-18.26-11.1-11.3-6.95-24.45-6.14-36.77-8.62-4.62-.93-9.97.34-14.69,1.67-9.2,2.59-18.38,5.49-27.22,9.11-8.04,3.29-15.61,7.73-23.4,11.62-10.6,5.3-20.83,11.18-28.65,20.32-5.1,5.96-9.7,12.35-14.71,18.39-1.19,1.44-3.14,2.25-4.75,3.35-1.03-1.66-2.49-3.21-3.02-5.02-1.59-5.36-2.81-10.82-4.19-16.24-2.64-10.4.43-20.38,2.03-30.53,2.02-12.81,3.33-25.72,5.19-38.56.31-2.14,1.41-4.62,2.97-6.05,7.7-7.05,17.53-8.91,27.39-10.49,3.04-.49,6.19-.45,9.19-1.09,9.64-2.05,19.06-1.21,28.44,1.48,2.2.63,4.54.76,6.82,1.12.23-.64.45-1.28.68-1.92Zm309.56,216.65c-.64,15.81,13.35,25.92,28.5,20.42,1.79-.65,2.87-3.24,4.28-4.94-1.73-.86-3.37-2.1-5.2-2.5-3.74-.81-7.99-.31-11.3-1.88-6.56-3.1-9.17-8.74-7.94-16.21.26-1.59-1.22-4.72-2.45-5.05-2.8-.75-5.52.5-5.85,4.07-.19,2.01-.03,4.05-.03,6.08Zm-265.1,180.03c-.37-2.13-.18-3.99-1.01-5.06-1.31-1.71-3.3-2.91-5.01-4.32-.59,1.92-1.78,3.87-1.64,5.74.43,5.9-3.12,12.57-9.17,15.37-3.38,1.56-7,2.74-10.62,3.61-3.79.91-3.61,3.9-3.39,6.4.07.82,3.14,2.21,4.55,1.93,4.45-.9,9.08-1.86,13.06-3.92,8.04-4.16,11.59-11.66,13.24-19.74Zm62.22-391.22c-1.19,2.08-2.25,3.29-2.61,4.67-3.04,11.76-14.54,15.94-25.44,9.73-1.41-.8-3.54-.35-5.34-.48.8,1.78,1.11,4.31,2.49,5.22,8.52,5.61,17.37,6.64,26.58,1.23,4.44-2.61,9.09-11.33,7.71-16.09-.4-1.39-1.9-2.46-3.39-4.28Zm-79.42,21.79c-.24,4.06,2.01,6.22,6.68,6.41,5.19.21,9.02-3.66,9.27-9.37.19-4.35-3.51-9.02-7.25-9.16-4.38-.17-8.28,5.26-8.69,12.12Zm276.77,145.93c.04-4.98-2.13-6.66-8.69-6.73-4.26-.05-7.57,3.6-7.62,8.4-.05,5.37,2.95,9.09,7.42,9.22,4.49.13,8.85-5.21,8.89-10.89Zm80.23,69.9c-.06-5.29-4.64-9.76-9.95-9.71-3.3.04-7.74,4.21-7.58,7.13.21,3.86,7.13,10.39,10.94,10.33,3.39-.06,6.64-3.88,6.6-7.75Zm-245.38-247.06c3.07.17,8.5-5.05,8.63-8.29.14-3.52-5.83-9.01-9.9-9.11-2.77-.06-7.23,5.09-7.25,8.35-.01,3.93,4.61,8.83,8.52,9.04Zm-143.22,430.32c-.15-4.31-3.03-7.62-6.52-7.48-3.71.15-9.96,7.16-8.59,10.99.88,2.47,4.6,4.95,7.4,5.46,4,.72,7.86-4.47,7.71-8.97Zm58.91-60.14c.1-3.97-3.55-8.08-7.11-8.02-3.07.05-6.94,3.93-7.08,7.1-.16,3.51,3.56,7.75,6.77,7.72,4.48-.04,7.31-2.64,7.42-6.8Z"/><path d="m694.59,502.09c0-2.03-.15-4.07.03-6.08.33-3.56,3.05-4.81,5.85-4.07,1.23.33,2.71,3.46,2.45,5.05-1.23,7.47,1.39,13.1,7.94,16.21,3.32,1.57,7.56,1.07,11.3,1.88,1.83.39,3.47,1.64,5.2,2.5-1.41,1.69-2.49,4.29-4.28,4.94-15.15,5.49-29.14-4.62-28.5-20.42Z"/><path d="m429.49,682.11c-1.65,8.08-5.2,15.57-13.24,19.74-3.98,2.06-8.61,3.02-13.06,3.92-1.41.29-4.48-1.11-4.55-1.93-.22-2.5-.4-5.49,3.39-6.4,3.62-.87,7.24-2.05,10.62-3.61,6.05-2.8,9.6-9.47,9.17-15.37-.13-1.86,1.06-3.82,1.64-5.74,1.7,1.41,3.7,2.61,5.01,4.32.83,1.08.63,2.94,1.01,5.06Z"/><path d="m491.71,290.89c1.49,1.82,2.98,2.89,3.39,4.28,1.37,4.77-3.27,13.48-7.71,16.09-9.21,5.41-18.06,4.38-26.58-1.23-1.38-.91-1.69-3.44-2.49-5.22,1.8.13,3.93-.33,5.34.48,10.9,6.21,22.41,2.03,25.44-9.73.36-1.39,1.42-2.59,2.61-4.67Z"/><path d="m412.3,312.69c.41-6.86,4.31-12.29,8.69-12.12,3.74.15,7.44,4.82,7.25,9.16-.25,5.72-4.07,9.58-9.27,9.37-4.67-.19-6.92-2.36-6.68-6.41Z"/><path d="m689.07,458.62c-.04,5.67-4.41,11.01-8.89,10.89-4.47-.13-7.47-3.85-7.42-9.22.05-4.8,3.35-8.45,7.62-8.4,6.56.07,8.73,1.75,8.69,6.73Z"/><path d="m769.29,528.51c.04,3.87-3.21,7.69-6.6,7.75-3.82.07-10.74-6.47-10.94-10.33-.16-2.92,4.29-7.09,7.58-7.13,5.31-.06,9.9,4.42,9.95,9.71Z"/><path d="m523.91,281.46c-3.91-.21-8.53-5.12-8.52-9.04.01-3.27,4.48-8.42,7.25-8.35,4.07.1,10.04,5.59,9.9,9.11-.13,3.25-5.55,8.46-8.63,8.29Z"/><path d="m380.69,711.78c.15,4.5-3.71,9.7-7.71,8.97-2.8-.51-6.51-2.99-7.4-5.46-1.37-3.83,4.88-10.84,8.59-10.99,3.49-.14,6.38,3.16,6.52,7.48Z"/><path d="m439.6,651.64c-.1,4.16-2.93,6.76-7.42,6.8-3.21.03-6.93-4.21-6.77-7.72.14-3.17,4.01-7.04,7.08-7.1,3.56-.06,7.21,4.05,7.11,8.02Z"/><path class="cls-1" d="m584.02,665.62h0c-.3-.57-.6-1.14-.91-1.7.31.57.61,1.13.91,1.7Z"/></svg>