<?xml version="1.0" encoding="UTF-8"?><svg id="Layer_1" xmlns="http://www.w3.org/2000/svg" xmlns:xlink="http://www.w3.org/1999/xlink" viewBox="0 0 1150 1100"><defs><style>.cls-1{fill:#ebd653;}.cls-2,.cls-3{fill:#fff;}.cls-4{fill:#fff9f4;}.cls-5{fill:#65a9d6;}.cls-6{fill:#1a1a1a;}.cls-3{filter:url(#drop-shadow-1);}</style><filter id="drop-shadow-1" filterUnits="userSpaceOnUse"><feOffset dx="15" dy="15"/><feGaussianBlur result="blur" stdDeviation="15"/><feFlood flood-color="#000" flood-opacity=".5"/><feComposite in2="blur" operator="in"/><feComposite in="SourceGraphic"/></filter></defs><path class="cls-3" d="m464.71,1032.24c-14.97,0-29.82-4.98-41.8-14.01-.27-.21-.54-.42-.82-.62-27.06-3.32-48.78-23.29-54.15-50.83-.09-.44-.19-.88-.29-1.34-1.97-8.79-7.22-32.14,9.16-55.19,8.21-11.54,20.02-19.74,33.28-23.11,10.59-2.69,21.25-5.28,31.57-7.78,5.15-1.25,10.3-2.5,15.44-3.76-.99-1.29-2.05-2.7-3.16-4.23-1.71-2.36-3.45-4.7-5.19-7.05-5.67-7.64-12.1-16.3-17.95-25.96-11.3-18.67-16.26-37.94-19.32-52.64-.73-3.5-1.32-6.84-1.83-9.78-.36-2.04-.71-4.02-1.06-5.78-.65-.92-1.36-1.95-2.11-3.08-2.88-4.38-5.92-8.8-9.13-13.48-7.52-10.95-15.3-22.26-22.41-35.06-16.66-29.99-27.38-61.59-31.87-93.93-.47-3.41-1.5-7.78-2.58-12.41-1.58-6.77-3.38-14.45-4.47-23.07-1.85-14.63-2.53-29.34-2-43.71.64-17.46,2.12-35.66,4.42-54.11,1.38-11.07,4.08-20.61,6.47-29.03.5-1.76,1-3.51,1.47-5.26,8.52-31.4,26.51-54.14,42.49-70.07-1.97.23-3.94.47-5.92.71-7.88.95-16.03,1.93-24.45,2.68-1.68.15-3.39.23-5.08.23-14.75,0-29.37-5.63-40.11-15.46-18.1-16.55-21.82-43.36-9.23-66.69,4.54-8.41,10.27-15.6,17.04-21.37,7.11-6.07,14.31-12.11,21.27-17.96l.25-.21c-1.81-23.58,5.1-43.35,8.94-54.34,6.56-18.77,13.47-34.65,21.13-48.54,8.78-15.93,19.84-29.3,28.49-39.16,9.65-11,20.38-19.5,29.61-26.36,17.02-12.66,34.95-19.25,51.85-24.92,16.12-5.4,30.98-8.03,45.44-8.03,1.07,0,2.14.01,3.21.04l2.39.06c18.71.49,42,1.09,66.26,12.66,2.28,1.09,5.15,2.28,8.2,3.53,6.3,2.6,14.14,5.84,22.14,10.44,15.73,9.04,29.73,21.23,41.62,36.22.65.82,1.58,1.91,2.56,3.07,3.31,3.9,7.85,9.24,12,16.06,5.53,9.09,11.22,19.11,15.39,30.79,5.26,14.77,10.28,31.02,11.39,49.84,1.39,23.39-1.71,44.01-9.46,63.04-3.88,9.52-8.38,18.01-12.36,25.5-2.48,4.68-4.83,9.11-6.68,13.12-.51,1.11-1.03,2.23-1.56,3.36-.91,1.95-2.08,4.46-3.01,6.63,24.48,12.17,42.4,29.96,53.34,52.98,1.54,3.23,3.78,7.1,6.15,11.21,2.76,4.76,5.88,10.16,8.84,16.14,4.2,8.5,6.78,16.59,8.86,23.09.27.86.54,1.71.82,2.56,1.02,3.15,2.05,6.28,3.08,9.42,3.8,11.53,7.72,23.46,11.06,36.11,4.02,15.28,6.75,30.05,9.42,45.1,1.51,8.5,1.53,16.07,1.55,21.59,0,1.17,0,2.33.03,3.5.53,22.9-3.08,44.22-6.26,63.04-.71,4.21-1.38,8.2-2.01,12.17-3.09,19.6-5.79,38.72-5.17,56.73,3.98,2.48,7.65,4.64,10.59,5.88,12.72,5.38,27,10.56,43.64,15.83,2.6.82,7.67,1.5,12.58,2.15,1.76.23,3.51.47,5.25.71,2.6.37,5.21.77,7.82,1.17,6.59,1.02,12.82,1.98,17.28,1.98h.24c4.9-.04,11.73-1.26,18.97-2.55,1.83-.33,3.66-.65,5.48-.97,1.91-.33,4.83-1.12,7.93-1.95,2.86-.77,6.1-1.64,9.62-2.46,3.83-.88,7.77-1.33,11.72-1.33,17.17,0,33.32,8.17,43.19,21.85.44.6.86,1.21,1.26,1.83l21.62-10.13,13.91,59.4c.74,2.61,2.24,7.91,2.55,14.83,1.34,28.94-12.66,48.43-24.83,60.15l22.89,8.58-89.38,53.25c-1.96,1.17-4.02,2.45-6.2,3.8-15.75,9.78-37.33,23.17-67.05,23.17-2.63,0-5.3-.11-7.94-.33-9.33-.77-18.15-2.22-26.38-3.94,2.94,12.83,1.44,23.98.61,30.11l-.18,1.34c-4.7,36.83-32.42,53.32-57.8,53.32-5.28,0-10.63-.65-16.35-1.99-7.87-1.84-16.39-4.09-25.24-8.04-11.2-5-22.21-10.23-32.86-15.27-4.12-1.96-8.25-3.91-12.38-5.85-2.61-1.22-4.31-1.83-5.3-2.13-8.71,3.53-17.49,5.31-26.15,5.31-12.29,0-24.05-3.68-33.9-10.38-10.79,6.99-23.64,10.85-37.22,10.85-.92,0-1.85-.02-2.79-.05-3.38-.13-6.55-.32-9.62-.5-4.24-.25-8.24-.49-11.6-.49-.16,0-.32,0-.47,0-.21.12-.49.28-.83.51-7.9,5.21-15.53,9.52-22.9,13.69-3.59,2.03-6.97,3.94-10.19,5.85-10.51,6.23-22.54,9.52-34.79,9.52Z"/><path d="m839.55,858.95c8.45,14.35,20.86,20.86,37.3,20.06,3.24-.16,6.52.57,9.78,1.79-16.25,9.69-31.32,21.42-51.49,19.76-13.06-1.08-25.59-4.06-38.28-7.39-15.34-4.02-27.38-13.36-40.41-20.94-8.05-4.68-14.54-12.37-21-19.39-8.76-9.52-16.97-19.58-25.13-29.63-4.46-5.5-8.34-11.47-12.5-17.22-1.86-2.57-3.75-5.12-6.06-8.28-3.29,8.01-6.24,15.3-9.28,22.56-3.25,7.76-6.79,15.42-9.77,23.28-1.09,2.87-1.71,6.37-1.18,9.34,2.35,13.29,5.14,26.51,7.88,39.73,1.39,6.72,4.92,11.4,11.26,14.98,9.84,5.55,19.87,10.02,30.89,12.63,6.35,1.5,12.52,4.01,18.54,6.61,8.65,3.74,12.19,10.93,12.22,20.1,0,1.55-.25,3.54.56,4.57,4.93,6.23,3.47,13.3,2.6,20.06-1.11,8.71-4.63,10.98-13.17,8.98-5.51-1.29-11.1-2.72-16.24-5.01-14.9-6.66-29.59-13.79-44.37-20.73-14.46-6.8-29.05-10.21-44.71-3.47-11.17,4.8-17.92.44-19.46-11.72q-1.35-10.62,8.47-15.58c.78-.39,1.38-1.11,2.1-1.63,8.39-5.97,9.19-14.45,8.04-23.71-1.29-10.4-2.61-20.82-3.32-31.27-.28-4.14-2.37-5.92-5.47-7.59-14.82-7.97-29.57-16.08-44.43-23.99-8.87-4.72-17.88-9.16-27.67-14.15-.21,2.54-.1,4.61-.58,6.54-1.78,7.15-3.84,14.24-5.63,21.39-1.58,6.3-3.39,12.6-4.28,19.02-1.2,8.71-1.09,17.61-2.49,26.28-2.38,14.75.1,21.12,16.85,27.8,3.63,1.45,7.31,2.86,10.75,4.69,1.42.75,2.65,2.38,3.36,3.9,5.33,11.35-3.06,22.9-16.2,22.39-8.7-.34-17.42-1.23-26.1-1-9.38.25-17.89,3.45-25.91,8.74-10.01,6.6-20.72,12.13-31.05,18.25-10.69,6.34-25.13.23-27.92-12.01-.19-.83-.6-1.61-.99-2.6-4.69,1.06-9.08,2.58-13.57,2.94-7.49.59-13.07-3.42-14.52-10.83-1.15-5.91-3.54-12.24.55-18,1.12-1.58,3.01-3.15,4.84-3.62,16.51-4.2,33.08-8.11,49.62-12.19,9.78-2.41,19.54-4.9,29.25-7.59,1.27-.35,2.94-2.08,3.07-3.3,1.29-12.91,1.58-25.96,3.59-38.74,2.19-13.87-6.59-22.21-13.52-31.77-7.08-9.76-14.62-19.26-20.85-29.55-6.83-11.28-10.46-24.02-13.14-36.93-1.66-7.99-2.61-16.18-4.93-23.96-1.29-4.32-4.66-8.04-7.23-11.95-9.92-15.1-20.87-29.63-29.62-45.37-13.22-23.8-22.27-49.27-26.05-76.51-1.63-11.73-5.48-23.16-6.97-34.9-1.49-11.76-2.07-23.76-1.64-35.6.61-16.62,2.01-33.25,4.07-49.76,1.15-9.25,4.11-18.31,6.57-27.37,6.24-23,20.8-40.37,38.15-55.83,7.83-6.97,16.3-13.46,22.97-21.42,6.63-7.91,11.55-17.29,16.84-26.24,2.26-3.81.65-6.69-3.25-9.2-13.32-8.59-27.4-16.17-38.34-28.04-.67-.73-2.31-1.17-3.3-.93-8.58,2.18-17.05,4.8-25.68,6.74-4.75,1.07-9.75,1.03-14.62,1.59-11.12,1.27-22.22,2.76-33.36,3.76-2.32.21-5.31-.78-6.99-2.32-.85-.78.05-4.26,1.02-6.06,1.41-2.6,3.26-5.18,5.5-7.09,14.25-12.16,28.7-24.09,42.94-36.27.96-.82,1.26-3.07,1.02-4.51-.38-2.24-1.48-4.36-2.28-6.52-5.92-16.1-1.73-31.69,3.53-46.74,4.9-14.01,10.57-27.94,17.72-40.91,6.01-10.91,14.03-20.91,22.29-30.32,6.35-7.24,14.09-13.43,21.86-19.22,11.34-8.44,24.55-13.15,37.9-17.63,10.29-3.45,20.69-5.7,31.41-5.41,16.46.45,33.05.51,48.48,7.87,8.9,4.24,18.44,7.3,26.94,12.19,10.58,6.09,19.71,14.29,27.38,23.95,3.7,4.66,7.94,8.99,11.01,14.03,4.19,6.89,8.31,14.03,11,21.59,4.14,11.62,7.83,23.41,8.58,36.02.84,14.25-.55,28.2-5.85,41.23-5.12,12.58-12.48,24.24-18.16,36.61-4.12,8.97-8.85,18.24-10.11,27.79-1.19,8.97,1.26,18.6,3.13,27.73,2.15,10.5,10.8,13.69,19.91,17.51,15.4,6.45,28.54,16.31,36.12,32.26,4.57,9.61,10.61,18.5,15.33,28.05,2.96,5.98,4.86,12.51,6.93,18.89,4.61,14.24,9.55,28.4,13.36,42.86,3.56,13.51,6.1,27.32,8.54,41.09,1.01,5.71.69,11.67.82,17.52.52,22.45-4.2,44.25-7.67,66.26-3.93,24.89-7.35,49.96-5.22,75.33.03.35.1.73.02,1.07-3,12.22,4.42,18.94,13.35,24.5,8.87,5.52,17.64,11.52,27.19,15.56,15.67,6.62,31.79,12.3,48.01,17.44,8.31,2.63,17.23,3.47,25.93,4.7,10.89,1.54,21.85,3.73,32.76,3.64,10.86-.09,21.74-2.38,32.52-4.24,6.85-1.18,13.51-3.39,20.3-4.96.96-.22,2.6.3,3.14,1.05.54.74.56,2.59,0,3.29-5.3,6.5-8.34,14.81-16.24,19.25-9.56,5.37-18.61,11.7-28.38,16.63-4.9,2.47-10.9,2.76-16.39,4.05-1.31.31-2.61.67-3.91,1.01-.04.5-.08,1.01-.11,1.51,4.88,1,9.72,2.5,14.65,2.89,12.15.95,24.44,2.63,36.48,1.66,10.41-.84,20.65-4.66,30.77-7.79,2.56-.79,4.23-4.18,6.58-6.02,1.53-1.2,3.56-1.76,5.37-2.6.4,1.69,1.06,3.37,1.14,5.08.63,13.68-8.43,21.76-18.02,28.69-10.03,7.24-20.86,13.47-31.78,19.34-4.69,2.52-10.43,3.25-15.78,4.35-7.05,1.45-14.15,3.19-21.29,3.49-8.93.38-17.92-.58-27.16-.97Zm-282.81-189.51c-7.61-12.19-14.37-22.3-20.37-32.85-6.37-11.19-15.33-20.85-18.78-33.81-1.94-7.29-6.42-13.89-8.36-21.18-3.23-12.17-6.3-24.53-7.67-37-1.49-13.54-2.09-27.38-.98-40.92.94-11.54,4.58-22.9,7.57-34.2,1.62-6.12,3.39-12.6,6.82-17.77,9.62-14.48,18.93-29.38,32.68-40.51,8.38-6.79,16.76-13.77,25.93-19.35,13.18-8.03,28.61-10.19,43.31-14.08,5.87-1.55,6.05-1.51,3.71-7.36-1.9-4.75-4-9.5-5.14-14.45-3.95-17.27,3.66-32.11,11.03-46.69,8.49-16.78,17.55-33.22,22.18-51.69,4.09-16.31,5.36-32.99-1.3-48.25-5.8-13.29-14.93-25.21-23.25-37.28-7.59-11.02-18.65-18.6-30.08-24.93-9.55-5.29-20.55-7.87-30.45-12.61-16.27-7.79-32.64-5.88-49.48-2.82-11.69,2.13-22.34,6.68-33.34,10.69-15.32,5.58-28.38,14.31-38,26.96-12.08,15.88-23.02,32.59-30.58,51.44-3.9,9.74-8.17,18.97-9.58,29.62-1.36,10.33-.12,19.92,3.18,30.87,5.72-3.55,10.81-6.96,16.12-9.96,15.4-8.72,30.85-17.35,46.36-25.88,9.4-5.17,19.08-6.74,29.67-3.14,11.06,3.76,22.5,6.39,33.66,9.85,4.38,1.36,8.79,3.16,12.57,5.68,1.94,1.29,3.57,4.63,3.53,7.01-.13,7.09-.72,14.24-1.94,21.23-1.36,7.87-2.9,16.01-13.64,16.66-3.29.2-6.49,1.7-9.76,2.51-19.75,4.94-39.49,9.89-59.25,14.75-7.14,1.75-14.34,3.24-22.7,5.11,10.3,10.35,21.06,17.05,33.6,20.15,8.93,2.21,14.12,13.5,9.28,21.95-6.72,11.72-13.89,23.03-23.16,32.87-3.46,3.67-7.64,6.64-11.2,10.22-7.99,8.03-15.78,16.25-23.68,24.37-13.09,13.46-21.86,29.35-25.35,47.76-3.01,15.89-5.48,31.91-7.39,47.96-2.07,17.36-.93,34.39,8.47,49.97,4.31,7.13,7.39,15.15,12.46,21.64,8.87,11.34,19.45,21.06,32.45,27.84,7.86,4.11,15.22,9.27,23.31,12.83,8.59,3.78,17.73,6.31,26.68,9.23,13.31,4.34,26.6,8.72,40.01,12.74,6.46,1.94,13.17,3.08,20.84,4.83Zm143.69-38.31c2.8-5.17,4.7-9.37,7.19-13.19,13.47-20.58,17.91-43.03,14.54-67.24-.83-5.94-.73-12.03-1.85-17.9-1.33-6.94-3.65-13.69-5.3-20.58-7.16-29.83-17.04-58.39-35.63-83.45-9.39-12.67-19.5-24.1-33.04-32.55-9.52-5.94-18.9-10.19-30.29-6.75-3.9,1.18-7.82,2.32-11.76,3.37-6.66,1.76-13.44,3.15-20.01,5.22-8.79,2.76-16.14,7.79-22.57,14.55-8.83,9.28-19.01,17.4-27.05,27.29-6,7.38-9.93,16.58-14.04,25.32-8.64,18.37-9.12,38.39-9.08,58,.03,14.04,3.39,28.09,5.6,42.09,2.52,15.93,10.75,29.65,20.61,41.52,9.42,11.33,21.45,20.69,33.14,29.89,8.58,6.75,16.8,14.6,28.09,17.36-4.4-21.28-1-51.85,4.09-61.6,3.7,6.31,7.27,12.49,10.93,18.62,9.92,16.57,19.56,33.32,29.94,49.61,5.85,9.18,14.7,15.41,24.83,21.13.41-8.21,1.02-15.45,1.09-22.7.2-20.78.96-41.51,3.91-62.1.29-2.05,1.85-3.91,2.82-5.86,1.87,1.13,4.1,1.91,5.54,3.44,9.45,10,16.28,21.43,18.28,36.53Zm-301.8-31.85c-.35.07-.69.14-1.04.21,1.54,7.62,3.56,15.18,4.51,22.87,2.35,19,10.78,35.96,17.76,53.32,5.74,14.28,12.94,27.94,22.14,40.55,8.84,12.11,18.75,23.1,29.81,33.08,8.84,7.97,17.87,15.75,27.08,23.29,9.33,7.64,18.61,15.44,28.61,22.12,8.18,5.46,17.47,9.26,26.15,14.01,10.43,5.7,20.71,11.69,31.12,17.45,15.08,8.34,30.18,16.65,45.36,24.8,2.1,1.12,4.75,1.86,7.1,1.74,6.91-.33,13.79-1.38,20.7-1.72,3.13-.15,4.1-1.55,4.98-4.25,3.48-10.62,7.02-21.24,11-31.69,3.34-8.77,7.45-17.25,10.92-25.98.7-1.76.65-4.3-.09-6.05-4.45-10.63-9.1-21.18-13.93-31.65-.89-1.92-2.63-3.81-4.46-4.88-9.15-5.35-18.51-10.35-27.7-15.63-12.11-6.96-24.73-12.99-35.58-22.14-10.57-8.91-21.89-16.94-32.93-25.3-1.36-1.03-2.9-2.11-4.51-2.47-15.43-3.49-30.91-6.79-46.36-10.21-25.29-5.6-49.3-14.74-71.44-28.09-10.26-6.18-19.73-13.89-28.77-21.81-7.42-6.5-13.67-14.32-20.43-21.56Zm537.24,218.98c-21.49,6.86-42.71,10.1-64.64,5.62-11.76-2.4-22.83-6.44-32.47-13.66-1.78-1.34-2.35-4.3-3.47-6.51,2.24-.88,4.44-2.34,6.74-2.53,5.46-.43,10.98-.01,16.45-.37,16.52-1.09,29.89-8.94,42.09-19.6-6.81.72-13.28,1.83-19.78,1.97-6.72.14-13.46-.59-20.18-1.08-9.34-.68-18.69-1.26-27.99-2.3-10.38-1.16-20.88-2.03-31-4.43-10.14-2.4-20.16-5.9-29.73-10.06-11.84-5.16-23.39-11.12-34.62-17.5-5.53-3.14-10.08-8.03-16.03-12.91.26,3.35.22,5.46.62,7.48,1.72,8.86,3.64,17.68,5.35,26.54,1,5.16-.62,6.86-5.77,6.22-1.39-.17-2.77-.71-4.05-1.29-8.27-3.73-16.52-7.53-24.78-11.29-.58-.26-1.22-.4-2.71-.88.75,2.15,1.08,3.68,1.79,5.01,5.57,10.47,11.01,21.02,16.87,31.33,11.77,20.71,24.96,40.42,43.09,56.24,18.8,16.41,39.42,29.62,64.31,34.76,4.97,1.03,10.08,1.95,15.12,1.96,6.37,0,12.75-.83,19.09-1.59,3.35-.4,6.63-1.41,9.95-2.14-21.01-9.11-30.11-27.92-40.98-45.16,3.51-3.54,7.03-2.48,10.31-.28,9.5,6.37,20.04,8.87,31.23,7.77,18.38-1.8,36.45-4.67,53-14.06,8.24-4.68,15.89-9.59,22.2-17.26Zm-390.75-191.26c-.25.39-.51.78-.76,1.17,4.24,6.7,9.09,13.11,12.59,20.17,9.1,18.34,21.79,33.33,38.95,44.5,9.94,6.47,19.92,12.88,29.94,19.23,9.29,5.88,18.44,12.03,28.03,17.37,14.24,7.93,28.81,15.28,43.28,22.8,6.19,3.22,12.49,6.25,20.04,10.01-5.39-23.82-6.2-46.45-6.13-69.26.07-22.79-.3-45.54,4.7-68.04-.45-.09-.89-.18-1.34-.28-5.88,10.3-11.77,20.6-17.65,30.89-.65-.12-1.3-.24-1.95-.37-.48-1.67-1.27-3.33-1.39-5.03-.43-5.83-.27-11.73-1-17.52-1.05-8.43-4-16.25-9.12-23.27-1.31,3.9-2.45,7.67-2.55,11.47-.68,24.68-1.13,49.37-1.7,74.05-.04,1.9-.43,3.79-.66,5.68-.66.34-1.32.67-1.98,1.01-13.06-11.03-27.8-20.63-38.71-33.48-11.01-12.97-18.22-29.17-27.36-44.38-2.44,14.74-1.65,28.9,4.36,43.83-30.02-3.25-48.39-24.42-69.57-40.56Zm-7.91,234.7c-6.71.49-12.7.8-18.64,1.53-.8.1-1.83,2.28-1.91,3.55-.31,4.94-.1,9.92-.43,14.86-.73,11-1.8,21.98-2.49,32.98-.52,8.3-1.51,8.78-10.16,10.69-24.59,5.43-49.08,11.36-73.57,17.24-1.12.27-2.66,1.9-2.73,2.97-.43,6.69,6.4,12.43,12.87,10.98,3.8-.85,7.51-2.19,11.34-2.83,5.73-.96,11.52-1.71,17.32-2.04,1.28-.07,2.68,1.97,4.02,3.05-1.13,1.35-2.03,3.08-3.45,3.94-1.44.87-3.43.79-5.12,1.29-3.15.93-6.27,1.99-9.49,3.02,3.95,8.14,7.46,9.77,15.07,5.73,12.93-6.87,25.35-14.7,38.26-21.59,7.59-4.05,15.31-8.29,24.7-6.39,6.75,1.36,13.64,2.13,20.5,2.83,9.5.97,10.6-.18,10.48-9.36-3.45-.95-6.93-1.53-10.09-2.87-5.5-2.34-10.74-5.29-16.2-7.73-4.41-1.97-6.91-5.06-6.35-9.94,1.2-10.38,2.68-20.73,3.92-31.11.81-6.82,1.41-13.67,2.13-20.8Zm205.65,82.59c.34-.33.68-.66,1.02-.99-2.74-5.53-8.17-7.88-13.67-9.98-14.25-5.44-28.58-10.67-42.81-16.16-12.3-4.74-17.62-14.68-19.47-27.02-1.47-9.8-2.93-19.6-4.4-29.43-7.48.72-14.41,1.39-21.57,2.08,0,1.45-.15,2.51.02,3.51,2.31,13.6,4.64,27.2,7.02,40.79.7,3.97.72,7.66-2.65,10.65-1.96,1.74-3.51,3.94-5.53,5.59-3.43,2.8-7.35,5.05-10.5,8.11-1.28,1.24-1.99,4.4-1.31,5.96.7,1.6,3.39,3.13,5.27,3.2,2.27.09,4.55-1.75,6.92-2.12,7.04-1.11,14.23-3.08,21.17-2.47,6.12.54,12.07,3.87,17.93,6.35,14.55,6.17,28.96,12.68,43.52,18.83,7.09,2.99,14.39,5.47,23.24,8.8-.56-5.07-.39-8.64-1.43-11.82-1.93-5.92-7.7-7.32-12.71-9.55-5.98-2.66-11.93-5.4-17.75-8.39-1.07-.55-2.34-3.13-1.98-3.59,1.05-1.37,2.77-2.68,4.43-3.01,1.34-.27,3.01.82,4.47,1.46,6.93,3.04,13.84,6.13,20.76,9.2Zm-277.56-187.62c2.86,18.04,8.68,34,17.04,48.75,8.11,14.32,17.81,27.74,26.78,41.58,2.71,4.18,6.2,6.82,11.47,6.12,5.45-.72,10.95-1.24,16.32-2.35,1.69-.35,4.01-2.1,4.39-3.62,2.03-8.04,3.82-16.17,5-24.37.28-1.95-1.56-5.1-3.36-6.29-8.04-5.34-17.06-9.37-24.55-15.35-15.72-12.55-30.68-26.03-45.99-39.09-1.99-1.69-4.16-3.16-7.11-5.38Zm64.17-492.08c-10.97-3.5-20.94-6.59-30.84-9.88-3.01-1-5.73-3.23-8.76-3.7-8.47-1.32-16.59.84-23.95,4.84-10.25,5.57-20.27,11.58-30.15,17.78-14.07,8.81-28.22,17.54-41.76,27.12-7.6,5.37-14.06,12.37-21.04,18.64.27.38.54.76.81,1.15,51.52-18.51,103.03-37.01,155.7-55.93Zm8.64,5.55c-46.82,23.78-98.27,33.83-146.12,54.24,2.34.39,4.71.5,6.91-.06,10.8-2.72,21.51-5.84,32.35-8.39,17.2-4.04,34.57-7.36,51.69-11.71,12.81-3.25,25.21-8.06,38-11.41,17.82-4.68,14.71-4.54,17.63-20.4.06-.32-.12-.68-.45-2.28Z"/><path class="cls-6" d="m556.74,669.44c-7.67-1.75-14.37-2.9-20.84-4.83-13.41-4.02-26.7-8.39-40.01-12.74-8.95-2.92-18.1-5.45-26.68-9.23-8.08-3.56-15.44-8.72-23.31-12.83-13-6.79-23.58-16.5-32.45-27.84-5.07-6.49-8.16-14.51-12.46-21.64-9.41-15.58-10.54-32.61-8.47-49.97,1.92-16.06,4.38-32.08,7.39-47.96,3.49-18.41,12.26-34.3,25.35-47.76,7.89-8.12,15.69-16.34,23.68-24.37,3.56-3.58,7.74-6.56,11.2-10.22,9.27-9.84,16.44-21.15,23.16-32.87,4.84-8.45-.35-19.75-9.28-21.95-12.54-3.1-23.3-9.8-33.6-20.15,8.36-1.87,15.56-3.36,22.7-5.11,19.77-4.85,39.51-9.81,59.25-14.75,3.26-.82,6.47-2.31,9.76-2.51,10.74-.65,12.28-8.79,13.64-16.66,1.21-6.99,1.81-14.14,1.94-21.23.04-2.38-1.59-5.72-3.53-7.01-3.78-2.52-8.19-4.32-12.57-5.68-11.17-3.46-22.6-6.1-33.66-9.85-10.59-3.6-20.27-2.03-29.67,3.14-15.5,8.53-30.96,17.16-46.36,25.88-5.31,3.01-10.4,6.41-16.12,9.96-3.3-10.95-4.54-20.54-3.18-30.87,1.4-10.66,5.67-19.88,9.58-29.62,7.56-18.84,18.5-35.56,30.58-51.44,9.62-12.65,22.68-21.37,38-26.96,11.01-4.01,21.65-8.56,33.34-10.69,16.85-3.07,33.21-4.98,49.48,2.82,9.9,4.74,20.91,7.32,30.45,12.61,11.42,6.33,22.49,13.91,30.08,24.93,8.31,12.08,17.45,23.99,23.25,37.28,6.66,15.26,5.39,31.93,1.3,48.25-4.63,18.47-13.69,34.91-22.18,51.69-7.38,14.58-14.98,29.41-11.03,46.69,1.13,4.95,3.24,9.7,5.14,14.45,2.34,5.86,2.16,5.81-3.71,7.36-14.7,3.89-30.12,6.05-43.31,14.08-9.17,5.59-17.55,12.57-25.93,19.35-13.75,11.13-23.06,26.04-32.68,40.51-3.43,5.17-5.2,11.65-6.82,17.77-2.99,11.3-6.63,22.66-7.57,34.2-1.11,13.54-.51,27.39.98,40.92,1.37,12.47,4.44,24.83,7.67,37,1.94,7.29,6.42,13.89,8.36,21.18,3.45,12.96,12.41,22.62,18.78,33.81,6,10.55,12.77,20.66,20.37,32.85Z"/><path class="cls-4" d="m700.44,631.14c-2.01-15.1-8.83-26.54-18.28-36.53-1.44-1.53-3.67-2.31-5.54-3.44-.97,1.95-2.53,3.82-2.82,5.86-2.94,20.59-3.71,41.32-3.91,62.1-.07,7.25-.68,14.49-1.09,22.7-10.13-5.72-18.98-11.95-24.83-21.13-10.38-16.28-20.02-33.03-29.94-49.61-3.66-6.12-7.23-12.31-10.93-18.62-5.09,9.75-8.49,40.32-4.09,61.6-11.29-2.76-19.51-10.61-28.09-17.36-11.69-9.2-23.72-18.56-33.14-29.89-9.87-11.87-18.09-25.59-20.61-41.52-2.21-13.99-5.57-28.05-5.6-42.09-.04-19.61.44-39.63,9.08-58,4.11-8.74,8.04-17.94,14.04-25.32,8.03-9.89,18.21-18,27.05-27.29,6.42-6.75,13.78-11.78,22.57-14.55,6.57-2.06,13.34-3.45,20.01-5.22,3.94-1.04,7.86-2.19,11.76-3.37,11.38-3.44,20.77.81,30.29,6.75,13.54,8.45,23.64,19.88,33.04,32.55,18.59,25.06,28.46,53.62,35.63,83.45,1.65,6.89,3.98,13.63,5.3,20.58,1.12,5.87,1.02,11.96,1.85,17.9,3.37,24.21-1.07,46.66-14.54,67.24-2.49,3.81-4.39,8.01-7.19,13.19Z"/><path class="cls-4" d="m398.64,599.28c6.77,7.24,13.02,15.06,20.43,21.56,9.04,7.92,18.51,15.62,28.77,21.81,22.14,13.35,46.15,22.5,71.44,28.09,15.45,3.42,30.93,6.72,46.36,10.21,1.61.36,3.15,1.44,4.51,2.47,11.04,8.36,22.36,16.39,32.93,25.3,10.85,9.15,23.47,15.18,35.58,22.14,9.19,5.28,18.55,10.27,27.7,15.63,1.83,1.07,3.57,2.96,4.46,4.88,4.83,10.46,9.48,21.01,13.93,31.65.73,1.75.79,4.3.09,6.05-3.47,8.73-7.58,17.21-10.92,25.98-3.98,10.45-7.51,21.07-11,31.69-.88,2.7-1.85,4.09-4.98,4.25-6.91.34-13.79,1.4-20.7,1.72-2.35.11-5-.62-7.1-1.74-15.18-8.15-30.28-16.46-45.36-24.8-10.41-5.76-20.69-11.74-31.12-17.45-8.68-4.75-17.96-8.54-26.15-14.01-10-6.68-19.28-14.48-28.61-22.12-9.21-7.54-18.24-15.32-27.08-23.29-11.07-9.98-20.98-20.97-29.81-33.08-9.21-12.61-16.4-26.27-22.14-40.55-6.98-17.36-15.41-34.32-17.76-53.32-.95-7.69-2.98-15.25-4.51-22.87.35-.07.69-.14,1.04-.21Z"/><path class="cls-5" d="m935.88,818.26c-6.3,7.67-13.96,12.58-22.2,17.26-16.56,9.4-34.62,12.26-53,14.06-11.19,1.1-21.73-1.4-31.23-7.77-3.28-2.2-6.8-3.26-10.31.28,10.87,17.23,19.97,36.05,40.98,45.16-3.31.73-6.6,1.74-9.95,2.14-6.34.76-12.73,1.6-19.09,1.59-5.05,0-10.15-.93-15.12-1.96-24.9-5.14-45.51-18.35-64.31-34.76-18.14-15.83-31.32-35.53-43.09-56.24-5.86-10.31-11.3-20.86-16.87-31.33-.7-1.33-1.03-2.85-1.79-5.01,1.49.48,2.13.61,2.71.88,8.26,3.76,16.5,7.56,24.78,11.29,1.29.58,2.67,1.12,4.05,1.29,5.15.64,6.77-1.06,5.77-6.22-1.71-8.86-3.63-17.68-5.35-26.54-.39-2.02-.36-4.13-.62-7.48,5.95,4.88,10.5,9.77,16.03,12.91,11.24,6.38,22.78,12.34,34.62,17.5,9.57,4.17,19.58,7.66,29.73,10.06,10.12,2.4,20.63,3.26,31,4.43,9.3,1.04,18.65,1.62,27.99,2.3,6.72.49,13.47,1.22,20.18,1.08,6.5-.14,12.98-1.25,19.78-1.97-12.19,10.66-25.57,18.5-42.09,19.6-5.47.36-10.99-.06-16.45.37-2.3.18-4.5,1.65-6.74,2.53,1.13,2.21,1.69,5.17,3.47,6.51,9.64,7.22,20.71,11.26,32.47,13.66,21.93,4.48,43.15,1.24,64.64-5.62Z"/><path class="cls-5" d="m545.13,627c21.18,16.15,39.55,37.31,69.57,40.56-6.01-14.92-6.81-29.09-4.36-43.83,9.13,15.21,16.34,31.41,27.36,44.38,10.91,12.85,25.65,22.45,38.71,33.48.66-.34,1.32-.67,1.98-1.01.23-1.89.61-3.78.66-5.68.57-24.68,1.02-49.37,1.7-74.05.11-3.8,1.24-7.57,2.55-11.47,5.12,7.02,8.07,14.84,9.12,23.27.72,5.79.57,11.68,1,17.52.13,1.7.91,3.35,1.39,5.03.65.12,1.3.24,1.95.37,5.88-10.3,11.77-20.6,17.65-30.89.45.09.89.18,1.34.28-5,22.5-4.63,45.25-4.7,68.04-.07,22.8.74,45.43,6.13,69.26-7.55-3.76-13.84-6.79-20.04-10.01-14.47-7.52-29.03-14.87-43.28-22.8-9.59-5.34-18.74-11.49-28.03-17.37-10.02-6.35-20-12.76-29.94-19.23-17.15-11.17-29.85-26.16-38.95-44.5-3.51-7.07-8.36-13.47-12.59-20.17.25-.39.51-.78.76-1.17Z"/><path class="cls-6" d="m537.22,861.7c-.72,7.13-1.32,13.98-2.13,20.8-1.24,10.38-2.72,20.73-3.92,31.11-.56,4.88,1.93,7.97,6.35,9.94,5.46,2.44,10.7,5.39,16.2,7.73,3.15,1.34,6.63,1.92,10.09,2.87.12,9.18-.97,10.33-10.48,9.36-6.86-.7-13.75-1.46-20.5-2.83-9.39-1.9-17.11,2.34-24.7,6.39-12.92,6.9-25.33,14.73-38.26,21.59-7.6,4.04-11.12,2.41-15.07-5.73,3.22-1.03,6.34-2.09,9.49-3.02,1.7-.5,3.68-.42,5.12-1.29,1.42-.86,2.32-2.59,3.45-3.94-1.34-1.07-2.74-3.12-4.02-3.05-5.8.33-11.59,1.08-17.32,2.04-3.83.64-7.54,1.98-11.34,2.83-6.47,1.44-13.3-4.3-12.87-10.98.07-1.08,1.61-2.7,2.73-2.97,24.49-5.88,48.97-11.81,73.57-17.24,8.65-1.91,9.64-2.39,10.16-10.69.69-11,1.76-21.98,2.49-32.98.33-4.94.11-9.92.43-14.86.08-1.27,1.11-3.45,1.91-3.55,5.94-.73,11.92-1.03,18.64-1.53Z"/><path class="cls-6" d="m742.87,944.29c-6.92-3.07-13.83-6.16-20.76-9.2-1.46-.64-3.13-1.73-4.47-1.46-1.66.33-3.38,1.64-4.43,3.01-.36.47.91,3.04,1.98,3.59,5.82,2.99,11.77,5.73,17.75,8.39,5.01,2.23,10.78,3.63,12.71,9.55,1.04,3.18.87,6.75,1.43,11.82-8.85-3.33-16.15-5.81-23.24-8.8-14.56-6.14-28.97-12.65-43.52-18.83-5.86-2.49-11.81-5.82-17.93-6.35-6.94-.61-14.13,1.36-21.17,2.47-2.37.37-4.65,2.21-6.92,2.12-1.88-.07-4.57-1.6-5.27-3.2-.68-1.56.03-4.72,1.31-5.96,3.15-3.06,7.07-5.31,10.5-8.11,2.02-1.65,3.57-3.86,5.53-5.59,3.37-2.99,3.35-6.67,2.65-10.65-2.38-13.59-4.71-27.19-7.02-40.79-.17-1-.02-2.06-.02-3.51,7.17-.69,14.09-1.36,21.57-2.08,1.47,9.83,2.93,19.63,4.4,29.43,1.85,12.35,7.17,22.28,19.47,27.02,14.23,5.48,28.56,10.71,42.81,16.16,5.5,2.1,10.92,4.45,13.67,9.98-.34.33-.68.66-1.02.99Z"/><path class="cls-4" d="m465.31,756.66c2.95,2.22,5.13,3.69,7.11,5.38,15.31,13.06,30.28,26.55,45.99,39.09,7.49,5.98,16.5,10.01,24.55,15.35,1.8,1.19,3.64,4.34,3.36,6.29-1.18,8.2-2.97,16.33-5,24.37-.38,1.52-2.7,3.27-4.39,3.62-5.37,1.11-10.87,1.63-16.32,2.35-5.28.7-8.76-1.94-11.47-6.12-8.97-13.84-18.67-27.26-26.78-41.58-8.36-14.75-14.18-30.71-17.04-48.75Z"/><path class="cls-1" d="m529.48,264.58c-52.66,18.92-104.18,37.42-155.7,55.93-.27-.38-.54-.76-.81-1.15,6.97-6.27,13.43-13.27,21.04-18.64,13.54-9.57,27.69-18.31,41.76-27.12,9.89-6.19,19.91-12.21,30.15-17.78,7.36-4,15.48-6.16,23.95-4.84,3.04.47,5.76,2.7,8.76,3.7,9.9,3.29,19.87,6.39,30.84,9.88Z"/><path class="cls-1" d="m538.12,270.13c.33,1.6.51,1.96.45,2.28-2.92,15.86.19,15.72-17.63,20.4-12.78,3.36-25.19,8.16-38,11.41-17.12,4.35-34.49,7.67-51.69,11.71-10.84,2.55-21.55,5.67-32.35,8.39-2.2.55-4.57.44-6.91.06,47.85-20.41,99.3-30.46,146.12-54.24Z"/><path class="cls-2" d="m427.95,230.52c-5.21-.05-10,3.57-11.85,8.37,2.31-2.2,5.38-3.59,8.62-3.56,5.84.06,11.13,5.17,11.09,10.7-.01,1.44-.31,2.83-.82,4.15,2.45-2.41,4.03-5.59,4.05-8.97.05-5.53-5.25-10.64-11.09-10.7Z"/><path class="cls-2" d="m567.23,245.21c.37-7.56,7.16-13.4,15.28-13.14,2.77.09,5.04.91,6.72,2.35-.73-5.13-4.28-8.25-9.85-8.43-8.12-.26-14.91,5.58-15.28,13.14-.16,3.27,1.1,6.21,3.24,8.28-.11-.71-.15-1.44-.11-2.2Z"/></svg>