<?xml version="1.0" encoding="UTF-8"?><svg id="Layer_1" xmlns="http://www.w3.org/2000/svg" xmlns:xlink="http://www.w3.org/1999/xlink" viewBox="0 0 1150 1100"><defs><style>.cls-1,.cls-2{fill:#fff;}.cls-3{fill:#aec08c;}.cls-4{fill:#a38a74;}.cls-5{fill:#869b4d;}.cls-6{fill:#6c915a;}.cls-7{fill:#28581b;}.cls-2{filter:url(#drop-shadow-2);}</style><filter id="drop-shadow-2" filterUnits="userSpaceOnUse"><feOffset dx="15" dy="15"/><feGaussianBlur result="blur" stdDeviation="15"/><feFlood flood-color="#000" flood-opacity=".5"/><feComposite in2="blur" operator="in"/><feComposite in="SourceGraphic"/></filter></defs><path class="cls-2" d="m288.77,1036.48c-2.73,0-5.45-.15-8.55-.47-14.28-1.48-27.28-9.06-35.64-20.8-13.6-19.11-9.33-41.23-8.34-45.47.37-1.57.75-3.12,1.15-4.64-4.81,2.86-9.62,5.73-14.36,8.59-1.36.82-3.26,2.14-5.27,3.53-2.11,1.46-4.5,3.12-7.15,4.83-6.37,4.1-16.73,8.99-29.97,8.99-7.67,0-15.04-1.64-21.93-4.87-20.92-9.8-33.27-33.74-29.33-56.93.04-.24.07-.49.11-.73.81-5.65,2.49-17.4,10.86-29.24,2.09-2.96,4.32-6.49,6.68-10.24,8.18-12.98,18.37-29.14,35.68-42.58,4.18-3.24,8.47-6.87,13.02-10.71,10.27-8.67,21.92-18.51,36.07-27.09,14.77-8.96,31.46-19.07,49.49-27.64.04-.03.08-.05.12-.08,2.86-1.88,7.64-5.02,14.09-7.65,9.57-3.9,20.77-8.39,32.65-12.26,14.51-4.73,28.91-8.78,41.27-12.22,4.96-1.38,9.97-2.52,14.97-3.44,1.48-2.78,3.02-5.95,4.62-9.22.77-1.57,1.53-3.15,2.3-4.71,1.84-3.73,3.67-7.68,5.6-11.86,4.86-10.52,10.37-22.44,17.88-34.34,2.66-4.22,5.3-8.7,7.93-13.48-2.62-2.16-5.36-4.24-7.96-6.18-4.26-3.17-9.12-6.4-14.26-9.81-6.95-4.61-14.82-9.83-22.57-15.89-3.89-3.04-7.39-6.22-10.56-9.39-6.47,6.21-14.06,11.68-22.69,16.28-24.02,12.81-47.48,15-63.03,15.53-1.26.04-2.52.07-3.79.07-.46,0-.93,0-1.38,0-.04.02-.08.04-.12.05-.41.19-.83.4-1.25.6-4.61,2.23-13.18,6.39-24.41,7.77-3.85.47-7.71.71-11.49.71-22.52,0-42.24-8.49-55.97-22.74-2.48-.28-5.03-.63-7.65-1.07-18.75-3.15-34.34-14.84-42.78-32.08-4.1-8.38-5.61-16.07-6.54-22.49-1.43-9.82-1.18-19.66.7-29.28-3.34-6.27-5.93-13.19-7.76-20.73-4.8-19.85-1.31-39.52,9.35-55.82-.44-1.97-.8-3.96-1.1-5.97-3.45-23.64,1.27-45.96,13.64-64.53l.93-1.4c4.27-6.5,11.43-17.37,23.8-25.76,11.51-7.81,23.45-12.58,32.7-15.88.6-1.01,1.24-2.02,1.9-3.02,5.79-8.79,13.32-16.36,21.83-22.07,5.31-14.05,14.94-26.41,28.14-35.5l.66-.45c8.21-5.66,18.43-12.7,30.8-18.04,2.12-.92,4.28-1.73,6.5-2.43,6.37-10.62,14.08-18.15,21.05-23.36,2.74-8.04,6.69-15.57,11.79-22.48.23-2.83.4-5.55.48-8.14.73-23.54,10.66-40.84,19.22-53.29,11.79-17.14,26.96-29.94,45.1-38.05,11.2-5.01,22.9-7.55,34.76-7.55,3.63,0,7.23.24,10.78.71,1.32-.75,2.69-1.47,4.11-2.16,6.59-3.19,13.6-5.35,20.93-6.45,5.9-10.93,14.32-20.68,25.18-29.12,7.25-5.64,18.36-13.95,31.17-21,21.74-11.97,42.69-17.78,64.06-17.78,2.86,0,5.76.11,8.61.33,33.02,2.53,61.29,17.91,79.41,42.36,8.66,2.4,18.32,6.89,27.92,14.91,6.29,5.25,11.02,10.97,14.62,16.64,11.38,3.8,21.86,10.29,30.89,19.19,5.39-1.01,10.77-1.51,16.03-1.51,12.09,0,23.48,2.56,33.8,7.49.12-.04.23-.08.35-.13,8.12-2.92,16.63-4.4,25.31-4.4,25.85,0,50.38,12.94,65.63,34.62,10.44,14.84,16.41,31.45,17.72,48.97,9.54,13.5,14.24,30.58,12.28,47.37,4.06,6.12,7.21,12.81,9.33,19.95.25.83.48,1.66.69,2.49,19.93,4.03,33.15,14.87,38.14,18.97,8.6,7.06,15.43,15.39,20.28,24.57,15.1,9.22,25.16,23.65,28.75,40.84,12.53,15.39,14.12,32.92,14.2,39.99.02,1.97-.04,4.19-.24,6.59.54.87,1.08,1.75,1.59,2.64,13.45,23.14,14.15,50.89,1.91,76.14-13.27,27.38-30.46,46.61-52.56,58.8-5.39,2.97-13.7,7.55-24.33,10.53-13.61,13.57-31.12,21.52-51,22.86-1.68.11-3.36.17-4.98.17-2.85,0-5.66-.18-8.42-.54-11.09,6.37-23.41,9.7-36.06,9.7-.52,0-1.05,0-1.58-.02-4.62,2.46-9.2,4.84-13.68,7.18-8.14,4.24-15.83,8.25-23.32,12.42-14.27,7.95-25.46,14.63-35.21,21.04-11.15,7.32-17.63,13.01-21,18.46l-2.19,3.53c-12.12,19.51-23.57,37.94-29.02,56.46-2.86,9.71-5.87,19.3-8.78,28.57-.6,1.92-1.21,3.86-1.82,5.81,4-.47,8.1-.71,12.23-.71,12.58,0,23.57,2.16,32.39,3.89,1.67.33,3.34.66,5.01.96,21.78,4,39.11,13.81,53.19,22.88,18.13,11.68,33.26,26.89,44.97,45.2,7.42,11.6,11.9,23.4,15.5,32.88.75,1.98,1.5,3.96,2.28,5.92,6.84,17.23,4.87,36.42-5.25,51.33-10.08,14.84-26.99,23.7-45.24,23.7-5.81,0-11.62-.89-17.26-2.64-2.07-.64-4.13-1.29-6.19-1.93-11.41-3.57-22.19-6.94-32.51-9.27-10.3-2.33-19.99-4.52-27.47-4.52-1.62,0-3.06.1-4.43.3-7.63,1.14-14.91,1.72-21.33,2.23-5.07.41-9.86.79-13.99,1.37-6.75.96-13.65,2.16-20.96,3.44-11.42,1.99-23.23,4.05-35.74,5.39-13.03,1.4-24.57,2.08-35.28,2.08-6.96,0-13.76-.29-20.21-.87-14.8-1.32-27.35-6.34-37.19-10.8-12.64,2.82-24.42,3.56-34.33,4.18-3.95.25-7.67.48-11.04.82-11.33,1.13-24.65,2.56-37.54,4.62-16.2,2.6-30.31,5.29-43.12,8.23-1.3.3-4.79,1.68-7.35,2.68-3.39,1.34-7.22,2.85-11.57,4.28-17.15,5.66-33.89,15-51.19,28.55-6.5,5.09-12.89,9.67-19.07,14.1-2.4,1.72-4.71,3.38-6.95,5.01-3.53,3.45-10.2,9.23-20.13,12.89-6.75,2.49-14.06,3.75-21.72,3.75Z"/><path d="m870.99,370.85c10.72-4.86,20.74-10.19,32.62-10.28,8.78-.06,15.66,3.94,22,9.14,6.21,5.1,10.37,11.49,10.55,19.98.03,1.14,1.63,2.65,2.87,3.26,3.12,1.53,6.44,2.63,9.68,3.93,7.54,3.04,9.7,9.04,9,16.54-.26,2.8-.72,5.59-1.12,8.57,7.64,2.24,13.88,5.79,13.98,15.01.09,8.13-4.05,13.95-11.52,18.94,9.63,2.31,15.45,7.67,19.64,14.88,5.62,9.66,4.55,20.11.14,29.21-7.2,14.85-16.65,28.51-31.7,36.81-7.63,4.21-15.42,8.35-24.81,7.03-1.24-.18-3.35,1.63-4.13,3.03-5.65,10.14-13.69,16.43-25.62,17.24-4.05.27-7.49-.34-10.3-3.56-1.73-1.99-3.81-3.67-5.43-5.21-5.56,4.46-11.01,9.18-16.82,13.39-5.44,3.94-11.65,5.52-18.43,4.08-4.6-.98-8.65.12-12.83,2.41-14.97,8.18-30.29,15.72-45.19,24.02-13,7.24-25.89,14.76-38.32,22.93-13.93,9.14-27.12,19.51-36.04,33.89-14.27,23.01-28.94,45.87-36.7,72.24-4.5,15.29-9.46,30.44-14.12,45.69-4.51,14.75-3.82,28.95,5.23,41.98,5.4,7.78,12.57,12.82,22.49,12.42,9.44-.38,18.96-.41,28.27-1.75,12.43-1.79,24.2,1.31,36.08,3.49,12.9,2.37,24.16,8.66,35.15,15.74,12.26,7.9,22.27,18.13,29.91,30.1,5.89,9.22,9.36,20.03,13.44,30.32,1.89,4.77-1.63,7.69-6.47,6.19-14.07-4.37-28.13-8.97-42.48-12.22-16.47-3.72-33.03-7.48-50.29-4.91-11.58,1.73-23.39,1.91-34.98,3.56-18.38,2.61-36.58,6.64-55.01,8.62-15.13,1.63-30.6,2.47-45.69,1.12-9.7-.87-19.26-5.76-28.38-9.95-5.85-2.7-11.36-3.63-17.2-1.73-15.12,4.9-30.86,4.38-46.38,5.92-13.54,1.35-27.08,2.86-40.51,5.01-15.54,2.49-31.06,5.35-46.4,8.87-8.01,1.84-15.54,5.63-23.4,8.22-24.43,8.06-46.18,20.87-66.34,36.66-8.88,6.96-18.22,13.32-27.31,20.03-1.86,1.37-3.26,3.67-5.29,4.42-2.38.88-5.24.74-7.83.47-.36-.04-.86-3.46-.47-5.12,2.78-11.85,6.95-23.27,14.59-32.82,7.31-9.14,15-18.11,23.48-26.15,11.66-11.06,24.22-21.17,36.19-32.88-3.4.45-6.81.91-10.21,1.36-16.13,2.14-32.24,4.49-48.4,6.29-4.37.49-8.93-.64-13.4-1.06-17.79-1.67-34.38,2.03-49.76,11.12-13.42,7.94-26.87,15.82-40.21,23.88-4.69,2.83-9.06,6.17-13.67,9.14-1.01.65-2.67,1.29-3.54.89-.81-.38-1.49-2.25-1.3-3.31.55-3.23.73-6.97,2.51-9.48,10.21-14.45,17.81-31.02,32.19-42.18,14.78-11.48,28.05-24.65,44.35-34.54,15.2-9.21,30.3-18.35,46.39-25.88,3.58-1.67,6.65-4.48,10.28-5.96,9.64-3.93,19.34-7.79,29.24-11.01,12.94-4.22,26.04-7.94,39.16-11.58,5.58-1.55,11.32-2.72,17.07-3.42,10.46-1.28,17.84-7.38,23.25-15.52,5.08-7.66,8.93-16.17,13.03-24.45,6.89-13.94,12.59-28.43,20.95-41.69,6.78-10.75,12.86-22,18.45-33.42,5.95-12.15,1.05-23.12-6.95-32.07-7.02-7.85-15.45-14.6-23.93-20.93-11.7-8.72-24.46-16.05-35.94-25.02-6.92-5.4-12.56-12.56-18.27-19.35-5.65-6.73-10.66-14-15.95-21.03-.7-.93-1.72-1.75-2.07-2.79-1.15-3.49-2.73-5.74-7.09-5.15-3.21.44-5.54,1.16-7.92,3.81-2.86,3.18-7.1,5.09-10.56,7.78-1.24.96-2.72,2.6-2.75,3.96-.44,16.46-8.59,27.3-22.95,34.95-13.06,6.97-26.85,9.19-41.21,9.68-3.13.11-6.39.02-9.41-.72-2.96-.73-5.68-2.42-8.38-3.63-.17,3.29-1.91,6.89-6.09,8.74-3.75,1.66-7.5,3.95-11.44,4.44-15.65,1.91-29.41-4.2-31.37-20.39-1.19-.06-2.46-.09-3.72-.19-8.56-.67-17.22-.79-25.66-2.2-6.29-1.06-7.4-7.46-8.12-12.46-1.32-9.09.75-17.85,5.48-25.86,3.81-6.45,4.01-6.76-2.37-11.09-6.41-4.35-9.32-10.47-11.05-17.62-2.36-9.76,1.14-17.26,8.69-23.19,3.25-2.55,6.56-5.15,10.21-7.03,4.31-2.22,3.71-4.36.85-7.12-5.68-5.49-9.48-12.12-10.61-19.9-1.52-10.46-.19-20.64,5.78-29.61,3.24-4.87,6.52-10.35,11.18-13.5,6.61-4.49,14.31-7.64,21.91-10.33,6.01-2.13,12.56-2.78,18.9-3.92,3.52-.63,5.74-1.07,4.3-5.99-2.12-7.24,5.68-18.61,14.54-22.5,2.43-1.06,4.98-2.42,7.52-2.52,5.87-.22,7.09-3.24,6.58-8.39-.97-9.84,3.2-17.59,11.1-23.03,7.36-5.06,14.83-10.28,22.96-13.79,4.98-2.16,11.35-1.95,16.99-1.51,5.78.45,6.17.83,7.06-4.91,1.61-10.33,5.42-19.49,14.31-25.74,1.81-1.27,3.99-2.23,6.14-2.79,6.49-1.67,8.41-3.17,8.63-9.8.36-10.85,4.72-19.44,12.88-26.39,1.08-.92,1.78-2.76,1.93-4.25.82-8.44,1.73-16.89,1.99-25.35.32-10.18,4.94-18.51,10.44-26.51,6.23-9.05,14.26-16.25,24.32-20.75,9.52-4.26,19.54-4.34,28.81.27,4.98,2.48,8.03,1.98,11.72-1.68,3.14-3.11,6.56-6.32,10.47-8.21,7.84-3.79,16.19-2.19,24.33-.49,2.24.47,4.4,1.36,6.45,2.02,3.43-7.92,7.44-15.42,9.92-23.39,2.59-8.33,7.94-14.28,14.34-19.26,7.8-6.07,15.94-11.91,24.58-16.67,13.81-7.6,28.77-12.62,44.74-11.4,21.6,1.65,40.59,12.3,49.56,33.78,1.3,3.12,1.65,6.63,2.57,10.49,9.74-6.27,18.53-5.52,26.97,1.52,7.97,6.66,8.47,16.53,11.29,26.12,13.58-4.23,24.83-1.02,33.93,9.97,9.57,11.55,5.34,23.67,1.66,36.43,3.43.21,6.31.4,9.8.61,4.35-14.21,13.78-22.86,28.33-26.18,15.36-3.5,26.5,2.21,34.28,14.06,8.67-3.69,16.87-7.62,25.37-10.68,12.09-4.35,25.79,1.54,33.11,11.94,7.99,11.37,10.35,23.44,8.11,36.78-.61,3.62-.3,5.91,4.01,7.52,6.61,2.47,10.77,13.09,8.59,19.95-1.66,5.23-3.37,10.47-5.43,15.55-1.17,2.89-.29,4.15,2.25,5.43,15.27,7.69,20.13,23.3,11.59,38.02-3.49,6.02-4.81,11.38,0,17.36,1.79,2.22,2.43,5.37,3.61,8.16Zm-301.98,225.3c-6.28-3.4-12.34-6.76-18.48-9.97-8.19-4.28-16.55-8.25-24.65-12.68-7.51-4.11-14.08-9.71-22.72-12.02-4.15-1.11-7.65-4.69-11.4-7.22-1.19-.81-2.23-1.85-3.5-2.92-8.28,8.23-17.48,6.15-27.62,2.29,1.24,3.58,1.76,6.43,3.13,8.79,6.88,11.89,14.14,23.57,20.88,35.54,1.68,2.98,7.37,6.2,2.63,9.99-4.65,3.71-7.05-1.74-9.14-4.69-4.32-6.1-10.02-9.68-16.9-12.4-12.75-5.04-25.62-10.07-37.64-16.58-8.84-4.78-16.56-11.72-24.48-18.07-3.67-2.94-6.65-6.75-10.24-10.48-2.96,2.13-6.11,4.4-8.71,6.27,4.78,6.63,8.98,13.19,13.93,19.12,5.29,6.34,10.75,12.73,17.08,17.96,8.81,7.29,18.71,13.25,27.75,20.29,12.29,9.56,26.05,17.3,36.38,29.35,12.06,14.06,16.97,26.99,9.67,45.95-.46,1.18-.62,2.48-.88,3.6,5.54,4.49,14.61,5.11,14.67,15.69-2.08-.95-3.49-1.53-4.85-2.22-3.54-1.79-7.01-3.72-10.61-5.39-.85-.4-2.7-.38-3.05.14-2.89,4.26-5.53,8.69-8.57,13.6,2.1.41,2.89.58,3.69.71,10.37,1.7,20.1,4.88,27.34,12.99,1.29,1.45,1.46,3.91,2.14,5.9l-1.64,1c-2.01-.98-4.44-1.54-5.96-3.03-7.7-7.55-17.33-9.39-27.48-9.69-1.25-.04-3.08.87-3.73,1.9-4.94,7.81-10.1,15.54-14.31,23.74-4.56,8.88-8.2,18.23-12.17,27.41-4.41,10.2-10.37,19.22-19.77,25.46-8.13,5.4-17.39,7.53-26.89,9.35-9.67,1.85-19.11,4.89-30.15,7.81,12.81,6.72,19.32,16.87,24.83,27.84,1.09,2.18,2.35,4.47-.93,6.44-.66-.8-1.16-1.4-1.66-2.01-6.52-8.08-11.3-17.77-20.8-23.11-8.37-4.71-17.03-7.31-26.68-2.18.64.75.95,1.37,1.45,1.67,10.78,6.5,15.28,18.2,22.7,27.48,1.88,2.35,2,4.9-1.65,5.99-8.55-11.02-16.28-22.51-29.03-29.02-6.15-3.14-13.07-1.28-16.77,4.19,4.21,4.36,8.4,8.54,12.33,12.94.73.82.45,2.54.63,3.85-1.29-.37-2.79-.44-3.84-1.17-4.35-3.03-8.32-6.7-12.93-9.23-2.27-1.24-6.25-1.66-8.38-.49-15.26,8.42-31,16.3-45.13,26.37-18.91,13.48-36.85,28.42-52.73,45.54-3.55,3.83-6.36,8.35-9.51,12.55,2.31.04,3.78-.69,5.15-1.55,12.33-7.8,24.35-16.13,37.06-23.24,6.66-3.72,14.45-5.53,21.86-7.75,4.07-1.22,8.4-1.91,12.65-2.14,15.59-.82,31.24-.78,46.77-2.16,14.17-1.27,28.16-4.76,42.34-5.78,11.69-.84,20.83-6.01,29.52-12.79,14.71-11.48,29.91-22.13,46.82-30.22,13.87-6.64,24.97-16.69,34.91-28.34,13.1-15.34,21.77-33.22,30.77-50.97,2.08-4.11,4.74-8,7.63-11.59,1.05-1.31,3.56-1.45,5.41-2.12.05,1.86.73,4.01.04,5.55-6.51,14.68-12.95,29.4-20,43.82-10.96,22.42-29.67,37.72-49.86,51-12.87,8.47-27.07,14.92-40.59,22.43-3.13,1.74-5.92,4.11-8.86,6.19.24.42.49.84.73,1.26.77.03,1.54.12,2.3.09,9.88-.4,18.92,1.44,25.27,9.9.95,1.26,1.17,3.08,1.8,4.86-8.14-3.57-15.08-7.35-22.47-9.66-7.41-2.32-19.29,1.58-22.22,6.24,2.39,0,4.69-.3,6.88.06,6.12.99,12.58.41,18.05,4.5,2.12,1.58,3.95,2.82,2.33,5.44-1.33,2.13-3.06,2.56-5.89,1.39-9.67-4-19.59-5.62-30.03-2.38-4.73,1.47-7.09,4.6-9.5,8.47,4.66,1.5,10.19-1.19,13.73,4.66-4.07.56-7.24.66-10.22,1.48-5.08,1.41-11.1,2.01-14.86,5.16-12.79,10.74-24.8,22.41-37.06,33.79-6.4,5.94-12.21,12.36-16.36,21.3,1.7-.7,2.77-.81,3.3-1.41,12.29-13.81,28.37-22.82,44.11-31.29,19.19-10.32,39.9-18.01,60.41-25.61,11.29-4.18,23.44-6.18,35.34-8.51,11.69-2.29,23.53-3.91,35.34-5.54,12.8-1.77,25.61-3.71,38.49-4.66,13.05-.97,26.12-1.07,38.77-5.25,3.69-1.22,7.6-1.48,11.67,1.25,4.44,2.99,9.76,5.35,15,6.3,11.06,2,22.3,3.15,33.5,4.2,18.04,1.69,35.8-1.34,53.51-4.1,14.56-2.27,28.91-6.13,43.53-7.76,16.27-1.82,32.74-3.05,49.04.69,15.47,3.56,30.95,7.07,46.43,10.6,2.67.61,5.34,1.23,9.18,2.12-6.96-12.5-13.54-23.68-23.32-32.65-12.98-11.91-28.39-19.52-44.83-25.3-3.67-1.29-7.12-1.23-10.44,1.08-3.09,2.16-6.28,4.17-9.62,6.37-4.85-7.16,5.76-6.28,5.23-12.24-4.75.46-10.15-.32-14.19,1.67-7.78,3.82-15.92,7.6-21.05,15.43-1.55,2.36-3.48,6.2-7.25,3.99-.63-.37.75-5.7,2.32-7.97,2.82-4.08,6.49-7.57,10.55-12.15-14.56,2.34-28.36,2.71-40.28-5.25-12.22-8.16-16.34-21.06-16.84-35.11-14.9-2.58-27.17,3.76-39.47,10.84.54-2.43,1.36-4.2,2.64-5.51,8.55-8.8,19.37-11.93,31.24-11.55,6.45.21,6.85.38,7.54-5.95.19-1.77.03-3.58.03-6.68-8.74,1.18-16.92,2.29-25.1,3.4.76-2.04,1.96-3.26,3.32-4.26,5.93-4.39,12.97-5.74,20.02-6.51,3.52-.39,5.24-1.35,6.02-5,3.66-17.05,7.76-34.02,15.18-49.91,6.95-14.89,14.03-29.72,21.48-44.36,8.69-17.09,19.42-32.49,34.2-45.33,15.93-13.84,32.95-25.78,51.5-35.59,14.96-7.92,30.26-15.18,45.36-22.83,1.31-.67,3.15-2.14,3.12-3.19-.05-1.6-1.15-3.92-2.46-4.55-1.57-.74-3.93-.37-5.78.13-6.4,1.73-12.79,3.55-19.08,5.64-15.38,5.1-30.97,9.67-45.09,17.97-4.43,2.6-8.98,5.31-13.84,6.81-15.76,4.87-31.68,9.22-47.55,13.72-2.85.81-5.92.98-8.64,2.07-9.81,3.95-13.46,12.67-16.55,21.85-.62,1.83-2.37,4.72-3.48,4.66-3.41-.17-5.08-2.88-4.76-6.31,1.01-10.74,6.52-18.26,15.9-23.7,21.34-12.37,42.47-25.13,63.55-37.94,3.01-1.83,5.31-4.82,8.05-7.37-3.9-4.5-7.35-8.47-11.45-13.19-4.49,9.09-12.29,12.35-21.35,12.43-8.93.08-17.63-1.18-21.26-9.58-10.84,7.11-20.85,14.82-31.87,20.64-15.98,8.43-30.26,20.05-47.8,25.57-6.93,2.18-13.58,5.73-20.65,6.89-12.73,2.08-23.06,8.23-32.37,16.45-3.12,2.75-4.59,1-6.53-.82-2.2-2.07-1.93-4.05.39-5.86,5.58-4.36,11.15-8.72,17.86-13.97Zm9.52-234.93c2.31-4.6,4.52-9.09,6.81-13.55,9.27-17.99,26.3-25.82,44.15-30.31,17.15-4.32,34.41-2.03,48.64,10.77,1,.9,4.38.76,5.36-.2,10.58-10.36,23.62-16.93,36.06-24.52,4.11-2.5,8.44-7.39,9.32-11.86,1.75-8.8,1.2-18.07,1.54-27.14.52-13.52-15.69-26.52-30.78-21.52-1.42.47-3.68.48-4.64-.35-.76-.65-.38-2.97-.09-4.47,1.62-8.3,3.89-16.51,4.92-24.88.75-6.15-1.22-11.88-7.47-15.05-8.96-4.54-17.89-5.42-27-.28-1.39.78-4.22,1.31-4.84.6-1.04-1.19-1.11-3.47-1.11-5.28.02-4.81.97-9.71.32-14.4-1.16-8.34-5.65-16.01-17.27-13.68-3.23.65-6.36,1.91-9.47,3.08-5.88,2.22-8.26,1.06-9.56-5.05-.97-4.55-.95-9.48-2.76-13.65-9.18-21.14-27.95-27.5-47.94-23.25-10.95,2.33-21.71,6.05-32.14,10.18-7.44,2.95-15.52,6.31-20.99,11.8-11.98,12.04-17.49,27.85-20.25,44.42-1.04,6.28-2.5,7.52-8.16,5.23-5.35-2.16-10.81-5.08-16.37-5.45-10.57-.69-19.74,3.45-26.92,11.64-4.13,4.72-8.08,5.21-13.49,1.69-5.87-3.82-11.79-4.63-18.76-3.32-15.19,2.87-23.59,13.19-29.86,25.85-6.13,12.37-5.13,26.15-6.54,39.41-.44,4.09.19,8.13-5.59,8.66-1.05.1-2.06,1.54-2.92,2.52-6.16,7.02-7.62,15.32-6.39,24.28.59,4.33-.44,7.18-5.11,8.75-3.54,1.19-7.17,3.13-9.84,5.69-5.52,5.3-12.21,10.46-11.26,19.32.51,4.8,2.14,9.62,4.04,14.1,3.51,8.29,9.99,14.4,16.35,20.55,2.24,2.17,4.75,4.33,2.7,8.14-7.01,13.02-5.97,25.14,4.4,36.04,2.09,2.2,4.45,4.14,7.53,6.99,3.66-18.4,15.28-28.76,30.23-35.31,7.75-3.39,16.53-4.56,24.93-6.32,14.28-3,24.83,3.31,33.3,14.15,2.79,3.58,5.32,7.36,7.82,10.84,16.4-18.78,36.5-22.13,59.45-15.4,2.73-11.01,8.15-19.86,18.68-25.12,10.08-5.03,20.27-7.64,30.95-4.34Zm-28.44,71.15c2.48-.88,4.3-1.58,6.16-2.19,7.04-2.28,15.02-.59,18,4.48,3.43,5.83,6.15,12.07,9.29,18.08.61,1.18,1.49,2.67,2.59,3.05,4.5,1.58,9.18,2.62,13.7,4.15,14.45,4.88,21.13,16.87,21.34,31.06.12,8.03-.82,16.19-7.79,22.32-3.25,2.86-4.38,7.3-1.39,11.46,3.08,4.27,5.84,8.97,9.67,12.45,5.01,4.55,10.68,8.52,16.56,11.9,4.04,2.32,8.83,4.13,13.42,4.51,8.84.73,16.43-3.1,23.06-8.86,3.51-3.06,7.02-6.14,10.74-8.93,4.18-3.14,7.46-2.23,10.36,2.03,1.26,1.85,3.02,3.59,4.94,4.73,8.7,5.18,19.32,2.82,26.28-5.61,4.39-5.32,5.48-5.29,9.73-.02,6.98,8.65,14.82,15.06,27.2,12.89,16-2.8,27.7-10.32,32.89-26.47.51-1.57,3.21-3.3,5.01-3.44,5.29-.42,10.67-.37,15.98.04,10.53.83,18.86-2.58,25.01-11.38,7.59-10.87,14.09-21.51,8.33-35.86-4.93-12.27-13.69-18.61-27.19-17.28-3.66.36-5-1.38-4.17-5.04,1.29-5.66,2.8-11.32,3.49-17.06,1.07-8.92-4.63-14.86-13.48-14.77-2.66.03-5.36.26-7.98-.08-5.54-.7-7.31-4.26-5.92-9.68,1.14-4.45,1.8-9.11,1.97-13.71.29-7.83-4.56-11.76-12.25-9.77-7.81,2.02-15.42,4.8-23.2,6.97-1.68.47-4.51.43-5.33-.58-.99-1.21-.65-3.74-.39-5.63.17-1.22,1.27-2.3,1.89-3.47,6.06-11.43,10.35-23.01,8.2-36.56-3.9-24.53-22.92-37.14-46.52-30.46-13.43,3.8-21.76,14.65-32.33,22.36-4.11,3-6.46,3.58-10.88.85-7.26-4.49-14.45-9.52-22.36-12.46-11.03-4.1-22.69-.78-32.97,2.88-14.8,5.26-27.06,14.8-31.92,31.09-.95,3.17-1.85,6.38-3.15,9.41-.44,1.04-2.02,2.22-3.1,2.24-2.77.06-5.55-.69-8.33-.76-10.46-.27-20.9-.02-28.36,8.95-3.16,3.79-6.05,7.9-8.36,12.24-.92,1.72-.76,5.03.34,6.64,6.73,9.8,11.37,20.2,11.23,33.28Zm183.85-129.37c17.61,3.54,32.57,8.77,39.82,27.12,6.67,16.87,4.63,32.46-3.16,49.1,11.13-5.8,21.28-8.58,31.24-1.22,10.38,7.66,8.56,18.66,6.84,29.91,9.85-.34,18.91,1.58,23.92,10.47,4.67,8.3,4.62,17.41.48,26.21,16.85,4.36,16.39,5.91,21.04,12.07,4.33,5.73,7.86,12.35,10.36,19.08,2.03,5.46,2.7,11.59.13,17.57-7.04,16.39-19.23,27.36-35.24,34.59-.97.44-1.7,2.28-1.84,3.54-.84,7.85,1.09,15.12,4.75,22.08,4.08,7.76,13.83,10.8,20.62,5.34,6.29-5.06,11.98-10.97,17.37-17.01,3.96-4.43,6.68-4.83,10.52-.11,2.2,2.7,4.37,5.44,6.79,7.94,4.24,4.37,8.95,4.49,13.74.79,5.14-3.98,7.04-9.56,7.84-15.63.45-3.39,1.37-5.35,5.38-4.14,2.92.88,6.11.87,9.01,1.81,6.16,2,11.77,1.6,16.91-2.61,2.57-2.11,5.26-4.08,7.88-6.13,10.35-8.1,18.14-18.28,21.35-30.97,2.34-9.27,1.73-18.83-7.97-24.65-2.61-1.57-5.7-2.41-8.67-3.3-3.84-1.14-7.33-3.44-7.1-7.28.15-2.47,3.42-4.82,5.46-7.07,2.3-2.53,5.21-4.61,7.06-7.42,1.16-1.77,1.82-5,.96-6.67-.89-1.73-3.84-3.17-5.99-3.34-7.15-.54-8.11-2.57-5.7-9.59,1.56-4.55,1.89-9.69,1.8-14.55-.03-1.72-2.74-4.55-4.56-4.84-3.62-.58-7.6-.29-11.16.65-4.06,1.07-6.22-.44-6.66-4.83-.49-5.03-.77-10.52-2.99-14.86-5.48-10.69-13.23-17.3-25.34-13.93-10.02,2.78-20.15,5.44-28.91,11.57-1.64,1.15-5.05,2.11-6.08,1.26-1.77-1.45-3.31-4.46-3.18-6.72.37-6.86-1.98-12.63-5.22-18.39-.97-1.72-1.26-4.36-.73-6.27,1.85-6.69,4.47-13.17,6.26-19.88,1.25-4.71.61-9.87-3.82-12.49-4.28-2.53-9.33-4.11-14.24-5.12-3.95-.81-4.82-1.83-3.15-5.54,2.86-6.34,5.45-12.8,7.94-19.29,2.88-7.54-.43-13.51-8.01-14.98-4.08-.79-6.59-2.52-5.62-7.49,1.37-7,2.49-14.09,3.11-21.19.98-11.2-3.1-18.21-12.93-22.86-7.99-3.79-16.16-3.28-24.01.31-6.88,3.15-13.49,6.9-20.93,10.76-2.13-2.82-4.53-5.73-6.65-8.83-3.69-5.39-8.6-8.59-15.15-9.36-11.15-1.3-22.93,4.77-28.82,14.52-1.83,3.02-.73,4.43,1.12,6.82,3.78,4.87,8.2,9.86,10,15.54,5.35,16.88,3.36,33.41-5.88,49.49Zm-175.24,221.34c2.05.43,3.74.47,5.13,1.13,5.66,2.66,10.99,1.97,16.12-1.24,6.19-3.87,12.49-7.6,18.44-11.82,9.97-7.07,13.98-18.84,10.42-29.32-4.01-11.83-14.94-19.93-27.08-19.36-4.85.23-5.63-2.6-6.97-6-1.92-4.87-4.16-9.66-6.68-14.25-1.99-3.62-5.39-4.86-9.42-3.42-4.22,1.51-8.34,3.31-12.59,4.72-5.15,1.7-7.31-.18-6.69-5.5.15-1.31.66-2.72.35-3.91-2.29-8.63-4.43-17.33-7.24-25.8-2.91-8.75-9.74-12.94-18.71-12.8-17.51.28-32.29,5.8-40.07,23.09-1.65,3.68-3.18,3.83-5.56.69-5.11-6.71-10.13-13.52-15.61-19.93-2.49-2.92-5.75-6.73-9.05-7.16-13.74-1.79-27.81-2.58-39.93,5.95-5.36,3.78-9.95,8.81-14.31,13.78-2.49,2.84-4.26,6.54-5.53,10.14-1.36,3.87-1.5,8.15-2.64,12.12-1.48,5.12-3.21,5.75-6.61,1.75-6.82-8-15.77-2.79-20.14,3.78-3.9,5.85-4.13,12.04-1.28,18.52,1.66,3.77.47,4.85-3.61,4.86-5.78.02-11.7-.2-17.31.92-13.09,2.62-20.81,8.06-22.34,18.62-1.16,7.97-.67,15.66,4.9,22.6,5.03,6.28,11.35,6.92,18.29,6.2,4.5-.46,6.54,1.59,7.11,5.65.33,2.3.75,4.67.5,6.94-.46,4.12,1.07,7.2,4.21,9.54,8.48,6.32,18.42,6.9,28.45,6.97,6.98.05,11.12-4.76,15.03-9.49,2.51-3.03,4.14-2.87,5.94.33.57,1.01.97,2.14,1.62,3.09,4.45,6.43,8.86,12.46,17,15.3,11.67,4.07,22,.31,32.31-3.88,5.16-2.1,7.9-6.79,9.05-12.37.31-1.5,1.73-2.77,2.64-4.14,1.34,1.02,2.87,1.87,3.97,3.11.85.95,1.07,2.42,1.72,3.57,6.13,10.93,14.19,12.7,21.72,4.8,5.75-6.03,5.88-6.13,11.07.59,3.34,4.32,6.59,8.3,12.76,8.24,12.57-.12,24.87-1.36,36.08-7.72,7.19-4.08,14.11-8.41,14.55-18.93Zm-198.79-101.43c-10.98-12.48-16.29-25.96-10.26-42.16,1.37-3.7,0-5.38-3.37-6.81-7.5-3.18-14.16-7.3-16.54-16.02-.5-1.83-2.4-4.16-4.09-4.61-5.64-1.48-11.47-2.93-17.25-3.05-8.2-.16-14.43,5.15-20.96,9.42-8.26,5.41-12.04,15.33-9.1,24.67.5,1.57,1.09,3.18,1.22,4.8.29,3.66-1.95,5.63-5.47,5.06-10.96-1.75-18.86,2.11-22.98,12.36-1.43,3.55-.68,7.98-.91,12.01-.19,3.25.54,6.83-4.58,7.22-13.36,1.02-26.09,3.99-38.08,10.57-7.29,4-12.99,8.49-16.45,16.32-7.22,16.32-3.43,29.98,11.58,39.14,1.26.77,2.41,1.8,3.45,2.87,2.69,2.79,2.31,4.66-1.07,7.11-7.51,5.44-15.1,10.97-21.67,17.45-7.31,7.22-4.88,18.09,4.28,22.73,3.05,1.55,6.33,2.64,9.48,4,4.68,2.03,4.8,2.61,1.33,6.52-7.19,8.09-11.35,17.54-12.55,28.26-.37,3.36-.31,7.45,3.96,7.97,6.13.75,12.62,1.57,18.55.36,8.38-1.71,9.17-1.56,13.2,6.09,2.43,4.62,5.95,9.67,10.33,12.05,7.16,3.9,13.89.82,19.71-6.76,3.72-4.83,5.75-4.97,10.9-1.9,3.07,1.82,6.58,3.75,10,3.97,14.65.95,29.06-.55,41.72-8.81,11.36-7.41,20.65-16.57,19.42-31.7-.38-4.63,1.39-6.14,5.53-6.97,3.64-.73,7.1-2.38,10.64-3.63-11.51-6.38-20.46-13.12-19.75-27.06-25.67-5.35-32.56-18.27-31.5-35.8.45-7.47,3.87-16,8.73-21.67,8.2-9.57,19.4-15.34,32.47-13.65,2.98-12.96,6.35-24.97,20.08-30.34Zm240.91,102.32c-4.16,1.84-7.84,3.78-11.73,5.1-5.86,2-11.79,4.17-17.86,5.08-3.19.48-5.13,1.3-6.78,3.86-5.42,8.41-12.14,15.36-21.93,18.65-5.09,1.71-10.19,3.39-15.96,5.31,2.16,1.45,4.08,2.83,6.09,4.06,13.1,8.03,27.26,13.67,41.87,18.2,4.88,1.52,10.24,3.83,14.94,3.08,7.58-1.21,15.11-4.01,22.09-7.34,10.32-4.91,20.14-10.87,30.46-16.55-16.6-9.82-32.68-20.4-41.19-39.45Zm215.68,3.79c-3.86.95-8.1.8-10.37,2.84-3.82,3.44-5.92,8.71-9.57,12.41-5.22,5.29-10.46,11.56-17,14.25-7.33,3.02-16.11,2.48-24.25,3.58-1.69.23-3.66.4-4.92,1.37-7.33,5.66-14.48,11.55-21.71,17.34-1.74,1.4-3.55,2.71-5.33,4.07,1.66.42,2.99.29,4.14-.25,7.3-3.42,14.41-7.29,21.85-10.33,18.21-7.44,36.57-14.51,54.88-21.72,3.56-1.4,7.24-2.52,10.65-4.2,1.29-.64,2.81-2.5,2.8-3.8-.03-4.77-.66-9.53-1.17-15.55Zm-352.22,53.95c-4.22-7.99-8.3-16.07-12.8-23.9-.85-1.48-3.62-3.12-5.05-2.78-7.74,1.84-15.33,4.28-23.24,6.59,11.37,10.77,27.88,12.02,41.08,20.09Z"/><path class="cls-4" d="m569.01,596.15c-6.72,5.25-12.29,9.62-17.86,13.97-2.32,1.81-2.59,3.79-.39,5.86,1.93,1.82,3.41,3.57,6.53.82,9.31-8.22,19.65-14.37,32.37-16.45,7.07-1.15,13.72-4.71,20.65-6.89,17.54-5.51,31.82-17.13,47.8-25.57,11.01-5.81,21.03-13.52,31.87-20.64,3.63,8.4,12.33,9.66,21.26,9.58,9.06-.08,16.86-3.34,21.35-12.43,4.09,4.72,7.55,8.69,11.45,13.19-2.74,2.55-5.04,5.54-8.05,7.37-21.09,12.81-42.21,25.56-63.55,37.94-9.38,5.44-14.89,12.95-15.9,23.7-.32,3.44,1.35,6.14,4.76,6.31,1.11.06,2.86-2.84,3.48-4.66,3.09-9.18,6.73-17.9,16.55-21.85,2.72-1.09,5.79-1.27,8.64-2.07,15.87-4.49,31.79-8.85,47.55-13.72,4.85-1.5,9.41-4.2,13.84-6.81,14.13-8.3,29.72-12.87,45.09-17.97,6.29-2.09,12.68-3.91,19.08-5.64,1.85-.5,4.21-.87,5.78-.13,1.31.62,2.42,2.95,2.46,4.55.03,1.05-1.81,2.52-3.12,3.19-15.1,7.65-30.4,14.92-45.36,22.83-18.54,9.81-35.57,21.75-51.5,35.59-14.78,12.84-25.5,28.24-34.2,45.33-7.45,14.64-14.53,29.48-21.48,44.36-7.42,15.89-11.53,32.86-15.18,49.91-.78,3.66-2.5,4.62-6.02,5-7.05.78-14.09,2.12-20.02,6.51-1.36,1-2.56,2.22-3.32,4.26,8.18-1.11,16.36-2.21,25.1-3.4,0,3.1.16,4.91-.03,6.68-.69,6.33-1.09,6.15-7.54,5.95-11.86-.38-22.68,2.75-31.24,11.55-1.28,1.32-2.1,3.08-2.64,5.51,12.3-7.08,24.57-13.42,39.47-10.84.5,14.05,4.61,26.95,16.84,35.11,11.92,7.96,25.72,7.59,40.28,5.25-4.06,4.58-7.72,8.07-10.55,12.15-1.57,2.27-2.95,7.6-2.32,7.97,3.77,2.21,5.7-1.63,7.25-3.99,5.13-7.83,13.27-11.62,21.05-15.43,4.04-1.98,9.43-1.2,14.19-1.67.54,5.96-10.08,5.08-5.23,12.24,3.34-2.2,6.53-4.21,9.62-6.37,3.32-2.32,6.77-2.37,10.44-1.08,16.45,5.77,31.85,13.38,44.83,25.3,9.78,8.97,16.36,20.15,23.32,32.65-3.85-.89-6.51-1.51-9.18-2.12-15.48-3.53-30.96-7.04-46.43-10.6-16.29-3.75-32.77-2.52-49.04-.69-14.61,1.64-28.97,5.5-43.53,7.76-17.71,2.76-35.47,5.79-53.51,4.1-11.21-1.05-22.44-2.2-33.5-4.2-5.24-.95-10.56-3.32-15-6.3-4.06-2.73-7.98-2.47-11.67-1.25-12.65,4.18-25.71,4.27-38.77,5.25-12.87.96-25.69,2.9-38.49,4.66-11.81,1.63-23.65,3.25-35.34,5.54-11.89,2.33-24.05,4.33-35.34,8.51-20.51,7.6-41.22,15.29-60.41,25.61-15.74,8.47-31.82,17.48-44.11,31.29-.53.6-1.61.71-3.3,1.41,4.15-8.94,9.96-15.36,16.36-21.3,12.25-11.38,24.26-23.05,37.06-33.79,3.76-3.16,9.78-3.76,14.86-5.16,2.97-.82,6.15-.92,10.22-1.48-3.54-5.85-9.07-3.16-13.73-4.66,2.41-3.87,4.78-7,9.5-8.47,10.44-3.24,20.37-1.62,30.03,2.38,2.83,1.17,4.56.74,5.89-1.39,1.63-2.62-.21-3.86-2.33-5.44-5.47-4.09-11.93-3.5-18.05-4.5-2.19-.36-4.49-.06-6.88-.06,2.93-4.66,14.8-8.56,22.22-6.24,7.39,2.31,14.33,6.09,22.47,9.66-.64-1.78-.85-3.6-1.8-4.86-6.35-8.46-15.39-10.31-25.27-9.9-.76.03-1.53-.06-2.3-.09-.24-.42-.49-.84-.73-1.26,2.94-2.08,5.73-4.45,8.86-6.19,13.52-7.51,27.72-13.96,40.59-22.43,20.19-13.28,38.9-28.58,49.86-51,7.05-14.42,13.49-29.14,20-43.82.68-1.54,0-3.68-.04-5.55-1.85.67-4.35.81-5.41,2.12-2.89,3.59-5.54,7.48-7.63,11.59-9.01,17.75-17.68,35.63-30.77,50.97-9.94,11.65-21.04,21.7-34.91,28.34-16.9,8.09-32.11,18.74-46.82,30.22-8.69,6.78-17.83,11.95-29.52,12.79-14.18,1.02-28.17,4.52-42.34,5.78-15.53,1.39-31.18,1.34-46.77,2.16-4.25.22-8.58.92-12.65,2.14-7.41,2.22-15.2,4.03-21.86,7.75-12.71,7.1-24.74,15.44-37.06,23.24-1.37.87-2.83,1.59-5.15,1.55,3.15-4.2,5.96-8.72,9.51-12.55,15.88-17.12,33.82-32.06,52.73-45.54,14.14-10.08,29.87-17.95,45.13-26.37,2.12-1.17,6.11-.75,8.38.49,4.61,2.53,8.58,6.2,12.93,9.23,1.04.73,2.55.8,3.84,1.17-.19-1.31.1-3.03-.63-3.85-3.94-4.4-8.13-8.58-12.33-12.94,3.7-5.47,10.62-7.33,16.77-4.19,12.75,6.51,20.48,18,29.03,29.02,3.65-1.09,3.53-3.64,1.65-5.99-7.42-9.27-11.92-20.98-22.7-27.48-.5-.3-.81-.91-1.45-1.67,9.65-5.12,18.3-2.53,26.68,2.18,9.5,5.34,14.29,15.03,20.8,23.11.49.61,1,1.21,1.66,2.01,3.29-1.97,2.03-4.26.93-6.44-5.51-10.97-12.02-21.12-24.83-27.84,11.05-2.92,20.49-5.95,30.15-7.81,9.5-1.82,18.76-3.95,26.89-9.35,9.41-6.25,15.36-15.27,19.77-25.46,3.97-9.18,7.61-18.53,12.17-27.41,4.21-8.2,9.37-15.93,14.31-23.74.66-1.04,2.48-1.94,3.73-1.9,10.16.3,19.78,2.15,27.48,9.69,1.52,1.49,3.95,2.04,5.96,3.03l1.64-1c-.68-1.99-.85-4.45-2.14-5.9-7.25-8.11-16.97-11.29-27.34-12.99-.8-.13-1.59-.3-3.69-.71,3.05-4.91,5.69-9.34,8.57-13.6.36-.52,2.2-.54,3.05-.14,3.6,1.67,7.07,3.6,10.61,5.39,1.36.69,2.77,1.27,4.85,2.22-.06-10.58-9.13-11.2-14.67-15.69.27-1.12.43-2.42.88-3.6,7.3-18.96,2.39-31.89-9.67-45.95-10.33-12.04-24.09-19.78-36.38-29.35-9.04-7.03-18.94-12.99-27.75-20.29-6.33-5.24-11.79-11.62-17.08-17.96-4.95-5.94-9.15-12.49-13.93-19.12,2.6-1.87,5.75-4.14,8.71-6.27,3.59,3.73,6.57,7.54,10.24,10.48,7.92,6.34,15.64,13.29,24.48,18.07,12.02,6.5,24.89,11.54,37.64,16.58,6.88,2.72,12.58,6.29,16.9,12.4,2.09,2.95,4.49,8.4,9.14,4.69,4.74-3.78-.95-7.01-2.63-9.99-6.75-11.97-14-23.64-20.88-35.54-1.37-2.36-1.89-5.21-3.13-8.79,10.13,3.86,19.34,5.94,27.62-2.29,1.27,1.07,2.31,2.11,3.5,2.92,3.75,2.53,7.25,6.11,11.4,7.22,8.64,2.3,15.21,7.91,22.72,12.02,8.1,4.43,16.46,8.41,24.65,12.68,6.14,3.2,12.19,6.57,18.48,9.97Zm64.52,125.87c-1.06-4.88-3.07-6.21-6.81-4.48-1.8.83-3.49,1.92-5.14,3.02-11.73,7.84-21.09,6.62-29.7-4.34-2.71-3.45-4.33-1.91-6.78.04-2.76,2.2-2.85,4.25-.57,6.61,12.37,12.85,26.52,16.88,42.56,6.9,2.71-1.69,4.33-5.13,6.45-7.76Zm-49.05-40.14c.1-9.15-3.52-11.7-9.34-9.56-7.98,2.92-11.23,15.76-5.61,22.19,2.63,3.01,6.11,3.41,8.34.01,3.09-4.69,5.26-9.99,6.61-12.64Zm50.46,9.75c1.71,2.17,3.11,5.26,5.47,6.41,1.36.67,5.08-1.2,6.29-2.94,2.29-3.31,4.07-7.21,5.07-11.12,1.01-3.97-1.16-7.22-5.16-8.43-3.77-1.14-6.29.38-7.44,4.38-1.03,3.59-2.52,7.05-4.22,11.7Z"/><path class="cls-5" d="m578.53,361.23c-10.68-3.3-20.87-.7-30.95,4.34-10.53,5.26-15.95,14.12-18.68,25.12-22.94-6.73-43.05-3.38-59.45,15.4-2.5-3.48-5.03-7.26-7.82-10.84-8.47-10.85-19.02-17.15-33.3-14.15-8.4,1.76-17.18,2.92-24.93,6.32-14.95,6.55-26.57,16.9-30.23,35.31-3.09-2.85-5.44-4.79-7.53-6.99-10.36-10.9-11.41-23.02-4.4-36.04,2.05-3.8-.46-5.97-2.7-8.14-6.35-6.15-12.83-12.26-16.35-20.55-1.9-4.48-3.53-9.3-4.04-14.1-.95-8.86,5.74-14.02,11.26-19.32,2.67-2.56,6.3-4.51,9.84-5.69,4.67-1.57,5.7-4.42,5.11-8.75-1.23-8.96.23-17.26,6.39-24.28.86-.98,1.87-2.42,2.92-2.52,5.78-.53,5.16-4.57,5.59-8.66,1.41-13.26.41-27.04,6.54-39.41,6.27-12.66,14.68-22.98,29.86-25.85,6.96-1.31,12.89-.5,18.76,3.32,5.41,3.52,9.36,3.02,13.49-1.69,7.18-8.2,16.35-12.34,26.92-11.64,5.56.36,11.02,3.29,16.37,5.45,5.66,2.29,7.12,1.05,8.16-5.23,2.75-16.57,8.27-32.38,20.25-44.42,5.47-5.49,13.55-8.85,20.99-11.8,10.43-4.13,21.19-7.86,32.14-10.18,19.99-4.25,38.75,2.11,47.94,23.25,1.81,4.16,1.79,9.1,2.76,13.65,1.3,6.11,3.68,7.27,9.56,5.05,3.1-1.17,6.24-2.43,9.47-3.08,11.61-2.33,16.1,5.34,17.27,13.68.66,4.69-.3,9.59-.32,14.4,0,1.82.07,4.09,1.11,5.28.62.71,3.46.18,4.84-.6,9.11-5.13,18.04-4.26,27,.28,6.25,3.17,8.22,8.9,7.47,15.05-1.03,8.37-3.29,16.58-4.92,24.88-.29,1.5-.67,3.82.09,4.47.97.83,3.22.82,4.64.35,15.08-5,31.3,8,30.78,21.52-.35,9.08.21,18.34-1.54,27.14-.89,4.46-5.22,9.35-9.32,11.86-12.44,7.58-25.48,14.16-36.06,24.52-.99.97-4.37,1.1-5.36.2-14.23-12.8-31.49-15.09-48.64-10.77-17.85,4.5-34.88,12.32-44.15,30.31-2.29,4.45-4.5,8.95-6.81,13.55Z"/><path class="cls-6" d="m550.09,432.37c.15-13.08-4.5-23.48-11.23-33.28-1.1-1.6-1.26-4.92-.34-6.64,2.31-4.34,5.2-8.45,8.36-12.24,7.46-8.96,17.9-9.21,28.36-8.95,2.78.07,5.56.82,8.33.76,1.08-.02,2.65-1.2,3.1-2.24,1.3-3.03,2.2-6.24,3.15-9.41,4.86-16.3,17.13-25.83,31.92-31.09,10.28-3.66,21.94-6.97,32.97-2.88,7.91,2.94,15.1,7.96,22.36,12.46,4.41,2.73,6.77,2.15,10.88-.85,10.57-7.72,18.9-18.56,32.33-22.36,23.6-6.68,42.62,5.92,46.52,30.46,2.15,13.55-2.14,25.13-8.2,36.56-.62,1.17-1.72,2.25-1.89,3.47-.26,1.89-.6,4.43.39,5.63.83,1.01,3.65,1.05,5.33.58,7.77-2.17,15.38-4.95,23.2-6.97,7.69-1.98,12.54,1.95,12.25,9.77-.17,4.6-.83,9.26-1.97,13.71-1.39,5.42.38,8.98,5.92,9.68,2.62.33,5.32.1,7.98.08,8.85-.09,14.55,5.85,13.48,14.77-.69,5.75-2.2,11.4-3.49,17.06-.83,3.65.51,5.4,4.17,5.04,13.5-1.33,22.27,5.01,27.19,17.28,5.76,14.34-.74,24.99-8.33,35.86-6.15,8.8-14.48,12.21-25.01,11.38-5.3-.42-10.68-.46-15.98-.04-1.8.14-4.5,1.86-5.01,3.44-5.19,16.15-16.89,23.67-32.89,26.47-12.38,2.17-20.22-4.24-27.2-12.89-4.26-5.27-5.34-5.3-9.73.02-6.96,8.43-17.58,10.79-26.28,5.61-1.92-1.14-3.68-2.88-4.94-4.73-2.91-4.27-6.18-5.18-10.36-2.03-3.72,2.8-7.23,5.87-10.74,8.93-6.63,5.77-14.22,9.6-23.06,8.86-4.59-.38-9.38-2.19-13.42-4.51-5.87-3.37-11.55-7.35-16.56-11.9-3.83-3.48-6.6-8.18-9.67-12.45-3-4.16-1.86-8.6,1.39-11.46,6.97-6.13,7.91-14.28,7.79-22.32-.21-14.19-6.89-26.18-21.34-31.06-4.52-1.53-9.2-2.57-13.7-4.15-1.09-.38-1.97-1.88-2.59-3.05-3.13-6.01-5.86-12.25-9.29-18.08-2.98-5.07-10.96-6.76-18-4.48-1.86.6-3.69,1.3-6.16,2.19Z"/><path class="cls-7" d="m733.94,303c9.24-16.08,11.24-32.61,5.88-49.49-1.8-5.68-6.22-10.67-10-15.54-1.85-2.39-2.95-3.8-1.12-6.82,5.89-9.75,17.67-15.83,28.82-14.52,6.55.77,11.46,3.97,15.15,9.36,2.12,3.1,4.52,6.02,6.65,8.83,7.45-3.86,14.05-7.61,20.93-10.76,7.84-3.59,16.02-4.1,24.01-.31,9.83,4.66,13.91,11.66,12.93,22.86-.62,7.1-1.75,14.19-3.11,21.19-.97,4.98,1.54,6.7,5.62,7.49,7.59,1.47,10.9,7.44,8.01,14.98-2.48,6.49-5.08,12.96-7.94,19.29-1.67,3.71-.81,4.73,3.15,5.54,4.91,1,9.96,2.58,14.24,5.12,4.42,2.62,5.07,7.78,3.82,12.49-1.79,6.71-4.41,13.19-6.26,19.88-.53,1.91-.24,4.55.73,6.27,3.24,5.76,5.6,11.52,5.22,18.39-.12,2.26,1.41,5.26,3.18,6.72,1.03.85,4.44-.12,6.08-1.26,8.77-6.13,18.9-8.79,28.91-11.57,12.11-3.37,19.87,3.24,25.34,13.93,2.22,4.34,2.5,9.83,2.99,14.86.43,4.39,2.59,5.9,6.66,4.83,3.56-.94,7.55-1.23,11.16-.65,1.81.29,4.52,3.12,4.56,4.84.09,4.86-.23,10-1.8,14.55-2.41,7.02-1.46,9.04,5.7,9.59,2.15.16,5.1,1.61,5.99,3.34.86,1.67.21,4.9-.96,6.67-1.84,2.8-4.76,4.89-7.06,7.42-2.04,2.25-5.31,4.6-5.46,7.07-.24,3.84,3.26,6.13,7.1,7.28,2.96.88,6.05,1.73,8.67,3.3,9.7,5.82,10.31,15.38,7.97,24.65-3.21,12.7-11,22.88-21.35,30.97-2.62,2.05-5.3,4.02-7.88,6.13-5.14,4.21-10.75,4.61-16.91,2.61-2.89-.94-6.09-.93-9.01-1.81-4.01-1.21-4.94.75-5.38,4.14-.8,6.07-2.7,11.65-7.84,15.63-4.78,3.71-9.5,3.58-13.74-.79-2.42-2.5-4.59-5.24-6.79-7.94-3.84-4.72-6.56-4.32-10.52.11-5.39,6.04-11.08,11.95-17.37,17.01-6.79,5.46-16.54,2.42-20.62-5.34-3.66-6.96-5.59-14.23-4.75-22.08.13-1.26.87-3.1,1.84-3.54,16.01-7.22,28.2-18.19,35.24-34.59,2.57-5.98,1.9-12.11-.13-17.57-2.5-6.74-6.03-13.36-10.36-19.08-4.65-6.16-4.19-7.71-21.04-12.07,4.14-8.79,4.19-17.91-.48-26.21-5-8.89-14.07-10.81-23.92-10.47,1.72-11.26,3.53-22.25-6.84-29.91-9.96-7.36-20.1-4.58-31.24,1.22,7.78-16.64,9.82-32.23,3.16-49.1-7.25-18.35-22.21-23.58-39.82-27.12Z"/><path class="cls-3" d="m558.7,524.34c-.45,10.52-7.36,14.85-14.55,18.93-11.21,6.36-23.51,7.59-36.08,7.72-6.17.06-9.42-3.92-12.76-8.24-5.19-6.72-5.32-6.62-11.07-.59-7.53,7.9-15.59,6.13-21.72-4.8-.65-1.16-.87-2.63-1.72-3.57-1.1-1.23-2.63-2.09-3.97-3.11-.91,1.37-2.33,2.64-2.64,4.14-1.15,5.58-3.89,10.28-9.05,12.37-10.31,4.19-20.63,7.95-32.31,3.88-8.14-2.84-12.55-8.87-17-15.3-.66-.95-1.05-2.08-1.62-3.09-1.8-3.2-3.43-3.37-5.94-.33-3.91,4.73-8.04,9.54-15.03,9.49-10.02-.07-19.97-.64-28.45-6.97-3.14-2.34-4.67-5.42-4.21-9.54.25-2.27-.17-4.64-.5-6.94-.57-4.06-2.62-6.11-7.11-5.65-6.94.71-13.27.07-18.29-6.2-5.56-6.94-6.06-14.64-4.9-22.6,1.54-10.56,9.25-16.01,22.34-18.62,5.61-1.12,11.53-.91,17.31-.92,4.08-.01,5.27-1.09,3.61-4.86-2.85-6.48-2.62-12.66,1.28-18.52,4.38-6.57,13.33-11.79,20.14-3.78,3.4,4,5.14,3.37,6.61-1.75,1.14-3.97,1.28-8.25,2.64-12.12,1.27-3.6,3.05-7.3,5.53-10.14,4.36-4.97,8.95-10.01,14.31-13.78,12.12-8.54,26.2-7.74,39.93-5.95,3.3.43,6.56,4.23,9.05,7.16,5.47,6.41,10.49,13.22,15.61,19.93,2.39,3.14,3.91,2.98,5.56-.69,7.78-17.29,22.56-22.81,40.07-23.09,8.97-.14,15.8,4.05,18.71,12.8,2.81,8.47,4.95,17.16,7.24,25.8.32,1.19-.19,2.6-.35,3.91-.62,5.32,1.55,7.2,6.69,5.5,4.25-1.4,8.37-3.21,12.59-4.72,4.03-1.44,7.43-.2,9.42,3.42,2.52,4.59,4.76,9.37,6.68,14.25,1.34,3.4,2.12,6.23,6.97,6,12.14-.57,23.06,7.53,27.08,19.36,3.55,10.48-.45,22.24-10.42,29.32-5.95,4.22-12.25,7.95-18.44,11.82-5.13,3.21-10.47,3.9-16.12,1.24-1.39-.66-3.08-.7-5.13-1.13Z"/><path class="cls-7" d="m359.91,422.91c-13.73,5.37-17.1,17.38-20.08,30.34-13.07-1.69-24.27,4.08-32.47,13.65-4.86,5.67-8.28,14.21-8.73,21.67-1.06,17.53,5.83,30.45,31.5,35.81-.7,13.94,8.25,20.68,19.76,27.06-3.54,1.24-7,2.89-10.64,3.63-4.14.83-5.9,2.34-5.53,6.97,1.23,15.13-8.06,24.29-19.42,31.7-12.66,8.26-27.07,9.76-41.72,8.81-3.42-.22-6.93-2.15-10-3.97-5.16-3.07-7.19-2.93-10.9,1.9-5.82,7.57-12.55,10.65-19.71,6.76-4.38-2.38-7.9-7.43-10.33-12.05-4.03-7.65-4.82-7.8-13.2-6.09-5.93,1.21-12.42.4-18.55-.36-4.27-.52-4.33-4.62-3.96-7.97,1.2-10.71,5.36-20.17,12.55-28.26,3.47-3.9,3.35-4.49-1.33-6.52-3.15-1.37-6.43-2.45-9.48-4-9.16-4.65-11.59-15.51-4.28-22.73,6.57-6.49,14.15-12.02,21.67-17.45,3.38-2.44,3.76-4.32,1.07-7.11-1.03-1.07-2.18-2.1-3.45-2.87-15.01-9.16-18.81-22.82-11.58-39.14,3.47-7.83,9.16-12.32,16.45-16.32,11.99-6.58,24.72-9.55,38.08-10.57,5.12-.39,4.39-3.97,4.58-7.22.24-4.03-.52-8.46.91-12.01,4.12-10.24,12.02-14.11,22.98-12.36,3.52.56,5.76-1.4,5.47-5.06-.13-1.62-.72-3.22-1.22-4.8-2.94-9.34.83-19.26,9.1-24.67,6.53-4.27,12.76-9.58,20.96-9.42,5.78.11,11.6,1.57,17.25,3.05,1.69.44,3.6,2.78,4.09,4.61,2.38,8.72,9.04,12.84,16.54,16.02,3.37,1.43,4.74,3.12,3.37,6.81-6.02,16.2-.72,29.69,10.26,42.16Z"/><path class="cls-1" d="m600.82,525.23c8.51,19.05,24.59,29.63,41.19,39.45-10.32,5.67-20.14,11.63-30.46,16.55-6.98,3.32-14.51,6.12-22.09,7.34-4.71.75-10.06-1.56-14.94-3.08-14.61-4.53-28.77-10.17-41.87-18.2-2.01-1.23-3.93-2.61-6.09-4.06,5.77-1.92,10.87-3.6,15.96-5.31,9.79-3.29,16.51-10.24,21.93-18.65,1.65-2.56,3.59-3.38,6.78-3.86,6.07-.91,12-3.08,17.86-5.08,3.89-1.33,7.57-3.27,11.73-5.1Z"/><path class="cls-1" d="m816.51,529.02c.51,6.02,1.14,10.78,1.17,15.55,0,1.3-1.51,3.16-2.8,3.8-3.41,1.68-7.1,2.8-10.65,4.2-18.31,7.2-36.67,14.28-54.88,21.72-7.45,3.04-14.56,6.91-21.85,10.33-1.14.54-2.48.67-4.14.25,1.78-1.35,3.59-2.67,5.33-4.07,7.23-5.79,14.38-11.69,21.71-17.34,1.25-.97,3.23-1.14,4.92-1.37,8.14-1.1,16.92-.56,24.25-3.58,6.54-2.69,11.78-8.97,17-14.25,3.65-3.69,5.75-8.97,9.57-12.41,2.27-2.04,6.51-1.88,10.37-2.84Z"/><path class="cls-1" d="m464.29,582.97c-13.21-8.07-29.71-9.32-41.08-20.09,7.91-2.31,15.5-4.75,23.24-6.59,1.43-.34,4.2,1.3,5.05,2.78,4.5,7.84,8.58,15.91,12.8,23.9Z"/><path d="m633.54,722.02c-2.12,2.63-3.74,6.07-6.45,7.76-16.04,9.98-30.19,5.95-42.56-6.9-2.28-2.37-2.19-4.41.57-6.61,2.45-1.95,4.07-3.49,6.78-.04,8.61,10.96,17.98,12.18,29.7,4.34,1.65-1.1,3.35-2.19,5.14-3.02,3.74-1.73,5.75-.4,6.81,4.48Z"/><path d="m584.49,681.88c-1.35,2.65-3.52,7.95-6.61,12.64-2.23,3.39-5.71,3-8.34-.01-5.61-6.43-2.37-19.27,5.61-22.19,5.82-2.13,9.44.41,9.34,9.56Z"/><path d="m634.95,691.63c1.7-4.65,3.19-8.11,4.22-11.7,1.15-4,3.67-5.52,7.44-4.38,4,1.22,6.16,4.47,5.16,8.43-.99,3.91-2.78,7.81-5.07,11.12-1.2,1.74-4.92,3.61-6.29,2.94-2.35-1.16-3.76-4.25-5.47-6.41Z"/><path class="cls-1" d="m330.51,524.07c-21.66-4.52-29.95-14.42-31.37-27.94,1.43,13.52,9.72,23.42,31.38,27.93-.62,12.2,6.16,18.89,15.57,24.64-9.41-5.75-16.19-12.44-15.58-24.64Z"/></svg>